G04 #@! TF.GenerationSoftware,KiCad,Pcbnew,(6.0.7)*
G04 #@! TF.CreationDate,2022-11-24T18:50:25+03:00*
G04 #@! TF.ProjectId,USB_HUB_ADAPTER,5553425f-4855-4425-9f41-444150544552,rev?*
G04 #@! TF.SameCoordinates,Original*
G04 #@! TF.FileFunction,Paste,Bot*
G04 #@! TF.FilePolarity,Positive*
%FSLAX46Y46*%
G04 Gerber Fmt 4.6, Leading zero omitted, Abs format (unit mm)*
G04 Created by KiCad (PCBNEW (6.0.7)) date 2022-11-24 18:50:25*
%MOMM*%
%LPD*%
G01*
G04 APERTURE LIST*
G04 Aperture macros list*
%AMRoundRect*
0 Rectangle with rounded corners*
0 $1 Rounding radius*
0 $2 $3 $4 $5 $6 $7 $8 $9 X,Y pos of 4 corners*
0 Add a 4 corners polygon primitive as box body*
4,1,4,$2,$3,$4,$5,$6,$7,$8,$9,$2,$3,0*
0 Add four circle primitives for the rounded corners*
1,1,$1+$1,$2,$3*
1,1,$1+$1,$4,$5*
1,1,$1+$1,$6,$7*
1,1,$1+$1,$8,$9*
0 Add four rect primitives between the rounded corners*
20,1,$1+$1,$2,$3,$4,$5,0*
20,1,$1+$1,$4,$5,$6,$7,0*
20,1,$1+$1,$6,$7,$8,$9,0*
20,1,$1+$1,$8,$9,$2,$3,0*%
G04 Aperture macros list end*
%ADD10C,0.010000*%
%ADD11RoundRect,0.225000X0.250000X-0.225000X0.250000X0.225000X-0.250000X0.225000X-0.250000X-0.225000X0*%
%ADD12RoundRect,0.250000X-0.312500X-0.625000X0.312500X-0.625000X0.312500X0.625000X-0.312500X0.625000X0*%
%ADD13RoundRect,0.140000X-0.170000X0.140000X-0.170000X-0.140000X0.170000X-0.140000X0.170000X0.140000X0*%
%ADD14RoundRect,0.200000X-0.275000X0.200000X-0.275000X-0.200000X0.275000X-0.200000X0.275000X0.200000X0*%
%ADD15RoundRect,0.225000X-0.225000X-0.250000X0.225000X-0.250000X0.225000X0.250000X-0.225000X0.250000X0*%
%ADD16RoundRect,0.147500X-0.147500X-0.172500X0.147500X-0.172500X0.147500X0.172500X-0.147500X0.172500X0*%
%ADD17RoundRect,0.225000X-0.250000X0.225000X-0.250000X-0.225000X0.250000X-0.225000X0.250000X0.225000X0*%
%ADD18RoundRect,0.200000X0.200000X0.275000X-0.200000X0.275000X-0.200000X-0.275000X0.200000X-0.275000X0*%
%ADD19RoundRect,0.140000X-0.140000X-0.170000X0.140000X-0.170000X0.140000X0.170000X-0.140000X0.170000X0*%
%ADD20RoundRect,0.250000X-0.295000X-0.295000X0.295000X-0.295000X0.295000X0.295000X-0.295000X0.295000X0*%
%ADD21RoundRect,0.062500X-0.350000X-0.062500X0.350000X-0.062500X0.350000X0.062500X-0.350000X0.062500X0*%
%ADD22RoundRect,0.062500X-0.062500X-0.350000X0.062500X-0.350000X0.062500X0.350000X-0.062500X0.350000X0*%
%ADD23RoundRect,0.135000X-0.135000X-0.185000X0.135000X-0.185000X0.135000X0.185000X-0.135000X0.185000X0*%
%ADD24RoundRect,0.140000X0.170000X-0.140000X0.170000X0.140000X-0.170000X0.140000X-0.170000X-0.140000X0*%
%ADD25RoundRect,0.200000X-0.200000X-0.275000X0.200000X-0.275000X0.200000X0.275000X-0.200000X0.275000X0*%
%ADD26R,4.860000X3.360000*%
%ADD27R,1.400000X1.390000*%
%ADD28RoundRect,0.135000X0.185000X-0.135000X0.185000X0.135000X-0.185000X0.135000X-0.185000X-0.135000X0*%
%ADD29RoundRect,0.150000X0.587500X0.150000X-0.587500X0.150000X-0.587500X-0.150000X0.587500X-0.150000X0*%
%ADD30R,2.500000X1.800000*%
%ADD31RoundRect,0.225000X0.225000X0.250000X-0.225000X0.250000X-0.225000X-0.250000X0.225000X-0.250000X0*%
%ADD32R,0.200000X0.200000*%
%ADD33R,1.800000X0.800000*%
%ADD34RoundRect,0.250000X-0.475000X0.250000X-0.475000X-0.250000X0.475000X-0.250000X0.475000X0.250000X0*%
%ADD35RoundRect,0.250000X0.250000X0.475000X-0.250000X0.475000X-0.250000X-0.475000X0.250000X-0.475000X0*%
%ADD36R,1.600000X3.000000*%
%ADD37R,6.000000X6.900000*%
%ADD38R,2.300000X2.500000*%
%ADD39R,0.750000X0.400000*%
%ADD40RoundRect,0.250000X0.475000X-0.250000X0.475000X0.250000X-0.475000X0.250000X-0.475000X-0.250000X0*%
%ADD41RoundRect,0.135000X0.135000X0.185000X-0.135000X0.185000X-0.135000X-0.185000X0.135000X-0.185000X0*%
%ADD42R,0.250000X0.600000*%
%ADD43R,0.200000X1.000000*%
%ADD44RoundRect,0.150000X0.150000X-0.512500X0.150000X0.512500X-0.150000X0.512500X-0.150000X-0.512500X0*%
%ADD45R,2.500000X2.300000*%
%ADD46RoundRect,0.140000X0.140000X0.170000X-0.140000X0.170000X-0.140000X-0.170000X0.140000X-0.170000X0*%
%ADD47RoundRect,0.250000X0.295000X0.295000X-0.295000X0.295000X-0.295000X-0.295000X0.295000X-0.295000X0*%
%ADD48RoundRect,0.062500X0.350000X0.062500X-0.350000X0.062500X-0.350000X-0.062500X0.350000X-0.062500X0*%
%ADD49RoundRect,0.062500X0.062500X0.350000X-0.062500X0.350000X-0.062500X-0.350000X0.062500X-0.350000X0*%
%ADD50RoundRect,0.150000X0.825000X0.150000X-0.825000X0.150000X-0.825000X-0.150000X0.825000X-0.150000X0*%
%ADD51R,0.350000X0.400000*%
%ADD52R,2.200000X0.800000*%
%ADD53RoundRect,0.150000X0.512500X0.150000X-0.512500X0.150000X-0.512500X-0.150000X0.512500X-0.150000X0*%
%ADD54RoundRect,0.200000X0.275000X-0.200000X0.275000X0.200000X-0.275000X0.200000X-0.275000X-0.200000X0*%
%ADD55R,2.000000X2.500000*%
%ADD56RoundRect,0.150000X-0.587500X-0.150000X0.587500X-0.150000X0.587500X0.150000X-0.587500X0.150000X0*%
%ADD57RoundRect,0.218750X-0.218750X-0.256250X0.218750X-0.256250X0.218750X0.256250X-0.218750X0.256250X0*%
%ADD58RoundRect,0.150000X-0.150000X0.587500X-0.150000X-0.587500X0.150000X-0.587500X0.150000X0.587500X0*%
%ADD59RoundRect,0.135000X-0.185000X0.135000X-0.185000X-0.135000X0.185000X-0.135000X0.185000X0.135000X0*%
%ADD60R,0.450000X1.450000*%
%ADD61R,1.500000X2.000000*%
%ADD62R,3.800000X2.000000*%
%ADD63R,4.100000X4.100000*%
%ADD64RoundRect,0.250000X-0.250000X-0.475000X0.250000X-0.475000X0.250000X0.475000X-0.250000X0.475000X0*%
%ADD65R,1.800000X2.500000*%
%ADD66RoundRect,0.250000X0.412500X0.925000X-0.412500X0.925000X-0.412500X-0.925000X0.412500X-0.925000X0*%
%ADD67R,0.200000X0.800000*%
%ADD68R,0.800000X0.200000*%
%ADD69R,2.800000X4.800000*%
%ADD70RoundRect,0.218750X-0.256250X0.218750X-0.256250X-0.218750X0.256250X-0.218750X0.256250X0.218750X0*%
%ADD71R,1.100000X0.400000*%
%ADD72R,0.610000X1.270000*%
%ADD73R,0.610000X1.020000*%
%ADD74R,1.650000X3.810000*%
%ADD75RoundRect,0.250000X-0.625000X0.312500X-0.625000X-0.312500X0.625000X-0.312500X0.625000X0.312500X0*%
G04 APERTURE END LIST*
G36*
X182387500Y-75840000D02*
G01*
X180867500Y-75840000D01*
X180867500Y-74290000D01*
X182387500Y-74290000D01*
X182387500Y-75840000D01*
G37*
D10*
X182387500Y-75840000D02*
X180867500Y-75840000D01*
X180867500Y-74290000D01*
X182387500Y-74290000D01*
X182387500Y-75840000D01*
G36*
X182527500Y-76820000D02*
G01*
X182127500Y-76820000D01*
X182127500Y-76295000D01*
X182527500Y-76295000D01*
X182527500Y-76820000D01*
G37*
X182527500Y-76820000D02*
X182127500Y-76820000D01*
X182127500Y-76295000D01*
X182527500Y-76295000D01*
X182527500Y-76820000D01*
G36*
X182527500Y-73835000D02*
G01*
X182127500Y-73835000D01*
X182127500Y-73310000D01*
X182527500Y-73310000D01*
X182527500Y-73835000D01*
G37*
X182527500Y-73835000D02*
X182127500Y-73835000D01*
X182127500Y-73310000D01*
X182527500Y-73310000D01*
X182527500Y-73835000D01*
D11*
X190700000Y-121725000D03*
X190700000Y-120175000D03*
D12*
X111947500Y-71640000D03*
X114872500Y-71640000D03*
D13*
X178410000Y-91800000D03*
X178410000Y-92760000D03*
D14*
X123500000Y-94225000D03*
X123500000Y-95875000D03*
D13*
X151450000Y-81717500D03*
X151450000Y-82677500D03*
D14*
X119985000Y-88735000D03*
X119985000Y-90385000D03*
D13*
X140622500Y-81140000D03*
X140622500Y-82100000D03*
D15*
X120135000Y-79960000D03*
X121685000Y-79960000D03*
D16*
X127865000Y-106225000D03*
X128835000Y-106225000D03*
D17*
X137240000Y-88435000D03*
X137240000Y-89985000D03*
D18*
X160105000Y-86210000D03*
X158455000Y-86210000D03*
D19*
X171487500Y-115080000D03*
X172447500Y-115080000D03*
D20*
X139257500Y-76885000D03*
X140607500Y-76885000D03*
X140607500Y-78235000D03*
X139257500Y-78235000D03*
D21*
X137970000Y-78810000D03*
X137970000Y-78310000D03*
X137970000Y-77810000D03*
X137970000Y-77310000D03*
X137970000Y-76810000D03*
X137970000Y-76310000D03*
D22*
X138682500Y-75597500D03*
X139182500Y-75597500D03*
X139682500Y-75597500D03*
X140182500Y-75597500D03*
X140682500Y-75597500D03*
X141182500Y-75597500D03*
D21*
X141895000Y-76310000D03*
X141895000Y-76810000D03*
X141895000Y-77310000D03*
X141895000Y-77810000D03*
X141895000Y-78310000D03*
X141895000Y-78810000D03*
D22*
X141182500Y-79522500D03*
X140682500Y-79522500D03*
X140182500Y-79522500D03*
X139682500Y-79522500D03*
X139182500Y-79522500D03*
X138682500Y-79522500D03*
D23*
X187970000Y-99560000D03*
X188990000Y-99560000D03*
D24*
X112610000Y-102530000D03*
X112610000Y-101570000D03*
D25*
X128975000Y-74300000D03*
X130625000Y-74300000D03*
D14*
X123550000Y-97475000D03*
X123550000Y-99125000D03*
D13*
X181640000Y-91810000D03*
X181640000Y-92770000D03*
X193530000Y-96900000D03*
X193530000Y-97860000D03*
D25*
X139780000Y-87105000D03*
X141430000Y-87105000D03*
D26*
X173250000Y-75030000D03*
D27*
X177232000Y-75950000D03*
X177232000Y-74110000D03*
D13*
X133700000Y-106570000D03*
X133700000Y-107530000D03*
D28*
X111580000Y-102550000D03*
X111580000Y-101530000D03*
D18*
X148055000Y-91930000D03*
X146405000Y-91930000D03*
D17*
X132000000Y-95525000D03*
X132000000Y-97075000D03*
D13*
X183140000Y-78030000D03*
X183140000Y-78990000D03*
D29*
X147717500Y-88330000D03*
X147717500Y-90230000D03*
X145842500Y-89280000D03*
D16*
X187945000Y-100610000D03*
X188915000Y-100610000D03*
D30*
X162610000Y-94740000D03*
X166610000Y-94740000D03*
D31*
X145275000Y-115000000D03*
X143725000Y-115000000D03*
D32*
X173800000Y-107480000D03*
X174140000Y-107780000D03*
X173460000Y-107780000D03*
D33*
X209822875Y-103500000D03*
D17*
X130400000Y-95575000D03*
X130400000Y-97125000D03*
D34*
X209925000Y-107950000D03*
X209925000Y-109850000D03*
D35*
X107472500Y-99800000D03*
X105572500Y-99800000D03*
D36*
X107500000Y-74830000D03*
D37*
X109785000Y-81860000D03*
D36*
X112070000Y-74830000D03*
D38*
X116235000Y-78785000D03*
X116235000Y-74485000D03*
D35*
X158950000Y-96400000D03*
X157050000Y-96400000D03*
D13*
X119400000Y-101370000D03*
X119400000Y-102330000D03*
D39*
X183852500Y-74090000D03*
X183852500Y-74740000D03*
X183852500Y-75390000D03*
X183852500Y-76040000D03*
D40*
X101520000Y-84680000D03*
X101520000Y-82780000D03*
D13*
X205110000Y-97980000D03*
X205110000Y-98940000D03*
D18*
X152785000Y-90510000D03*
X151135000Y-90510000D03*
D13*
X145255000Y-85625000D03*
X145255000Y-86585000D03*
X174040000Y-103270000D03*
X174040000Y-104230000D03*
D41*
X147940000Y-95180000D03*
X146920000Y-95180000D03*
D42*
X120350000Y-98100000D03*
X120850000Y-98100000D03*
X121350000Y-98100000D03*
D43*
X121350000Y-99200000D03*
X120850000Y-99200000D03*
X120350000Y-99200000D03*
D44*
X136150000Y-94137500D03*
X135200000Y-94137500D03*
X134250000Y-94137500D03*
X134250000Y-91862500D03*
X135200000Y-91862500D03*
X136150000Y-91862500D03*
D30*
X162610000Y-87190000D03*
X166610000Y-87190000D03*
D28*
X117340000Y-102580000D03*
X117340000Y-101560000D03*
X125790000Y-119840000D03*
X125790000Y-118820000D03*
D45*
X191015000Y-81615000D03*
X186715000Y-81615000D03*
D46*
X170655000Y-102150000D03*
X169695000Y-102150000D03*
D28*
X135900000Y-90210000D03*
X135900000Y-89190000D03*
D13*
X180620000Y-91810000D03*
X180620000Y-92770000D03*
D25*
X151185000Y-87260000D03*
X152835000Y-87260000D03*
D23*
X143160000Y-76510000D03*
X144180000Y-76510000D03*
D13*
X177380000Y-91800000D03*
X177380000Y-92760000D03*
D47*
X182740000Y-83165000D03*
X181390000Y-81815000D03*
X181390000Y-83165000D03*
X182740000Y-81815000D03*
D48*
X184027500Y-81240000D03*
X184027500Y-81740000D03*
X184027500Y-82240000D03*
X184027500Y-82740000D03*
X184027500Y-83240000D03*
X184027500Y-83740000D03*
D49*
X183315000Y-84452500D03*
X182815000Y-84452500D03*
X182315000Y-84452500D03*
X181815000Y-84452500D03*
X181315000Y-84452500D03*
X180815000Y-84452500D03*
D48*
X180102500Y-83740000D03*
X180102500Y-83240000D03*
X180102500Y-82740000D03*
X180102500Y-82240000D03*
X180102500Y-81740000D03*
X180102500Y-81240000D03*
D49*
X180815000Y-80527500D03*
X181315000Y-80527500D03*
X181815000Y-80527500D03*
X182315000Y-80527500D03*
X182815000Y-80527500D03*
X183315000Y-80527500D03*
D19*
X131170000Y-101650000D03*
X132130000Y-101650000D03*
D24*
X192180000Y-93900000D03*
X192180000Y-92940000D03*
D32*
X197720000Y-74725000D03*
X197380000Y-74425000D03*
X198060000Y-74425000D03*
D50*
X173675000Y-78315000D03*
X173675000Y-79585000D03*
X173675000Y-80855000D03*
X173675000Y-82125000D03*
X168725000Y-82125000D03*
X168725000Y-80855000D03*
X168725000Y-79585000D03*
X168725000Y-78315000D03*
D14*
X145100000Y-73585000D03*
X145100000Y-75235000D03*
D28*
X109340000Y-102550000D03*
X109340000Y-101530000D03*
D32*
X143140000Y-107467830D03*
X143480000Y-107767830D03*
X142800000Y-107767830D03*
D51*
X179250000Y-78400000D03*
X179250000Y-76700000D03*
D52*
X121295000Y-101490000D03*
X121295000Y-103390000D03*
D25*
X185940000Y-78415000D03*
X187590000Y-78415000D03*
D14*
X113310000Y-88735000D03*
X113310000Y-90385000D03*
D29*
X147380000Y-96630000D03*
X147380000Y-98530000D03*
X145505000Y-97580000D03*
D53*
X172025000Y-116500000D03*
X172025000Y-117450000D03*
X172025000Y-118400000D03*
X169750000Y-118400000D03*
X169750000Y-116500000D03*
D28*
X133600000Y-90210000D03*
X133600000Y-89190000D03*
X204060000Y-101280000D03*
X204060000Y-100260000D03*
D25*
X146405000Y-93680000D03*
X148055000Y-93680000D03*
D17*
X126400000Y-95375000D03*
X126400000Y-96925000D03*
D13*
X139182500Y-81030000D03*
X139182500Y-81990000D03*
D14*
X120850000Y-94275000D03*
X120850000Y-95925000D03*
D41*
X136682500Y-75170000D03*
X135662500Y-75170000D03*
D23*
X139395000Y-99605000D03*
X140415000Y-99605000D03*
D18*
X188555000Y-96600000D03*
X186905000Y-96600000D03*
D19*
X177700000Y-82780000D03*
X178660000Y-82780000D03*
D12*
X104520000Y-102010000D03*
X107445000Y-102010000D03*
D28*
X115050000Y-102570000D03*
X115050000Y-101550000D03*
X205285000Y-101280000D03*
X205285000Y-100260000D03*
D11*
X114910000Y-90335000D03*
X114910000Y-88785000D03*
D33*
X209822875Y-102000000D03*
D54*
X116510000Y-90385000D03*
X116510000Y-88735000D03*
D33*
X209822875Y-97500000D03*
D35*
X158950000Y-94025000D03*
X157050000Y-94025000D03*
D55*
X131700000Y-91500000D03*
X126700000Y-91500000D03*
D17*
X128150000Y-95350000D03*
X128150000Y-96900000D03*
D32*
X195650000Y-80000000D03*
X195310000Y-79700000D03*
X195990000Y-79700000D03*
D33*
X209822875Y-99000000D03*
D16*
X126660000Y-100900000D03*
X127630000Y-100900000D03*
D56*
X140117500Y-90755000D03*
X140117500Y-88855000D03*
X141992500Y-89805000D03*
D57*
X188212500Y-98200000D03*
X189787500Y-98200000D03*
D19*
X152080000Y-85960000D03*
X153040000Y-85960000D03*
D46*
X128830000Y-107325000D03*
X127870000Y-107325000D03*
D14*
X146500000Y-81222500D03*
X146500000Y-82872500D03*
D13*
X199790000Y-99540000D03*
X199790000Y-100500000D03*
D46*
X159240000Y-87540000D03*
X158280000Y-87540000D03*
D25*
X139680000Y-94355000D03*
X141330000Y-94355000D03*
D28*
X104100000Y-114010000D03*
X104100000Y-112990000D03*
D58*
X148200000Y-81590000D03*
X150100000Y-81590000D03*
X149150000Y-83465000D03*
D25*
X151135000Y-92070000D03*
X152785000Y-92070000D03*
D31*
X126450000Y-87050000D03*
X124900000Y-87050000D03*
D46*
X159250000Y-92350000D03*
X158290000Y-92350000D03*
D15*
X144675000Y-120150000D03*
X146225000Y-120150000D03*
D32*
X167560000Y-107470000D03*
X167900000Y-107770000D03*
X167220000Y-107770000D03*
X146480000Y-112470000D03*
X146820000Y-112770000D03*
X146140000Y-112770000D03*
D15*
X134525000Y-96250000D03*
X136075000Y-96250000D03*
D46*
X194470000Y-100360000D03*
X193510000Y-100360000D03*
D59*
X134750000Y-89190000D03*
X134750000Y-90210000D03*
D32*
X196405000Y-108710000D03*
X196745000Y-109010000D03*
X196065000Y-109010000D03*
D40*
X99370000Y-84670000D03*
X99370000Y-82770000D03*
D31*
X170042500Y-114930000D03*
X168492500Y-114930000D03*
D24*
X116240000Y-102540000D03*
X116240000Y-101580000D03*
D30*
X162610000Y-90890000D03*
X166610000Y-90890000D03*
D59*
X125520000Y-99120000D03*
X125520000Y-100140000D03*
D51*
X167930000Y-73910000D03*
X167930000Y-75610000D03*
D54*
X149330000Y-98505000D03*
X149330000Y-96855000D03*
D32*
X199405000Y-108710000D03*
X199745000Y-109010000D03*
X199065000Y-109010000D03*
D60*
X118185000Y-86160000D03*
X117535000Y-86160000D03*
X116885000Y-86160000D03*
X116235000Y-86160000D03*
X116235000Y-81760000D03*
X116885000Y-81760000D03*
X117535000Y-81760000D03*
X118185000Y-81760000D03*
D61*
X197450000Y-121200000D03*
X195150000Y-121200000D03*
D62*
X195150000Y-114900000D03*
D61*
X192850000Y-121200000D03*
D33*
X209822875Y-105000000D03*
D13*
X181490000Y-77960000D03*
X181490000Y-78920000D03*
D46*
X191040000Y-96840000D03*
X190080000Y-96840000D03*
D53*
X147137500Y-116650000D03*
X147137500Y-117600000D03*
X147137500Y-118550000D03*
X144862500Y-118550000D03*
X144862500Y-116650000D03*
D14*
X177450000Y-78085000D03*
X177450000Y-79735000D03*
D11*
X119510000Y-78335000D03*
X119510000Y-76785000D03*
D63*
X109997500Y-91547500D03*
X100497500Y-91547500D03*
D14*
X143955000Y-85880000D03*
X143955000Y-87530000D03*
D13*
X191070000Y-99730000D03*
X191070000Y-100690000D03*
D40*
X121410000Y-78210000D03*
X121410000Y-76310000D03*
D14*
X173887500Y-118425000D03*
X173887500Y-120075000D03*
D13*
X133700000Y-98370000D03*
X133700000Y-99330000D03*
D32*
X197905000Y-108710000D03*
X198245000Y-109010000D03*
X197565000Y-109010000D03*
D46*
X186280000Y-72200000D03*
X185320000Y-72200000D03*
D33*
X209822875Y-96000000D03*
X209822875Y-91500000D03*
D24*
X191080000Y-93880000D03*
X191080000Y-92920000D03*
D17*
X118310000Y-88785000D03*
X118310000Y-90335000D03*
D64*
X120160000Y-81860000D03*
X122060000Y-81860000D03*
D41*
X136682500Y-76270000D03*
X135662500Y-76270000D03*
D63*
X164712500Y-79312500D03*
X155212500Y-79312500D03*
D24*
X178830000Y-100260000D03*
X178830000Y-99300000D03*
D41*
X148290000Y-86930000D03*
X147270000Y-86930000D03*
D65*
X125500000Y-80800000D03*
X125500000Y-76800000D03*
D66*
X155937500Y-71750000D03*
X152862500Y-71750000D03*
D13*
X118500000Y-98120000D03*
X118500000Y-99080000D03*
D25*
X151185000Y-88860000D03*
X152835000Y-88860000D03*
D14*
X211900000Y-107875000D03*
X211900000Y-109525000D03*
D67*
X200500000Y-92300000D03*
X200900000Y-92300000D03*
X201300000Y-92300000D03*
X201700000Y-92300000D03*
X202100000Y-92300000D03*
X202500000Y-92300000D03*
X202900000Y-92300000D03*
X203300000Y-92300000D03*
D68*
X203900000Y-93100000D03*
X203900000Y-93500000D03*
X203900000Y-93900000D03*
X203900000Y-94300000D03*
X203900000Y-94700000D03*
X203900000Y-95100000D03*
X203900000Y-95500000D03*
X203900000Y-95900000D03*
X203900000Y-96300000D03*
X203900000Y-96700000D03*
X203900000Y-97100000D03*
X203900000Y-97500000D03*
D67*
X203300000Y-98300000D03*
X202900000Y-98300000D03*
X202500000Y-98300000D03*
X202100000Y-98300000D03*
X201700000Y-98300000D03*
X201300000Y-98300000D03*
X200900000Y-98300000D03*
X200500000Y-98300000D03*
D68*
X199900000Y-97500000D03*
X199900000Y-97100000D03*
X199900000Y-96700000D03*
X199900000Y-96300000D03*
X199900000Y-95900000D03*
X199900000Y-95500000D03*
X199900000Y-95100000D03*
X199900000Y-94700000D03*
X199900000Y-94300000D03*
X199900000Y-93900000D03*
X199900000Y-93500000D03*
X199900000Y-93100000D03*
D69*
X201900000Y-95300000D03*
D11*
X199600000Y-121725000D03*
X199600000Y-120175000D03*
D32*
X197750000Y-79875000D03*
X197410000Y-79575000D03*
X198090000Y-79575000D03*
D70*
X196000000Y-102412500D03*
X196000000Y-103987500D03*
D24*
X138082500Y-81990000D03*
X138082500Y-81030000D03*
D32*
X194905000Y-108710000D03*
X195245000Y-109010000D03*
X194565000Y-109010000D03*
D19*
X146820000Y-115150000D03*
X147780000Y-115150000D03*
D71*
X154650000Y-90905000D03*
X154650000Y-90255000D03*
X154650000Y-89605000D03*
X154650000Y-88955000D03*
X158950000Y-88955000D03*
X158950000Y-89605000D03*
X158950000Y-90255000D03*
X158950000Y-90905000D03*
D19*
X131170000Y-99250000D03*
X132130000Y-99250000D03*
D24*
X193550000Y-95210000D03*
X193550000Y-94250000D03*
D41*
X198720000Y-97930000D03*
X197700000Y-97930000D03*
D33*
X209822875Y-100500000D03*
D19*
X131170000Y-100550000D03*
X132130000Y-100550000D03*
D33*
X209822875Y-88500000D03*
D25*
X112985000Y-86760000D03*
X114635000Y-86760000D03*
D18*
X148915000Y-85280000D03*
X147265000Y-85280000D03*
D13*
X122200000Y-95170000D03*
X122200000Y-96130000D03*
D33*
X209822875Y-90000000D03*
X209822875Y-93000000D03*
D18*
X146725000Y-71990000D03*
X145075000Y-71990000D03*
D25*
X176795000Y-81470000D03*
X178445000Y-81470000D03*
D18*
X181725000Y-70900000D03*
X180075000Y-70900000D03*
D56*
X139967500Y-98005000D03*
X139967500Y-96105000D03*
X141842500Y-97055000D03*
D19*
X184320000Y-96400000D03*
X185280000Y-96400000D03*
D13*
X198560000Y-99530000D03*
X198560000Y-100490000D03*
X194600000Y-92920000D03*
X194600000Y-93880000D03*
D28*
X202960000Y-101305000D03*
X202960000Y-100285000D03*
D33*
X209822875Y-94500000D03*
D24*
X110410000Y-102520000D03*
X110410000Y-101560000D03*
D72*
X146905000Y-73800000D03*
X148175000Y-73800000D03*
X149445000Y-73800000D03*
X150715000Y-73800000D03*
D73*
X148175000Y-79265000D03*
X146905000Y-79265000D03*
D74*
X147680000Y-77160000D03*
D73*
X149445000Y-79265000D03*
X150715000Y-79265000D03*
D74*
X149940000Y-77160000D03*
D15*
X169542500Y-119980000D03*
X171092500Y-119980000D03*
D46*
X191050000Y-95850000D03*
X190090000Y-95850000D03*
X127580000Y-102060000D03*
X126620000Y-102060000D03*
D25*
X184475000Y-70800000D03*
X186125000Y-70800000D03*
D24*
X113940000Y-102540000D03*
X113940000Y-101580000D03*
D54*
X148950000Y-118675000D03*
X148950000Y-117025000D03*
D25*
X187475000Y-84800000D03*
X189125000Y-84800000D03*
D24*
X176850000Y-100260000D03*
X176850000Y-99300000D03*
X123225000Y-103530000D03*
X123225000Y-102570000D03*
D75*
X126380000Y-111727500D03*
X126380000Y-114652500D03*
D23*
X139545000Y-92205000D03*
X140565000Y-92205000D03*
D36*
X129145000Y-77130000D03*
D37*
X131430000Y-84160000D03*
D36*
X133715000Y-77130000D03*
D32*
X170800000Y-113030000D03*
X170460000Y-112730000D03*
X171140000Y-112730000D03*
M02*
