G04 #@! TF.GenerationSoftware,KiCad,Pcbnew,(6.0.7)*
G04 #@! TF.CreationDate,2022-10-31T13:42:49+03:00*
G04 #@! TF.ProjectId,USB_HUB_ADAPTER,5553425f-4855-4425-9f41-444150544552,rev?*
G04 #@! TF.SameCoordinates,Original*
G04 #@! TF.FileFunction,Paste,Bot*
G04 #@! TF.FilePolarity,Positive*
%FSLAX46Y46*%
G04 Gerber Fmt 4.6, Leading zero omitted, Abs format (unit mm)*
G04 Created by KiCad (PCBNEW (6.0.7)) date 2022-10-31 13:42:49*
%MOMM*%
%LPD*%
G01*
G04 APERTURE LIST*
G04 Aperture macros list*
%AMRoundRect*
0 Rectangle with rounded corners*
0 $1 Rounding radius*
0 $2 $3 $4 $5 $6 $7 $8 $9 X,Y pos of 4 corners*
0 Add a 4 corners polygon primitive as box body*
4,1,4,$2,$3,$4,$5,$6,$7,$8,$9,$2,$3,0*
0 Add four circle primitives for the rounded corners*
1,1,$1+$1,$2,$3*
1,1,$1+$1,$4,$5*
1,1,$1+$1,$6,$7*
1,1,$1+$1,$8,$9*
0 Add four rect primitives between the rounded corners*
20,1,$1+$1,$2,$3,$4,$5,0*
20,1,$1+$1,$4,$5,$6,$7,0*
20,1,$1+$1,$6,$7,$8,$9,0*
20,1,$1+$1,$8,$9,$2,$3,0*%
%AMRotRect*
0 Rectangle, with rotation*
0 The origin of the aperture is its center*
0 $1 length*
0 $2 width*
0 $3 Rotation angle, in degrees counterclockwise*
0 Add horizontal line*
21,1,$1,$2,0,0,$3*%
G04 Aperture macros list end*
%ADD10C,0.010000*%
%ADD11RoundRect,0.140000X-0.170000X0.140000X-0.170000X-0.140000X0.170000X-0.140000X0.170000X0.140000X0*%
%ADD12RoundRect,0.225000X0.250000X-0.225000X0.250000X0.225000X-0.250000X0.225000X-0.250000X-0.225000X0*%
%ADD13RoundRect,0.250000X0.625000X-0.312500X0.625000X0.312500X-0.625000X0.312500X-0.625000X-0.312500X0*%
%ADD14RoundRect,0.200000X-0.200000X-0.275000X0.200000X-0.275000X0.200000X0.275000X-0.200000X0.275000X0*%
%ADD15RoundRect,0.200000X-0.275000X0.200000X-0.275000X-0.200000X0.275000X-0.200000X0.275000X0.200000X0*%
%ADD16RoundRect,0.140000X0.140000X0.170000X-0.140000X0.170000X-0.140000X-0.170000X0.140000X-0.170000X0*%
%ADD17RoundRect,0.225000X-0.225000X-0.250000X0.225000X-0.250000X0.225000X0.250000X-0.225000X0.250000X0*%
%ADD18R,1.100000X0.700000*%
%ADD19R,0.780000X1.050000*%
%ADD20R,3.330000X0.700000*%
%ADD21R,2.800000X0.860000*%
%ADD22R,1.830000X1.140000*%
%ADD23R,0.930000X0.900000*%
%ADD24RoundRect,0.200000X0.275000X-0.200000X0.275000X0.200000X-0.275000X0.200000X-0.275000X-0.200000X0*%
%ADD25RoundRect,0.062500X-0.062500X-0.350000X0.062500X-0.350000X0.062500X0.350000X-0.062500X0.350000X0*%
%ADD26RoundRect,0.062500X-0.350000X-0.062500X0.350000X-0.062500X0.350000X0.062500X-0.350000X0.062500X0*%
%ADD27RoundRect,0.250000X-0.295000X-0.295000X0.295000X-0.295000X0.295000X0.295000X-0.295000X0.295000X0*%
%ADD28RoundRect,0.140000X0.170000X-0.140000X0.170000X0.140000X-0.170000X0.140000X-0.170000X-0.140000X0*%
%ADD29RoundRect,0.135000X0.185000X-0.135000X0.185000X0.135000X-0.185000X0.135000X-0.185000X-0.135000X0*%
%ADD30R,4.860000X3.360000*%
%ADD31R,1.400000X1.390000*%
%ADD32RoundRect,0.225000X0.225000X0.250000X-0.225000X0.250000X-0.225000X-0.250000X0.225000X-0.250000X0*%
%ADD33RoundRect,0.150000X0.150000X-0.587500X0.150000X0.587500X-0.150000X0.587500X-0.150000X-0.587500X0*%
%ADD34R,1.800000X2.500000*%
%ADD35R,1.800000X0.800000*%
%ADD36RoundRect,0.250000X-0.475000X0.250000X-0.475000X-0.250000X0.475000X-0.250000X0.475000X0.250000X0*%
%ADD37R,1.600000X3.000000*%
%ADD38R,6.000000X6.900000*%
%ADD39R,2.300000X2.500000*%
%ADD40RoundRect,0.250000X0.475000X-0.250000X0.475000X0.250000X-0.475000X0.250000X-0.475000X-0.250000X0*%
%ADD41RoundRect,0.140000X-0.140000X-0.170000X0.140000X-0.170000X0.140000X0.170000X-0.140000X0.170000X0*%
%ADD42R,0.750000X0.400000*%
%ADD43R,0.600000X0.250000*%
%ADD44R,1.000000X0.200000*%
%ADD45RoundRect,0.150000X-0.512500X-0.150000X0.512500X-0.150000X0.512500X0.150000X-0.512500X0.150000X0*%
%ADD46R,2.500000X2.300000*%
%ADD47RoundRect,0.135000X-0.135000X-0.185000X0.135000X-0.185000X0.135000X0.185000X-0.135000X0.185000X0*%
%ADD48RoundRect,0.200000X0.200000X0.275000X-0.200000X0.275000X-0.200000X-0.275000X0.200000X-0.275000X0*%
%ADD49RoundRect,0.250000X0.295000X0.295000X-0.295000X0.295000X-0.295000X-0.295000X0.295000X-0.295000X0*%
%ADD50RoundRect,0.062500X0.350000X0.062500X-0.350000X0.062500X-0.350000X-0.062500X0.350000X-0.062500X0*%
%ADD51RoundRect,0.062500X0.062500X0.350000X-0.062500X0.350000X-0.062500X-0.350000X0.062500X-0.350000X0*%
%ADD52R,0.200000X0.200000*%
%ADD53RoundRect,0.150000X-0.825000X-0.150000X0.825000X-0.150000X0.825000X0.150000X-0.825000X0.150000X0*%
%ADD54R,0.350000X0.400000*%
%ADD55R,0.800000X2.200000*%
%ADD56RoundRect,0.135000X0.135000X0.185000X-0.135000X0.185000X-0.135000X-0.185000X0.135000X-0.185000X0*%
%ADD57RoundRect,0.140000X0.219203X0.021213X0.021213X0.219203X-0.219203X-0.021213X-0.021213X-0.219203X0*%
%ADD58RoundRect,0.135000X-0.185000X0.135000X-0.185000X-0.135000X0.185000X-0.135000X0.185000X0.135000X0*%
%ADD59R,2.500000X2.000000*%
%ADD60RoundRect,0.150000X-0.150000X0.587500X-0.150000X-0.587500X0.150000X-0.587500X0.150000X0.587500X0*%
%ADD61RoundRect,0.218750X0.218750X0.256250X-0.218750X0.256250X-0.218750X-0.256250X0.218750X-0.256250X0*%
%ADD62RoundRect,0.062500X-0.350000X0.062500X-0.350000X-0.062500X0.350000X-0.062500X0.350000X0.062500X0*%
%ADD63RoundRect,0.062500X-0.062500X0.350000X-0.062500X-0.350000X0.062500X-0.350000X0.062500X0.350000X0*%
%ADD64RoundRect,0.247500X-0.247500X0.247500X-0.247500X-0.247500X0.247500X-0.247500X0.247500X0.247500X0*%
%ADD65RoundRect,0.225000X-0.250000X0.225000X-0.250000X-0.225000X0.250000X-0.225000X0.250000X0.225000X0*%
%ADD66R,0.400000X0.350000*%
%ADD67R,0.450000X1.450000*%
%ADD68R,1.500000X2.000000*%
%ADD69R,3.800000X2.000000*%
%ADD70R,4.100000X4.100000*%
%ADD71RotRect,0.900000X0.800000X315.000000*%
%ADD72RoundRect,0.250000X-0.250000X-0.475000X0.250000X-0.475000X0.250000X0.475000X-0.250000X0.475000X0*%
%ADD73R,3.500000X3.550000*%
%ADD74RoundRect,0.250000X0.925000X-0.412500X0.925000X0.412500X-0.925000X0.412500X-0.925000X-0.412500X0*%
%ADD75R,0.200000X0.800000*%
%ADD76R,0.800000X0.200000*%
%ADD77R,2.800000X4.800000*%
%ADD78RoundRect,0.250000X0.475000X-0.475000X0.475000X0.475000X-0.475000X0.475000X-0.475000X-0.475000X0*%
%ADD79RoundRect,0.062500X0.062500X-0.375000X0.062500X0.375000X-0.062500X0.375000X-0.062500X-0.375000X0*%
%ADD80RoundRect,0.062500X0.375000X-0.062500X0.375000X0.062500X-0.375000X0.062500X-0.375000X-0.062500X0*%
%ADD81R,1.100000X0.400000*%
%ADD82R,0.610000X1.270000*%
%ADD83R,0.610000X1.020000*%
%ADD84R,1.650000X3.810000*%
%ADD85RoundRect,0.140000X-0.021213X0.219203X-0.219203X0.021213X0.021213X-0.219203X0.219203X-0.021213X0*%
%ADD86R,3.000000X1.600000*%
%ADD87R,6.900000X6.000000*%
G04 APERTURE END LIST*
G36*
X166922500Y-96025000D02*
G01*
X165402500Y-96025000D01*
X165402500Y-94475000D01*
X166922500Y-94475000D01*
X166922500Y-96025000D01*
G37*
D10*
X166922500Y-96025000D02*
X165402500Y-96025000D01*
X165402500Y-94475000D01*
X166922500Y-94475000D01*
X166922500Y-96025000D01*
G36*
X167062500Y-97005000D02*
G01*
X166662500Y-97005000D01*
X166662500Y-96480000D01*
X167062500Y-96480000D01*
X167062500Y-97005000D01*
G37*
X167062500Y-97005000D02*
X166662500Y-97005000D01*
X166662500Y-96480000D01*
X167062500Y-96480000D01*
X167062500Y-97005000D01*
G36*
X167062500Y-94020000D02*
G01*
X166662500Y-94020000D01*
X166662500Y-93495000D01*
X167062500Y-93495000D01*
X167062500Y-94020000D01*
G37*
X167062500Y-94020000D02*
X166662500Y-94020000D01*
X166662500Y-93495000D01*
X167062500Y-93495000D01*
X167062500Y-94020000D01*
D11*
X199100000Y-86020000D03*
X199100000Y-86980000D03*
D12*
X192450000Y-116975000D03*
X192450000Y-115425000D03*
D13*
X118050000Y-92037500D03*
X118050000Y-89112500D03*
D14*
X132735000Y-75595000D03*
X134385000Y-75595000D03*
D11*
X184260000Y-104410000D03*
X184260000Y-105370000D03*
D15*
X125775000Y-110075000D03*
X125775000Y-111725000D03*
D11*
X180550000Y-100730000D03*
X180550000Y-99770000D03*
X112400000Y-87680000D03*
X112400000Y-86720000D03*
D16*
X106620000Y-79925000D03*
X107580000Y-79925000D03*
D17*
X125925000Y-101300000D03*
X127475000Y-101300000D03*
D18*
X109925000Y-97680000D03*
X109925000Y-96580000D03*
X109925000Y-95480000D03*
X109925000Y-94380000D03*
X109925000Y-93280000D03*
X109925000Y-92180000D03*
X109925000Y-91080000D03*
X109925000Y-89980000D03*
D19*
X97385000Y-95205000D03*
D20*
X98660000Y-101780000D03*
X98660000Y-88820000D03*
D21*
X109425000Y-88900000D03*
D22*
X109910000Y-101560000D03*
D23*
X97460000Y-99470000D03*
D24*
X161900000Y-84050000D03*
X161900000Y-82400000D03*
D16*
X133600000Y-115770000D03*
X132640000Y-115770000D03*
D25*
X178610000Y-98152500D03*
X179110000Y-98152500D03*
X179610000Y-98152500D03*
X180110000Y-98152500D03*
X180610000Y-98152500D03*
X181110000Y-98152500D03*
D26*
X181822500Y-97440000D03*
X181822500Y-96940000D03*
X181822500Y-96440000D03*
X181822500Y-95940000D03*
X181822500Y-95440000D03*
X181822500Y-94940000D03*
D25*
X181110000Y-94227500D03*
X180610000Y-94227500D03*
X180110000Y-94227500D03*
X179610000Y-94227500D03*
X179110000Y-94227500D03*
X178610000Y-94227500D03*
D26*
X177897500Y-94940000D03*
X177897500Y-95440000D03*
X177897500Y-95940000D03*
X177897500Y-96440000D03*
X177897500Y-96940000D03*
X177897500Y-97440000D03*
D27*
X179185000Y-96865000D03*
X180535000Y-96865000D03*
X180535000Y-95515000D03*
X179185000Y-95515000D03*
D28*
X112400000Y-76720000D03*
X112400000Y-77680000D03*
D29*
X201800000Y-87110000D03*
X201800000Y-86090000D03*
D24*
X146700000Y-91500000D03*
X146700000Y-89850000D03*
D14*
X135985000Y-75545000D03*
X137635000Y-75545000D03*
D11*
X193530000Y-96900000D03*
X193530000Y-97860000D03*
D15*
X158275000Y-76450000D03*
X158275000Y-78100000D03*
D30*
X159355000Y-95550000D03*
D31*
X163337000Y-96470000D03*
X163337000Y-94630000D03*
D24*
X153450000Y-84725000D03*
X153450000Y-83075000D03*
D32*
X122675000Y-82550000D03*
X121125000Y-82550000D03*
D11*
X167675000Y-98215000D03*
X167675000Y-99175000D03*
D33*
X157050000Y-84387500D03*
X155150000Y-84387500D03*
X156100000Y-82512500D03*
D34*
X146750000Y-94175000D03*
X146750000Y-98175000D03*
D17*
X156925000Y-116100000D03*
X158475000Y-116100000D03*
D35*
X209822875Y-103500000D03*
D32*
X122625000Y-80950000D03*
X121075000Y-80950000D03*
D36*
X209925000Y-107950000D03*
X209925000Y-109850000D03*
D37*
X113290000Y-96170000D03*
D38*
X115575000Y-103200000D03*
D37*
X117860000Y-96170000D03*
D39*
X122025000Y-100125000D03*
X122025000Y-95825000D03*
D40*
X155325000Y-91775000D03*
X155325000Y-89875000D03*
D41*
X139880000Y-79695000D03*
X140840000Y-79695000D03*
D42*
X168387500Y-94275000D03*
X168387500Y-94925000D03*
X168387500Y-95575000D03*
X168387500Y-96225000D03*
D40*
X102925000Y-109750000D03*
X102925000Y-107850000D03*
D41*
X205170000Y-98250000D03*
X206130000Y-98250000D03*
D14*
X169900000Y-78525000D03*
X171550000Y-78525000D03*
D28*
X202900000Y-87080000D03*
X202900000Y-86120000D03*
D16*
X159755000Y-81925000D03*
X158795000Y-81925000D03*
D29*
X150200000Y-84610000D03*
X150200000Y-83590000D03*
D43*
X136610000Y-78745000D03*
X136610000Y-78245000D03*
X136610000Y-77745000D03*
D44*
X137710000Y-77745000D03*
X137710000Y-78245000D03*
X137710000Y-78745000D03*
D45*
X124062500Y-86700000D03*
X124062500Y-85750000D03*
X124062500Y-84800000D03*
X126337500Y-84800000D03*
X126337500Y-85750000D03*
X126337500Y-86700000D03*
D34*
X154300000Y-94175000D03*
X154300000Y-98175000D03*
D46*
X175550000Y-101800000D03*
X171250000Y-101800000D03*
D47*
X127990000Y-86450000D03*
X129010000Y-86450000D03*
D48*
X171500000Y-81775000D03*
X169850000Y-81775000D03*
D47*
X183400000Y-94940000D03*
X184420000Y-94940000D03*
D49*
X167275000Y-103350000D03*
X165925000Y-102000000D03*
X165925000Y-103350000D03*
X167275000Y-102000000D03*
D50*
X168562500Y-101425000D03*
X168562500Y-101925000D03*
X168562500Y-102425000D03*
X168562500Y-102925000D03*
X168562500Y-103425000D03*
X168562500Y-103925000D03*
D51*
X167850000Y-104637500D03*
X167350000Y-104637500D03*
X166850000Y-104637500D03*
X166350000Y-104637500D03*
X165850000Y-104637500D03*
X165350000Y-104637500D03*
D50*
X164637500Y-103925000D03*
X164637500Y-103425000D03*
X164637500Y-102925000D03*
X164637500Y-102425000D03*
X164637500Y-101925000D03*
X164637500Y-101425000D03*
D51*
X165350000Y-100712500D03*
X165850000Y-100712500D03*
X166350000Y-100712500D03*
X166850000Y-100712500D03*
X167350000Y-100712500D03*
X167850000Y-100712500D03*
D41*
X112780000Y-90175000D03*
X113740000Y-90175000D03*
D28*
X192180000Y-93900000D03*
X192180000Y-92940000D03*
D52*
X173275000Y-114275000D03*
X173615000Y-114575000D03*
X172935000Y-114575000D03*
D53*
X166350000Y-88380000D03*
X166350000Y-87110000D03*
X166350000Y-85840000D03*
X166350000Y-84570000D03*
X171300000Y-84570000D03*
X171300000Y-85840000D03*
X171300000Y-87110000D03*
X171300000Y-88380000D03*
D14*
X188350000Y-86750000D03*
X190000000Y-86750000D03*
D54*
X163000000Y-100625000D03*
X163000000Y-98925000D03*
D55*
X140000000Y-77800000D03*
X141900000Y-77800000D03*
D14*
X170475000Y-98600000D03*
X172125000Y-98600000D03*
D56*
X116290000Y-84750000D03*
X117310000Y-84750000D03*
D15*
X119100000Y-110075000D03*
X119100000Y-111725000D03*
D33*
X148750000Y-84050000D03*
X146850000Y-84050000D03*
X147800000Y-82175000D03*
D57*
X102360589Y-82760589D03*
X103039411Y-83439411D03*
D28*
X202500000Y-90830000D03*
X202500000Y-89870000D03*
X202800000Y-78480000D03*
X202800000Y-77520000D03*
D45*
X133062500Y-114350000D03*
X133062500Y-113400000D03*
X133062500Y-112450000D03*
X135337500Y-112450000D03*
X135337500Y-114350000D03*
D47*
X127990000Y-84150000D03*
X129010000Y-84150000D03*
D29*
X204400000Y-101310000D03*
X204400000Y-100290000D03*
D15*
X151700000Y-83075000D03*
X151700000Y-84725000D03*
D32*
X122825000Y-76950000D03*
X121275000Y-76950000D03*
D11*
X179110000Y-100620000D03*
X179110000Y-99660000D03*
D14*
X132785000Y-78245000D03*
X134435000Y-78245000D03*
D17*
X118175000Y-80700000D03*
X116625000Y-80700000D03*
D56*
X175590000Y-93800000D03*
X176610000Y-93800000D03*
D58*
X145775000Y-76065000D03*
X145775000Y-77085000D03*
D28*
X205200000Y-78480000D03*
X205200000Y-77520000D03*
D11*
X179500000Y-102320000D03*
X179500000Y-103280000D03*
D29*
X205625000Y-101310000D03*
X205625000Y-100290000D03*
D12*
X120700000Y-111675000D03*
X120700000Y-110125000D03*
D17*
X118175000Y-78100000D03*
X116625000Y-78100000D03*
D35*
X209822875Y-102000000D03*
D24*
X122300000Y-111725000D03*
X122300000Y-110075000D03*
D35*
X209822875Y-97500000D03*
D40*
X157700000Y-91775000D03*
X157700000Y-89875000D03*
D59*
X126700000Y-82250000D03*
X126700000Y-77250000D03*
D32*
X122850000Y-78700000D03*
X121300000Y-78700000D03*
D58*
X107200000Y-82510000D03*
X107200000Y-81490000D03*
D52*
X175200000Y-108725000D03*
X175540000Y-109025000D03*
X174860000Y-109025000D03*
D35*
X209822875Y-99000000D03*
D17*
X195125000Y-83600000D03*
X196675000Y-83600000D03*
D60*
X154625000Y-76787500D03*
X156525000Y-76787500D03*
X155575000Y-78662500D03*
D61*
X189787500Y-98200000D03*
X188212500Y-98200000D03*
D16*
X170605000Y-83075000D03*
X169645000Y-83075000D03*
D17*
X195125000Y-85300000D03*
X196675000Y-85300000D03*
D24*
X185880000Y-100880000D03*
X185880000Y-99230000D03*
D11*
X200150000Y-99545000D03*
X200150000Y-100505000D03*
D28*
X163375000Y-83255000D03*
X163375000Y-82295000D03*
D15*
X151025000Y-76350000D03*
X151025000Y-78000000D03*
D60*
X182360000Y-100240000D03*
X184260000Y-100240000D03*
X183310000Y-102115000D03*
D32*
X105735000Y-78000000D03*
X107285000Y-78000000D03*
D48*
X171800000Y-90025000D03*
X170150000Y-90025000D03*
D32*
X130775000Y-93700000D03*
X129225000Y-93700000D03*
D62*
X108962500Y-80300000D03*
X108962500Y-80800000D03*
X108962500Y-81300000D03*
X108962500Y-81800000D03*
X108962500Y-82300000D03*
X108962500Y-82800000D03*
X108962500Y-83300000D03*
X108962500Y-83800000D03*
X108962500Y-84300000D03*
D63*
X109900000Y-85237500D03*
X110400000Y-85237500D03*
X110900000Y-85237500D03*
X111400000Y-85237500D03*
X111900000Y-85237500D03*
X112400000Y-85237500D03*
X112900000Y-85237500D03*
X113400000Y-85237500D03*
X113900000Y-85237500D03*
D62*
X114837500Y-84300000D03*
X114837500Y-83800000D03*
X114837500Y-83300000D03*
X114837500Y-82800000D03*
X114837500Y-82300000D03*
X114837500Y-81800000D03*
X114837500Y-81300000D03*
X114837500Y-80800000D03*
X114837500Y-80300000D03*
D63*
X113900000Y-79362500D03*
X113400000Y-79362500D03*
X112900000Y-79362500D03*
X112400000Y-79362500D03*
X111900000Y-79362500D03*
X111400000Y-79362500D03*
X110900000Y-79362500D03*
X110400000Y-79362500D03*
X109900000Y-79362500D03*
D64*
X111900000Y-82300000D03*
X113130000Y-83530000D03*
X111900000Y-81070000D03*
X110670000Y-83530000D03*
X110670000Y-81070000D03*
X110670000Y-82300000D03*
X113130000Y-82300000D03*
X113130000Y-81070000D03*
X111900000Y-83530000D03*
D28*
X161650000Y-78255000D03*
X161650000Y-77295000D03*
D32*
X157525000Y-110950000D03*
X155975000Y-110950000D03*
D65*
X121900000Y-84675000D03*
X121900000Y-86225000D03*
D16*
X194450000Y-100020000D03*
X193490000Y-100020000D03*
D56*
X129010000Y-85300000D03*
X127990000Y-85300000D03*
D40*
X100625000Y-109750000D03*
X100625000Y-107850000D03*
D17*
X135045000Y-115920000D03*
X136595000Y-115920000D03*
D34*
X150600000Y-94175000D03*
X150600000Y-98175000D03*
D66*
X170300000Y-91600000D03*
X172000000Y-91600000D03*
D14*
X146875000Y-86000000D03*
X148525000Y-86000000D03*
D67*
X123975000Y-107500000D03*
X123325000Y-107500000D03*
X122675000Y-107500000D03*
X122025000Y-107500000D03*
X122025000Y-103100000D03*
X122675000Y-103100000D03*
X123325000Y-103100000D03*
X123975000Y-103100000D03*
D68*
X199200000Y-116450000D03*
X196900000Y-116450000D03*
D69*
X196900000Y-110150000D03*
D68*
X194600000Y-116450000D03*
D35*
X209822875Y-105000000D03*
D28*
X137000000Y-89780000D03*
X137000000Y-88820000D03*
D11*
X166025000Y-98145000D03*
X166025000Y-99105000D03*
D16*
X190140000Y-96700000D03*
X189180000Y-96700000D03*
D45*
X155062500Y-114450000D03*
X155062500Y-113500000D03*
X155062500Y-112550000D03*
X157337500Y-112550000D03*
X157337500Y-114450000D03*
D15*
X161200000Y-99050000D03*
X161200000Y-100700000D03*
D12*
X125300000Y-99675000D03*
X125300000Y-98125000D03*
D70*
X115787500Y-112887500D03*
X106287500Y-112887500D03*
D48*
X159500000Y-80625000D03*
X157850000Y-80625000D03*
D11*
X191080000Y-99340000D03*
X191080000Y-100300000D03*
D71*
X103416117Y-81793934D03*
X104406066Y-82783883D03*
X105183883Y-82006066D03*
X104193934Y-81016117D03*
D29*
X205200000Y-87110000D03*
X205200000Y-86090000D03*
D40*
X127200000Y-99550000D03*
X127200000Y-97650000D03*
D24*
X131200000Y-112425000D03*
X131200000Y-110775000D03*
D16*
X172280000Y-93700000D03*
X171320000Y-93700000D03*
D28*
X204100000Y-87080000D03*
X204100000Y-86120000D03*
D35*
X209822875Y-96000000D03*
X209822875Y-91500000D03*
D28*
X191080000Y-93880000D03*
X191080000Y-92920000D03*
D65*
X124100000Y-110125000D03*
X124100000Y-111675000D03*
D72*
X125950000Y-103200000D03*
X127850000Y-103200000D03*
D56*
X175590000Y-94900000D03*
X176610000Y-94900000D03*
D73*
X178475000Y-91075000D03*
X178475000Y-82125000D03*
D29*
X158450000Y-84960000D03*
X158450000Y-83940000D03*
D34*
X142900000Y-100600000D03*
X142900000Y-96600000D03*
D74*
X181800000Y-78337500D03*
X181800000Y-75262500D03*
D41*
X136630000Y-80595000D03*
X137590000Y-80595000D03*
D48*
X171500000Y-80175000D03*
X169850000Y-80175000D03*
D15*
X211900000Y-107875000D03*
X211900000Y-109525000D03*
D75*
X200500000Y-92300000D03*
X200900000Y-92300000D03*
X201300000Y-92300000D03*
X201700000Y-92300000D03*
X202100000Y-92300000D03*
X202500000Y-92300000D03*
X202900000Y-92300000D03*
X203300000Y-92300000D03*
D76*
X203900000Y-93100000D03*
X203900000Y-93500000D03*
X203900000Y-93900000D03*
X203900000Y-94300000D03*
X203900000Y-94700000D03*
X203900000Y-95100000D03*
X203900000Y-95500000D03*
X203900000Y-95900000D03*
X203900000Y-96300000D03*
X203900000Y-96700000D03*
X203900000Y-97100000D03*
X203900000Y-97500000D03*
D75*
X203300000Y-98300000D03*
X202900000Y-98300000D03*
X202500000Y-98300000D03*
X202100000Y-98300000D03*
X201700000Y-98300000D03*
X201300000Y-98300000D03*
X200900000Y-98300000D03*
X200500000Y-98300000D03*
D76*
X199900000Y-97500000D03*
X199900000Y-97100000D03*
X199900000Y-96700000D03*
X199900000Y-96300000D03*
X199900000Y-95900000D03*
X199900000Y-95500000D03*
X199900000Y-95100000D03*
X199900000Y-94700000D03*
X199900000Y-94300000D03*
X199900000Y-93900000D03*
X199900000Y-93500000D03*
X199900000Y-93100000D03*
D77*
X201900000Y-95300000D03*
D12*
X201350000Y-116975000D03*
X201350000Y-115425000D03*
D28*
X138400000Y-89780000D03*
X138400000Y-88820000D03*
D78*
X202000000Y-81300000D03*
X200200000Y-81300000D03*
X202000000Y-83100000D03*
X200200000Y-83100000D03*
D79*
X202850000Y-84637500D03*
X202350000Y-84637500D03*
X201850000Y-84637500D03*
X201350000Y-84637500D03*
X200850000Y-84637500D03*
X200350000Y-84637500D03*
X199850000Y-84637500D03*
X199350000Y-84637500D03*
D80*
X198662500Y-83950000D03*
X198662500Y-83450000D03*
X198662500Y-82950000D03*
X198662500Y-82450000D03*
X198662500Y-81950000D03*
X198662500Y-81450000D03*
X198662500Y-80950000D03*
X198662500Y-80450000D03*
D79*
X199350000Y-79762500D03*
X199850000Y-79762500D03*
X200350000Y-79762500D03*
X200850000Y-79762500D03*
X201350000Y-79762500D03*
X201850000Y-79762500D03*
X202350000Y-79762500D03*
X202850000Y-79762500D03*
D80*
X203537500Y-80450000D03*
X203537500Y-80950000D03*
X203537500Y-81450000D03*
X203537500Y-81950000D03*
X203537500Y-82450000D03*
X203537500Y-82950000D03*
X203537500Y-83450000D03*
X203537500Y-83950000D03*
D28*
X178010000Y-99660000D03*
X178010000Y-100620000D03*
D16*
X155380000Y-115950000D03*
X154420000Y-115950000D03*
D81*
X167375000Y-78500000D03*
X167375000Y-79150000D03*
X167375000Y-79800000D03*
X167375000Y-80450000D03*
X163075000Y-80450000D03*
X163075000Y-79800000D03*
X163075000Y-79150000D03*
X163075000Y-78500000D03*
D11*
X191090000Y-96200000D03*
X191090000Y-97160000D03*
D58*
X198050000Y-99540000D03*
X198050000Y-100560000D03*
D35*
X209822875Y-100500000D03*
D41*
X117280000Y-82300000D03*
X116320000Y-82300000D03*
D35*
X209822875Y-88500000D03*
D14*
X118775000Y-108100000D03*
X120425000Y-108100000D03*
D15*
X182660000Y-104015000D03*
X182660000Y-105665000D03*
D56*
X106500000Y-76700000D03*
X107520000Y-76700000D03*
D41*
X133680000Y-76895000D03*
X134640000Y-76895000D03*
D35*
X209822875Y-90000000D03*
X209822875Y-93000000D03*
D48*
X186900000Y-86700000D03*
X185250000Y-86700000D03*
D47*
X107610000Y-85175000D03*
X106590000Y-85175000D03*
D15*
X178100000Y-102275000D03*
X178100000Y-103925000D03*
D48*
X172125000Y-97000000D03*
X170475000Y-97000000D03*
D60*
X147375000Y-76637500D03*
X149275000Y-76637500D03*
X148325000Y-78512500D03*
D11*
X199100000Y-99545000D03*
X199100000Y-100505000D03*
X194310000Y-92920000D03*
X194310000Y-93880000D03*
D74*
X177400000Y-78337500D03*
X177400000Y-75262500D03*
D29*
X203300000Y-101335000D03*
X203300000Y-100315000D03*
D35*
X209822875Y-94500000D03*
D82*
X189405000Y-84970000D03*
X188135000Y-84970000D03*
X186865000Y-84970000D03*
X185595000Y-84970000D03*
D83*
X188135000Y-79505000D03*
X189405000Y-79505000D03*
D84*
X188630000Y-81610000D03*
D83*
X186865000Y-79505000D03*
X185595000Y-79505000D03*
D84*
X186370000Y-81610000D03*
D29*
X206300000Y-87110000D03*
X206300000Y-86090000D03*
D32*
X135545000Y-110870000D03*
X133995000Y-110870000D03*
D28*
X204000000Y-78480000D03*
X204000000Y-77520000D03*
D16*
X190160000Y-95600000D03*
X189200000Y-95600000D03*
D14*
X170475000Y-95100000D03*
X172125000Y-95100000D03*
D15*
X153250000Y-112425000D03*
X153250000Y-114075000D03*
D14*
X171825000Y-104990000D03*
X173475000Y-104990000D03*
D85*
X102260589Y-81019411D03*
X102939411Y-80340589D03*
D16*
X142040000Y-75870000D03*
X141080000Y-75870000D03*
D58*
X153175000Y-76215000D03*
X153175000Y-77235000D03*
D86*
X138980000Y-96215000D03*
D87*
X131950000Y-98500000D03*
D86*
X138980000Y-100785000D03*
M02*
