G04 #@! TF.GenerationSoftware,KiCad,Pcbnew,(6.0.7)*
G04 #@! TF.CreationDate,2022-11-24T18:50:26+03:00*
G04 #@! TF.ProjectId,USB_HUB_ADAPTER,5553425f-4855-4425-9f41-444150544552,rev?*
G04 #@! TF.SameCoordinates,Original*
G04 #@! TF.FileFunction,Profile,NP*
%FSLAX46Y46*%
G04 Gerber Fmt 4.6, Leading zero omitted, Abs format (unit mm)*
G04 Created by KiCad (PCBNEW (6.0.7)) date 2022-11-24 18:50:26*
%MOMM*%
%LPD*%
G01*
G04 APERTURE LIST*
G04 #@! TA.AperFunction,Profile*
%ADD10C,0.100000*%
G04 #@! TD*
G04 APERTURE END LIST*
D10*
X213700000Y-107590000D02*
X213700000Y-119700000D01*
X99734874Y-69819974D02*
G75*
G03*
X96234874Y-73320000I26J-3500026D01*
G01*
X213700000Y-107590000D02*
G75*
G03*
X212800000Y-106690000I-900000J0D01*
G01*
X212050000Y-87600000D02*
X212050000Y-86700000D01*
X212810000Y-86700000D02*
G75*
G03*
X213710000Y-85800000I0J900000D01*
G01*
X213710000Y-73315000D02*
G75*
G03*
X210210000Y-69815000I-3500000J0D01*
G01*
X96240000Y-119720000D02*
X96234874Y-73320000D01*
X210200000Y-123247499D02*
G75*
G03*
X213700000Y-119710000I-37700J3537499D01*
G01*
X212050000Y-106690000D02*
X212800000Y-106690000D01*
X212050000Y-105800000D02*
X212050000Y-87600000D01*
X99734874Y-69820000D02*
X210210000Y-69815000D01*
X99740000Y-123245000D02*
X210200000Y-123247500D01*
X212050000Y-106690000D02*
X212050000Y-105800000D01*
X213710000Y-85800000D02*
X213710000Y-73315000D01*
X212050000Y-86700000D02*
X212810000Y-86700000D01*
X96240011Y-119720000D02*
G75*
G03*
X99740000Y-123245000I3525089J0D01*
G01*
X191990000Y-76925000D02*
X192290000Y-76925000D01*
X192290000Y-77575000D02*
X191990000Y-77575000D01*
X191990000Y-76925000D02*
G75*
G03*
X191665000Y-77250000I0J-325000D01*
G01*
X192615000Y-77250000D02*
G75*
G03*
X192290000Y-76925000I-325000J0D01*
G01*
X191665000Y-77250000D02*
G75*
G03*
X191990000Y-77575000I325000J0D01*
G01*
X192290000Y-77575000D02*
G75*
G03*
X192615000Y-77250000I0J325000D01*
G01*
M02*
