M48
; DRILL file {KiCad (6.0.7)} date Mon Oct 31 13:42:52 2022
; FORMAT={-:-/ absolute / metric / decimal}
; #@! TF.CreationDate,2022-10-31T13:42:52+03:00
; #@! TF.GenerationSoftware,Kicad,Pcbnew,(6.0.7)
; #@! TF.FileFunction,Plated,1,3,Blind
FMAT,2
METRIC
; #@! TA.AperFunction,Plated,Buried,ViaDrill
T1C0.200
%
G90
G05
T1
X127.721Y-86.312
X128.25Y-85.2
X129.225Y-83.975
X130.69Y-100.31
X131.549Y-100.295
X143.07Y-81.39
X146.5Y-91.3
X147.75Y-92.375
X149.571Y-88.191
X153.125Y-93.5
X157.82Y-93.347
X159.897Y-86.95
X160.8Y-82.3
X161.075Y-93.925
X161.424Y-86.995
X177.225Y-90.575
X177.925Y-90.525
X177.98Y-99.86
X178.811Y-99.841
X190.375Y-93.475
X191.125Y-93.5
X191.19Y-98.37
X193.691Y-93.581
X194.38Y-95.97
X194.39Y-93.595
X194.39Y-96.78
T0
M30
