G04 #@! TF.GenerationSoftware,KiCad,Pcbnew,(6.0.7)*
G04 #@! TF.CreationDate,2022-11-24T18:50:25+03:00*
G04 #@! TF.ProjectId,USB_HUB_ADAPTER,5553425f-4855-4425-9f41-444150544552,rev?*
G04 #@! TF.SameCoordinates,Original*
G04 #@! TF.FileFunction,Paste,Top*
G04 #@! TF.FilePolarity,Positive*
%FSLAX46Y46*%
G04 Gerber Fmt 4.6, Leading zero omitted, Abs format (unit mm)*
G04 Created by KiCad (PCBNEW (6.0.7)) date 2022-11-24 18:50:25*
%MOMM*%
%LPD*%
G01*
G04 APERTURE LIST*
G04 Aperture macros list*
%AMRoundRect*
0 Rectangle with rounded corners*
0 $1 Rounding radius*
0 $2 $3 $4 $5 $6 $7 $8 $9 X,Y pos of 4 corners*
0 Add a 4 corners polygon primitive as box body*
4,1,4,$2,$3,$4,$5,$6,$7,$8,$9,$2,$3,0*
0 Add four circle primitives for the rounded corners*
1,1,$1+$1,$2,$3*
1,1,$1+$1,$4,$5*
1,1,$1+$1,$6,$7*
1,1,$1+$1,$8,$9*
0 Add four rect primitives between the rounded corners*
20,1,$1+$1,$2,$3,$4,$5,0*
20,1,$1+$1,$4,$5,$6,$7,0*
20,1,$1+$1,$6,$7,$8,$9,0*
20,1,$1+$1,$8,$9,$2,$3,0*%
%AMRotRect*
0 Rectangle, with rotation*
0 The origin of the aperture is its center*
0 $1 length*
0 $2 width*
0 $3 Rotation angle, in degrees counterclockwise*
0 Add horizontal line*
21,1,$1,$2,0,0,$3*%
G04 Aperture macros list end*
%ADD10C,0.350000*%
%ADD11RoundRect,0.140000X0.140000X0.170000X-0.140000X0.170000X-0.140000X-0.170000X0.140000X-0.170000X0*%
%ADD12RoundRect,0.140000X-0.219203X-0.021213X-0.021213X-0.219203X0.219203X0.021213X0.021213X0.219203X0*%
%ADD13RoundRect,0.140000X-0.170000X0.140000X-0.170000X-0.140000X0.170000X-0.140000X0.170000X0.140000X0*%
%ADD14RoundRect,0.140000X-0.140000X-0.170000X0.140000X-0.170000X0.140000X0.170000X-0.140000X0.170000X0*%
%ADD15RoundRect,0.140000X0.170000X-0.140000X0.170000X0.140000X-0.170000X0.140000X-0.170000X-0.140000X0*%
%ADD16RoundRect,0.140000X0.021213X-0.219203X0.219203X-0.021213X-0.021213X0.219203X-0.219203X0.021213X0*%
%ADD17R,1.800000X0.800000*%
%ADD18RotRect,1.150000X1.000000X315.000000*%
%ADD19RoundRect,0.140000X0.219203X0.021213X0.021213X0.219203X-0.219203X-0.021213X-0.021213X-0.219203X0*%
%ADD20R,0.200000X0.200000*%
%ADD21RoundRect,0.135000X0.185000X-0.135000X0.185000X0.135000X-0.185000X0.135000X-0.185000X-0.135000X0*%
%ADD22R,0.350000X0.400000*%
%ADD23RoundRect,0.250000X0.450000X-0.262500X0.450000X0.262500X-0.450000X0.262500X-0.450000X-0.262500X0*%
%ADD24RotRect,0.900000X0.800000X315.000000*%
%ADD25RoundRect,0.135000X-0.135000X-0.185000X0.135000X-0.185000X0.135000X0.185000X-0.135000X0.185000X0*%
%ADD26RoundRect,0.250000X0.925000X-0.412500X0.925000X0.412500X-0.925000X0.412500X-0.925000X-0.412500X0*%
%ADD27RoundRect,0.135000X0.135000X0.185000X-0.135000X0.185000X-0.135000X-0.185000X0.135000X-0.185000X0*%
%ADD28RoundRect,0.147500X-0.147500X-0.172500X0.147500X-0.172500X0.147500X0.172500X-0.147500X0.172500X0*%
%ADD29RoundRect,0.225000X0.225000X0.250000X-0.225000X0.250000X-0.225000X-0.250000X0.225000X-0.250000X0*%
%ADD30RoundRect,0.135000X-0.185000X0.135000X-0.185000X-0.135000X0.185000X-0.135000X0.185000X0.135000X0*%
%ADD31RoundRect,0.225000X-0.225000X-0.250000X0.225000X-0.250000X0.225000X0.250000X-0.225000X0.250000X0*%
%ADD32R,0.300000X0.900000*%
%ADD33RoundRect,0.247500X-0.247500X0.247500X-0.247500X-0.247500X0.247500X-0.247500X0.247500X0.247500X0*%
%ADD34RoundRect,0.062500X-0.062500X0.350000X-0.062500X-0.350000X0.062500X-0.350000X0.062500X0.350000X0*%
%ADD35RoundRect,0.062500X-0.350000X0.062500X-0.350000X-0.062500X0.350000X-0.062500X0.350000X0.062500X0*%
%ADD36R,1.200000X1.400000*%
%ADD37RoundRect,0.250000X0.455000X0.455000X-0.455000X0.455000X-0.455000X-0.455000X0.455000X-0.455000X0*%
%ADD38RoundRect,0.062500X0.337500X0.062500X-0.337500X0.062500X-0.337500X-0.062500X0.337500X-0.062500X0*%
%ADD39RoundRect,0.062500X0.062500X0.337500X-0.062500X0.337500X-0.062500X-0.337500X0.062500X-0.337500X0*%
%ADD40R,1.500000X1.000000*%
%ADD41R,2.000000X1.200000*%
%ADD42R,8.050000X1.300000*%
%ADD43RotRect,0.900000X0.800000X225.000000*%
%ADD44R,1.050000X0.200000*%
%ADD45R,0.200000X1.050000*%
%ADD46R,8.100000X8.100000*%
%ADD47RoundRect,0.007800X-0.437200X-0.122200X0.437200X-0.122200X0.437200X0.122200X-0.437200X0.122200X0*%
%ADD48RoundRect,0.007800X0.122200X-0.437200X0.122200X0.437200X-0.122200X0.437200X-0.122200X-0.437200X0*%
%ADD49C,0.600000*%
%ADD50R,0.280000X2.600000*%
%ADD51RoundRect,0.147500X0.172500X-0.147500X0.172500X0.147500X-0.172500X0.147500X-0.172500X-0.147500X0*%
%ADD52RoundRect,0.140000X-0.021213X0.219203X-0.219203X0.021213X0.021213X-0.219203X0.219203X-0.021213X0*%
%ADD53R,2.475000X1.475000*%
%ADD54R,2.475000X1.500000*%
%ADD55R,2.500000X1.825000*%
%ADD56R,2.500000X1.500000*%
%ADD57R,2.500000X1.550000*%
%ADD58R,0.700000X1.600000*%
%ADD59R,1.200000X1.500000*%
%ADD60R,1.200000X2.200000*%
%ADD61R,1.600000X1.500000*%
%ADD62RoundRect,0.150000X-0.150000X0.587500X-0.150000X-0.587500X0.150000X-0.587500X0.150000X0.587500X0*%
G04 APERTURE END LIST*
D10*
X135110000Y-103000000D02*
G75*
G03*
X135110000Y-103000000I-175000J0D01*
G01*
X134110000Y-101000000D02*
G75*
G03*
X134110000Y-101000000I-175000J0D01*
G01*
X133110000Y-103000000D02*
G75*
G03*
X133110000Y-103000000I-175000J0D01*
G01*
X134110000Y-103000000D02*
G75*
G03*
X134110000Y-103000000I-175000J0D01*
G01*
X133110000Y-102000000D02*
G75*
G03*
X133110000Y-102000000I-175000J0D01*
G01*
X132110000Y-99000000D02*
G75*
G03*
X132110000Y-99000000I-175000J0D01*
G01*
X134110000Y-99000000D02*
G75*
G03*
X134110000Y-99000000I-175000J0D01*
G01*
X136110000Y-101000000D02*
G75*
G03*
X136110000Y-101000000I-175000J0D01*
G01*
X136110000Y-99000000D02*
G75*
G03*
X136110000Y-99000000I-175000J0D01*
G01*
X133110000Y-100000000D02*
G75*
G03*
X133110000Y-100000000I-175000J0D01*
G01*
X136110000Y-103000000D02*
G75*
G03*
X136110000Y-103000000I-175000J0D01*
G01*
X136110000Y-100000000D02*
G75*
G03*
X136110000Y-100000000I-175000J0D01*
G01*
X135110000Y-99000000D02*
G75*
G03*
X135110000Y-99000000I-175000J0D01*
G01*
X133110000Y-99000000D02*
G75*
G03*
X133110000Y-99000000I-175000J0D01*
G01*
X134110000Y-100000000D02*
G75*
G03*
X134110000Y-100000000I-175000J0D01*
G01*
X134110000Y-102000000D02*
G75*
G03*
X134110000Y-102000000I-175000J0D01*
G01*
X135110000Y-101000000D02*
G75*
G03*
X135110000Y-101000000I-175000J0D01*
G01*
X132110000Y-102000000D02*
G75*
G03*
X132110000Y-102000000I-175000J0D01*
G01*
X132110000Y-101000000D02*
G75*
G03*
X132110000Y-101000000I-175000J0D01*
G01*
X135110000Y-102000000D02*
G75*
G03*
X135110000Y-102000000I-175000J0D01*
G01*
X135110000Y-100000000D02*
G75*
G03*
X135110000Y-100000000I-175000J0D01*
G01*
X132110000Y-100000000D02*
G75*
G03*
X132110000Y-100000000I-175000J0D01*
G01*
X133110000Y-101000000D02*
G75*
G03*
X133110000Y-101000000I-175000J0D01*
G01*
X132110000Y-103000000D02*
G75*
G03*
X132110000Y-103000000I-175000J0D01*
G01*
X136110000Y-102000000D02*
G75*
G03*
X136110000Y-102000000I-175000J0D01*
G01*
D11*
X169180000Y-100850000D03*
X168220000Y-100850000D03*
D12*
X130050589Y-108730589D03*
X130729411Y-109409411D03*
D13*
X141900000Y-97470000D03*
X141900000Y-98430000D03*
D14*
X146720000Y-91000000D03*
X147680000Y-91000000D03*
D15*
X141900000Y-88430000D03*
X141900000Y-87470000D03*
D14*
X139370000Y-101250000D03*
X140330000Y-101250000D03*
D16*
X171746178Y-85650000D03*
X172425000Y-84971178D03*
D14*
X164495000Y-90750000D03*
X165455000Y-90750000D03*
X199545000Y-102650000D03*
X200505000Y-102650000D03*
D13*
X196940000Y-80920000D03*
X196940000Y-81880000D03*
X135200000Y-106470000D03*
X135200000Y-107430000D03*
D15*
X160915000Y-119635000D03*
X160915000Y-118675000D03*
D17*
X209822875Y-93000000D03*
D18*
X131286307Y-107976256D03*
X132523744Y-109213693D03*
X133513693Y-108223744D03*
X132276256Y-106986307D03*
D19*
X175239411Y-85639411D03*
X174560589Y-84960589D03*
D20*
X149340000Y-107767830D03*
X149680000Y-107467830D03*
X149000000Y-107467830D03*
D15*
X171825000Y-88780000D03*
X171825000Y-87820000D03*
D21*
X187085000Y-90510000D03*
X187085000Y-89490000D03*
D17*
X209822875Y-90000000D03*
D11*
X199855000Y-96025000D03*
X198895000Y-96025000D03*
D22*
X189390000Y-77060000D03*
X189390000Y-78760000D03*
D13*
X139150000Y-87420000D03*
X139150000Y-88380000D03*
D23*
X187600000Y-95152500D03*
X187600000Y-93327500D03*
D21*
X188250000Y-103580000D03*
X188250000Y-102560000D03*
D24*
X172741117Y-86643934D03*
X173731066Y-87633883D03*
X174508883Y-86856066D03*
X173518934Y-85866117D03*
D25*
X136990000Y-95500000D03*
X138010000Y-95500000D03*
D14*
X198110000Y-93220000D03*
X199070000Y-93220000D03*
X158320000Y-99750000D03*
X159280000Y-99750000D03*
D16*
X150800589Y-95059411D03*
X151479411Y-94380589D03*
D13*
X202500000Y-93390000D03*
X202500000Y-94350000D03*
D26*
X164950000Y-83937500D03*
X164950000Y-80862500D03*
D15*
X143900000Y-106522830D03*
X143900000Y-105562830D03*
D27*
X130635000Y-87150000D03*
X129615000Y-87150000D03*
D28*
X186715000Y-100200000D03*
X187685000Y-100200000D03*
D17*
X209822875Y-96000000D03*
D29*
X137675000Y-91450000D03*
X136125000Y-91450000D03*
D17*
X209822875Y-97500000D03*
X209822875Y-100500000D03*
D21*
X185960000Y-90510000D03*
X185960000Y-89490000D03*
D27*
X165435000Y-99500000D03*
X164415000Y-99500000D03*
D13*
X157650000Y-104670000D03*
X157650000Y-105630000D03*
D14*
X129645000Y-89650000D03*
X130605000Y-89650000D03*
D29*
X137675000Y-88850000D03*
X136125000Y-88850000D03*
D13*
X136250000Y-106470000D03*
X136250000Y-107430000D03*
D30*
X147100000Y-92240000D03*
X147100000Y-93260000D03*
D26*
X151250000Y-83887500D03*
X151250000Y-80812500D03*
D14*
X184470000Y-94460000D03*
X185430000Y-94460000D03*
X129645000Y-88350000D03*
X130605000Y-88350000D03*
X158320000Y-100810000D03*
X159280000Y-100810000D03*
D11*
X150330000Y-99750000D03*
X149370000Y-99750000D03*
D31*
X147015000Y-88750000D03*
X148565000Y-88750000D03*
D32*
X198490000Y-77810000D03*
X197990000Y-77810000D03*
X197490000Y-77810000D03*
X196990000Y-77810000D03*
X196490000Y-77810000D03*
X195990000Y-77810000D03*
X195490000Y-77810000D03*
X194990000Y-77810000D03*
X194490000Y-77810000D03*
X193990000Y-77810000D03*
X193490000Y-77810000D03*
X192990000Y-77810000D03*
D27*
X159335000Y-98650000D03*
X158315000Y-98650000D03*
D33*
X142400000Y-94280000D03*
X141170000Y-91820000D03*
X141170000Y-93050000D03*
X143630000Y-93050000D03*
X143630000Y-91820000D03*
X143630000Y-94280000D03*
X142400000Y-91820000D03*
X141170000Y-94280000D03*
X142400000Y-93050000D03*
D34*
X144400000Y-90112500D03*
X143900000Y-90112500D03*
X143400000Y-90112500D03*
X142900000Y-90112500D03*
X142400000Y-90112500D03*
X141900000Y-90112500D03*
X141400000Y-90112500D03*
X140900000Y-90112500D03*
X140400000Y-90112500D03*
D35*
X139462500Y-91050000D03*
X139462500Y-91550000D03*
X139462500Y-92050000D03*
X139462500Y-92550000D03*
X139462500Y-93050000D03*
X139462500Y-93550000D03*
X139462500Y-94050000D03*
X139462500Y-94550000D03*
X139462500Y-95050000D03*
D34*
X140400000Y-95987500D03*
X140900000Y-95987500D03*
X141400000Y-95987500D03*
X141900000Y-95987500D03*
X142400000Y-95987500D03*
X142900000Y-95987500D03*
X143400000Y-95987500D03*
X143900000Y-95987500D03*
X144400000Y-95987500D03*
D35*
X145337500Y-95050000D03*
X145337500Y-94550000D03*
X145337500Y-94050000D03*
X145337500Y-93550000D03*
X145337500Y-93050000D03*
X145337500Y-92550000D03*
X145337500Y-92050000D03*
X145337500Y-91550000D03*
X145337500Y-91050000D03*
D15*
X168130000Y-106740000D03*
X168130000Y-105780000D03*
D25*
X186690000Y-101300000D03*
X187710000Y-101300000D03*
D13*
X198310000Y-80930000D03*
X198310000Y-81890000D03*
D15*
X132350000Y-95730000D03*
X132350000Y-94770000D03*
X142490000Y-106520000D03*
X142490000Y-105560000D03*
D36*
X200145000Y-99775000D03*
X200145000Y-97575000D03*
X198445000Y-97575000D03*
X198445000Y-99775000D03*
D11*
X169180000Y-94450000D03*
X168220000Y-94450000D03*
D21*
X128350000Y-108260000D03*
X128350000Y-107240000D03*
D13*
X156500000Y-104670000D03*
X156500000Y-105630000D03*
X197400000Y-103010000D03*
X197400000Y-103970000D03*
D11*
X169180000Y-98050000D03*
X168220000Y-98050000D03*
D17*
X209822875Y-91500000D03*
D37*
X155075000Y-100125000D03*
X153325000Y-101875000D03*
X155075000Y-101875000D03*
X153325000Y-100125000D03*
D38*
X156650000Y-102750000D03*
X156650000Y-102250000D03*
X156650000Y-101750000D03*
X156650000Y-101250000D03*
X156650000Y-100750000D03*
X156650000Y-100250000D03*
X156650000Y-99750000D03*
X156650000Y-99250000D03*
D39*
X155950000Y-98550000D03*
X155450000Y-98550000D03*
X154950000Y-98550000D03*
X154450000Y-98550000D03*
X153950000Y-98550000D03*
X153450000Y-98550000D03*
X152950000Y-98550000D03*
X152450000Y-98550000D03*
D38*
X151750000Y-99250000D03*
X151750000Y-99750000D03*
X151750000Y-100250000D03*
X151750000Y-100750000D03*
X151750000Y-101250000D03*
X151750000Y-101750000D03*
X151750000Y-102250000D03*
X151750000Y-102750000D03*
D39*
X152450000Y-103450000D03*
X152950000Y-103450000D03*
X153450000Y-103450000D03*
X153950000Y-103450000D03*
X154450000Y-103450000D03*
X154950000Y-103450000D03*
X155450000Y-103450000D03*
X155950000Y-103450000D03*
D11*
X150330000Y-98700000D03*
X149370000Y-98700000D03*
D40*
X126260000Y-94287000D03*
X126260000Y-91787000D03*
X126260000Y-88487000D03*
X126260000Y-86787000D03*
X126260000Y-84287000D03*
X126260000Y-81787000D03*
X126260000Y-79357000D03*
X126260000Y-77657000D03*
X126260000Y-96787000D03*
X126260000Y-90137000D03*
D41*
X105260000Y-101507000D03*
D42*
X114235000Y-73407000D03*
D41*
X104060000Y-74057000D03*
D40*
X126260000Y-74307000D03*
D21*
X189305000Y-90510000D03*
X189305000Y-89490000D03*
D43*
X150136066Y-92286117D03*
X149146117Y-93276066D03*
X149923934Y-94053883D03*
X150913883Y-93063934D03*
D27*
X159310000Y-103050000D03*
X158290000Y-103050000D03*
X165485000Y-94000000D03*
X164465000Y-94000000D03*
D17*
X209822875Y-102000000D03*
D13*
X150700000Y-104720000D03*
X150700000Y-105680000D03*
D27*
X165435000Y-100650000D03*
X164415000Y-100650000D03*
D14*
X184470000Y-99100000D03*
X185430000Y-99100000D03*
D11*
X150280000Y-102550000D03*
X149320000Y-102550000D03*
D17*
X209822875Y-105000000D03*
D44*
X171000000Y-91250000D03*
X171000000Y-91650000D03*
X171000000Y-92050000D03*
X171000000Y-92450000D03*
X171000000Y-92850000D03*
X171000000Y-93250000D03*
X171000000Y-93650000D03*
X171000000Y-94050000D03*
X171000000Y-94450000D03*
X171000000Y-94850000D03*
X171000000Y-95250000D03*
X171000000Y-95650000D03*
X171000000Y-96050000D03*
X171000000Y-96450000D03*
X171000000Y-96850000D03*
X171000000Y-97250000D03*
X171000000Y-97650000D03*
X171000000Y-98050000D03*
X171000000Y-98450000D03*
X171000000Y-98850000D03*
X171000000Y-99250000D03*
X171000000Y-99650000D03*
X171000000Y-100050000D03*
X171000000Y-100450000D03*
X171000000Y-100850000D03*
D45*
X172050000Y-101900000D03*
X172450000Y-101900000D03*
X172850000Y-101900000D03*
X173250000Y-101900000D03*
X173650000Y-101900000D03*
X174050000Y-101900000D03*
X174450000Y-101900000D03*
X174850000Y-101900000D03*
X175250000Y-101900000D03*
X175650000Y-101900000D03*
X176050000Y-101900000D03*
X176450000Y-101900000D03*
X176850000Y-101900000D03*
X177250000Y-101900000D03*
X177650000Y-101900000D03*
X178050000Y-101900000D03*
X178450000Y-101900000D03*
X178850000Y-101900000D03*
X179250000Y-101900000D03*
X179650000Y-101900000D03*
X180050000Y-101900000D03*
X180450000Y-101900000D03*
X180850000Y-101900000D03*
X181250000Y-101900000D03*
X181650000Y-101900000D03*
D44*
X182700000Y-100850000D03*
X182700000Y-100450000D03*
X182700000Y-100050000D03*
X182700000Y-99650000D03*
X182700000Y-99250000D03*
X182700000Y-98850000D03*
X182700000Y-98450000D03*
X182700000Y-98050000D03*
X182700000Y-97650000D03*
X182700000Y-97250000D03*
X182700000Y-96850000D03*
X182700000Y-96450000D03*
X182700000Y-96050000D03*
X182700000Y-95650000D03*
X182700000Y-95250000D03*
X182700000Y-94850000D03*
X182700000Y-94450000D03*
X182700000Y-94050000D03*
X182700000Y-93650000D03*
X182700000Y-93250000D03*
X182700000Y-92850000D03*
X182700000Y-92450000D03*
X182700000Y-92050000D03*
X182700000Y-91650000D03*
X182700000Y-91250000D03*
D45*
X181650000Y-90200000D03*
X181250000Y-90200000D03*
X180850000Y-90200000D03*
X180450000Y-90200000D03*
X180050000Y-90200000D03*
X179650000Y-90200000D03*
X179250000Y-90200000D03*
X178850000Y-90200000D03*
X178450000Y-90200000D03*
X178050000Y-90200000D03*
X177650000Y-90200000D03*
X177250000Y-90200000D03*
X176850000Y-90200000D03*
X176450000Y-90200000D03*
X176050000Y-90200000D03*
X175650000Y-90200000D03*
X175250000Y-90200000D03*
X174850000Y-90200000D03*
X174450000Y-90200000D03*
X174050000Y-90200000D03*
X173650000Y-90200000D03*
X173250000Y-90200000D03*
X172850000Y-90200000D03*
X172450000Y-90200000D03*
X172050000Y-90200000D03*
D46*
X176850000Y-96050000D03*
D11*
X150280000Y-103650000D03*
X149320000Y-103650000D03*
D47*
X129995000Y-97750000D03*
X129995000Y-98250000D03*
X129995000Y-98750000D03*
X129995000Y-99250000D03*
X129995000Y-99750000D03*
X129995000Y-100250000D03*
X129995000Y-100750000D03*
X129995000Y-101250000D03*
X129995000Y-101750000D03*
X129995000Y-102250000D03*
X129995000Y-102750000D03*
X129995000Y-103250000D03*
X129995000Y-103750000D03*
X129995000Y-104250000D03*
D48*
X130685000Y-104940000D03*
X131185000Y-104940000D03*
X131685000Y-104940000D03*
X132185000Y-104940000D03*
X132685000Y-104940000D03*
X133185000Y-104940000D03*
X133685000Y-104940000D03*
X134185000Y-104940000D03*
X134685000Y-104940000D03*
X135185000Y-104940000D03*
X135685000Y-104940000D03*
X136185000Y-104940000D03*
X136685000Y-104940000D03*
X137185000Y-104940000D03*
D47*
X137875000Y-104250000D03*
X137875000Y-103750000D03*
X137875000Y-103250000D03*
X137875000Y-102750000D03*
X137875000Y-102250000D03*
X137875000Y-101750000D03*
X137875000Y-101250000D03*
X137875000Y-100750000D03*
X137875000Y-100250000D03*
X137875000Y-99750000D03*
X137875000Y-99250000D03*
X137875000Y-98750000D03*
X137875000Y-98250000D03*
X137875000Y-97750000D03*
D48*
X137185000Y-97060000D03*
X136685000Y-97060000D03*
X136185000Y-97060000D03*
X135685000Y-97060000D03*
X135185000Y-97060000D03*
X134685000Y-97060000D03*
X134185000Y-97060000D03*
X133685000Y-97060000D03*
X133185000Y-97060000D03*
X132685000Y-97060000D03*
X132185000Y-97060000D03*
X131685000Y-97060000D03*
X131185000Y-97060000D03*
X130685000Y-97060000D03*
D27*
X165485000Y-92900000D03*
X164465000Y-92900000D03*
X165435000Y-101800000D03*
X164415000Y-101800000D03*
D17*
X209822875Y-99000000D03*
D11*
X137980000Y-93050000D03*
X137020000Y-93050000D03*
D17*
X209822875Y-103500000D03*
D13*
X151850000Y-104670000D03*
X151850000Y-105630000D03*
D49*
X190387500Y-94380000D03*
X191187500Y-94380000D03*
X191987500Y-94380000D03*
X192787500Y-94380000D03*
X193587500Y-94380000D03*
X194387500Y-94380000D03*
X195187500Y-94380000D03*
X195987500Y-94380000D03*
X190387500Y-95180000D03*
X191187500Y-95180000D03*
X191987500Y-95180000D03*
X192787500Y-95180000D03*
X193587500Y-95180000D03*
X194387500Y-95180000D03*
X195187500Y-95180000D03*
X195987500Y-95180000D03*
X190387500Y-95980000D03*
X191187500Y-95980000D03*
X191987500Y-95980000D03*
X192787500Y-95980000D03*
X193587500Y-95980000D03*
X194387500Y-95980000D03*
X195187500Y-95980000D03*
X195987500Y-95980000D03*
X190387500Y-96780000D03*
X191187500Y-96780000D03*
X191987500Y-96780000D03*
X192787500Y-96780000D03*
X193587500Y-96780000D03*
X194387500Y-96780000D03*
X195187500Y-96780000D03*
X195987500Y-96780000D03*
X190387500Y-97580000D03*
X191187500Y-97580000D03*
X191987500Y-97580000D03*
X192787500Y-97580000D03*
X193587500Y-97580000D03*
X194387500Y-97580000D03*
X195187500Y-97580000D03*
X195987500Y-97580000D03*
X190387500Y-98380000D03*
X191187500Y-98380000D03*
X191987500Y-98380000D03*
X192787500Y-98380000D03*
X193587500Y-98380000D03*
X194387500Y-98380000D03*
X195187500Y-98380000D03*
X195987500Y-98380000D03*
X190387500Y-99180000D03*
X191187500Y-99180000D03*
X191987500Y-99180000D03*
X192787500Y-99180000D03*
X193587500Y-99180000D03*
X194387500Y-99180000D03*
X195187500Y-99180000D03*
X195987500Y-99180000D03*
X190387500Y-99980000D03*
X191187500Y-99980000D03*
X191987500Y-99980000D03*
X192787500Y-99980000D03*
X193587500Y-99980000D03*
X194387500Y-99980000D03*
X195187500Y-99980000D03*
X195987500Y-99980000D03*
D50*
X199922500Y-111600000D03*
X199422500Y-111600000D03*
X198922500Y-111600000D03*
X198422500Y-111600000D03*
X197922500Y-111600000D03*
X197422500Y-111600000D03*
X196922500Y-111600000D03*
X196422500Y-111600000D03*
X195922500Y-111600000D03*
X195422500Y-111600000D03*
X194922500Y-111600000D03*
X194422500Y-111600000D03*
X193922500Y-111600000D03*
X193422500Y-111600000D03*
X192922500Y-111600000D03*
X192422500Y-111600000D03*
X191922500Y-111600000D03*
X191422500Y-111600000D03*
X190922500Y-111600000D03*
D13*
X156340000Y-116770000D03*
X156340000Y-117730000D03*
D17*
X209822875Y-94500000D03*
D14*
X184470000Y-100200000D03*
X185430000Y-100200000D03*
D51*
X187100000Y-103535000D03*
X187100000Y-102565000D03*
D25*
X146780000Y-87450000D03*
X147800000Y-87450000D03*
D27*
X147710000Y-95925000D03*
X146690000Y-95925000D03*
D21*
X188185000Y-90510000D03*
X188185000Y-89490000D03*
D17*
X209822875Y-88500000D03*
D11*
X128780000Y-105100000D03*
X127820000Y-105100000D03*
D51*
X137500000Y-107435000D03*
X137500000Y-106465000D03*
D27*
X165485000Y-89650000D03*
X164465000Y-89650000D03*
D26*
X150950000Y-77887500D03*
X150950000Y-74812500D03*
D52*
X134729411Y-108980589D03*
X134050589Y-109659411D03*
D14*
X199545000Y-101415000D03*
X200505000Y-101415000D03*
D15*
X166970000Y-106730000D03*
X166970000Y-105770000D03*
D31*
X129550000Y-91350000D03*
X131100000Y-91350000D03*
D27*
X159360000Y-97400000D03*
X158340000Y-97400000D03*
D53*
X161332500Y-74137500D03*
X154807500Y-74137500D03*
D54*
X154807500Y-77550000D03*
D55*
X154795000Y-83387500D03*
D56*
X161320000Y-83550000D03*
D57*
X161320000Y-81375000D03*
D15*
X134450000Y-95730000D03*
X134450000Y-94770000D03*
D27*
X199090000Y-92120000D03*
X198070000Y-92120000D03*
X165485000Y-91850000D03*
X164465000Y-91850000D03*
D58*
X135800000Y-85000000D03*
X136900000Y-85000000D03*
X138000000Y-85000000D03*
X139100000Y-85000000D03*
X140200000Y-85000000D03*
X141300000Y-85000000D03*
X142400000Y-85000000D03*
X143500000Y-85000000D03*
X144600000Y-85000000D03*
D59*
X145800000Y-84000000D03*
D60*
X145800000Y-74400000D03*
X130300000Y-74400000D03*
D61*
X131200000Y-84000000D03*
D62*
X159575000Y-117312500D03*
X157675000Y-117312500D03*
X158625000Y-119187500D03*
D12*
X151140589Y-91430589D03*
X151819411Y-92109411D03*
M02*
