G04 #@! TF.GenerationSoftware,KiCad,Pcbnew,(6.0.7)*
G04 #@! TF.CreationDate,2022-11-24T18:50:26+03:00*
G04 #@! TF.ProjectId,USB_HUB_ADAPTER,5553425f-4855-4425-9f41-444150544552,rev?*
G04 #@! TF.SameCoordinates,Original*
G04 #@! TF.FileFunction,Soldermask,Top*
G04 #@! TF.FilePolarity,Negative*
%FSLAX46Y46*%
G04 Gerber Fmt 4.6, Leading zero omitted, Abs format (unit mm)*
G04 Created by KiCad (PCBNEW (6.0.7)) date 2022-11-24 18:50:26*
%MOMM*%
%LPD*%
G01*
G04 APERTURE LIST*
G04 Aperture macros list*
%AMRoundRect*
0 Rectangle with rounded corners*
0 $1 Rounding radius*
0 $2 $3 $4 $5 $6 $7 $8 $9 X,Y pos of 4 corners*
0 Add a 4 corners polygon primitive as box body*
4,1,4,$2,$3,$4,$5,$6,$7,$8,$9,$2,$3,0*
0 Add four circle primitives for the rounded corners*
1,1,$1+$1,$2,$3*
1,1,$1+$1,$4,$5*
1,1,$1+$1,$6,$7*
1,1,$1+$1,$8,$9*
0 Add four rect primitives between the rounded corners*
20,1,$1+$1,$2,$3,$4,$5,0*
20,1,$1+$1,$4,$5,$6,$7,0*
20,1,$1+$1,$6,$7,$8,$9,0*
20,1,$1+$1,$8,$9,$2,$3,0*%
%AMRotRect*
0 Rectangle, with rotation*
0 The origin of the aperture is its center*
0 $1 length*
0 $2 width*
0 $3 Rotation angle, in degrees counterclockwise*
0 Add horizontal line*
21,1,$1,$2,0,0,$3*%
G04 Aperture macros list end*
%ADD10C,0.010000*%
%ADD11C,3.200000*%
%ADD12RoundRect,0.140000X0.140000X0.170000X-0.140000X0.170000X-0.140000X-0.170000X0.140000X-0.170000X0*%
%ADD13RoundRect,0.140000X-0.219203X-0.021213X-0.021213X-0.219203X0.219203X0.021213X0.021213X0.219203X0*%
%ADD14RoundRect,0.140000X-0.170000X0.140000X-0.170000X-0.140000X0.170000X-0.140000X0.170000X0.140000X0*%
%ADD15RoundRect,0.140000X-0.140000X-0.170000X0.140000X-0.170000X0.140000X0.170000X-0.140000X0.170000X0*%
%ADD16C,3.250000*%
%ADD17R,1.400000X1.400000*%
%ADD18C,1.400000*%
%ADD19C,1.530000*%
%ADD20C,2.400000*%
%ADD21RoundRect,0.140000X0.170000X-0.140000X0.170000X0.140000X-0.170000X0.140000X-0.170000X-0.140000X0*%
%ADD22RoundRect,0.140000X0.021213X-0.219203X0.219203X-0.021213X-0.021213X0.219203X-0.219203X0.021213X0*%
%ADD23R,1.800000X0.800000*%
%ADD24RotRect,1.150000X1.000000X315.000000*%
%ADD25RoundRect,0.140000X0.219203X0.021213X0.021213X0.219203X-0.219203X-0.021213X-0.021213X-0.219203X0*%
%ADD26R,0.200000X0.200000*%
%ADD27RoundRect,0.135000X0.185000X-0.135000X0.185000X0.135000X-0.185000X0.135000X-0.185000X-0.135000X0*%
%ADD28C,1.300000*%
%ADD29C,2.925000*%
%ADD30C,3.345000*%
%ADD31R,0.350000X0.400000*%
%ADD32RoundRect,0.250000X0.450000X-0.262500X0.450000X0.262500X-0.450000X0.262500X-0.450000X-0.262500X0*%
%ADD33RotRect,0.900000X0.800000X315.000000*%
%ADD34RoundRect,0.135000X-0.135000X-0.185000X0.135000X-0.185000X0.135000X0.185000X-0.135000X0.185000X0*%
%ADD35RoundRect,0.250000X0.925000X-0.412500X0.925000X0.412500X-0.925000X0.412500X-0.925000X-0.412500X0*%
%ADD36RoundRect,0.135000X0.135000X0.185000X-0.135000X0.185000X-0.135000X-0.185000X0.135000X-0.185000X0*%
%ADD37RoundRect,0.147500X-0.147500X-0.172500X0.147500X-0.172500X0.147500X0.172500X-0.147500X0.172500X0*%
%ADD38RoundRect,0.225000X0.225000X0.250000X-0.225000X0.250000X-0.225000X-0.250000X0.225000X-0.250000X0*%
%ADD39RoundRect,0.135000X-0.185000X0.135000X-0.185000X-0.135000X0.185000X-0.135000X0.185000X0.135000X0*%
%ADD40RoundRect,0.225000X-0.225000X-0.250000X0.225000X-0.250000X0.225000X0.250000X-0.225000X0.250000X0*%
%ADD41C,0.650000*%
%ADD42R,0.300000X0.900000*%
%ADD43C,0.600000*%
%ADD44RoundRect,0.062500X-0.062500X0.350000X-0.062500X-0.350000X0.062500X-0.350000X0.062500X0.350000X0*%
%ADD45RoundRect,0.062500X-0.350000X0.062500X-0.350000X-0.062500X0.350000X-0.062500X0.350000X0.062500X0*%
%ADD46R,3.700000X3.700000*%
%ADD47R,1.200000X1.400000*%
%ADD48RoundRect,0.062500X0.337500X0.062500X-0.337500X0.062500X-0.337500X-0.062500X0.337500X-0.062500X0*%
%ADD49RoundRect,0.062500X0.062500X0.337500X-0.062500X0.337500X-0.062500X-0.337500X0.062500X-0.337500X0*%
%ADD50R,3.500000X3.500000*%
%ADD51C,1.500000*%
%ADD52R,1.500000X1.000000*%
%ADD53R,2.000000X1.200000*%
%ADD54R,8.050000X1.300000*%
%ADD55RotRect,0.900000X0.800000X225.000000*%
%ADD56R,1.050000X0.200000*%
%ADD57R,0.200000X1.050000*%
%ADD58R,8.100000X8.100000*%
%ADD59RoundRect,0.007800X-0.437200X-0.122200X0.437200X-0.122200X0.437200X0.122200X-0.437200X0.122200X0*%
%ADD60RoundRect,0.007800X0.122200X-0.437200X0.122200X0.437200X-0.122200X0.437200X-0.122200X-0.437200X0*%
%ADD61R,5.900000X5.900000*%
%ADD62C,0.760000*%
%ADD63R,0.280000X2.600000*%
%ADD64C,3.400000*%
%ADD65C,2.500000*%
%ADD66RoundRect,0.147500X0.172500X-0.147500X0.172500X0.147500X-0.172500X0.147500X-0.172500X-0.147500X0*%
%ADD67RoundRect,0.140000X-0.021213X0.219203X-0.219203X0.021213X0.021213X-0.219203X0.219203X-0.021213X0*%
%ADD68R,2.475000X1.475000*%
%ADD69R,2.475000X1.500000*%
%ADD70R,2.500000X1.825000*%
%ADD71R,2.500000X1.500000*%
%ADD72R,2.500000X1.550000*%
%ADD73C,1.000000*%
%ADD74R,0.700000X1.600000*%
%ADD75R,1.200000X1.500000*%
%ADD76R,1.200000X2.200000*%
%ADD77R,1.600000X1.500000*%
%ADD78RoundRect,0.150000X-0.150000X0.587500X-0.150000X-0.587500X0.150000X-0.587500X0.150000X0.587500X0*%
G04 APERTURE END LIST*
G36*
X191276000Y-70811000D02*
G01*
X191302000Y-70813000D01*
X191328000Y-70816000D01*
X191354000Y-70821000D01*
X191379000Y-70827000D01*
X191405000Y-70834000D01*
X191429000Y-70843000D01*
X191453000Y-70853000D01*
X191477000Y-70864000D01*
X191500000Y-70877000D01*
X191544000Y-70905000D01*
X191565000Y-70921000D01*
X191585000Y-70938000D01*
X191604000Y-70956000D01*
X191622000Y-70975000D01*
X191639000Y-70995000D01*
X191655000Y-71016000D01*
X191683000Y-71060000D01*
X191696000Y-71083000D01*
X191707000Y-71107000D01*
X191717000Y-71131000D01*
X191726000Y-71155000D01*
X191733000Y-71181000D01*
X191739000Y-71206000D01*
X191744000Y-71232000D01*
X191747000Y-71258000D01*
X191749000Y-71284000D01*
X191750000Y-71310000D01*
X191750000Y-71910000D01*
X191749000Y-71936000D01*
X191747000Y-71962000D01*
X191744000Y-71988000D01*
X191739000Y-72014000D01*
X191733000Y-72039000D01*
X191726000Y-72065000D01*
X191717000Y-72089000D01*
X191707000Y-72113000D01*
X191696000Y-72137000D01*
X191683000Y-72160000D01*
X191655000Y-72204000D01*
X191639000Y-72225000D01*
X191622000Y-72245000D01*
X191604000Y-72264000D01*
X191585000Y-72282000D01*
X191565000Y-72299000D01*
X191544000Y-72315000D01*
X191500000Y-72343000D01*
X191477000Y-72356000D01*
X191453000Y-72367000D01*
X191429000Y-72377000D01*
X191405000Y-72386000D01*
X191379000Y-72393000D01*
X191354000Y-72399000D01*
X191328000Y-72404000D01*
X191302000Y-72407000D01*
X191276000Y-72409000D01*
X191250000Y-72410000D01*
X191224000Y-72409000D01*
X191198000Y-72407000D01*
X191172000Y-72404000D01*
X191146000Y-72399000D01*
X191121000Y-72393000D01*
X191095000Y-72386000D01*
X191071000Y-72377000D01*
X191047000Y-72367000D01*
X191023000Y-72356000D01*
X191000000Y-72343000D01*
X190956000Y-72315000D01*
X190935000Y-72299000D01*
X190915000Y-72282000D01*
X190896000Y-72264000D01*
X190878000Y-72245000D01*
X190861000Y-72225000D01*
X190845000Y-72204000D01*
X190817000Y-72160000D01*
X190804000Y-72137000D01*
X190793000Y-72113000D01*
X190783000Y-72089000D01*
X190774000Y-72065000D01*
X190767000Y-72039000D01*
X190761000Y-72014000D01*
X190756000Y-71988000D01*
X190753000Y-71962000D01*
X190751000Y-71936000D01*
X190750000Y-71910000D01*
X190750000Y-71310000D01*
X190751000Y-71284000D01*
X190753000Y-71258000D01*
X190756000Y-71232000D01*
X190761000Y-71206000D01*
X190767000Y-71181000D01*
X190774000Y-71155000D01*
X190783000Y-71131000D01*
X190793000Y-71107000D01*
X190804000Y-71083000D01*
X190817000Y-71060000D01*
X190845000Y-71016000D01*
X190861000Y-70995000D01*
X190878000Y-70975000D01*
X190896000Y-70956000D01*
X190915000Y-70938000D01*
X190935000Y-70921000D01*
X190956000Y-70905000D01*
X191000000Y-70877000D01*
X191023000Y-70864000D01*
X191047000Y-70853000D01*
X191071000Y-70843000D01*
X191095000Y-70834000D01*
X191121000Y-70827000D01*
X191146000Y-70821000D01*
X191172000Y-70816000D01*
X191198000Y-70813000D01*
X191224000Y-70811000D01*
X191250000Y-70810000D01*
X191276000Y-70811000D01*
G37*
D10*
X191276000Y-70811000D02*
X191302000Y-70813000D01*
X191328000Y-70816000D01*
X191354000Y-70821000D01*
X191379000Y-70827000D01*
X191405000Y-70834000D01*
X191429000Y-70843000D01*
X191453000Y-70853000D01*
X191477000Y-70864000D01*
X191500000Y-70877000D01*
X191544000Y-70905000D01*
X191565000Y-70921000D01*
X191585000Y-70938000D01*
X191604000Y-70956000D01*
X191622000Y-70975000D01*
X191639000Y-70995000D01*
X191655000Y-71016000D01*
X191683000Y-71060000D01*
X191696000Y-71083000D01*
X191707000Y-71107000D01*
X191717000Y-71131000D01*
X191726000Y-71155000D01*
X191733000Y-71181000D01*
X191739000Y-71206000D01*
X191744000Y-71232000D01*
X191747000Y-71258000D01*
X191749000Y-71284000D01*
X191750000Y-71310000D01*
X191750000Y-71910000D01*
X191749000Y-71936000D01*
X191747000Y-71962000D01*
X191744000Y-71988000D01*
X191739000Y-72014000D01*
X191733000Y-72039000D01*
X191726000Y-72065000D01*
X191717000Y-72089000D01*
X191707000Y-72113000D01*
X191696000Y-72137000D01*
X191683000Y-72160000D01*
X191655000Y-72204000D01*
X191639000Y-72225000D01*
X191622000Y-72245000D01*
X191604000Y-72264000D01*
X191585000Y-72282000D01*
X191565000Y-72299000D01*
X191544000Y-72315000D01*
X191500000Y-72343000D01*
X191477000Y-72356000D01*
X191453000Y-72367000D01*
X191429000Y-72377000D01*
X191405000Y-72386000D01*
X191379000Y-72393000D01*
X191354000Y-72399000D01*
X191328000Y-72404000D01*
X191302000Y-72407000D01*
X191276000Y-72409000D01*
X191250000Y-72410000D01*
X191224000Y-72409000D01*
X191198000Y-72407000D01*
X191172000Y-72404000D01*
X191146000Y-72399000D01*
X191121000Y-72393000D01*
X191095000Y-72386000D01*
X191071000Y-72377000D01*
X191047000Y-72367000D01*
X191023000Y-72356000D01*
X191000000Y-72343000D01*
X190956000Y-72315000D01*
X190935000Y-72299000D01*
X190915000Y-72282000D01*
X190896000Y-72264000D01*
X190878000Y-72245000D01*
X190861000Y-72225000D01*
X190845000Y-72204000D01*
X190817000Y-72160000D01*
X190804000Y-72137000D01*
X190793000Y-72113000D01*
X190783000Y-72089000D01*
X190774000Y-72065000D01*
X190767000Y-72039000D01*
X190761000Y-72014000D01*
X190756000Y-71988000D01*
X190753000Y-71962000D01*
X190751000Y-71936000D01*
X190750000Y-71910000D01*
X190750000Y-71310000D01*
X190751000Y-71284000D01*
X190753000Y-71258000D01*
X190756000Y-71232000D01*
X190761000Y-71206000D01*
X190767000Y-71181000D01*
X190774000Y-71155000D01*
X190783000Y-71131000D01*
X190793000Y-71107000D01*
X190804000Y-71083000D01*
X190817000Y-71060000D01*
X190845000Y-71016000D01*
X190861000Y-70995000D01*
X190878000Y-70975000D01*
X190896000Y-70956000D01*
X190915000Y-70938000D01*
X190935000Y-70921000D01*
X190956000Y-70905000D01*
X191000000Y-70877000D01*
X191023000Y-70864000D01*
X191047000Y-70853000D01*
X191071000Y-70843000D01*
X191095000Y-70834000D01*
X191121000Y-70827000D01*
X191146000Y-70821000D01*
X191172000Y-70816000D01*
X191198000Y-70813000D01*
X191224000Y-70811000D01*
X191250000Y-70810000D01*
X191276000Y-70811000D01*
G36*
X200256000Y-70811000D02*
G01*
X200282000Y-70813000D01*
X200308000Y-70816000D01*
X200334000Y-70821000D01*
X200359000Y-70827000D01*
X200385000Y-70834000D01*
X200409000Y-70843000D01*
X200433000Y-70853000D01*
X200457000Y-70864000D01*
X200480000Y-70877000D01*
X200524000Y-70905000D01*
X200545000Y-70921000D01*
X200565000Y-70938000D01*
X200584000Y-70956000D01*
X200602000Y-70975000D01*
X200619000Y-70995000D01*
X200635000Y-71016000D01*
X200663000Y-71060000D01*
X200676000Y-71083000D01*
X200687000Y-71107000D01*
X200697000Y-71131000D01*
X200706000Y-71155000D01*
X200713000Y-71181000D01*
X200719000Y-71206000D01*
X200724000Y-71232000D01*
X200727000Y-71258000D01*
X200729000Y-71284000D01*
X200730000Y-71310000D01*
X200730000Y-71910000D01*
X200729000Y-71936000D01*
X200727000Y-71962000D01*
X200724000Y-71988000D01*
X200719000Y-72014000D01*
X200713000Y-72039000D01*
X200706000Y-72065000D01*
X200697000Y-72089000D01*
X200687000Y-72113000D01*
X200676000Y-72137000D01*
X200663000Y-72160000D01*
X200635000Y-72204000D01*
X200619000Y-72225000D01*
X200602000Y-72245000D01*
X200584000Y-72264000D01*
X200565000Y-72282000D01*
X200545000Y-72299000D01*
X200524000Y-72315000D01*
X200480000Y-72343000D01*
X200457000Y-72356000D01*
X200433000Y-72367000D01*
X200409000Y-72377000D01*
X200385000Y-72386000D01*
X200359000Y-72393000D01*
X200334000Y-72399000D01*
X200308000Y-72404000D01*
X200282000Y-72407000D01*
X200256000Y-72409000D01*
X200230000Y-72410000D01*
X200204000Y-72409000D01*
X200178000Y-72407000D01*
X200152000Y-72404000D01*
X200126000Y-72399000D01*
X200101000Y-72393000D01*
X200075000Y-72386000D01*
X200051000Y-72377000D01*
X200027000Y-72367000D01*
X200003000Y-72356000D01*
X199980000Y-72343000D01*
X199936000Y-72315000D01*
X199915000Y-72299000D01*
X199895000Y-72282000D01*
X199876000Y-72264000D01*
X199858000Y-72245000D01*
X199841000Y-72225000D01*
X199825000Y-72204000D01*
X199797000Y-72160000D01*
X199784000Y-72137000D01*
X199773000Y-72113000D01*
X199763000Y-72089000D01*
X199754000Y-72065000D01*
X199747000Y-72039000D01*
X199741000Y-72014000D01*
X199736000Y-71988000D01*
X199733000Y-71962000D01*
X199731000Y-71936000D01*
X199730000Y-71910000D01*
X199730000Y-71310000D01*
X199731000Y-71284000D01*
X199733000Y-71258000D01*
X199736000Y-71232000D01*
X199741000Y-71206000D01*
X199747000Y-71181000D01*
X199754000Y-71155000D01*
X199763000Y-71131000D01*
X199773000Y-71107000D01*
X199784000Y-71083000D01*
X199797000Y-71060000D01*
X199825000Y-71016000D01*
X199841000Y-70995000D01*
X199858000Y-70975000D01*
X199876000Y-70956000D01*
X199895000Y-70938000D01*
X199915000Y-70921000D01*
X199936000Y-70905000D01*
X199980000Y-70877000D01*
X200003000Y-70864000D01*
X200027000Y-70853000D01*
X200051000Y-70843000D01*
X200075000Y-70834000D01*
X200101000Y-70827000D01*
X200126000Y-70821000D01*
X200152000Y-70816000D01*
X200178000Y-70813000D01*
X200204000Y-70811000D01*
X200230000Y-70810000D01*
X200256000Y-70811000D01*
G37*
X200256000Y-70811000D02*
X200282000Y-70813000D01*
X200308000Y-70816000D01*
X200334000Y-70821000D01*
X200359000Y-70827000D01*
X200385000Y-70834000D01*
X200409000Y-70843000D01*
X200433000Y-70853000D01*
X200457000Y-70864000D01*
X200480000Y-70877000D01*
X200524000Y-70905000D01*
X200545000Y-70921000D01*
X200565000Y-70938000D01*
X200584000Y-70956000D01*
X200602000Y-70975000D01*
X200619000Y-70995000D01*
X200635000Y-71016000D01*
X200663000Y-71060000D01*
X200676000Y-71083000D01*
X200687000Y-71107000D01*
X200697000Y-71131000D01*
X200706000Y-71155000D01*
X200713000Y-71181000D01*
X200719000Y-71206000D01*
X200724000Y-71232000D01*
X200727000Y-71258000D01*
X200729000Y-71284000D01*
X200730000Y-71310000D01*
X200730000Y-71910000D01*
X200729000Y-71936000D01*
X200727000Y-71962000D01*
X200724000Y-71988000D01*
X200719000Y-72014000D01*
X200713000Y-72039000D01*
X200706000Y-72065000D01*
X200697000Y-72089000D01*
X200687000Y-72113000D01*
X200676000Y-72137000D01*
X200663000Y-72160000D01*
X200635000Y-72204000D01*
X200619000Y-72225000D01*
X200602000Y-72245000D01*
X200584000Y-72264000D01*
X200565000Y-72282000D01*
X200545000Y-72299000D01*
X200524000Y-72315000D01*
X200480000Y-72343000D01*
X200457000Y-72356000D01*
X200433000Y-72367000D01*
X200409000Y-72377000D01*
X200385000Y-72386000D01*
X200359000Y-72393000D01*
X200334000Y-72399000D01*
X200308000Y-72404000D01*
X200282000Y-72407000D01*
X200256000Y-72409000D01*
X200230000Y-72410000D01*
X200204000Y-72409000D01*
X200178000Y-72407000D01*
X200152000Y-72404000D01*
X200126000Y-72399000D01*
X200101000Y-72393000D01*
X200075000Y-72386000D01*
X200051000Y-72377000D01*
X200027000Y-72367000D01*
X200003000Y-72356000D01*
X199980000Y-72343000D01*
X199936000Y-72315000D01*
X199915000Y-72299000D01*
X199895000Y-72282000D01*
X199876000Y-72264000D01*
X199858000Y-72245000D01*
X199841000Y-72225000D01*
X199825000Y-72204000D01*
X199797000Y-72160000D01*
X199784000Y-72137000D01*
X199773000Y-72113000D01*
X199763000Y-72089000D01*
X199754000Y-72065000D01*
X199747000Y-72039000D01*
X199741000Y-72014000D01*
X199736000Y-71988000D01*
X199733000Y-71962000D01*
X199731000Y-71936000D01*
X199730000Y-71910000D01*
X199730000Y-71310000D01*
X199731000Y-71284000D01*
X199733000Y-71258000D01*
X199736000Y-71232000D01*
X199741000Y-71206000D01*
X199747000Y-71181000D01*
X199754000Y-71155000D01*
X199763000Y-71131000D01*
X199773000Y-71107000D01*
X199784000Y-71083000D01*
X199797000Y-71060000D01*
X199825000Y-71016000D01*
X199841000Y-70995000D01*
X199858000Y-70975000D01*
X199876000Y-70956000D01*
X199895000Y-70938000D01*
X199915000Y-70921000D01*
X199936000Y-70905000D01*
X199980000Y-70877000D01*
X200003000Y-70864000D01*
X200027000Y-70853000D01*
X200051000Y-70843000D01*
X200075000Y-70834000D01*
X200101000Y-70827000D01*
X200126000Y-70821000D01*
X200152000Y-70816000D01*
X200178000Y-70813000D01*
X200204000Y-70811000D01*
X200230000Y-70810000D01*
X200256000Y-70811000D01*
G36*
X192334000Y-76827000D02*
G01*
X192356000Y-76830000D01*
X192378000Y-76834000D01*
X192400000Y-76839000D01*
X192442000Y-76853000D01*
X192463000Y-76862000D01*
X192483000Y-76871000D01*
X192503000Y-76882000D01*
X192521000Y-76894000D01*
X192540000Y-76906000D01*
X192574000Y-76934000D01*
X192591000Y-76949000D01*
X192606000Y-76966000D01*
X192634000Y-77000000D01*
X192658000Y-77038000D01*
X192669000Y-77057000D01*
X192678000Y-77077000D01*
X192687000Y-77098000D01*
X192701000Y-77140000D01*
X192706000Y-77162000D01*
X192710000Y-77184000D01*
X192713000Y-77206000D01*
X192715000Y-77250000D01*
X192713000Y-77294000D01*
X192710000Y-77316000D01*
X192706000Y-77338000D01*
X192701000Y-77360000D01*
X192687000Y-77402000D01*
X192678000Y-77423000D01*
X192669000Y-77443000D01*
X192658000Y-77463000D01*
X192646000Y-77481000D01*
X192634000Y-77500000D01*
X192606000Y-77534000D01*
X192591000Y-77551000D01*
X192574000Y-77566000D01*
X192540000Y-77594000D01*
X192521000Y-77606000D01*
X192503000Y-77618000D01*
X192483000Y-77629000D01*
X192463000Y-77638000D01*
X192442000Y-77647000D01*
X192400000Y-77661000D01*
X192378000Y-77666000D01*
X192356000Y-77670000D01*
X192334000Y-77673000D01*
X192290000Y-77675000D01*
X191990000Y-77675000D01*
X191946000Y-77673000D01*
X191924000Y-77670000D01*
X191902000Y-77666000D01*
X191880000Y-77661000D01*
X191838000Y-77647000D01*
X191817000Y-77638000D01*
X191797000Y-77629000D01*
X191778000Y-77618000D01*
X191740000Y-77594000D01*
X191706000Y-77566000D01*
X191689000Y-77551000D01*
X191674000Y-77534000D01*
X191646000Y-77500000D01*
X191634000Y-77481000D01*
X191622000Y-77463000D01*
X191611000Y-77443000D01*
X191602000Y-77423000D01*
X191593000Y-77402000D01*
X191579000Y-77360000D01*
X191574000Y-77338000D01*
X191570000Y-77316000D01*
X191567000Y-77294000D01*
X191565000Y-77250000D01*
X191567000Y-77206000D01*
X191570000Y-77184000D01*
X191574000Y-77162000D01*
X191579000Y-77140000D01*
X191593000Y-77098000D01*
X191602000Y-77077000D01*
X191611000Y-77057000D01*
X191622000Y-77038000D01*
X191646000Y-77000000D01*
X191674000Y-76966000D01*
X191689000Y-76949000D01*
X191706000Y-76934000D01*
X191740000Y-76906000D01*
X191778000Y-76882000D01*
X191797000Y-76871000D01*
X191817000Y-76862000D01*
X191838000Y-76853000D01*
X191880000Y-76839000D01*
X191902000Y-76834000D01*
X191924000Y-76830000D01*
X191946000Y-76827000D01*
X191990000Y-76825000D01*
X192290000Y-76825000D01*
X192334000Y-76827000D01*
G37*
X192334000Y-76827000D02*
X192356000Y-76830000D01*
X192378000Y-76834000D01*
X192400000Y-76839000D01*
X192442000Y-76853000D01*
X192463000Y-76862000D01*
X192483000Y-76871000D01*
X192503000Y-76882000D01*
X192521000Y-76894000D01*
X192540000Y-76906000D01*
X192574000Y-76934000D01*
X192591000Y-76949000D01*
X192606000Y-76966000D01*
X192634000Y-77000000D01*
X192658000Y-77038000D01*
X192669000Y-77057000D01*
X192678000Y-77077000D01*
X192687000Y-77098000D01*
X192701000Y-77140000D01*
X192706000Y-77162000D01*
X192710000Y-77184000D01*
X192713000Y-77206000D01*
X192715000Y-77250000D01*
X192713000Y-77294000D01*
X192710000Y-77316000D01*
X192706000Y-77338000D01*
X192701000Y-77360000D01*
X192687000Y-77402000D01*
X192678000Y-77423000D01*
X192669000Y-77443000D01*
X192658000Y-77463000D01*
X192646000Y-77481000D01*
X192634000Y-77500000D01*
X192606000Y-77534000D01*
X192591000Y-77551000D01*
X192574000Y-77566000D01*
X192540000Y-77594000D01*
X192521000Y-77606000D01*
X192503000Y-77618000D01*
X192483000Y-77629000D01*
X192463000Y-77638000D01*
X192442000Y-77647000D01*
X192400000Y-77661000D01*
X192378000Y-77666000D01*
X192356000Y-77670000D01*
X192334000Y-77673000D01*
X192290000Y-77675000D01*
X191990000Y-77675000D01*
X191946000Y-77673000D01*
X191924000Y-77670000D01*
X191902000Y-77666000D01*
X191880000Y-77661000D01*
X191838000Y-77647000D01*
X191817000Y-77638000D01*
X191797000Y-77629000D01*
X191778000Y-77618000D01*
X191740000Y-77594000D01*
X191706000Y-77566000D01*
X191689000Y-77551000D01*
X191674000Y-77534000D01*
X191646000Y-77500000D01*
X191634000Y-77481000D01*
X191622000Y-77463000D01*
X191611000Y-77443000D01*
X191602000Y-77423000D01*
X191593000Y-77402000D01*
X191579000Y-77360000D01*
X191574000Y-77338000D01*
X191570000Y-77316000D01*
X191567000Y-77294000D01*
X191565000Y-77250000D01*
X191567000Y-77206000D01*
X191570000Y-77184000D01*
X191574000Y-77162000D01*
X191579000Y-77140000D01*
X191593000Y-77098000D01*
X191602000Y-77077000D01*
X191611000Y-77057000D01*
X191622000Y-77038000D01*
X191646000Y-77000000D01*
X191674000Y-76966000D01*
X191689000Y-76949000D01*
X191706000Y-76934000D01*
X191740000Y-76906000D01*
X191778000Y-76882000D01*
X191797000Y-76871000D01*
X191817000Y-76862000D01*
X191838000Y-76853000D01*
X191880000Y-76839000D01*
X191902000Y-76834000D01*
X191924000Y-76830000D01*
X191946000Y-76827000D01*
X191990000Y-76825000D01*
X192290000Y-76825000D01*
X192334000Y-76827000D01*
G36*
X191636000Y-75211000D02*
G01*
X191662000Y-75213000D01*
X191688000Y-75216000D01*
X191714000Y-75221000D01*
X191739000Y-75227000D01*
X191765000Y-75234000D01*
X191789000Y-75243000D01*
X191813000Y-75253000D01*
X191837000Y-75264000D01*
X191860000Y-75277000D01*
X191904000Y-75305000D01*
X191925000Y-75321000D01*
X191945000Y-75338000D01*
X191964000Y-75356000D01*
X191982000Y-75375000D01*
X191999000Y-75395000D01*
X192015000Y-75416000D01*
X192043000Y-75460000D01*
X192056000Y-75483000D01*
X192067000Y-75507000D01*
X192077000Y-75531000D01*
X192086000Y-75555000D01*
X192093000Y-75581000D01*
X192099000Y-75606000D01*
X192104000Y-75632000D01*
X192107000Y-75658000D01*
X192109000Y-75684000D01*
X192110000Y-75710000D01*
X192110000Y-76310000D01*
X192109000Y-76336000D01*
X192107000Y-76362000D01*
X192104000Y-76388000D01*
X192099000Y-76414000D01*
X192093000Y-76439000D01*
X192086000Y-76465000D01*
X192077000Y-76489000D01*
X192067000Y-76513000D01*
X192056000Y-76537000D01*
X192043000Y-76560000D01*
X192015000Y-76604000D01*
X191999000Y-76625000D01*
X191982000Y-76645000D01*
X191964000Y-76664000D01*
X191945000Y-76682000D01*
X191925000Y-76699000D01*
X191904000Y-76715000D01*
X191860000Y-76743000D01*
X191837000Y-76756000D01*
X191813000Y-76767000D01*
X191789000Y-76777000D01*
X191765000Y-76786000D01*
X191739000Y-76793000D01*
X191714000Y-76799000D01*
X191688000Y-76804000D01*
X191662000Y-76807000D01*
X191636000Y-76809000D01*
X191610000Y-76810000D01*
X191584000Y-76809000D01*
X191558000Y-76807000D01*
X191532000Y-76804000D01*
X191506000Y-76799000D01*
X191481000Y-76793000D01*
X191455000Y-76786000D01*
X191431000Y-76777000D01*
X191407000Y-76767000D01*
X191383000Y-76756000D01*
X191360000Y-76743000D01*
X191316000Y-76715000D01*
X191295000Y-76699000D01*
X191275000Y-76682000D01*
X191256000Y-76664000D01*
X191238000Y-76645000D01*
X191221000Y-76625000D01*
X191205000Y-76604000D01*
X191177000Y-76560000D01*
X191164000Y-76537000D01*
X191153000Y-76513000D01*
X191143000Y-76489000D01*
X191134000Y-76465000D01*
X191127000Y-76439000D01*
X191121000Y-76414000D01*
X191116000Y-76388000D01*
X191113000Y-76362000D01*
X191111000Y-76336000D01*
X191110000Y-76310000D01*
X191110000Y-75710000D01*
X191111000Y-75684000D01*
X191113000Y-75658000D01*
X191116000Y-75632000D01*
X191121000Y-75606000D01*
X191127000Y-75581000D01*
X191134000Y-75555000D01*
X191143000Y-75531000D01*
X191153000Y-75507000D01*
X191164000Y-75483000D01*
X191177000Y-75460000D01*
X191205000Y-75416000D01*
X191221000Y-75395000D01*
X191238000Y-75375000D01*
X191256000Y-75356000D01*
X191275000Y-75338000D01*
X191295000Y-75321000D01*
X191316000Y-75305000D01*
X191360000Y-75277000D01*
X191383000Y-75264000D01*
X191407000Y-75253000D01*
X191431000Y-75243000D01*
X191455000Y-75234000D01*
X191481000Y-75227000D01*
X191506000Y-75221000D01*
X191532000Y-75216000D01*
X191558000Y-75213000D01*
X191584000Y-75211000D01*
X191610000Y-75210000D01*
X191636000Y-75211000D01*
G37*
X191636000Y-75211000D02*
X191662000Y-75213000D01*
X191688000Y-75216000D01*
X191714000Y-75221000D01*
X191739000Y-75227000D01*
X191765000Y-75234000D01*
X191789000Y-75243000D01*
X191813000Y-75253000D01*
X191837000Y-75264000D01*
X191860000Y-75277000D01*
X191904000Y-75305000D01*
X191925000Y-75321000D01*
X191945000Y-75338000D01*
X191964000Y-75356000D01*
X191982000Y-75375000D01*
X191999000Y-75395000D01*
X192015000Y-75416000D01*
X192043000Y-75460000D01*
X192056000Y-75483000D01*
X192067000Y-75507000D01*
X192077000Y-75531000D01*
X192086000Y-75555000D01*
X192093000Y-75581000D01*
X192099000Y-75606000D01*
X192104000Y-75632000D01*
X192107000Y-75658000D01*
X192109000Y-75684000D01*
X192110000Y-75710000D01*
X192110000Y-76310000D01*
X192109000Y-76336000D01*
X192107000Y-76362000D01*
X192104000Y-76388000D01*
X192099000Y-76414000D01*
X192093000Y-76439000D01*
X192086000Y-76465000D01*
X192077000Y-76489000D01*
X192067000Y-76513000D01*
X192056000Y-76537000D01*
X192043000Y-76560000D01*
X192015000Y-76604000D01*
X191999000Y-76625000D01*
X191982000Y-76645000D01*
X191964000Y-76664000D01*
X191945000Y-76682000D01*
X191925000Y-76699000D01*
X191904000Y-76715000D01*
X191860000Y-76743000D01*
X191837000Y-76756000D01*
X191813000Y-76767000D01*
X191789000Y-76777000D01*
X191765000Y-76786000D01*
X191739000Y-76793000D01*
X191714000Y-76799000D01*
X191688000Y-76804000D01*
X191662000Y-76807000D01*
X191636000Y-76809000D01*
X191610000Y-76810000D01*
X191584000Y-76809000D01*
X191558000Y-76807000D01*
X191532000Y-76804000D01*
X191506000Y-76799000D01*
X191481000Y-76793000D01*
X191455000Y-76786000D01*
X191431000Y-76777000D01*
X191407000Y-76767000D01*
X191383000Y-76756000D01*
X191360000Y-76743000D01*
X191316000Y-76715000D01*
X191295000Y-76699000D01*
X191275000Y-76682000D01*
X191256000Y-76664000D01*
X191238000Y-76645000D01*
X191221000Y-76625000D01*
X191205000Y-76604000D01*
X191177000Y-76560000D01*
X191164000Y-76537000D01*
X191153000Y-76513000D01*
X191143000Y-76489000D01*
X191134000Y-76465000D01*
X191127000Y-76439000D01*
X191121000Y-76414000D01*
X191116000Y-76388000D01*
X191113000Y-76362000D01*
X191111000Y-76336000D01*
X191110000Y-76310000D01*
X191110000Y-75710000D01*
X191111000Y-75684000D01*
X191113000Y-75658000D01*
X191116000Y-75632000D01*
X191121000Y-75606000D01*
X191127000Y-75581000D01*
X191134000Y-75555000D01*
X191143000Y-75531000D01*
X191153000Y-75507000D01*
X191164000Y-75483000D01*
X191177000Y-75460000D01*
X191205000Y-75416000D01*
X191221000Y-75395000D01*
X191238000Y-75375000D01*
X191256000Y-75356000D01*
X191275000Y-75338000D01*
X191295000Y-75321000D01*
X191316000Y-75305000D01*
X191360000Y-75277000D01*
X191383000Y-75264000D01*
X191407000Y-75253000D01*
X191431000Y-75243000D01*
X191455000Y-75234000D01*
X191481000Y-75227000D01*
X191506000Y-75221000D01*
X191532000Y-75216000D01*
X191558000Y-75213000D01*
X191584000Y-75211000D01*
X191610000Y-75210000D01*
X191636000Y-75211000D01*
G36*
X199896000Y-75211000D02*
G01*
X199922000Y-75213000D01*
X199948000Y-75216000D01*
X199974000Y-75221000D01*
X199999000Y-75227000D01*
X200025000Y-75234000D01*
X200049000Y-75243000D01*
X200073000Y-75253000D01*
X200097000Y-75264000D01*
X200120000Y-75277000D01*
X200164000Y-75305000D01*
X200185000Y-75321000D01*
X200205000Y-75338000D01*
X200224000Y-75356000D01*
X200242000Y-75375000D01*
X200259000Y-75395000D01*
X200275000Y-75416000D01*
X200303000Y-75460000D01*
X200316000Y-75483000D01*
X200327000Y-75507000D01*
X200337000Y-75531000D01*
X200346000Y-75555000D01*
X200353000Y-75581000D01*
X200359000Y-75606000D01*
X200364000Y-75632000D01*
X200367000Y-75658000D01*
X200369000Y-75684000D01*
X200370000Y-75710000D01*
X200370000Y-76310000D01*
X200369000Y-76336000D01*
X200367000Y-76362000D01*
X200364000Y-76388000D01*
X200359000Y-76414000D01*
X200353000Y-76439000D01*
X200346000Y-76465000D01*
X200337000Y-76489000D01*
X200327000Y-76513000D01*
X200316000Y-76537000D01*
X200303000Y-76560000D01*
X200275000Y-76604000D01*
X200259000Y-76625000D01*
X200242000Y-76645000D01*
X200224000Y-76664000D01*
X200205000Y-76682000D01*
X200185000Y-76699000D01*
X200164000Y-76715000D01*
X200120000Y-76743000D01*
X200097000Y-76756000D01*
X200073000Y-76767000D01*
X200049000Y-76777000D01*
X200025000Y-76786000D01*
X199999000Y-76793000D01*
X199974000Y-76799000D01*
X199948000Y-76804000D01*
X199922000Y-76807000D01*
X199896000Y-76809000D01*
X199870000Y-76810000D01*
X199844000Y-76809000D01*
X199818000Y-76807000D01*
X199792000Y-76804000D01*
X199766000Y-76799000D01*
X199741000Y-76793000D01*
X199715000Y-76786000D01*
X199691000Y-76777000D01*
X199667000Y-76767000D01*
X199643000Y-76756000D01*
X199620000Y-76743000D01*
X199576000Y-76715000D01*
X199555000Y-76699000D01*
X199535000Y-76682000D01*
X199516000Y-76664000D01*
X199498000Y-76645000D01*
X199481000Y-76625000D01*
X199465000Y-76604000D01*
X199437000Y-76560000D01*
X199424000Y-76537000D01*
X199413000Y-76513000D01*
X199403000Y-76489000D01*
X199394000Y-76465000D01*
X199387000Y-76439000D01*
X199381000Y-76414000D01*
X199376000Y-76388000D01*
X199373000Y-76362000D01*
X199371000Y-76336000D01*
X199370000Y-76310000D01*
X199370000Y-75710000D01*
X199371000Y-75684000D01*
X199373000Y-75658000D01*
X199376000Y-75632000D01*
X199381000Y-75606000D01*
X199387000Y-75581000D01*
X199394000Y-75555000D01*
X199403000Y-75531000D01*
X199413000Y-75507000D01*
X199424000Y-75483000D01*
X199437000Y-75460000D01*
X199465000Y-75416000D01*
X199481000Y-75395000D01*
X199498000Y-75375000D01*
X199516000Y-75356000D01*
X199535000Y-75338000D01*
X199555000Y-75321000D01*
X199576000Y-75305000D01*
X199620000Y-75277000D01*
X199643000Y-75264000D01*
X199667000Y-75253000D01*
X199691000Y-75243000D01*
X199715000Y-75234000D01*
X199741000Y-75227000D01*
X199766000Y-75221000D01*
X199792000Y-75216000D01*
X199818000Y-75213000D01*
X199844000Y-75211000D01*
X199870000Y-75210000D01*
X199896000Y-75211000D01*
G37*
X199896000Y-75211000D02*
X199922000Y-75213000D01*
X199948000Y-75216000D01*
X199974000Y-75221000D01*
X199999000Y-75227000D01*
X200025000Y-75234000D01*
X200049000Y-75243000D01*
X200073000Y-75253000D01*
X200097000Y-75264000D01*
X200120000Y-75277000D01*
X200164000Y-75305000D01*
X200185000Y-75321000D01*
X200205000Y-75338000D01*
X200224000Y-75356000D01*
X200242000Y-75375000D01*
X200259000Y-75395000D01*
X200275000Y-75416000D01*
X200303000Y-75460000D01*
X200316000Y-75483000D01*
X200327000Y-75507000D01*
X200337000Y-75531000D01*
X200346000Y-75555000D01*
X200353000Y-75581000D01*
X200359000Y-75606000D01*
X200364000Y-75632000D01*
X200367000Y-75658000D01*
X200369000Y-75684000D01*
X200370000Y-75710000D01*
X200370000Y-76310000D01*
X200369000Y-76336000D01*
X200367000Y-76362000D01*
X200364000Y-76388000D01*
X200359000Y-76414000D01*
X200353000Y-76439000D01*
X200346000Y-76465000D01*
X200337000Y-76489000D01*
X200327000Y-76513000D01*
X200316000Y-76537000D01*
X200303000Y-76560000D01*
X200275000Y-76604000D01*
X200259000Y-76625000D01*
X200242000Y-76645000D01*
X200224000Y-76664000D01*
X200205000Y-76682000D01*
X200185000Y-76699000D01*
X200164000Y-76715000D01*
X200120000Y-76743000D01*
X200097000Y-76756000D01*
X200073000Y-76767000D01*
X200049000Y-76777000D01*
X200025000Y-76786000D01*
X199999000Y-76793000D01*
X199974000Y-76799000D01*
X199948000Y-76804000D01*
X199922000Y-76807000D01*
X199896000Y-76809000D01*
X199870000Y-76810000D01*
X199844000Y-76809000D01*
X199818000Y-76807000D01*
X199792000Y-76804000D01*
X199766000Y-76799000D01*
X199741000Y-76793000D01*
X199715000Y-76786000D01*
X199691000Y-76777000D01*
X199667000Y-76767000D01*
X199643000Y-76756000D01*
X199620000Y-76743000D01*
X199576000Y-76715000D01*
X199555000Y-76699000D01*
X199535000Y-76682000D01*
X199516000Y-76664000D01*
X199498000Y-76645000D01*
X199481000Y-76625000D01*
X199465000Y-76604000D01*
X199437000Y-76560000D01*
X199424000Y-76537000D01*
X199413000Y-76513000D01*
X199403000Y-76489000D01*
X199394000Y-76465000D01*
X199387000Y-76439000D01*
X199381000Y-76414000D01*
X199376000Y-76388000D01*
X199373000Y-76362000D01*
X199371000Y-76336000D01*
X199370000Y-76310000D01*
X199370000Y-75710000D01*
X199371000Y-75684000D01*
X199373000Y-75658000D01*
X199376000Y-75632000D01*
X199381000Y-75606000D01*
X199387000Y-75581000D01*
X199394000Y-75555000D01*
X199403000Y-75531000D01*
X199413000Y-75507000D01*
X199424000Y-75483000D01*
X199437000Y-75460000D01*
X199465000Y-75416000D01*
X199481000Y-75395000D01*
X199498000Y-75375000D01*
X199516000Y-75356000D01*
X199535000Y-75338000D01*
X199555000Y-75321000D01*
X199576000Y-75305000D01*
X199620000Y-75277000D01*
X199643000Y-75264000D01*
X199667000Y-75253000D01*
X199691000Y-75243000D01*
X199715000Y-75234000D01*
X199741000Y-75227000D01*
X199766000Y-75221000D01*
X199792000Y-75216000D01*
X199818000Y-75213000D01*
X199844000Y-75211000D01*
X199870000Y-75210000D01*
X199896000Y-75211000D01*
D11*
X210100000Y-73350000D03*
D12*
X169180000Y-100850000D03*
X168220000Y-100850000D03*
D13*
X130050589Y-108730589D03*
X130729411Y-109409411D03*
D14*
X141900000Y-97470000D03*
X141900000Y-98430000D03*
D15*
X146720000Y-91000000D03*
X147680000Y-91000000D03*
D16*
X120675000Y-114850000D03*
X109245000Y-114850000D03*
D17*
X110515000Y-108500000D03*
D18*
X111785000Y-105960000D03*
X113055000Y-108500000D03*
X114325000Y-105960000D03*
X115595000Y-108500000D03*
X116865000Y-105960000D03*
X118135000Y-108500000D03*
X119405000Y-105960000D03*
D19*
X108635000Y-119930000D03*
X111175000Y-118230000D03*
X118745000Y-119930000D03*
X121285000Y-118230000D03*
D20*
X107085000Y-111800000D03*
X122835000Y-111800000D03*
D21*
X141900000Y-88430000D03*
X141900000Y-87470000D03*
D15*
X139370000Y-101250000D03*
X140330000Y-101250000D03*
D22*
X171746178Y-85650000D03*
X172425000Y-84971178D03*
D15*
X164495000Y-90750000D03*
X165455000Y-90750000D03*
X199545000Y-102650000D03*
X200505000Y-102650000D03*
D14*
X196940000Y-80920000D03*
X196940000Y-81880000D03*
X135200000Y-106470000D03*
X135200000Y-107430000D03*
D21*
X160915000Y-119635000D03*
X160915000Y-118675000D03*
D23*
X209822875Y-93000000D03*
D24*
X131286307Y-107976256D03*
X132523744Y-109213693D03*
X133513693Y-108223744D03*
X132276256Y-106986307D03*
D25*
X175239411Y-85639411D03*
X174560589Y-84960589D03*
D26*
X149340000Y-107767830D03*
X149680000Y-107467830D03*
X149000000Y-107467830D03*
D21*
X171825000Y-88780000D03*
X171825000Y-87820000D03*
D27*
X187085000Y-90510000D03*
X187085000Y-89490000D03*
D23*
X209822875Y-90000000D03*
D12*
X199855000Y-96025000D03*
X198895000Y-96025000D03*
D28*
X167330000Y-111306000D03*
X169830000Y-111306000D03*
X171830000Y-111306000D03*
X174330000Y-111306000D03*
X174830000Y-109806000D03*
X172830000Y-109806000D03*
X170830000Y-109806000D03*
X168830000Y-109806000D03*
X166830000Y-109806000D03*
D29*
X177230000Y-117406000D03*
X164430000Y-117406000D03*
D30*
X164430000Y-110806000D03*
X177230000Y-110806000D03*
D31*
X189390000Y-77060000D03*
X189390000Y-78760000D03*
D14*
X139150000Y-87420000D03*
X139150000Y-88380000D03*
D32*
X187600000Y-95152500D03*
X187600000Y-93327500D03*
D27*
X188250000Y-103580000D03*
X188250000Y-102560000D03*
D33*
X172741117Y-86643934D03*
X173731066Y-87633883D03*
X174508883Y-86856066D03*
X173518934Y-85866117D03*
D34*
X136990000Y-95500000D03*
X138010000Y-95500000D03*
D15*
X198110000Y-93220000D03*
X199070000Y-93220000D03*
X158320000Y-99750000D03*
X159280000Y-99750000D03*
D22*
X150800589Y-95059411D03*
X151479411Y-94380589D03*
D14*
X202500000Y-93390000D03*
X202500000Y-94350000D03*
D35*
X164950000Y-83937500D03*
X164950000Y-80862500D03*
D21*
X143900000Y-106522830D03*
X143900000Y-105562830D03*
D36*
X130635000Y-87150000D03*
X129615000Y-87150000D03*
D37*
X186715000Y-100200000D03*
X187685000Y-100200000D03*
D23*
X209822875Y-96000000D03*
D11*
X99850000Y-119600000D03*
D38*
X137675000Y-91450000D03*
X136125000Y-91450000D03*
D23*
X209822875Y-97500000D03*
X209822875Y-100500000D03*
D27*
X185960000Y-90510000D03*
X185960000Y-89490000D03*
D36*
X165435000Y-99500000D03*
X164415000Y-99500000D03*
D14*
X157650000Y-104670000D03*
X157650000Y-105630000D03*
D15*
X129645000Y-89650000D03*
X130605000Y-89650000D03*
D38*
X137675000Y-88850000D03*
X136125000Y-88850000D03*
D14*
X136250000Y-106470000D03*
X136250000Y-107430000D03*
D39*
X147100000Y-92240000D03*
X147100000Y-93260000D03*
D35*
X151250000Y-83887500D03*
X151250000Y-80812500D03*
D15*
X184470000Y-94460000D03*
X185430000Y-94460000D03*
X129645000Y-88350000D03*
X130605000Y-88350000D03*
X158320000Y-100810000D03*
X159280000Y-100810000D03*
D12*
X150330000Y-99750000D03*
X149370000Y-99750000D03*
D40*
X147015000Y-88750000D03*
X148565000Y-88750000D03*
D41*
X192140000Y-77250000D03*
X199340000Y-77250000D03*
D42*
X198490000Y-77810000D03*
X197990000Y-77810000D03*
X197490000Y-77810000D03*
X196990000Y-77810000D03*
X196490000Y-77810000D03*
X195990000Y-77810000D03*
X195490000Y-77810000D03*
X194990000Y-77810000D03*
X194490000Y-77810000D03*
X193990000Y-77810000D03*
X193490000Y-77810000D03*
X192990000Y-77810000D03*
D43*
X192940000Y-76600000D03*
X193340000Y-75900000D03*
X194140000Y-75900000D03*
X194540000Y-76600000D03*
X194940000Y-75900000D03*
X195340000Y-76600000D03*
X196140000Y-76600000D03*
X196540000Y-75900000D03*
X196940000Y-76600000D03*
X197340000Y-75900000D03*
X198140000Y-75900000D03*
X198540000Y-76600000D03*
D36*
X159335000Y-98650000D03*
X158315000Y-98650000D03*
D44*
X144400000Y-90112500D03*
X143900000Y-90112500D03*
X143400000Y-90112500D03*
X142900000Y-90112500D03*
X142400000Y-90112500D03*
X141900000Y-90112500D03*
X141400000Y-90112500D03*
X140900000Y-90112500D03*
X140400000Y-90112500D03*
D45*
X139462500Y-91050000D03*
X139462500Y-91550000D03*
X139462500Y-92050000D03*
X139462500Y-92550000D03*
X139462500Y-93050000D03*
X139462500Y-93550000D03*
X139462500Y-94050000D03*
X139462500Y-94550000D03*
X139462500Y-95050000D03*
D44*
X140400000Y-95987500D03*
X140900000Y-95987500D03*
X141400000Y-95987500D03*
X141900000Y-95987500D03*
X142400000Y-95987500D03*
X142900000Y-95987500D03*
X143400000Y-95987500D03*
X143900000Y-95987500D03*
X144400000Y-95987500D03*
D45*
X145337500Y-95050000D03*
X145337500Y-94550000D03*
X145337500Y-94050000D03*
X145337500Y-93550000D03*
X145337500Y-93050000D03*
X145337500Y-92550000D03*
X145337500Y-92050000D03*
X145337500Y-91550000D03*
X145337500Y-91050000D03*
D46*
X142400000Y-93050000D03*
D21*
X168130000Y-106740000D03*
X168130000Y-105780000D03*
D34*
X186690000Y-101300000D03*
X187710000Y-101300000D03*
D14*
X198310000Y-80930000D03*
X198310000Y-81890000D03*
D21*
X132350000Y-95730000D03*
X132350000Y-94770000D03*
X142490000Y-106520000D03*
X142490000Y-105560000D03*
D47*
X200145000Y-99775000D03*
X200145000Y-97575000D03*
X198445000Y-97575000D03*
X198445000Y-99775000D03*
D12*
X169180000Y-94450000D03*
X168220000Y-94450000D03*
D27*
X128350000Y-108260000D03*
X128350000Y-107240000D03*
D14*
X156500000Y-104670000D03*
X156500000Y-105630000D03*
X197400000Y-103010000D03*
X197400000Y-103970000D03*
D12*
X169180000Y-98050000D03*
X168220000Y-98050000D03*
D23*
X209822875Y-91500000D03*
D48*
X156650000Y-102750000D03*
X156650000Y-102250000D03*
X156650000Y-101750000D03*
X156650000Y-101250000D03*
X156650000Y-100750000D03*
X156650000Y-100250000D03*
X156650000Y-99750000D03*
X156650000Y-99250000D03*
D49*
X155950000Y-98550000D03*
X155450000Y-98550000D03*
X154950000Y-98550000D03*
X154450000Y-98550000D03*
X153950000Y-98550000D03*
X153450000Y-98550000D03*
X152950000Y-98550000D03*
X152450000Y-98550000D03*
D48*
X151750000Y-99250000D03*
X151750000Y-99750000D03*
X151750000Y-100250000D03*
X151750000Y-100750000D03*
X151750000Y-101250000D03*
X151750000Y-101750000D03*
X151750000Y-102250000D03*
X151750000Y-102750000D03*
D49*
X152450000Y-103450000D03*
X152950000Y-103450000D03*
X153450000Y-103450000D03*
X153950000Y-103450000D03*
X154450000Y-103450000D03*
X154950000Y-103450000D03*
X155450000Y-103450000D03*
X155950000Y-103450000D03*
D50*
X154200000Y-101000000D03*
D12*
X150330000Y-98700000D03*
X149370000Y-98700000D03*
D51*
X101960000Y-99507000D03*
X101960000Y-75307000D03*
D52*
X126260000Y-94287000D03*
X126260000Y-91787000D03*
X126260000Y-88487000D03*
X126260000Y-86787000D03*
X126260000Y-84287000D03*
X126260000Y-81787000D03*
X126260000Y-79357000D03*
X126260000Y-77657000D03*
X126260000Y-96787000D03*
X126260000Y-90137000D03*
D53*
X105260000Y-101507000D03*
D54*
X114235000Y-73407000D03*
D53*
X104060000Y-74057000D03*
D52*
X126260000Y-74307000D03*
D27*
X189305000Y-90510000D03*
X189305000Y-89490000D03*
D55*
X150136066Y-92286117D03*
X149146117Y-93276066D03*
X149923934Y-94053883D03*
X150913883Y-93063934D03*
D36*
X159310000Y-103050000D03*
X158290000Y-103050000D03*
X165485000Y-94000000D03*
X164465000Y-94000000D03*
D23*
X209822875Y-102000000D03*
D14*
X150700000Y-104720000D03*
X150700000Y-105680000D03*
D36*
X165435000Y-100650000D03*
X164415000Y-100650000D03*
D15*
X184470000Y-99100000D03*
X185430000Y-99100000D03*
D12*
X150280000Y-102550000D03*
X149320000Y-102550000D03*
D23*
X209822875Y-105000000D03*
D56*
X171000000Y-91250000D03*
X171000000Y-91650000D03*
X171000000Y-92050000D03*
X171000000Y-92450000D03*
X171000000Y-92850000D03*
X171000000Y-93250000D03*
X171000000Y-93650000D03*
X171000000Y-94050000D03*
X171000000Y-94450000D03*
X171000000Y-94850000D03*
X171000000Y-95250000D03*
X171000000Y-95650000D03*
X171000000Y-96050000D03*
X171000000Y-96450000D03*
X171000000Y-96850000D03*
X171000000Y-97250000D03*
X171000000Y-97650000D03*
X171000000Y-98050000D03*
X171000000Y-98450000D03*
X171000000Y-98850000D03*
X171000000Y-99250000D03*
X171000000Y-99650000D03*
X171000000Y-100050000D03*
X171000000Y-100450000D03*
X171000000Y-100850000D03*
D57*
X172050000Y-101900000D03*
X172450000Y-101900000D03*
X172850000Y-101900000D03*
X173250000Y-101900000D03*
X173650000Y-101900000D03*
X174050000Y-101900000D03*
X174450000Y-101900000D03*
X174850000Y-101900000D03*
X175250000Y-101900000D03*
X175650000Y-101900000D03*
X176050000Y-101900000D03*
X176450000Y-101900000D03*
X176850000Y-101900000D03*
X177250000Y-101900000D03*
X177650000Y-101900000D03*
X178050000Y-101900000D03*
X178450000Y-101900000D03*
X178850000Y-101900000D03*
X179250000Y-101900000D03*
X179650000Y-101900000D03*
X180050000Y-101900000D03*
X180450000Y-101900000D03*
X180850000Y-101900000D03*
X181250000Y-101900000D03*
X181650000Y-101900000D03*
D56*
X182700000Y-100850000D03*
X182700000Y-100450000D03*
X182700000Y-100050000D03*
X182700000Y-99650000D03*
X182700000Y-99250000D03*
X182700000Y-98850000D03*
X182700000Y-98450000D03*
X182700000Y-98050000D03*
X182700000Y-97650000D03*
X182700000Y-97250000D03*
X182700000Y-96850000D03*
X182700000Y-96450000D03*
X182700000Y-96050000D03*
X182700000Y-95650000D03*
X182700000Y-95250000D03*
X182700000Y-94850000D03*
X182700000Y-94450000D03*
X182700000Y-94050000D03*
X182700000Y-93650000D03*
X182700000Y-93250000D03*
X182700000Y-92850000D03*
X182700000Y-92450000D03*
X182700000Y-92050000D03*
X182700000Y-91650000D03*
X182700000Y-91250000D03*
D57*
X181650000Y-90200000D03*
X181250000Y-90200000D03*
X180850000Y-90200000D03*
X180450000Y-90200000D03*
X180050000Y-90200000D03*
X179650000Y-90200000D03*
X179250000Y-90200000D03*
X178850000Y-90200000D03*
X178450000Y-90200000D03*
X178050000Y-90200000D03*
X177650000Y-90200000D03*
X177250000Y-90200000D03*
X176850000Y-90200000D03*
X176450000Y-90200000D03*
X176050000Y-90200000D03*
X175650000Y-90200000D03*
X175250000Y-90200000D03*
X174850000Y-90200000D03*
X174450000Y-90200000D03*
X174050000Y-90200000D03*
X173650000Y-90200000D03*
X173250000Y-90200000D03*
X172850000Y-90200000D03*
X172450000Y-90200000D03*
X172050000Y-90200000D03*
D58*
X176850000Y-96050000D03*
D12*
X150280000Y-103650000D03*
X149320000Y-103650000D03*
D59*
X129995000Y-97750000D03*
X129995000Y-98250000D03*
X129995000Y-98750000D03*
X129995000Y-99250000D03*
X129995000Y-99750000D03*
X129995000Y-100250000D03*
X129995000Y-100750000D03*
X129995000Y-101250000D03*
X129995000Y-101750000D03*
X129995000Y-102250000D03*
X129995000Y-102750000D03*
X129995000Y-103250000D03*
X129995000Y-103750000D03*
X129995000Y-104250000D03*
D60*
X130685000Y-104940000D03*
X131185000Y-104940000D03*
X131685000Y-104940000D03*
X132185000Y-104940000D03*
X132685000Y-104940000D03*
X133185000Y-104940000D03*
X133685000Y-104940000D03*
X134185000Y-104940000D03*
X134685000Y-104940000D03*
X135185000Y-104940000D03*
X135685000Y-104940000D03*
X136185000Y-104940000D03*
X136685000Y-104940000D03*
X137185000Y-104940000D03*
D59*
X137875000Y-104250000D03*
X137875000Y-103750000D03*
X137875000Y-103250000D03*
X137875000Y-102750000D03*
X137875000Y-102250000D03*
X137875000Y-101750000D03*
X137875000Y-101250000D03*
X137875000Y-100750000D03*
X137875000Y-100250000D03*
X137875000Y-99750000D03*
X137875000Y-99250000D03*
X137875000Y-98750000D03*
X137875000Y-98250000D03*
X137875000Y-97750000D03*
D60*
X137185000Y-97060000D03*
X136685000Y-97060000D03*
X136185000Y-97060000D03*
X135685000Y-97060000D03*
X135185000Y-97060000D03*
X134685000Y-97060000D03*
X134185000Y-97060000D03*
X133685000Y-97060000D03*
X133185000Y-97060000D03*
X132685000Y-97060000D03*
X132185000Y-97060000D03*
X131685000Y-97060000D03*
X131185000Y-97060000D03*
X130685000Y-97060000D03*
D61*
X133935000Y-101000000D03*
D36*
X165485000Y-92900000D03*
X164465000Y-92900000D03*
X165435000Y-101800000D03*
X164415000Y-101800000D03*
D23*
X209822875Y-99000000D03*
D12*
X137980000Y-93050000D03*
X137020000Y-93050000D03*
D23*
X209822875Y-103500000D03*
D14*
X151850000Y-104670000D03*
X151850000Y-105630000D03*
D62*
X190387500Y-94380000D03*
X191187500Y-94380000D03*
X191987500Y-94380000D03*
X192787500Y-94380000D03*
X193587500Y-94380000D03*
X194387500Y-94380000D03*
X195187500Y-94380000D03*
X195987500Y-94380000D03*
X190387500Y-95180000D03*
X191187500Y-95180000D03*
X191987500Y-95180000D03*
X192787500Y-95180000D03*
X193587500Y-95180000D03*
X194387500Y-95180000D03*
X195187500Y-95180000D03*
X195987500Y-95180000D03*
X190387500Y-95980000D03*
X191187500Y-95980000D03*
X191987500Y-95980000D03*
X192787500Y-95980000D03*
X193587500Y-95980000D03*
X194387500Y-95980000D03*
X195187500Y-95980000D03*
X195987500Y-95980000D03*
X190387500Y-96780000D03*
X191187500Y-96780000D03*
X191987500Y-96780000D03*
X192787500Y-96780000D03*
X193587500Y-96780000D03*
X194387500Y-96780000D03*
X195187500Y-96780000D03*
X195987500Y-96780000D03*
X190387500Y-97580000D03*
X191187500Y-97580000D03*
X191987500Y-97580000D03*
X192787500Y-97580000D03*
X193587500Y-97580000D03*
X194387500Y-97580000D03*
X195187500Y-97580000D03*
X195987500Y-97580000D03*
X190387500Y-98380000D03*
X191187500Y-98380000D03*
X191987500Y-98380000D03*
X192787500Y-98380000D03*
X193587500Y-98380000D03*
X194387500Y-98380000D03*
X195187500Y-98380000D03*
X195987500Y-98380000D03*
X190387500Y-99180000D03*
X191187500Y-99180000D03*
X191987500Y-99180000D03*
X192787500Y-99180000D03*
X193587500Y-99180000D03*
X194387500Y-99180000D03*
X195187500Y-99180000D03*
X195987500Y-99180000D03*
X190387500Y-99980000D03*
X191187500Y-99980000D03*
X191987500Y-99980000D03*
X192787500Y-99980000D03*
X193587500Y-99980000D03*
X194387500Y-99980000D03*
X195187500Y-99980000D03*
X195987500Y-99980000D03*
D63*
X199922500Y-111600000D03*
X199422500Y-111600000D03*
X198922500Y-111600000D03*
X198422500Y-111600000D03*
X197922500Y-111600000D03*
X197422500Y-111600000D03*
X196922500Y-111600000D03*
X196422500Y-111600000D03*
X195922500Y-111600000D03*
X195422500Y-111600000D03*
X194922500Y-111600000D03*
X194422500Y-111600000D03*
X193922500Y-111600000D03*
X193422500Y-111600000D03*
X192922500Y-111600000D03*
X192422500Y-111600000D03*
X191922500Y-111600000D03*
X191422500Y-111600000D03*
X190922500Y-111600000D03*
D64*
X188172500Y-112400000D03*
X202672500Y-112400000D03*
D65*
X188172500Y-118400000D03*
X202672500Y-118400000D03*
D14*
X156340000Y-116770000D03*
X156340000Y-117730000D03*
D23*
X209822875Y-94500000D03*
D15*
X184470000Y-100200000D03*
X185430000Y-100200000D03*
D66*
X187100000Y-103535000D03*
X187100000Y-102565000D03*
D34*
X146780000Y-87450000D03*
X147800000Y-87450000D03*
D36*
X147710000Y-95925000D03*
X146690000Y-95925000D03*
D27*
X188185000Y-90510000D03*
X188185000Y-89490000D03*
D23*
X209822875Y-88500000D03*
D12*
X128780000Y-105100000D03*
X127820000Y-105100000D03*
D66*
X137500000Y-107435000D03*
X137500000Y-106465000D03*
D36*
X165485000Y-89650000D03*
X164465000Y-89650000D03*
D35*
X150950000Y-77887500D03*
X150950000Y-74812500D03*
D67*
X134729411Y-108980589D03*
X134050589Y-109659411D03*
D15*
X199545000Y-101415000D03*
X200505000Y-101415000D03*
D21*
X166970000Y-106730000D03*
X166970000Y-105770000D03*
D40*
X129550000Y-91350000D03*
X131100000Y-91350000D03*
D36*
X159360000Y-97400000D03*
X158340000Y-97400000D03*
D51*
X158070000Y-82450000D03*
D68*
X161332500Y-74137500D03*
X154807500Y-74137500D03*
D69*
X154807500Y-77550000D03*
D70*
X154795000Y-83387500D03*
D71*
X161320000Y-83550000D03*
D72*
X161320000Y-81375000D03*
D21*
X134450000Y-95730000D03*
X134450000Y-94770000D03*
D36*
X199090000Y-92120000D03*
X198070000Y-92120000D03*
X165485000Y-91850000D03*
X164465000Y-91850000D03*
D73*
X143000000Y-74000000D03*
X135000000Y-74000000D03*
D74*
X135800000Y-85000000D03*
X136900000Y-85000000D03*
X138000000Y-85000000D03*
X139100000Y-85000000D03*
X140200000Y-85000000D03*
X141300000Y-85000000D03*
X142400000Y-85000000D03*
X143500000Y-85000000D03*
X144600000Y-85000000D03*
D75*
X145800000Y-84000000D03*
D76*
X145800000Y-74400000D03*
X130300000Y-74400000D03*
D77*
X131200000Y-84000000D03*
D78*
X159575000Y-117312500D03*
X157675000Y-117312500D03*
X158625000Y-119187500D03*
D28*
X142950000Y-111226000D03*
X145450000Y-111226000D03*
X147450000Y-111226000D03*
X149950000Y-111226000D03*
X150450000Y-109726000D03*
X148450000Y-109726000D03*
X146450000Y-109726000D03*
X144450000Y-109726000D03*
X142450000Y-109726000D03*
D30*
X140050000Y-110726000D03*
D29*
X140050000Y-117326000D03*
X152850000Y-117326000D03*
D30*
X152850000Y-110726000D03*
D13*
X151140589Y-91430589D03*
X151819411Y-92109411D03*
D11*
X210050000Y-119700000D03*
M02*
