M48
; DRILL file {KiCad (6.0.7)} date Mon Oct 31 13:42:52 2022
; FORMAT={-:-/ absolute / metric / decimal}
; #@! TF.CreationDate,2022-10-31T13:42:52+03:00
; #@! TF.GenerationSoftware,Kicad,Pcbnew,(6.0.7)
; #@! TF.FileFunction,Plated,1,6,PTH
FMAT,2
METRIC
; #@! TA.AperFunction,Plated,PTH,ViaDrill
T1C0.200
; #@! TA.AperFunction,Plated,PTH,ViaDrill
T2C0.250
; #@! TA.AperFunction,Plated,PTH,ViaDrill
T3C0.400
; #@! TA.AperFunction,Plated,PTH,ComponentDrill
T4C0.400
; #@! TA.AperFunction,Plated,PTH,ComponentDrill
T5C0.500
; #@! TA.AperFunction,Plated,PTH,ComponentDrill
T6C0.600
; #@! TA.AperFunction,Plated,PTH,ComponentDrill
T7C0.800
; #@! TA.AperFunction,Plated,PTH,ComponentDrill
T8C0.890
; #@! TA.AperFunction,Plated,PTH,ComponentDrill
T9C1.020
; #@! TA.AperFunction,Plated,PTH,ComponentDrill
T10C1.570
; #@! TA.AperFunction,Plated,PTH,ComponentDrill
T11C1.610
; #@! TA.AperFunction,Plated,PTH,ComponentDrill
T12C1.950
; #@! TA.AperFunction,Plated,PTH,ComponentDrill
T13C2.230
; #@! TA.AperFunction,Plated,PTH,ComponentDrill
T14C2.260
%
G90
G05
T1
X97.39Y-112.97
X98.0Y-110.75
X100.0Y-81.35
X100.45Y-106.8
X101.65Y-81.55
X101.85Y-82.25
X102.2Y-104.71
X102.51Y-86.19
X103.0Y-106.75
X105.55Y-76.7
X106.45Y-114.35
X106.512Y-112.887
X106.55Y-111.3
X106.6Y-86.2
X106.95Y-79.1
X107.66Y-79.0
X107.875Y-83.275
X107.925Y-80.725
X108.1Y-75.35
X108.15Y-111.35
X108.2Y-114.4
X108.212Y-112.887
X108.975Y-96.55
X109.0Y-97.675
X109.8Y-78.4
X109.986Y-86.375
X109.986Y-87.075
X109.986Y-87.774
X110.16Y-117.22
X110.325Y-76.0
X110.55Y-81.75
X110.825Y-93.25
X110.85Y-80.85
X111.021Y-76.073
X111.425Y-78.25
X111.475Y-91.0
X111.527Y-95.365
X111.9Y-79.978
X112.01Y-89.975
X113.1Y-98.25
X113.75Y-86.4
X113.9Y-77.191
X114.15Y-91.05
X115.15Y-85.95
X115.5Y-97.0
X115.73Y-98.98
X116.8Y-83.6
X117.05Y-79.625
X117.25Y-87.5
X118.0Y-87.5
X118.5Y-116.5
X118.75Y-87.5
X119.2Y-79.55
X119.25Y-78.3
X119.48Y-107.99
X119.7Y-82.5
X120.025Y-104.475
X120.25Y-103.25
X120.425Y-93.349
X120.7Y-86.65
X121.874Y-91.3
X121.875Y-93.95
X122.05Y-118.52
X123.21Y-92.175
X123.57Y-94.125
X123.81Y-114.27
X123.945Y-104.45
X124.0Y-79.0
X124.2Y-88.2
X124.475Y-105.625
X125.69Y-93.61
X126.575Y-83.475
X127.835Y-80.2
X128.69Y-111.29
X128.72Y-109.92
X129.5Y-96.25
X129.5Y-97.25
X129.5Y-98.5
X129.55Y-85.25
X129.755Y-81.69
X129.95Y-86.2
X130.05Y-115.81
X130.5Y-96.25
X130.5Y-97.25
X130.5Y-98.5
X131.025Y-104.525
X133.15Y-109.8
X133.85Y-102.675
X134.2Y-113.45
X136.225Y-100.275
X136.225Y-101.025
X136.39Y-109.21
X136.49Y-85.71
X137.05Y-104.625
X137.1Y-114.8
X137.26Y-99.35
X137.77Y-88.82
X138.3Y-85.35
X138.8Y-100.4
X138.8Y-101.2
X139.04Y-112.14
X139.06Y-109.81
X139.8Y-100.4
X139.8Y-101.2
X140.125Y-82.4
X140.4Y-100.4
X140.4Y-101.2
X140.69Y-99.29
X141.74Y-109.77
X141.886Y-80.736
X142.03Y-112.1
X143.3Y-88.6
X144.525Y-78.779
X146.0Y-80.8
X147.125Y-78.975
X147.675Y-84.125
X147.701Y-83.362
X148.626Y-88.281
X148.8Y-80.6
X149.032Y-90.45
X149.05Y-86.975
X149.05Y-87.725
X149.275Y-88.825
X149.275Y-89.575
X149.55Y-80.6
X149.62Y-110.83
X151.4Y-85.825
X151.4Y-86.575
X151.58Y-81.35
X152.215Y-78.079
X152.5Y-104.375
X153.54Y-109.7
X154.784Y-78.662
X154.902Y-80.542
X154.94Y-110.89
X155.2Y-85.6
X155.2Y-86.8
X155.2Y-88.2
X155.2Y-89.6
X155.475Y-102.599
X155.49Y-98.31
X155.95Y-109.95
X156.225Y-102.599
X156.35Y-113.5
X156.4Y-85.6
X156.4Y-86.8
X156.4Y-88.2
X156.4Y-89.6
X157.4Y-78.6
X157.6Y-85.6
X157.6Y-86.8
X157.6Y-88.2
X157.6Y-89.6
X157.775Y-104.25
X157.825Y-103.45
X158.8Y-78.8
X158.8Y-114.95
X159.55Y-103.525
X160.102Y-81.033
X160.892Y-78.079
X161.301Y-91.576
X161.415Y-90.747
X161.45Y-88.35
X162.122Y-100.448
X162.24Y-91.0
X162.82Y-111.09
X163.319Y-103.63
X163.663Y-81.267
X163.84Y-84.4
X164.1Y-86.825
X164.875Y-97.675
X165.088Y-75.168
X165.22Y-85.84
X165.433Y-83.203
X165.49Y-81.66
X165.55Y-106.35
X165.618Y-74.638
X165.75Y-103.75
X166.05Y-96.965
X166.27Y-80.65
X166.5Y-103.25
X167.45Y-75.16
X167.56Y-113.99
X167.57Y-108.47
X167.57Y-111.14
X168.925Y-91.825
X168.925Y-92.575
X168.96Y-118.23
X169.15Y-89.274
X169.877Y-86.032
X170.05Y-100.0
X171.01Y-109.54
X171.674Y-104.066
X172.375Y-114.55
X172.425Y-99.786
X173.175Y-99.786
X173.25Y-109.9
X173.797Y-100.147
X174.043Y-90.477
X174.11Y-114.54
X174.399Y-109.099
X174.42Y-110.16
X174.438Y-99.865
X174.839Y-103.76
X174.849Y-104.625
X174.849Y-105.375
X175.188Y-99.865
X175.25Y-96.95
X175.28Y-98.12
X175.35Y-93.48
X176.0Y-99.967
X176.05Y-109.125
X176.475Y-108.45
X176.75Y-99.967
X176.965Y-109.07
X177.18Y-104.44
X177.715Y-109.07
X178.2Y-88.4
X178.32Y-113.74
X178.35Y-108.024
X178.55Y-85.3
X181.053Y-103.463
X181.357Y-104.093
X181.5Y-102.925
X181.65Y-82.32
X181.669Y-91.318
X181.891Y-90.654
X181.907Y-83.234
X182.136Y-80.266
X182.63Y-84.21
X182.665Y-82.284
X182.78Y-118.16
X183.1Y-106.9
X183.425Y-79.725
X183.775Y-106.506
X184.75Y-103.125
X185.12Y-112.86
X185.13Y-109.48
X185.589Y-101.825
X185.6Y-103.53
X185.891Y-104.8
X186.632Y-93.181
X186.669Y-92.081
X187.01Y-103.9
X187.102Y-102.902
X187.185Y-92.753
X187.35Y-94.011
X187.49Y-99.632
X187.731Y-90.814
X187.96Y-118.1
X188.875Y-96.17
X189.075Y-91.673
X189.76Y-112.03
X190.495Y-101.041
X190.757Y-88.368
X191.188Y-99.18
X191.19Y-95.19
X191.245Y-101.041
X191.5Y-104.525
X191.98Y-99.17
X191.99Y-97.58
X192.012Y-100.95
X192.084Y-106.379
X192.22Y-103.92
X192.26Y-92.029
X192.762Y-100.95
X192.765Y-95.976
X192.787Y-95.18
X192.787Y-99.18
X192.851Y-92.404
X192.88Y-88.32
X193.25Y-78.725
X193.25Y-110.75
X193.3Y-101.591
X193.574Y-95.963
X193.58Y-96.78
X193.587Y-95.18
X193.587Y-98.38
X193.587Y-99.18
X193.73Y-100.874
X193.9Y-83.55
X194.48Y-100.874
X194.55Y-114.55
X195.0Y-78.65
X195.075Y-93.738
X195.177Y-100.817
X195.19Y-95.98
X195.2Y-95.175
X195.2Y-99.175
X195.61Y-82.62
X195.775Y-78.975
X195.95Y-118.45
X196.28Y-104.243
X196.555Y-100.035
X196.725Y-111.575
X196.835Y-110.215
X196.854Y-96.15
X197.03Y-104.243
X197.073Y-91.314
X197.073Y-92.064
X197.085Y-100.565
X197.55Y-96.043
X197.675Y-85.325
X197.734Y-104.071
X198.35Y-87.25
X198.484Y-104.071
X198.587Y-102.549
X199.28Y-104.126
X199.85Y-83.45
X200.03Y-104.126
X200.05Y-80.85
X200.05Y-86.062
X200.1Y-86.85
X200.35Y-118.05
X200.78Y-104.256
X200.925Y-89.45
X201.0Y-83.5
X201.03Y-86.062
X201.05Y-94.35
X201.1Y-80.9
X201.53Y-104.256
X201.75Y-110.54
X201.8Y-95.15
X201.85Y-94.35
X201.889Y-102.65
X201.901Y-101.951
X202.007Y-78.484
X202.05Y-97.35
X202.33Y-87.84
X202.35Y-80.95
X202.35Y-81.75
X202.49Y-104.47
X203.6Y-87.6
X204.0Y-74.5
X204.22Y-112.06
X204.45Y-102.275
X204.775Y-80.875
X204.85Y-83.5
X204.93Y-84.195
X205.1Y-89.3
X205.16Y-79.975
X205.2Y-81.95
X205.564Y-99.726
X205.575Y-82.575
X206.3Y-88.0
X206.419Y-102.674
X207.33Y-89.26
X207.73Y-92.26
X208.024Y-94.048
X208.1Y-88.5
X208.458Y-99.075
X208.74Y-112.01
X210.03Y-110.95
X210.075Y-106.95
X212.17Y-110.58
X212.55Y-111.59
X213.03Y-112.86
T2
X174.715Y-90.748
X175.35Y-90.35
X175.83Y-88.33
X176.425Y-84.926
X176.608Y-88.324
X177.225Y-84.926
X179.271Y-84.875
X180.018Y-84.827
X180.531Y-82.094
X189.6Y-99.16
X191.481Y-88.391
X200.609Y-90.485
X200.609Y-91.285
X201.756Y-100.25
X202.505Y-100.25
X203.575Y-89.975
X204.375Y-89.975
X205.216Y-91.918
X206.016Y-91.918
X206.192Y-96.158
X206.758Y-95.592
X207.41Y-104.6
X207.875Y-94.925
X208.446Y-96.35
X208.446Y-97.15
X208.483Y-98.35
T3
X142.925Y-79.875
X161.74Y-79.8
X165.775Y-79.7
X168.6Y-78.4
X172.48Y-78.5
X174.0Y-79.828
X175.62Y-75.24
X177.31Y-76.42
X177.39Y-74.4
X179.64Y-75.23
X181.78Y-74.4
X181.83Y-76.43
X188.0Y-82.6
X188.2Y-80.2
X188.8Y-81.6
X189.2Y-80.2
X189.2Y-82.6
X208.6Y-92.8
X208.8Y-100.6
T4
X172.4Y-112.4
X172.8Y-113.1
X173.6Y-113.1
X174.0Y-112.4
X174.4Y-113.1
X174.8Y-112.4
X175.6Y-112.4
X176.0Y-113.1
X176.4Y-112.4
X176.8Y-113.1
X177.6Y-113.1
X178.0Y-112.4
T7
X130.3Y-106.025
X130.8Y-107.525
X132.3Y-106.025
X133.3Y-107.525
X134.3Y-106.025
X135.3Y-107.525
X136.3Y-106.025
X137.8Y-107.525
X138.3Y-106.025
X151.645Y-106.086
X152.145Y-107.586
X153.645Y-106.086
X154.645Y-107.586
X155.645Y-106.086
X156.645Y-107.586
X157.645Y-106.086
X159.145Y-107.586
X159.645Y-106.086
T8
X131.9Y-91.6
X133.17Y-94.14
X134.44Y-91.6
X135.71Y-94.14
X136.98Y-91.6
X138.25Y-94.14
X139.52Y-91.6
X140.79Y-94.14
X142.06Y-91.6
X143.33Y-94.14
T9
X130.815Y-80.67
X130.815Y-82.7
X144.415Y-80.67
X144.415Y-82.7
T10
X129.74Y-88.3
X145.49Y-88.3
T11
X189.922Y-114.515
X204.422Y-114.515
T12
X127.9Y-113.625
X140.7Y-113.625
X149.245Y-113.686
X162.045Y-113.686
T13
X127.9Y-107.025
X140.7Y-107.025
X149.245Y-107.086
X162.045Y-107.086
T14
X189.922Y-108.515
X204.422Y-108.515
T5
G00X170.71Y-117.09
M15
G01X170.71Y-117.69
M16
G05
G00X171.07Y-112.69
M15
G01X171.07Y-113.29
M16
G05
G00X179.33Y-112.69
M15
G01X179.33Y-113.29
M16
G05
G00X179.69Y-117.09
M15
G01X179.69Y-117.69
M16
G05
T6
G00X191.667Y-78.8
M15
G01X191.667Y-79.4
M16
G05
G00X191.667Y-81.8
M15
G01X191.667Y-82.4
M16
G05
G00X191.667Y-85.8
M15
G01X191.667Y-86.4
M16
G05
G00X196.167Y-87.3
M15
G01X196.167Y-87.9
M16
G05
G00X197.167Y-78.8
M15
G01X197.167Y-79.4
M16
G05
T0
M30
