G04 #@! TF.GenerationSoftware,KiCad,Pcbnew,(6.0.7)*
G04 #@! TF.CreationDate,2022-10-31T13:42:49+03:00*
G04 #@! TF.ProjectId,USB_HUB_ADAPTER,5553425f-4855-4425-9f41-444150544552,rev?*
G04 #@! TF.SameCoordinates,Original*
G04 #@! TF.FileFunction,Soldermask,Bot*
G04 #@! TF.FilePolarity,Negative*
%FSLAX46Y46*%
G04 Gerber Fmt 4.6, Leading zero omitted, Abs format (unit mm)*
G04 Created by KiCad (PCBNEW (6.0.7)) date 2022-10-31 13:42:49*
%MOMM*%
%LPD*%
G01*
G04 APERTURE LIST*
G04 Aperture macros list*
%AMRoundRect*
0 Rectangle with rounded corners*
0 $1 Rounding radius*
0 $2 $3 $4 $5 $6 $7 $8 $9 X,Y pos of 4 corners*
0 Add a 4 corners polygon primitive as box body*
4,1,4,$2,$3,$4,$5,$6,$7,$8,$9,$2,$3,0*
0 Add four circle primitives for the rounded corners*
1,1,$1+$1,$2,$3*
1,1,$1+$1,$4,$5*
1,1,$1+$1,$6,$7*
1,1,$1+$1,$8,$9*
0 Add four rect primitives between the rounded corners*
20,1,$1+$1,$2,$3,$4,$5,0*
20,1,$1+$1,$4,$5,$6,$7,0*
20,1,$1+$1,$6,$7,$8,$9,0*
20,1,$1+$1,$8,$9,$2,$3,0*%
%AMRotRect*
0 Rectangle, with rotation*
0 The origin of the aperture is its center*
0 $1 length*
0 $2 width*
0 $3 Rotation angle, in degrees counterclockwise*
0 Add horizontal line*
21,1,$1,$2,0,0,$3*%
G04 Aperture macros list end*
%ADD10C,0.010000*%
%ADD11C,3.200000*%
%ADD12R,1.400000X2.000000*%
%ADD13O,1.400000X2.000000*%
%ADD14C,1.200000*%
%ADD15C,3.345000*%
%ADD16C,2.925000*%
%ADD17C,1.300000*%
%ADD18C,0.650000*%
%ADD19C,0.600000*%
%ADD20C,1.600000*%
%ADD21C,1.100000*%
%ADD22C,3.400000*%
%ADD23C,2.500000*%
%ADD24C,3.250000*%
%ADD25R,1.446000X1.446000*%
%ADD26C,1.446000*%
%ADD27C,1.530000*%
%ADD28C,2.355000*%
%ADD29RoundRect,0.140000X-0.170000X0.140000X-0.170000X-0.140000X0.170000X-0.140000X0.170000X0.140000X0*%
%ADD30RoundRect,0.225000X0.250000X-0.225000X0.250000X0.225000X-0.250000X0.225000X-0.250000X-0.225000X0*%
%ADD31RoundRect,0.250000X0.625000X-0.312500X0.625000X0.312500X-0.625000X0.312500X-0.625000X-0.312500X0*%
%ADD32RoundRect,0.200000X-0.200000X-0.275000X0.200000X-0.275000X0.200000X0.275000X-0.200000X0.275000X0*%
%ADD33RoundRect,0.200000X-0.275000X0.200000X-0.275000X-0.200000X0.275000X-0.200000X0.275000X0.200000X0*%
%ADD34RoundRect,0.140000X0.140000X0.170000X-0.140000X0.170000X-0.140000X-0.170000X0.140000X-0.170000X0*%
%ADD35RoundRect,0.225000X-0.225000X-0.250000X0.225000X-0.250000X0.225000X0.250000X-0.225000X0.250000X0*%
%ADD36R,1.100000X0.700000*%
%ADD37R,0.780000X1.050000*%
%ADD38R,3.330000X0.700000*%
%ADD39R,2.800000X0.860000*%
%ADD40R,1.830000X1.140000*%
%ADD41R,0.930000X0.900000*%
%ADD42RoundRect,0.200000X0.275000X-0.200000X0.275000X0.200000X-0.275000X0.200000X-0.275000X-0.200000X0*%
%ADD43R,2.700000X2.700000*%
%ADD44RoundRect,0.062500X-0.062500X-0.350000X0.062500X-0.350000X0.062500X0.350000X-0.062500X0.350000X0*%
%ADD45RoundRect,0.062500X-0.350000X-0.062500X0.350000X-0.062500X0.350000X0.062500X-0.350000X0.062500X0*%
%ADD46RoundRect,0.140000X0.170000X-0.140000X0.170000X0.140000X-0.170000X0.140000X-0.170000X-0.140000X0*%
%ADD47RoundRect,0.135000X0.185000X-0.135000X0.185000X0.135000X-0.185000X0.135000X-0.185000X-0.135000X0*%
%ADD48R,4.860000X3.360000*%
%ADD49R,1.400000X1.390000*%
%ADD50RoundRect,0.225000X0.225000X0.250000X-0.225000X0.250000X-0.225000X-0.250000X0.225000X-0.250000X0*%
%ADD51RoundRect,0.150000X0.150000X-0.587500X0.150000X0.587500X-0.150000X0.587500X-0.150000X-0.587500X0*%
%ADD52C,0.900000*%
%ADD53R,1.800000X2.500000*%
%ADD54R,1.800000X0.800000*%
%ADD55RoundRect,0.250000X-0.475000X0.250000X-0.475000X-0.250000X0.475000X-0.250000X0.475000X0.250000X0*%
%ADD56R,1.600000X3.000000*%
%ADD57R,6.000000X6.900000*%
%ADD58R,2.300000X2.500000*%
%ADD59RoundRect,0.250000X0.475000X-0.250000X0.475000X0.250000X-0.475000X0.250000X-0.475000X-0.250000X0*%
%ADD60RoundRect,0.140000X-0.140000X-0.170000X0.140000X-0.170000X0.140000X0.170000X-0.140000X0.170000X0*%
%ADD61R,0.750000X0.400000*%
%ADD62R,0.600000X0.250000*%
%ADD63R,1.000000X0.200000*%
%ADD64RoundRect,0.150000X-0.512500X-0.150000X0.512500X-0.150000X0.512500X0.150000X-0.512500X0.150000X0*%
%ADD65R,2.500000X2.300000*%
%ADD66RoundRect,0.135000X-0.135000X-0.185000X0.135000X-0.185000X0.135000X0.185000X-0.135000X0.185000X0*%
%ADD67RoundRect,0.200000X0.200000X0.275000X-0.200000X0.275000X-0.200000X-0.275000X0.200000X-0.275000X0*%
%ADD68RoundRect,0.062500X0.350000X0.062500X-0.350000X0.062500X-0.350000X-0.062500X0.350000X-0.062500X0*%
%ADD69RoundRect,0.062500X0.062500X0.350000X-0.062500X0.350000X-0.062500X-0.350000X0.062500X-0.350000X0*%
%ADD70R,0.200000X0.200000*%
%ADD71RoundRect,0.150000X-0.825000X-0.150000X0.825000X-0.150000X0.825000X0.150000X-0.825000X0.150000X0*%
%ADD72R,0.350000X0.400000*%
%ADD73R,0.800000X2.200000*%
%ADD74RoundRect,0.135000X0.135000X0.185000X-0.135000X0.185000X-0.135000X-0.185000X0.135000X-0.185000X0*%
%ADD75RoundRect,0.140000X0.219203X0.021213X0.021213X0.219203X-0.219203X-0.021213X-0.021213X-0.219203X0*%
%ADD76RoundRect,0.135000X-0.185000X0.135000X-0.185000X-0.135000X0.185000X-0.135000X0.185000X0.135000X0*%
%ADD77R,2.500000X2.000000*%
%ADD78RoundRect,0.150000X-0.150000X0.587500X-0.150000X-0.587500X0.150000X-0.587500X0.150000X0.587500X0*%
%ADD79RoundRect,0.218750X0.218750X0.256250X-0.218750X0.256250X-0.218750X-0.256250X0.218750X-0.256250X0*%
%ADD80R,3.700000X3.700000*%
%ADD81RoundRect,0.062500X-0.350000X0.062500X-0.350000X-0.062500X0.350000X-0.062500X0.350000X0.062500X0*%
%ADD82RoundRect,0.062500X-0.062500X0.350000X-0.062500X-0.350000X0.062500X-0.350000X0.062500X0.350000X0*%
%ADD83RoundRect,0.225000X-0.250000X0.225000X-0.250000X-0.225000X0.250000X-0.225000X0.250000X0.225000X0*%
%ADD84R,0.400000X0.350000*%
%ADD85R,0.450000X1.450000*%
%ADD86R,1.500000X2.000000*%
%ADD87R,3.800000X2.000000*%
%ADD88R,4.100000X4.100000*%
%ADD89RotRect,0.900000X0.800000X315.000000*%
%ADD90RoundRect,0.250000X-0.250000X-0.475000X0.250000X-0.475000X0.250000X0.475000X-0.250000X0.475000X0*%
%ADD91R,3.500000X3.550000*%
%ADD92RoundRect,0.250000X0.925000X-0.412500X0.925000X0.412500X-0.925000X0.412500X-0.925000X-0.412500X0*%
%ADD93R,0.200000X0.800000*%
%ADD94R,0.800000X0.200000*%
%ADD95R,2.800000X4.800000*%
%ADD96RoundRect,0.062500X0.062500X-0.375000X0.062500X0.375000X-0.062500X0.375000X-0.062500X-0.375000X0*%
%ADD97RoundRect,0.062500X0.375000X-0.062500X0.375000X0.062500X-0.375000X0.062500X-0.375000X-0.062500X0*%
%ADD98R,3.600000X3.600000*%
%ADD99R,1.100000X0.400000*%
%ADD100R,0.610000X1.270000*%
%ADD101R,0.610000X1.020000*%
%ADD102R,1.650000X3.810000*%
%ADD103RoundRect,0.140000X-0.021213X0.219203X-0.219203X0.021213X0.021213X-0.219203X0.219203X-0.021213X0*%
%ADD104R,3.000000X1.600000*%
%ADD105R,6.900000X6.000000*%
G04 APERTURE END LIST*
G36*
X178994000Y-111327000D02*
G01*
X179016000Y-111330000D01*
X179038000Y-111334000D01*
X179060000Y-111339000D01*
X179102000Y-111353000D01*
X179123000Y-111362000D01*
X179143000Y-111371000D01*
X179162000Y-111382000D01*
X179200000Y-111406000D01*
X179234000Y-111434000D01*
X179251000Y-111449000D01*
X179266000Y-111466000D01*
X179294000Y-111500000D01*
X179306000Y-111519000D01*
X179318000Y-111537000D01*
X179329000Y-111557000D01*
X179338000Y-111577000D01*
X179347000Y-111598000D01*
X179361000Y-111640000D01*
X179366000Y-111662000D01*
X179370000Y-111684000D01*
X179373000Y-111706000D01*
X179375000Y-111750000D01*
X179373000Y-111794000D01*
X179370000Y-111816000D01*
X179366000Y-111838000D01*
X179361000Y-111860000D01*
X179347000Y-111902000D01*
X179338000Y-111923000D01*
X179329000Y-111943000D01*
X179318000Y-111962000D01*
X179294000Y-112000000D01*
X179266000Y-112034000D01*
X179251000Y-112051000D01*
X179234000Y-112066000D01*
X179200000Y-112094000D01*
X179162000Y-112118000D01*
X179143000Y-112129000D01*
X179123000Y-112138000D01*
X179102000Y-112147000D01*
X179060000Y-112161000D01*
X179038000Y-112166000D01*
X179016000Y-112170000D01*
X178994000Y-112173000D01*
X178950000Y-112175000D01*
X178650000Y-112175000D01*
X178606000Y-112173000D01*
X178584000Y-112170000D01*
X178562000Y-112166000D01*
X178540000Y-112161000D01*
X178498000Y-112147000D01*
X178477000Y-112138000D01*
X178457000Y-112129000D01*
X178437000Y-112118000D01*
X178419000Y-112106000D01*
X178400000Y-112094000D01*
X178366000Y-112066000D01*
X178349000Y-112051000D01*
X178334000Y-112034000D01*
X178306000Y-112000000D01*
X178282000Y-111962000D01*
X178271000Y-111943000D01*
X178262000Y-111923000D01*
X178253000Y-111902000D01*
X178239000Y-111860000D01*
X178234000Y-111838000D01*
X178230000Y-111816000D01*
X178227000Y-111794000D01*
X178225000Y-111750000D01*
X178227000Y-111706000D01*
X178230000Y-111684000D01*
X178234000Y-111662000D01*
X178239000Y-111640000D01*
X178253000Y-111598000D01*
X178262000Y-111577000D01*
X178271000Y-111557000D01*
X178282000Y-111537000D01*
X178294000Y-111519000D01*
X178306000Y-111500000D01*
X178334000Y-111466000D01*
X178349000Y-111449000D01*
X178366000Y-111434000D01*
X178400000Y-111406000D01*
X178419000Y-111394000D01*
X178437000Y-111382000D01*
X178457000Y-111371000D01*
X178477000Y-111362000D01*
X178498000Y-111353000D01*
X178540000Y-111339000D01*
X178562000Y-111334000D01*
X178584000Y-111330000D01*
X178606000Y-111327000D01*
X178650000Y-111325000D01*
X178950000Y-111325000D01*
X178994000Y-111327000D01*
G37*
D10*
X178994000Y-111327000D02*
X179016000Y-111330000D01*
X179038000Y-111334000D01*
X179060000Y-111339000D01*
X179102000Y-111353000D01*
X179123000Y-111362000D01*
X179143000Y-111371000D01*
X179162000Y-111382000D01*
X179200000Y-111406000D01*
X179234000Y-111434000D01*
X179251000Y-111449000D01*
X179266000Y-111466000D01*
X179294000Y-111500000D01*
X179306000Y-111519000D01*
X179318000Y-111537000D01*
X179329000Y-111557000D01*
X179338000Y-111577000D01*
X179347000Y-111598000D01*
X179361000Y-111640000D01*
X179366000Y-111662000D01*
X179370000Y-111684000D01*
X179373000Y-111706000D01*
X179375000Y-111750000D01*
X179373000Y-111794000D01*
X179370000Y-111816000D01*
X179366000Y-111838000D01*
X179361000Y-111860000D01*
X179347000Y-111902000D01*
X179338000Y-111923000D01*
X179329000Y-111943000D01*
X179318000Y-111962000D01*
X179294000Y-112000000D01*
X179266000Y-112034000D01*
X179251000Y-112051000D01*
X179234000Y-112066000D01*
X179200000Y-112094000D01*
X179162000Y-112118000D01*
X179143000Y-112129000D01*
X179123000Y-112138000D01*
X179102000Y-112147000D01*
X179060000Y-112161000D01*
X179038000Y-112166000D01*
X179016000Y-112170000D01*
X178994000Y-112173000D01*
X178950000Y-112175000D01*
X178650000Y-112175000D01*
X178606000Y-112173000D01*
X178584000Y-112170000D01*
X178562000Y-112166000D01*
X178540000Y-112161000D01*
X178498000Y-112147000D01*
X178477000Y-112138000D01*
X178457000Y-112129000D01*
X178437000Y-112118000D01*
X178419000Y-112106000D01*
X178400000Y-112094000D01*
X178366000Y-112066000D01*
X178349000Y-112051000D01*
X178334000Y-112034000D01*
X178306000Y-112000000D01*
X178282000Y-111962000D01*
X178271000Y-111943000D01*
X178262000Y-111923000D01*
X178253000Y-111902000D01*
X178239000Y-111860000D01*
X178234000Y-111838000D01*
X178230000Y-111816000D01*
X178227000Y-111794000D01*
X178225000Y-111750000D01*
X178227000Y-111706000D01*
X178230000Y-111684000D01*
X178234000Y-111662000D01*
X178239000Y-111640000D01*
X178253000Y-111598000D01*
X178262000Y-111577000D01*
X178271000Y-111557000D01*
X178282000Y-111537000D01*
X178294000Y-111519000D01*
X178306000Y-111500000D01*
X178334000Y-111466000D01*
X178349000Y-111449000D01*
X178366000Y-111434000D01*
X178400000Y-111406000D01*
X178419000Y-111394000D01*
X178437000Y-111382000D01*
X178457000Y-111371000D01*
X178477000Y-111362000D01*
X178498000Y-111353000D01*
X178540000Y-111339000D01*
X178562000Y-111334000D01*
X178584000Y-111330000D01*
X178606000Y-111327000D01*
X178650000Y-111325000D01*
X178950000Y-111325000D01*
X178994000Y-111327000D01*
G36*
X171096000Y-112191000D02*
G01*
X171122000Y-112193000D01*
X171148000Y-112196000D01*
X171174000Y-112201000D01*
X171199000Y-112207000D01*
X171225000Y-112214000D01*
X171249000Y-112223000D01*
X171273000Y-112233000D01*
X171297000Y-112244000D01*
X171320000Y-112257000D01*
X171364000Y-112285000D01*
X171385000Y-112301000D01*
X171405000Y-112318000D01*
X171424000Y-112336000D01*
X171442000Y-112355000D01*
X171459000Y-112375000D01*
X171475000Y-112396000D01*
X171503000Y-112440000D01*
X171516000Y-112463000D01*
X171527000Y-112487000D01*
X171537000Y-112511000D01*
X171546000Y-112535000D01*
X171553000Y-112561000D01*
X171559000Y-112586000D01*
X171564000Y-112612000D01*
X171567000Y-112638000D01*
X171569000Y-112664000D01*
X171570000Y-112690000D01*
X171570000Y-113290000D01*
X171569000Y-113316000D01*
X171567000Y-113342000D01*
X171564000Y-113368000D01*
X171559000Y-113394000D01*
X171553000Y-113419000D01*
X171546000Y-113445000D01*
X171537000Y-113469000D01*
X171527000Y-113493000D01*
X171516000Y-113517000D01*
X171503000Y-113540000D01*
X171475000Y-113584000D01*
X171459000Y-113605000D01*
X171442000Y-113625000D01*
X171424000Y-113644000D01*
X171405000Y-113662000D01*
X171385000Y-113679000D01*
X171364000Y-113695000D01*
X171320000Y-113723000D01*
X171297000Y-113736000D01*
X171273000Y-113747000D01*
X171249000Y-113757000D01*
X171225000Y-113766000D01*
X171199000Y-113773000D01*
X171174000Y-113779000D01*
X171148000Y-113784000D01*
X171122000Y-113787000D01*
X171096000Y-113789000D01*
X171070000Y-113790000D01*
X171044000Y-113789000D01*
X171018000Y-113787000D01*
X170992000Y-113784000D01*
X170966000Y-113779000D01*
X170941000Y-113773000D01*
X170915000Y-113766000D01*
X170891000Y-113757000D01*
X170867000Y-113747000D01*
X170843000Y-113736000D01*
X170820000Y-113723000D01*
X170776000Y-113695000D01*
X170755000Y-113679000D01*
X170735000Y-113662000D01*
X170716000Y-113644000D01*
X170698000Y-113625000D01*
X170681000Y-113605000D01*
X170665000Y-113584000D01*
X170637000Y-113540000D01*
X170624000Y-113517000D01*
X170613000Y-113493000D01*
X170603000Y-113469000D01*
X170594000Y-113445000D01*
X170587000Y-113419000D01*
X170581000Y-113394000D01*
X170576000Y-113368000D01*
X170573000Y-113342000D01*
X170571000Y-113316000D01*
X170570000Y-113290000D01*
X170570000Y-112690000D01*
X170571000Y-112664000D01*
X170573000Y-112638000D01*
X170576000Y-112612000D01*
X170581000Y-112586000D01*
X170587000Y-112561000D01*
X170594000Y-112535000D01*
X170603000Y-112511000D01*
X170613000Y-112487000D01*
X170624000Y-112463000D01*
X170637000Y-112440000D01*
X170665000Y-112396000D01*
X170681000Y-112375000D01*
X170698000Y-112355000D01*
X170716000Y-112336000D01*
X170735000Y-112318000D01*
X170755000Y-112301000D01*
X170776000Y-112285000D01*
X170820000Y-112257000D01*
X170843000Y-112244000D01*
X170867000Y-112233000D01*
X170891000Y-112223000D01*
X170915000Y-112214000D01*
X170941000Y-112207000D01*
X170966000Y-112201000D01*
X170992000Y-112196000D01*
X171018000Y-112193000D01*
X171044000Y-112191000D01*
X171070000Y-112190000D01*
X171096000Y-112191000D01*
G37*
X171096000Y-112191000D02*
X171122000Y-112193000D01*
X171148000Y-112196000D01*
X171174000Y-112201000D01*
X171199000Y-112207000D01*
X171225000Y-112214000D01*
X171249000Y-112223000D01*
X171273000Y-112233000D01*
X171297000Y-112244000D01*
X171320000Y-112257000D01*
X171364000Y-112285000D01*
X171385000Y-112301000D01*
X171405000Y-112318000D01*
X171424000Y-112336000D01*
X171442000Y-112355000D01*
X171459000Y-112375000D01*
X171475000Y-112396000D01*
X171503000Y-112440000D01*
X171516000Y-112463000D01*
X171527000Y-112487000D01*
X171537000Y-112511000D01*
X171546000Y-112535000D01*
X171553000Y-112561000D01*
X171559000Y-112586000D01*
X171564000Y-112612000D01*
X171567000Y-112638000D01*
X171569000Y-112664000D01*
X171570000Y-112690000D01*
X171570000Y-113290000D01*
X171569000Y-113316000D01*
X171567000Y-113342000D01*
X171564000Y-113368000D01*
X171559000Y-113394000D01*
X171553000Y-113419000D01*
X171546000Y-113445000D01*
X171537000Y-113469000D01*
X171527000Y-113493000D01*
X171516000Y-113517000D01*
X171503000Y-113540000D01*
X171475000Y-113584000D01*
X171459000Y-113605000D01*
X171442000Y-113625000D01*
X171424000Y-113644000D01*
X171405000Y-113662000D01*
X171385000Y-113679000D01*
X171364000Y-113695000D01*
X171320000Y-113723000D01*
X171297000Y-113736000D01*
X171273000Y-113747000D01*
X171249000Y-113757000D01*
X171225000Y-113766000D01*
X171199000Y-113773000D01*
X171174000Y-113779000D01*
X171148000Y-113784000D01*
X171122000Y-113787000D01*
X171096000Y-113789000D01*
X171070000Y-113790000D01*
X171044000Y-113789000D01*
X171018000Y-113787000D01*
X170992000Y-113784000D01*
X170966000Y-113779000D01*
X170941000Y-113773000D01*
X170915000Y-113766000D01*
X170891000Y-113757000D01*
X170867000Y-113747000D01*
X170843000Y-113736000D01*
X170820000Y-113723000D01*
X170776000Y-113695000D01*
X170755000Y-113679000D01*
X170735000Y-113662000D01*
X170716000Y-113644000D01*
X170698000Y-113625000D01*
X170681000Y-113605000D01*
X170665000Y-113584000D01*
X170637000Y-113540000D01*
X170624000Y-113517000D01*
X170613000Y-113493000D01*
X170603000Y-113469000D01*
X170594000Y-113445000D01*
X170587000Y-113419000D01*
X170581000Y-113394000D01*
X170576000Y-113368000D01*
X170573000Y-113342000D01*
X170571000Y-113316000D01*
X170570000Y-113290000D01*
X170570000Y-112690000D01*
X170571000Y-112664000D01*
X170573000Y-112638000D01*
X170576000Y-112612000D01*
X170581000Y-112586000D01*
X170587000Y-112561000D01*
X170594000Y-112535000D01*
X170603000Y-112511000D01*
X170613000Y-112487000D01*
X170624000Y-112463000D01*
X170637000Y-112440000D01*
X170665000Y-112396000D01*
X170681000Y-112375000D01*
X170698000Y-112355000D01*
X170716000Y-112336000D01*
X170735000Y-112318000D01*
X170755000Y-112301000D01*
X170776000Y-112285000D01*
X170820000Y-112257000D01*
X170843000Y-112244000D01*
X170867000Y-112233000D01*
X170891000Y-112223000D01*
X170915000Y-112214000D01*
X170941000Y-112207000D01*
X170966000Y-112201000D01*
X170992000Y-112196000D01*
X171018000Y-112193000D01*
X171044000Y-112191000D01*
X171070000Y-112190000D01*
X171096000Y-112191000D01*
G36*
X170736000Y-116591000D02*
G01*
X170762000Y-116593000D01*
X170788000Y-116596000D01*
X170814000Y-116601000D01*
X170839000Y-116607000D01*
X170865000Y-116614000D01*
X170889000Y-116623000D01*
X170913000Y-116633000D01*
X170937000Y-116644000D01*
X170960000Y-116657000D01*
X171004000Y-116685000D01*
X171025000Y-116701000D01*
X171045000Y-116718000D01*
X171064000Y-116736000D01*
X171082000Y-116755000D01*
X171099000Y-116775000D01*
X171115000Y-116796000D01*
X171143000Y-116840000D01*
X171156000Y-116863000D01*
X171167000Y-116887000D01*
X171177000Y-116911000D01*
X171186000Y-116935000D01*
X171193000Y-116961000D01*
X171199000Y-116986000D01*
X171204000Y-117012000D01*
X171207000Y-117038000D01*
X171209000Y-117064000D01*
X171210000Y-117090000D01*
X171210000Y-117690000D01*
X171209000Y-117716000D01*
X171207000Y-117742000D01*
X171204000Y-117768000D01*
X171199000Y-117794000D01*
X171193000Y-117819000D01*
X171186000Y-117845000D01*
X171177000Y-117869000D01*
X171167000Y-117893000D01*
X171156000Y-117917000D01*
X171143000Y-117940000D01*
X171115000Y-117984000D01*
X171099000Y-118005000D01*
X171082000Y-118025000D01*
X171064000Y-118044000D01*
X171045000Y-118062000D01*
X171025000Y-118079000D01*
X171004000Y-118095000D01*
X170960000Y-118123000D01*
X170937000Y-118136000D01*
X170913000Y-118147000D01*
X170889000Y-118157000D01*
X170865000Y-118166000D01*
X170839000Y-118173000D01*
X170814000Y-118179000D01*
X170788000Y-118184000D01*
X170762000Y-118187000D01*
X170736000Y-118189000D01*
X170710000Y-118190000D01*
X170684000Y-118189000D01*
X170658000Y-118187000D01*
X170632000Y-118184000D01*
X170606000Y-118179000D01*
X170581000Y-118173000D01*
X170555000Y-118166000D01*
X170531000Y-118157000D01*
X170507000Y-118147000D01*
X170483000Y-118136000D01*
X170460000Y-118123000D01*
X170416000Y-118095000D01*
X170395000Y-118079000D01*
X170375000Y-118062000D01*
X170356000Y-118044000D01*
X170338000Y-118025000D01*
X170321000Y-118005000D01*
X170305000Y-117984000D01*
X170277000Y-117940000D01*
X170264000Y-117917000D01*
X170253000Y-117893000D01*
X170243000Y-117869000D01*
X170234000Y-117845000D01*
X170227000Y-117819000D01*
X170221000Y-117794000D01*
X170216000Y-117768000D01*
X170213000Y-117742000D01*
X170211000Y-117716000D01*
X170210000Y-117690000D01*
X170210000Y-117090000D01*
X170211000Y-117064000D01*
X170213000Y-117038000D01*
X170216000Y-117012000D01*
X170221000Y-116986000D01*
X170227000Y-116961000D01*
X170234000Y-116935000D01*
X170243000Y-116911000D01*
X170253000Y-116887000D01*
X170264000Y-116863000D01*
X170277000Y-116840000D01*
X170305000Y-116796000D01*
X170321000Y-116775000D01*
X170338000Y-116755000D01*
X170356000Y-116736000D01*
X170375000Y-116718000D01*
X170395000Y-116701000D01*
X170416000Y-116685000D01*
X170460000Y-116657000D01*
X170483000Y-116644000D01*
X170507000Y-116633000D01*
X170531000Y-116623000D01*
X170555000Y-116614000D01*
X170581000Y-116607000D01*
X170606000Y-116601000D01*
X170632000Y-116596000D01*
X170658000Y-116593000D01*
X170684000Y-116591000D01*
X170710000Y-116590000D01*
X170736000Y-116591000D01*
G37*
X170736000Y-116591000D02*
X170762000Y-116593000D01*
X170788000Y-116596000D01*
X170814000Y-116601000D01*
X170839000Y-116607000D01*
X170865000Y-116614000D01*
X170889000Y-116623000D01*
X170913000Y-116633000D01*
X170937000Y-116644000D01*
X170960000Y-116657000D01*
X171004000Y-116685000D01*
X171025000Y-116701000D01*
X171045000Y-116718000D01*
X171064000Y-116736000D01*
X171082000Y-116755000D01*
X171099000Y-116775000D01*
X171115000Y-116796000D01*
X171143000Y-116840000D01*
X171156000Y-116863000D01*
X171167000Y-116887000D01*
X171177000Y-116911000D01*
X171186000Y-116935000D01*
X171193000Y-116961000D01*
X171199000Y-116986000D01*
X171204000Y-117012000D01*
X171207000Y-117038000D01*
X171209000Y-117064000D01*
X171210000Y-117090000D01*
X171210000Y-117690000D01*
X171209000Y-117716000D01*
X171207000Y-117742000D01*
X171204000Y-117768000D01*
X171199000Y-117794000D01*
X171193000Y-117819000D01*
X171186000Y-117845000D01*
X171177000Y-117869000D01*
X171167000Y-117893000D01*
X171156000Y-117917000D01*
X171143000Y-117940000D01*
X171115000Y-117984000D01*
X171099000Y-118005000D01*
X171082000Y-118025000D01*
X171064000Y-118044000D01*
X171045000Y-118062000D01*
X171025000Y-118079000D01*
X171004000Y-118095000D01*
X170960000Y-118123000D01*
X170937000Y-118136000D01*
X170913000Y-118147000D01*
X170889000Y-118157000D01*
X170865000Y-118166000D01*
X170839000Y-118173000D01*
X170814000Y-118179000D01*
X170788000Y-118184000D01*
X170762000Y-118187000D01*
X170736000Y-118189000D01*
X170710000Y-118190000D01*
X170684000Y-118189000D01*
X170658000Y-118187000D01*
X170632000Y-118184000D01*
X170606000Y-118179000D01*
X170581000Y-118173000D01*
X170555000Y-118166000D01*
X170531000Y-118157000D01*
X170507000Y-118147000D01*
X170483000Y-118136000D01*
X170460000Y-118123000D01*
X170416000Y-118095000D01*
X170395000Y-118079000D01*
X170375000Y-118062000D01*
X170356000Y-118044000D01*
X170338000Y-118025000D01*
X170321000Y-118005000D01*
X170305000Y-117984000D01*
X170277000Y-117940000D01*
X170264000Y-117917000D01*
X170253000Y-117893000D01*
X170243000Y-117869000D01*
X170234000Y-117845000D01*
X170227000Y-117819000D01*
X170221000Y-117794000D01*
X170216000Y-117768000D01*
X170213000Y-117742000D01*
X170211000Y-117716000D01*
X170210000Y-117690000D01*
X170210000Y-117090000D01*
X170211000Y-117064000D01*
X170213000Y-117038000D01*
X170216000Y-117012000D01*
X170221000Y-116986000D01*
X170227000Y-116961000D01*
X170234000Y-116935000D01*
X170243000Y-116911000D01*
X170253000Y-116887000D01*
X170264000Y-116863000D01*
X170277000Y-116840000D01*
X170305000Y-116796000D01*
X170321000Y-116775000D01*
X170338000Y-116755000D01*
X170356000Y-116736000D01*
X170375000Y-116718000D01*
X170395000Y-116701000D01*
X170416000Y-116685000D01*
X170460000Y-116657000D01*
X170483000Y-116644000D01*
X170507000Y-116633000D01*
X170531000Y-116623000D01*
X170555000Y-116614000D01*
X170581000Y-116607000D01*
X170606000Y-116601000D01*
X170632000Y-116596000D01*
X170658000Y-116593000D01*
X170684000Y-116591000D01*
X170710000Y-116590000D01*
X170736000Y-116591000D01*
G36*
X179716000Y-116591000D02*
G01*
X179742000Y-116593000D01*
X179768000Y-116596000D01*
X179794000Y-116601000D01*
X179819000Y-116607000D01*
X179845000Y-116614000D01*
X179869000Y-116623000D01*
X179893000Y-116633000D01*
X179917000Y-116644000D01*
X179940000Y-116657000D01*
X179984000Y-116685000D01*
X180005000Y-116701000D01*
X180025000Y-116718000D01*
X180044000Y-116736000D01*
X180062000Y-116755000D01*
X180079000Y-116775000D01*
X180095000Y-116796000D01*
X180123000Y-116840000D01*
X180136000Y-116863000D01*
X180147000Y-116887000D01*
X180157000Y-116911000D01*
X180166000Y-116935000D01*
X180173000Y-116961000D01*
X180179000Y-116986000D01*
X180184000Y-117012000D01*
X180187000Y-117038000D01*
X180189000Y-117064000D01*
X180190000Y-117090000D01*
X180190000Y-117690000D01*
X180189000Y-117716000D01*
X180187000Y-117742000D01*
X180184000Y-117768000D01*
X180179000Y-117794000D01*
X180173000Y-117819000D01*
X180166000Y-117845000D01*
X180157000Y-117869000D01*
X180147000Y-117893000D01*
X180136000Y-117917000D01*
X180123000Y-117940000D01*
X180095000Y-117984000D01*
X180079000Y-118005000D01*
X180062000Y-118025000D01*
X180044000Y-118044000D01*
X180025000Y-118062000D01*
X180005000Y-118079000D01*
X179984000Y-118095000D01*
X179940000Y-118123000D01*
X179917000Y-118136000D01*
X179893000Y-118147000D01*
X179869000Y-118157000D01*
X179845000Y-118166000D01*
X179819000Y-118173000D01*
X179794000Y-118179000D01*
X179768000Y-118184000D01*
X179742000Y-118187000D01*
X179716000Y-118189000D01*
X179690000Y-118190000D01*
X179664000Y-118189000D01*
X179638000Y-118187000D01*
X179612000Y-118184000D01*
X179586000Y-118179000D01*
X179561000Y-118173000D01*
X179535000Y-118166000D01*
X179511000Y-118157000D01*
X179487000Y-118147000D01*
X179463000Y-118136000D01*
X179440000Y-118123000D01*
X179396000Y-118095000D01*
X179375000Y-118079000D01*
X179355000Y-118062000D01*
X179336000Y-118044000D01*
X179318000Y-118025000D01*
X179301000Y-118005000D01*
X179285000Y-117984000D01*
X179257000Y-117940000D01*
X179244000Y-117917000D01*
X179233000Y-117893000D01*
X179223000Y-117869000D01*
X179214000Y-117845000D01*
X179207000Y-117819000D01*
X179201000Y-117794000D01*
X179196000Y-117768000D01*
X179193000Y-117742000D01*
X179191000Y-117716000D01*
X179190000Y-117690000D01*
X179190000Y-117090000D01*
X179191000Y-117064000D01*
X179193000Y-117038000D01*
X179196000Y-117012000D01*
X179201000Y-116986000D01*
X179207000Y-116961000D01*
X179214000Y-116935000D01*
X179223000Y-116911000D01*
X179233000Y-116887000D01*
X179244000Y-116863000D01*
X179257000Y-116840000D01*
X179285000Y-116796000D01*
X179301000Y-116775000D01*
X179318000Y-116755000D01*
X179336000Y-116736000D01*
X179355000Y-116718000D01*
X179375000Y-116701000D01*
X179396000Y-116685000D01*
X179440000Y-116657000D01*
X179463000Y-116644000D01*
X179487000Y-116633000D01*
X179511000Y-116623000D01*
X179535000Y-116614000D01*
X179561000Y-116607000D01*
X179586000Y-116601000D01*
X179612000Y-116596000D01*
X179638000Y-116593000D01*
X179664000Y-116591000D01*
X179690000Y-116590000D01*
X179716000Y-116591000D01*
G37*
X179716000Y-116591000D02*
X179742000Y-116593000D01*
X179768000Y-116596000D01*
X179794000Y-116601000D01*
X179819000Y-116607000D01*
X179845000Y-116614000D01*
X179869000Y-116623000D01*
X179893000Y-116633000D01*
X179917000Y-116644000D01*
X179940000Y-116657000D01*
X179984000Y-116685000D01*
X180005000Y-116701000D01*
X180025000Y-116718000D01*
X180044000Y-116736000D01*
X180062000Y-116755000D01*
X180079000Y-116775000D01*
X180095000Y-116796000D01*
X180123000Y-116840000D01*
X180136000Y-116863000D01*
X180147000Y-116887000D01*
X180157000Y-116911000D01*
X180166000Y-116935000D01*
X180173000Y-116961000D01*
X180179000Y-116986000D01*
X180184000Y-117012000D01*
X180187000Y-117038000D01*
X180189000Y-117064000D01*
X180190000Y-117090000D01*
X180190000Y-117690000D01*
X180189000Y-117716000D01*
X180187000Y-117742000D01*
X180184000Y-117768000D01*
X180179000Y-117794000D01*
X180173000Y-117819000D01*
X180166000Y-117845000D01*
X180157000Y-117869000D01*
X180147000Y-117893000D01*
X180136000Y-117917000D01*
X180123000Y-117940000D01*
X180095000Y-117984000D01*
X180079000Y-118005000D01*
X180062000Y-118025000D01*
X180044000Y-118044000D01*
X180025000Y-118062000D01*
X180005000Y-118079000D01*
X179984000Y-118095000D01*
X179940000Y-118123000D01*
X179917000Y-118136000D01*
X179893000Y-118147000D01*
X179869000Y-118157000D01*
X179845000Y-118166000D01*
X179819000Y-118173000D01*
X179794000Y-118179000D01*
X179768000Y-118184000D01*
X179742000Y-118187000D01*
X179716000Y-118189000D01*
X179690000Y-118190000D01*
X179664000Y-118189000D01*
X179638000Y-118187000D01*
X179612000Y-118184000D01*
X179586000Y-118179000D01*
X179561000Y-118173000D01*
X179535000Y-118166000D01*
X179511000Y-118157000D01*
X179487000Y-118147000D01*
X179463000Y-118136000D01*
X179440000Y-118123000D01*
X179396000Y-118095000D01*
X179375000Y-118079000D01*
X179355000Y-118062000D01*
X179336000Y-118044000D01*
X179318000Y-118025000D01*
X179301000Y-118005000D01*
X179285000Y-117984000D01*
X179257000Y-117940000D01*
X179244000Y-117917000D01*
X179233000Y-117893000D01*
X179223000Y-117869000D01*
X179214000Y-117845000D01*
X179207000Y-117819000D01*
X179201000Y-117794000D01*
X179196000Y-117768000D01*
X179193000Y-117742000D01*
X179191000Y-117716000D01*
X179190000Y-117690000D01*
X179190000Y-117090000D01*
X179191000Y-117064000D01*
X179193000Y-117038000D01*
X179196000Y-117012000D01*
X179201000Y-116986000D01*
X179207000Y-116961000D01*
X179214000Y-116935000D01*
X179223000Y-116911000D01*
X179233000Y-116887000D01*
X179244000Y-116863000D01*
X179257000Y-116840000D01*
X179285000Y-116796000D01*
X179301000Y-116775000D01*
X179318000Y-116755000D01*
X179336000Y-116736000D01*
X179355000Y-116718000D01*
X179375000Y-116701000D01*
X179396000Y-116685000D01*
X179440000Y-116657000D01*
X179463000Y-116644000D01*
X179487000Y-116633000D01*
X179511000Y-116623000D01*
X179535000Y-116614000D01*
X179561000Y-116607000D01*
X179586000Y-116601000D01*
X179612000Y-116596000D01*
X179638000Y-116593000D01*
X179664000Y-116591000D01*
X179690000Y-116590000D01*
X179716000Y-116591000D01*
G36*
X179356000Y-112191000D02*
G01*
X179382000Y-112193000D01*
X179408000Y-112196000D01*
X179434000Y-112201000D01*
X179459000Y-112207000D01*
X179485000Y-112214000D01*
X179509000Y-112223000D01*
X179533000Y-112233000D01*
X179557000Y-112244000D01*
X179580000Y-112257000D01*
X179624000Y-112285000D01*
X179645000Y-112301000D01*
X179665000Y-112318000D01*
X179684000Y-112336000D01*
X179702000Y-112355000D01*
X179719000Y-112375000D01*
X179735000Y-112396000D01*
X179763000Y-112440000D01*
X179776000Y-112463000D01*
X179787000Y-112487000D01*
X179797000Y-112511000D01*
X179806000Y-112535000D01*
X179813000Y-112561000D01*
X179819000Y-112586000D01*
X179824000Y-112612000D01*
X179827000Y-112638000D01*
X179829000Y-112664000D01*
X179830000Y-112690000D01*
X179830000Y-113290000D01*
X179829000Y-113316000D01*
X179827000Y-113342000D01*
X179824000Y-113368000D01*
X179819000Y-113394000D01*
X179813000Y-113419000D01*
X179806000Y-113445000D01*
X179797000Y-113469000D01*
X179787000Y-113493000D01*
X179776000Y-113517000D01*
X179763000Y-113540000D01*
X179735000Y-113584000D01*
X179719000Y-113605000D01*
X179702000Y-113625000D01*
X179684000Y-113644000D01*
X179665000Y-113662000D01*
X179645000Y-113679000D01*
X179624000Y-113695000D01*
X179580000Y-113723000D01*
X179557000Y-113736000D01*
X179533000Y-113747000D01*
X179509000Y-113757000D01*
X179485000Y-113766000D01*
X179459000Y-113773000D01*
X179434000Y-113779000D01*
X179408000Y-113784000D01*
X179382000Y-113787000D01*
X179356000Y-113789000D01*
X179330000Y-113790000D01*
X179304000Y-113789000D01*
X179278000Y-113787000D01*
X179252000Y-113784000D01*
X179226000Y-113779000D01*
X179201000Y-113773000D01*
X179175000Y-113766000D01*
X179151000Y-113757000D01*
X179127000Y-113747000D01*
X179103000Y-113736000D01*
X179080000Y-113723000D01*
X179036000Y-113695000D01*
X179015000Y-113679000D01*
X178995000Y-113662000D01*
X178976000Y-113644000D01*
X178958000Y-113625000D01*
X178941000Y-113605000D01*
X178925000Y-113584000D01*
X178897000Y-113540000D01*
X178884000Y-113517000D01*
X178873000Y-113493000D01*
X178863000Y-113469000D01*
X178854000Y-113445000D01*
X178847000Y-113419000D01*
X178841000Y-113394000D01*
X178836000Y-113368000D01*
X178833000Y-113342000D01*
X178831000Y-113316000D01*
X178830000Y-113290000D01*
X178830000Y-112690000D01*
X178831000Y-112664000D01*
X178833000Y-112638000D01*
X178836000Y-112612000D01*
X178841000Y-112586000D01*
X178847000Y-112561000D01*
X178854000Y-112535000D01*
X178863000Y-112511000D01*
X178873000Y-112487000D01*
X178884000Y-112463000D01*
X178897000Y-112440000D01*
X178925000Y-112396000D01*
X178941000Y-112375000D01*
X178958000Y-112355000D01*
X178976000Y-112336000D01*
X178995000Y-112318000D01*
X179015000Y-112301000D01*
X179036000Y-112285000D01*
X179080000Y-112257000D01*
X179103000Y-112244000D01*
X179127000Y-112233000D01*
X179151000Y-112223000D01*
X179175000Y-112214000D01*
X179201000Y-112207000D01*
X179226000Y-112201000D01*
X179252000Y-112196000D01*
X179278000Y-112193000D01*
X179304000Y-112191000D01*
X179330000Y-112190000D01*
X179356000Y-112191000D01*
G37*
X179356000Y-112191000D02*
X179382000Y-112193000D01*
X179408000Y-112196000D01*
X179434000Y-112201000D01*
X179459000Y-112207000D01*
X179485000Y-112214000D01*
X179509000Y-112223000D01*
X179533000Y-112233000D01*
X179557000Y-112244000D01*
X179580000Y-112257000D01*
X179624000Y-112285000D01*
X179645000Y-112301000D01*
X179665000Y-112318000D01*
X179684000Y-112336000D01*
X179702000Y-112355000D01*
X179719000Y-112375000D01*
X179735000Y-112396000D01*
X179763000Y-112440000D01*
X179776000Y-112463000D01*
X179787000Y-112487000D01*
X179797000Y-112511000D01*
X179806000Y-112535000D01*
X179813000Y-112561000D01*
X179819000Y-112586000D01*
X179824000Y-112612000D01*
X179827000Y-112638000D01*
X179829000Y-112664000D01*
X179830000Y-112690000D01*
X179830000Y-113290000D01*
X179829000Y-113316000D01*
X179827000Y-113342000D01*
X179824000Y-113368000D01*
X179819000Y-113394000D01*
X179813000Y-113419000D01*
X179806000Y-113445000D01*
X179797000Y-113469000D01*
X179787000Y-113493000D01*
X179776000Y-113517000D01*
X179763000Y-113540000D01*
X179735000Y-113584000D01*
X179719000Y-113605000D01*
X179702000Y-113625000D01*
X179684000Y-113644000D01*
X179665000Y-113662000D01*
X179645000Y-113679000D01*
X179624000Y-113695000D01*
X179580000Y-113723000D01*
X179557000Y-113736000D01*
X179533000Y-113747000D01*
X179509000Y-113757000D01*
X179485000Y-113766000D01*
X179459000Y-113773000D01*
X179434000Y-113779000D01*
X179408000Y-113784000D01*
X179382000Y-113787000D01*
X179356000Y-113789000D01*
X179330000Y-113790000D01*
X179304000Y-113789000D01*
X179278000Y-113787000D01*
X179252000Y-113784000D01*
X179226000Y-113779000D01*
X179201000Y-113773000D01*
X179175000Y-113766000D01*
X179151000Y-113757000D01*
X179127000Y-113747000D01*
X179103000Y-113736000D01*
X179080000Y-113723000D01*
X179036000Y-113695000D01*
X179015000Y-113679000D01*
X178995000Y-113662000D01*
X178976000Y-113644000D01*
X178958000Y-113625000D01*
X178941000Y-113605000D01*
X178925000Y-113584000D01*
X178897000Y-113540000D01*
X178884000Y-113517000D01*
X178873000Y-113493000D01*
X178863000Y-113469000D01*
X178854000Y-113445000D01*
X178847000Y-113419000D01*
X178841000Y-113394000D01*
X178836000Y-113368000D01*
X178833000Y-113342000D01*
X178831000Y-113316000D01*
X178830000Y-113290000D01*
X178830000Y-112690000D01*
X178831000Y-112664000D01*
X178833000Y-112638000D01*
X178836000Y-112612000D01*
X178841000Y-112586000D01*
X178847000Y-112561000D01*
X178854000Y-112535000D01*
X178863000Y-112511000D01*
X178873000Y-112487000D01*
X178884000Y-112463000D01*
X178897000Y-112440000D01*
X178925000Y-112396000D01*
X178941000Y-112375000D01*
X178958000Y-112355000D01*
X178976000Y-112336000D01*
X178995000Y-112318000D01*
X179015000Y-112301000D01*
X179036000Y-112285000D01*
X179080000Y-112257000D01*
X179103000Y-112244000D01*
X179127000Y-112233000D01*
X179151000Y-112223000D01*
X179175000Y-112214000D01*
X179201000Y-112207000D01*
X179226000Y-112201000D01*
X179252000Y-112196000D01*
X179278000Y-112193000D01*
X179304000Y-112191000D01*
X179330000Y-112190000D01*
X179356000Y-112191000D01*
G36*
X167162500Y-93925000D02*
G01*
X167462500Y-93925000D01*
X167462500Y-96575000D01*
X167162500Y-96575000D01*
X167162500Y-97105000D01*
X166562500Y-97105000D01*
X166562500Y-96575000D01*
X164862500Y-96575000D01*
X164862500Y-93925000D01*
X166562500Y-93925000D01*
X166562500Y-93395000D01*
X167162500Y-93395000D01*
X167162500Y-93925000D01*
G37*
X167162500Y-93925000D02*
X167462500Y-93925000D01*
X167462500Y-96575000D01*
X167162500Y-96575000D01*
X167162500Y-97105000D01*
X166562500Y-97105000D01*
X166562500Y-96575000D01*
X164862500Y-96575000D01*
X164862500Y-93925000D01*
X166562500Y-93925000D01*
X166562500Y-93395000D01*
X167162500Y-93395000D01*
X167162500Y-93925000D01*
D11*
X210122875Y-77200000D03*
D12*
X191667500Y-86100000D03*
D13*
X196167500Y-87600000D03*
X191667500Y-79100000D03*
X191667500Y-82100000D03*
X197167500Y-79100000D03*
D14*
X193967500Y-87400000D03*
X193967500Y-80400000D03*
D15*
X140700000Y-107025000D03*
X127900000Y-107025000D03*
D16*
X127900000Y-113625000D03*
X140700000Y-113625000D03*
D17*
X130300000Y-106025000D03*
X132300000Y-106025000D03*
X134300000Y-106025000D03*
X136300000Y-106025000D03*
X138300000Y-106025000D03*
X137800000Y-107525000D03*
X135300000Y-107525000D03*
X133300000Y-107525000D03*
X130800000Y-107525000D03*
D11*
X100000000Y-115900000D03*
D18*
X178800000Y-111750000D03*
X171600000Y-111750000D03*
D19*
X178000000Y-112400000D03*
X177600000Y-113100000D03*
X176800000Y-113100000D03*
X176400000Y-112400000D03*
X176000000Y-113100000D03*
X175600000Y-112400000D03*
X174800000Y-112400000D03*
X174400000Y-113100000D03*
X174000000Y-112400000D03*
X173600000Y-113100000D03*
X172800000Y-113100000D03*
X172400000Y-112400000D03*
D20*
X120275000Y-105801000D03*
D21*
X120275000Y-84801000D03*
D22*
X189922500Y-108515000D03*
X204422500Y-108515000D03*
D23*
X189922500Y-114515000D03*
X204422500Y-114515000D03*
D24*
X131900000Y-85250000D03*
X143330000Y-85250000D03*
D25*
X131900000Y-91600000D03*
D26*
X133170000Y-94140000D03*
X134440000Y-91600000D03*
X135710000Y-94140000D03*
X136980000Y-91600000D03*
X138250000Y-94140000D03*
X139520000Y-91600000D03*
X140790000Y-94140000D03*
X142060000Y-91600000D03*
X143330000Y-94140000D03*
D27*
X144415000Y-82700000D03*
X144415000Y-80670000D03*
X130815000Y-82700000D03*
X130815000Y-80670000D03*
D28*
X145490000Y-88300000D03*
X129740000Y-88300000D03*
D17*
X152145000Y-107586000D03*
X154645000Y-107586000D03*
X156645000Y-107586000D03*
X159145000Y-107586000D03*
X159645000Y-106086000D03*
X157645000Y-106086000D03*
X155645000Y-106086000D03*
X153645000Y-106086000D03*
X151645000Y-106086000D03*
D15*
X149245000Y-107086000D03*
D16*
X149245000Y-113686000D03*
X162045000Y-113686000D03*
D15*
X162045000Y-107086000D03*
D11*
X100000000Y-77100000D03*
D29*
X199100000Y-86020000D03*
X199100000Y-86980000D03*
D30*
X192450000Y-116975000D03*
X192450000Y-115425000D03*
D31*
X118050000Y-92037500D03*
X118050000Y-89112500D03*
D32*
X132735000Y-75595000D03*
X134385000Y-75595000D03*
D29*
X184260000Y-104410000D03*
X184260000Y-105370000D03*
D33*
X125775000Y-110075000D03*
X125775000Y-111725000D03*
D29*
X180550000Y-100730000D03*
X180550000Y-99770000D03*
X112400000Y-87680000D03*
X112400000Y-86720000D03*
D34*
X106620000Y-79925000D03*
X107580000Y-79925000D03*
D35*
X125925000Y-101300000D03*
X127475000Y-101300000D03*
D36*
X109925000Y-97680000D03*
X109925000Y-96580000D03*
X109925000Y-95480000D03*
X109925000Y-94380000D03*
X109925000Y-93280000D03*
X109925000Y-92180000D03*
X109925000Y-91080000D03*
X109925000Y-89980000D03*
D37*
X97385000Y-95205000D03*
D38*
X98660000Y-101780000D03*
X98660000Y-88820000D03*
D39*
X109425000Y-88900000D03*
D40*
X109910000Y-101560000D03*
D41*
X97460000Y-99470000D03*
D42*
X161900000Y-84050000D03*
X161900000Y-82400000D03*
D34*
X133600000Y-115770000D03*
X132640000Y-115770000D03*
D43*
X179860000Y-96190000D03*
D44*
X178610000Y-98152500D03*
X179110000Y-98152500D03*
X179610000Y-98152500D03*
X180110000Y-98152500D03*
X180610000Y-98152500D03*
X181110000Y-98152500D03*
D45*
X181822500Y-97440000D03*
X181822500Y-96940000D03*
X181822500Y-96440000D03*
X181822500Y-95940000D03*
X181822500Y-95440000D03*
X181822500Y-94940000D03*
D44*
X181110000Y-94227500D03*
X180610000Y-94227500D03*
X180110000Y-94227500D03*
X179610000Y-94227500D03*
X179110000Y-94227500D03*
X178610000Y-94227500D03*
D45*
X177897500Y-94940000D03*
X177897500Y-95440000D03*
X177897500Y-95940000D03*
X177897500Y-96440000D03*
X177897500Y-96940000D03*
X177897500Y-97440000D03*
D46*
X112400000Y-76720000D03*
X112400000Y-77680000D03*
D47*
X201800000Y-87110000D03*
X201800000Y-86090000D03*
D42*
X146700000Y-91500000D03*
X146700000Y-89850000D03*
D32*
X135985000Y-75545000D03*
X137635000Y-75545000D03*
D29*
X193530000Y-96900000D03*
X193530000Y-97860000D03*
D33*
X158275000Y-76450000D03*
X158275000Y-78100000D03*
D48*
X159355000Y-95550000D03*
D49*
X163337000Y-96470000D03*
X163337000Y-94630000D03*
D42*
X153450000Y-84725000D03*
X153450000Y-83075000D03*
D50*
X122675000Y-82550000D03*
X121125000Y-82550000D03*
D29*
X167675000Y-98215000D03*
X167675000Y-99175000D03*
D51*
X157050000Y-84387500D03*
X155150000Y-84387500D03*
X156100000Y-82512500D03*
D52*
X165160000Y-76330000D03*
D53*
X146750000Y-94175000D03*
X146750000Y-98175000D03*
D35*
X156925000Y-116100000D03*
X158475000Y-116100000D03*
D54*
X209822875Y-103500000D03*
D50*
X122625000Y-80950000D03*
X121075000Y-80950000D03*
D55*
X209925000Y-107950000D03*
X209925000Y-109850000D03*
D56*
X113290000Y-96170000D03*
D57*
X115575000Y-103200000D03*
D56*
X117860000Y-96170000D03*
D58*
X122025000Y-100125000D03*
X122025000Y-95825000D03*
D59*
X155325000Y-91775000D03*
X155325000Y-89875000D03*
D52*
X114920000Y-87610000D03*
D60*
X139880000Y-79695000D03*
X140840000Y-79695000D03*
D61*
X168387500Y-94275000D03*
X168387500Y-94925000D03*
X168387500Y-95575000D03*
X168387500Y-96225000D03*
D59*
X102925000Y-109750000D03*
X102925000Y-107850000D03*
D60*
X205170000Y-98250000D03*
X206130000Y-98250000D03*
D32*
X169900000Y-78525000D03*
X171550000Y-78525000D03*
D46*
X202900000Y-87080000D03*
X202900000Y-86120000D03*
D34*
X159755000Y-81925000D03*
X158795000Y-81925000D03*
D47*
X150200000Y-84610000D03*
X150200000Y-83590000D03*
D62*
X136610000Y-78745000D03*
X136610000Y-78245000D03*
X136610000Y-77745000D03*
D63*
X137710000Y-77745000D03*
X137710000Y-78245000D03*
X137710000Y-78745000D03*
D64*
X124062500Y-86700000D03*
X124062500Y-85750000D03*
X124062500Y-84800000D03*
X126337500Y-84800000D03*
X126337500Y-85750000D03*
X126337500Y-86700000D03*
D53*
X154300000Y-94175000D03*
X154300000Y-98175000D03*
D11*
X210122875Y-115800000D03*
D65*
X175550000Y-101800000D03*
X171250000Y-101800000D03*
D66*
X127990000Y-86450000D03*
X129010000Y-86450000D03*
D67*
X171500000Y-81775000D03*
X169850000Y-81775000D03*
D66*
X183400000Y-94940000D03*
X184420000Y-94940000D03*
D68*
X168562500Y-101425000D03*
X168562500Y-101925000D03*
X168562500Y-102425000D03*
X168562500Y-102925000D03*
X168562500Y-103425000D03*
X168562500Y-103925000D03*
D69*
X167850000Y-104637500D03*
X167350000Y-104637500D03*
X166850000Y-104637500D03*
X166350000Y-104637500D03*
X165850000Y-104637500D03*
X165350000Y-104637500D03*
D68*
X164637500Y-103925000D03*
X164637500Y-103425000D03*
X164637500Y-102925000D03*
X164637500Y-102425000D03*
X164637500Y-101925000D03*
X164637500Y-101425000D03*
D69*
X165350000Y-100712500D03*
X165850000Y-100712500D03*
X166350000Y-100712500D03*
X166850000Y-100712500D03*
X167350000Y-100712500D03*
X167850000Y-100712500D03*
D43*
X166600000Y-102675000D03*
D60*
X112780000Y-90175000D03*
X113740000Y-90175000D03*
D46*
X192180000Y-93900000D03*
X192180000Y-92940000D03*
D70*
X173275000Y-114275000D03*
X173615000Y-114575000D03*
X172935000Y-114575000D03*
D71*
X166350000Y-88380000D03*
X166350000Y-87110000D03*
X166350000Y-85840000D03*
X166350000Y-84570000D03*
X171300000Y-84570000D03*
X171300000Y-85840000D03*
X171300000Y-87110000D03*
X171300000Y-88380000D03*
D32*
X188350000Y-86750000D03*
X190000000Y-86750000D03*
D72*
X163000000Y-100625000D03*
X163000000Y-98925000D03*
D73*
X140000000Y-77800000D03*
X141900000Y-77800000D03*
D32*
X170475000Y-98600000D03*
X172125000Y-98600000D03*
D74*
X116290000Y-84750000D03*
X117310000Y-84750000D03*
D33*
X119100000Y-110075000D03*
X119100000Y-111725000D03*
D51*
X148750000Y-84050000D03*
X146850000Y-84050000D03*
X147800000Y-82175000D03*
D75*
X102360589Y-82760589D03*
X103039411Y-83439411D03*
D46*
X202500000Y-90830000D03*
X202500000Y-89870000D03*
X202800000Y-78480000D03*
X202800000Y-77520000D03*
D64*
X133062500Y-114350000D03*
X133062500Y-113400000D03*
X133062500Y-112450000D03*
X135337500Y-112450000D03*
X135337500Y-114350000D03*
D66*
X127990000Y-84150000D03*
X129010000Y-84150000D03*
D47*
X204400000Y-101310000D03*
X204400000Y-100290000D03*
D33*
X151700000Y-83075000D03*
X151700000Y-84725000D03*
D50*
X122825000Y-76950000D03*
X121275000Y-76950000D03*
D29*
X179110000Y-100620000D03*
X179110000Y-99660000D03*
D32*
X132785000Y-78245000D03*
X134435000Y-78245000D03*
D35*
X118175000Y-80700000D03*
X116625000Y-80700000D03*
D74*
X175590000Y-93800000D03*
X176610000Y-93800000D03*
D76*
X145775000Y-76065000D03*
X145775000Y-77085000D03*
D46*
X205200000Y-78480000D03*
X205200000Y-77520000D03*
D29*
X179500000Y-102320000D03*
X179500000Y-103280000D03*
D47*
X205625000Y-101310000D03*
X205625000Y-100290000D03*
D30*
X120700000Y-111675000D03*
X120700000Y-110125000D03*
D35*
X118175000Y-78100000D03*
X116625000Y-78100000D03*
D54*
X209822875Y-102000000D03*
D42*
X122300000Y-111725000D03*
X122300000Y-110075000D03*
D54*
X209822875Y-97500000D03*
D59*
X157700000Y-91775000D03*
X157700000Y-89875000D03*
D77*
X126700000Y-82250000D03*
X126700000Y-77250000D03*
D50*
X122850000Y-78700000D03*
X121300000Y-78700000D03*
D76*
X107200000Y-82510000D03*
X107200000Y-81490000D03*
D70*
X175200000Y-108725000D03*
X175540000Y-109025000D03*
X174860000Y-109025000D03*
D54*
X209822875Y-99000000D03*
D35*
X195125000Y-83600000D03*
X196675000Y-83600000D03*
D78*
X154625000Y-76787500D03*
X156525000Y-76787500D03*
X155575000Y-78662500D03*
D79*
X189787500Y-98200000D03*
X188212500Y-98200000D03*
D34*
X170605000Y-83075000D03*
X169645000Y-83075000D03*
D35*
X195125000Y-85300000D03*
X196675000Y-85300000D03*
D42*
X185880000Y-100880000D03*
X185880000Y-99230000D03*
D29*
X200150000Y-99545000D03*
X200150000Y-100505000D03*
D46*
X163375000Y-83255000D03*
X163375000Y-82295000D03*
D33*
X151025000Y-76350000D03*
X151025000Y-78000000D03*
D78*
X182360000Y-100240000D03*
X184260000Y-100240000D03*
X183310000Y-102115000D03*
D50*
X105735000Y-78000000D03*
X107285000Y-78000000D03*
D67*
X171800000Y-90025000D03*
X170150000Y-90025000D03*
D50*
X130775000Y-93700000D03*
X129225000Y-93700000D03*
D52*
X130510000Y-75495000D03*
D80*
X111900000Y-82300000D03*
D81*
X108962500Y-80300000D03*
X108962500Y-80800000D03*
X108962500Y-81300000D03*
X108962500Y-81800000D03*
X108962500Y-82300000D03*
X108962500Y-82800000D03*
X108962500Y-83300000D03*
X108962500Y-83800000D03*
X108962500Y-84300000D03*
D82*
X109900000Y-85237500D03*
X110400000Y-85237500D03*
X110900000Y-85237500D03*
X111400000Y-85237500D03*
X111900000Y-85237500D03*
X112400000Y-85237500D03*
X112900000Y-85237500D03*
X113400000Y-85237500D03*
X113900000Y-85237500D03*
D81*
X114837500Y-84300000D03*
X114837500Y-83800000D03*
X114837500Y-83300000D03*
X114837500Y-82800000D03*
X114837500Y-82300000D03*
X114837500Y-81800000D03*
X114837500Y-81300000D03*
X114837500Y-80800000D03*
X114837500Y-80300000D03*
D82*
X113900000Y-79362500D03*
X113400000Y-79362500D03*
X112900000Y-79362500D03*
X112400000Y-79362500D03*
X111900000Y-79362500D03*
X111400000Y-79362500D03*
X110900000Y-79362500D03*
X110400000Y-79362500D03*
X109900000Y-79362500D03*
D46*
X161650000Y-78255000D03*
X161650000Y-77295000D03*
D50*
X157525000Y-110950000D03*
X155975000Y-110950000D03*
D83*
X121900000Y-84675000D03*
X121900000Y-86225000D03*
D34*
X194450000Y-100020000D03*
X193490000Y-100020000D03*
D74*
X129010000Y-85300000D03*
X127990000Y-85300000D03*
D52*
X123925000Y-75300000D03*
D59*
X100625000Y-109750000D03*
X100625000Y-107850000D03*
D35*
X135045000Y-115920000D03*
X136595000Y-115920000D03*
D53*
X150600000Y-94175000D03*
X150600000Y-98175000D03*
D84*
X170300000Y-91600000D03*
X172000000Y-91600000D03*
D32*
X146875000Y-86000000D03*
X148525000Y-86000000D03*
D85*
X123975000Y-107500000D03*
X123325000Y-107500000D03*
X122675000Y-107500000D03*
X122025000Y-107500000D03*
X122025000Y-103100000D03*
X122675000Y-103100000D03*
X123325000Y-103100000D03*
X123975000Y-103100000D03*
D86*
X199200000Y-116450000D03*
X196900000Y-116450000D03*
D87*
X196900000Y-110150000D03*
D86*
X194600000Y-116450000D03*
D54*
X209822875Y-105000000D03*
D46*
X137000000Y-89780000D03*
X137000000Y-88820000D03*
D29*
X166025000Y-98145000D03*
X166025000Y-99105000D03*
D34*
X190140000Y-96700000D03*
X189180000Y-96700000D03*
D64*
X155062500Y-114450000D03*
X155062500Y-113500000D03*
X155062500Y-112550000D03*
X157337500Y-112550000D03*
X157337500Y-114450000D03*
D33*
X161200000Y-99050000D03*
X161200000Y-100700000D03*
D30*
X125300000Y-99675000D03*
X125300000Y-98125000D03*
D88*
X115787500Y-112887500D03*
X106287500Y-112887500D03*
D67*
X159500000Y-80625000D03*
X157850000Y-80625000D03*
D29*
X191080000Y-99340000D03*
X191080000Y-100300000D03*
D89*
X103416117Y-81793934D03*
X104406066Y-82783883D03*
X105183883Y-82006066D03*
X104193934Y-81016117D03*
D47*
X205200000Y-87110000D03*
X205200000Y-86090000D03*
D59*
X127200000Y-99550000D03*
X127200000Y-97650000D03*
D42*
X131200000Y-112425000D03*
X131200000Y-110775000D03*
D34*
X172280000Y-93700000D03*
X171320000Y-93700000D03*
D46*
X204100000Y-87080000D03*
X204100000Y-86120000D03*
D54*
X209822875Y-96000000D03*
X209822875Y-91500000D03*
D46*
X191080000Y-93880000D03*
X191080000Y-92920000D03*
D83*
X124100000Y-110125000D03*
X124100000Y-111675000D03*
D90*
X125950000Y-103200000D03*
X127850000Y-103200000D03*
D74*
X175590000Y-94900000D03*
X176610000Y-94900000D03*
D91*
X178475000Y-91075000D03*
X178475000Y-82125000D03*
D47*
X158450000Y-84960000D03*
X158450000Y-83940000D03*
D53*
X142900000Y-100600000D03*
X142900000Y-96600000D03*
D92*
X181800000Y-78337500D03*
X181800000Y-75262500D03*
D60*
X136630000Y-80595000D03*
X137590000Y-80595000D03*
D67*
X171500000Y-80175000D03*
X169850000Y-80175000D03*
D33*
X211900000Y-107875000D03*
X211900000Y-109525000D03*
D93*
X200500000Y-92300000D03*
X200900000Y-92300000D03*
X201300000Y-92300000D03*
X201700000Y-92300000D03*
X202100000Y-92300000D03*
X202500000Y-92300000D03*
X202900000Y-92300000D03*
X203300000Y-92300000D03*
D94*
X203900000Y-93100000D03*
X203900000Y-93500000D03*
X203900000Y-93900000D03*
X203900000Y-94300000D03*
X203900000Y-94700000D03*
X203900000Y-95100000D03*
X203900000Y-95500000D03*
X203900000Y-95900000D03*
X203900000Y-96300000D03*
X203900000Y-96700000D03*
X203900000Y-97100000D03*
X203900000Y-97500000D03*
D93*
X203300000Y-98300000D03*
X202900000Y-98300000D03*
X202500000Y-98300000D03*
X202100000Y-98300000D03*
X201700000Y-98300000D03*
X201300000Y-98300000D03*
X200900000Y-98300000D03*
X200500000Y-98300000D03*
D94*
X199900000Y-97500000D03*
X199900000Y-97100000D03*
X199900000Y-96700000D03*
X199900000Y-96300000D03*
X199900000Y-95900000D03*
X199900000Y-95500000D03*
X199900000Y-95100000D03*
X199900000Y-94700000D03*
X199900000Y-94300000D03*
X199900000Y-93900000D03*
X199900000Y-93500000D03*
X199900000Y-93100000D03*
D95*
X201900000Y-95300000D03*
D30*
X201350000Y-116975000D03*
X201350000Y-115425000D03*
D46*
X138400000Y-89780000D03*
X138400000Y-88820000D03*
D96*
X202850000Y-84637500D03*
X202350000Y-84637500D03*
X201850000Y-84637500D03*
X201350000Y-84637500D03*
X200850000Y-84637500D03*
X200350000Y-84637500D03*
X199850000Y-84637500D03*
X199350000Y-84637500D03*
D97*
X198662500Y-83950000D03*
X198662500Y-83450000D03*
X198662500Y-82950000D03*
X198662500Y-82450000D03*
X198662500Y-81950000D03*
X198662500Y-81450000D03*
X198662500Y-80950000D03*
X198662500Y-80450000D03*
D96*
X199350000Y-79762500D03*
X199850000Y-79762500D03*
X200350000Y-79762500D03*
X200850000Y-79762500D03*
X201350000Y-79762500D03*
X201850000Y-79762500D03*
X202350000Y-79762500D03*
X202850000Y-79762500D03*
D97*
X203537500Y-80450000D03*
X203537500Y-80950000D03*
X203537500Y-81450000D03*
X203537500Y-81950000D03*
X203537500Y-82450000D03*
X203537500Y-82950000D03*
X203537500Y-83450000D03*
X203537500Y-83950000D03*
D98*
X201100000Y-82200000D03*
D46*
X178010000Y-99660000D03*
X178010000Y-100620000D03*
D34*
X155380000Y-115950000D03*
X154420000Y-115950000D03*
D99*
X167375000Y-78500000D03*
X167375000Y-79150000D03*
X167375000Y-79800000D03*
X167375000Y-80450000D03*
X163075000Y-80450000D03*
X163075000Y-79800000D03*
X163075000Y-79150000D03*
X163075000Y-78500000D03*
D29*
X191090000Y-96200000D03*
X191090000Y-97160000D03*
D76*
X198050000Y-99540000D03*
X198050000Y-100560000D03*
D54*
X209822875Y-100500000D03*
D60*
X117280000Y-82300000D03*
X116320000Y-82300000D03*
D54*
X209822875Y-88500000D03*
D32*
X118775000Y-108100000D03*
X120425000Y-108100000D03*
D33*
X182660000Y-104015000D03*
X182660000Y-105665000D03*
D74*
X106500000Y-76700000D03*
X107520000Y-76700000D03*
D60*
X133680000Y-76895000D03*
X134640000Y-76895000D03*
D54*
X209822875Y-90000000D03*
X209822875Y-93000000D03*
D67*
X186900000Y-86700000D03*
X185250000Y-86700000D03*
D66*
X107610000Y-85175000D03*
X106590000Y-85175000D03*
D33*
X178100000Y-102275000D03*
X178100000Y-103925000D03*
D67*
X172125000Y-97000000D03*
X170475000Y-97000000D03*
D78*
X147375000Y-76637500D03*
X149275000Y-76637500D03*
X148325000Y-78512500D03*
D29*
X199100000Y-99545000D03*
X199100000Y-100505000D03*
X194310000Y-92920000D03*
X194310000Y-93880000D03*
D92*
X177400000Y-78337500D03*
X177400000Y-75262500D03*
D47*
X203300000Y-101335000D03*
X203300000Y-100315000D03*
D54*
X209822875Y-94500000D03*
D100*
X189405000Y-84970000D03*
X188135000Y-84970000D03*
X186865000Y-84970000D03*
X185595000Y-84970000D03*
D101*
X188135000Y-79505000D03*
X189405000Y-79505000D03*
D102*
X188630000Y-81610000D03*
D101*
X186865000Y-79505000D03*
X185595000Y-79505000D03*
D102*
X186370000Y-81610000D03*
D47*
X206300000Y-87110000D03*
X206300000Y-86090000D03*
D52*
X188725000Y-76875000D03*
D50*
X135545000Y-110870000D03*
X133995000Y-110870000D03*
D46*
X204000000Y-78480000D03*
X204000000Y-77520000D03*
D34*
X190160000Y-95600000D03*
X189200000Y-95600000D03*
D32*
X170475000Y-95100000D03*
X172125000Y-95100000D03*
D33*
X153250000Y-112425000D03*
X153250000Y-114075000D03*
D32*
X171825000Y-104990000D03*
X173475000Y-104990000D03*
D103*
X102260589Y-81019411D03*
X102939411Y-80340589D03*
D34*
X142040000Y-75870000D03*
X141080000Y-75870000D03*
D76*
X153175000Y-76215000D03*
X153175000Y-77235000D03*
D104*
X138980000Y-96215000D03*
D105*
X131950000Y-98500000D03*
D104*
X138980000Y-100785000D03*
M02*
