G04 #@! TF.GenerationSoftware,KiCad,Pcbnew,(6.0.7)*
G04 #@! TF.CreationDate,2022-10-31T13:42:49+03:00*
G04 #@! TF.ProjectId,USB_HUB_ADAPTER,5553425f-4855-4425-9f41-444150544552,rev?*
G04 #@! TF.SameCoordinates,Original*
G04 #@! TF.FileFunction,Soldermask,Top*
G04 #@! TF.FilePolarity,Negative*
%FSLAX46Y46*%
G04 Gerber Fmt 4.6, Leading zero omitted, Abs format (unit mm)*
G04 Created by KiCad (PCBNEW (6.0.7)) date 2022-10-31 13:42:49*
%MOMM*%
%LPD*%
G01*
G04 APERTURE LIST*
G04 Aperture macros list*
%AMRoundRect*
0 Rectangle with rounded corners*
0 $1 Rounding radius*
0 $2 $3 $4 $5 $6 $7 $8 $9 X,Y pos of 4 corners*
0 Add a 4 corners polygon primitive as box body*
4,1,4,$2,$3,$4,$5,$6,$7,$8,$9,$2,$3,0*
0 Add four circle primitives for the rounded corners*
1,1,$1+$1,$2,$3*
1,1,$1+$1,$4,$5*
1,1,$1+$1,$6,$7*
1,1,$1+$1,$8,$9*
0 Add four rect primitives between the rounded corners*
20,1,$1+$1,$2,$3,$4,$5,0*
20,1,$1+$1,$4,$5,$6,$7,0*
20,1,$1+$1,$6,$7,$8,$9,0*
20,1,$1+$1,$8,$9,$2,$3,0*%
%AMRotRect*
0 Rectangle, with rotation*
0 The origin of the aperture is its center*
0 $1 length*
0 $2 width*
0 $3 Rotation angle, in degrees counterclockwise*
0 Add horizontal line*
21,1,$1,$2,0,0,$3*%
G04 Aperture macros list end*
%ADD10C,0.010000*%
%ADD11RoundRect,0.140000X0.170000X-0.140000X0.170000X0.140000X-0.170000X0.140000X-0.170000X-0.140000X0*%
%ADD12C,3.200000*%
%ADD13RoundRect,0.140000X0.140000X0.170000X-0.140000X0.170000X-0.140000X-0.170000X0.140000X-0.170000X0*%
%ADD14RoundRect,0.140000X-0.140000X-0.170000X0.140000X-0.170000X0.140000X0.170000X-0.140000X0.170000X0*%
%ADD15RoundRect,0.250000X-0.925000X0.412500X-0.925000X-0.412500X0.925000X-0.412500X0.925000X0.412500X0*%
%ADD16RoundRect,0.225000X0.225000X0.250000X-0.225000X0.250000X-0.225000X-0.250000X0.225000X-0.250000X0*%
%ADD17RoundRect,0.135000X0.185000X-0.135000X0.185000X0.135000X-0.185000X0.135000X-0.185000X-0.135000X0*%
%ADD18RoundRect,0.140000X0.021213X-0.219203X0.219203X-0.021213X-0.021213X0.219203X-0.219203X0.021213X0*%
%ADD19RoundRect,0.140000X-0.170000X0.140000X-0.170000X-0.140000X0.170000X-0.140000X0.170000X0.140000X0*%
%ADD20RoundRect,0.147500X0.172500X-0.147500X0.172500X0.147500X-0.172500X0.147500X-0.172500X-0.147500X0*%
%ADD21R,0.200000X0.200000*%
%ADD22RoundRect,0.140000X0.219203X0.021213X0.021213X0.219203X-0.219203X-0.021213X-0.021213X-0.219203X0*%
%ADD23R,1.800000X0.800000*%
%ADD24RotRect,0.900000X0.800000X135.000000*%
%ADD25R,1.400000X2.000000*%
%ADD26O,1.400000X2.000000*%
%ADD27C,1.200000*%
%ADD28C,3.345000*%
%ADD29C,2.925000*%
%ADD30C,1.300000*%
%ADD31R,0.350000X0.400000*%
%ADD32RoundRect,0.135000X0.135000X0.185000X-0.135000X0.185000X-0.135000X-0.185000X0.135000X-0.185000X0*%
%ADD33RoundRect,0.250000X-0.262500X-0.450000X0.262500X-0.450000X0.262500X0.450000X-0.262500X0.450000X0*%
%ADD34RotRect,0.900000X0.800000X315.000000*%
%ADD35RoundRect,0.250000X0.475000X-0.250000X0.475000X0.250000X-0.475000X0.250000X-0.475000X-0.250000X0*%
%ADD36RoundRect,0.147500X-0.147500X-0.172500X0.147500X-0.172500X0.147500X0.172500X-0.147500X0.172500X0*%
%ADD37RoundRect,0.200000X-0.200000X-0.275000X0.200000X-0.275000X0.200000X0.275000X-0.200000X0.275000X0*%
%ADD38C,0.900000*%
%ADD39R,2.790000X1.905000*%
%ADD40C,0.650000*%
%ADD41R,0.300000X0.900000*%
%ADD42C,0.600000*%
%ADD43RoundRect,0.200000X-0.275000X0.200000X-0.275000X-0.200000X0.275000X-0.200000X0.275000X0.200000X0*%
%ADD44RoundRect,0.135000X-0.135000X-0.185000X0.135000X-0.185000X0.135000X0.185000X-0.135000X0.185000X0*%
%ADD45RoundRect,0.250000X0.925000X-0.412500X0.925000X0.412500X-0.925000X0.412500X-0.925000X-0.412500X0*%
%ADD46R,1.200000X1.400000*%
%ADD47C,1.600000*%
%ADD48C,1.100000*%
%ADD49R,1.500000X1.000000*%
%ADD50R,1.500000X0.700000*%
%ADD51R,2.800000X1.500000*%
%ADD52RoundRect,0.225000X-0.250000X0.225000X-0.250000X-0.225000X0.250000X-0.225000X0.250000X0.225000X0*%
%ADD53R,1.050000X0.200000*%
%ADD54R,0.200000X1.050000*%
%ADD55R,8.100000X8.100000*%
%ADD56RoundRect,0.218750X-0.256250X0.218750X-0.256250X-0.218750X0.256250X-0.218750X0.256250X0.218750X0*%
%ADD57R,5.600000X5.600000*%
%ADD58RoundRect,0.062500X-0.062500X-0.375000X0.062500X-0.375000X0.062500X0.375000X-0.062500X0.375000X0*%
%ADD59RoundRect,0.062500X-0.375000X-0.062500X0.375000X-0.062500X0.375000X0.062500X-0.375000X0.062500X0*%
%ADD60C,0.790000*%
%ADD61R,0.280000X2.600000*%
%ADD62C,3.400000*%
%ADD63C,2.500000*%
%ADD64RoundRect,0.225000X-0.225000X-0.250000X0.225000X-0.250000X0.225000X0.250000X-0.225000X0.250000X0*%
%ADD65C,3.250000*%
%ADD66R,1.446000X1.446000*%
%ADD67C,1.446000*%
%ADD68C,1.530000*%
%ADD69C,2.355000*%
G04 APERTURE END LIST*
G36*
X179716000Y-116591000D02*
G01*
X179742000Y-116593000D01*
X179768000Y-116596000D01*
X179794000Y-116601000D01*
X179819000Y-116607000D01*
X179845000Y-116614000D01*
X179869000Y-116623000D01*
X179893000Y-116633000D01*
X179917000Y-116644000D01*
X179940000Y-116657000D01*
X179984000Y-116685000D01*
X180005000Y-116701000D01*
X180025000Y-116718000D01*
X180044000Y-116736000D01*
X180062000Y-116755000D01*
X180079000Y-116775000D01*
X180095000Y-116796000D01*
X180123000Y-116840000D01*
X180136000Y-116863000D01*
X180147000Y-116887000D01*
X180157000Y-116911000D01*
X180166000Y-116935000D01*
X180173000Y-116961000D01*
X180179000Y-116986000D01*
X180184000Y-117012000D01*
X180187000Y-117038000D01*
X180189000Y-117064000D01*
X180190000Y-117090000D01*
X180190000Y-117690000D01*
X180189000Y-117716000D01*
X180187000Y-117742000D01*
X180184000Y-117768000D01*
X180179000Y-117794000D01*
X180173000Y-117819000D01*
X180166000Y-117845000D01*
X180157000Y-117869000D01*
X180147000Y-117893000D01*
X180136000Y-117917000D01*
X180123000Y-117940000D01*
X180095000Y-117984000D01*
X180079000Y-118005000D01*
X180062000Y-118025000D01*
X180044000Y-118044000D01*
X180025000Y-118062000D01*
X180005000Y-118079000D01*
X179984000Y-118095000D01*
X179940000Y-118123000D01*
X179917000Y-118136000D01*
X179893000Y-118147000D01*
X179869000Y-118157000D01*
X179845000Y-118166000D01*
X179819000Y-118173000D01*
X179794000Y-118179000D01*
X179768000Y-118184000D01*
X179742000Y-118187000D01*
X179716000Y-118189000D01*
X179690000Y-118190000D01*
X179664000Y-118189000D01*
X179638000Y-118187000D01*
X179612000Y-118184000D01*
X179586000Y-118179000D01*
X179561000Y-118173000D01*
X179535000Y-118166000D01*
X179511000Y-118157000D01*
X179487000Y-118147000D01*
X179463000Y-118136000D01*
X179440000Y-118123000D01*
X179396000Y-118095000D01*
X179375000Y-118079000D01*
X179355000Y-118062000D01*
X179336000Y-118044000D01*
X179318000Y-118025000D01*
X179301000Y-118005000D01*
X179285000Y-117984000D01*
X179257000Y-117940000D01*
X179244000Y-117917000D01*
X179233000Y-117893000D01*
X179223000Y-117869000D01*
X179214000Y-117845000D01*
X179207000Y-117819000D01*
X179201000Y-117794000D01*
X179196000Y-117768000D01*
X179193000Y-117742000D01*
X179191000Y-117716000D01*
X179190000Y-117690000D01*
X179190000Y-117090000D01*
X179191000Y-117064000D01*
X179193000Y-117038000D01*
X179196000Y-117012000D01*
X179201000Y-116986000D01*
X179207000Y-116961000D01*
X179214000Y-116935000D01*
X179223000Y-116911000D01*
X179233000Y-116887000D01*
X179244000Y-116863000D01*
X179257000Y-116840000D01*
X179285000Y-116796000D01*
X179301000Y-116775000D01*
X179318000Y-116755000D01*
X179336000Y-116736000D01*
X179355000Y-116718000D01*
X179375000Y-116701000D01*
X179396000Y-116685000D01*
X179440000Y-116657000D01*
X179463000Y-116644000D01*
X179487000Y-116633000D01*
X179511000Y-116623000D01*
X179535000Y-116614000D01*
X179561000Y-116607000D01*
X179586000Y-116601000D01*
X179612000Y-116596000D01*
X179638000Y-116593000D01*
X179664000Y-116591000D01*
X179690000Y-116590000D01*
X179716000Y-116591000D01*
G37*
D10*
X179716000Y-116591000D02*
X179742000Y-116593000D01*
X179768000Y-116596000D01*
X179794000Y-116601000D01*
X179819000Y-116607000D01*
X179845000Y-116614000D01*
X179869000Y-116623000D01*
X179893000Y-116633000D01*
X179917000Y-116644000D01*
X179940000Y-116657000D01*
X179984000Y-116685000D01*
X180005000Y-116701000D01*
X180025000Y-116718000D01*
X180044000Y-116736000D01*
X180062000Y-116755000D01*
X180079000Y-116775000D01*
X180095000Y-116796000D01*
X180123000Y-116840000D01*
X180136000Y-116863000D01*
X180147000Y-116887000D01*
X180157000Y-116911000D01*
X180166000Y-116935000D01*
X180173000Y-116961000D01*
X180179000Y-116986000D01*
X180184000Y-117012000D01*
X180187000Y-117038000D01*
X180189000Y-117064000D01*
X180190000Y-117090000D01*
X180190000Y-117690000D01*
X180189000Y-117716000D01*
X180187000Y-117742000D01*
X180184000Y-117768000D01*
X180179000Y-117794000D01*
X180173000Y-117819000D01*
X180166000Y-117845000D01*
X180157000Y-117869000D01*
X180147000Y-117893000D01*
X180136000Y-117917000D01*
X180123000Y-117940000D01*
X180095000Y-117984000D01*
X180079000Y-118005000D01*
X180062000Y-118025000D01*
X180044000Y-118044000D01*
X180025000Y-118062000D01*
X180005000Y-118079000D01*
X179984000Y-118095000D01*
X179940000Y-118123000D01*
X179917000Y-118136000D01*
X179893000Y-118147000D01*
X179869000Y-118157000D01*
X179845000Y-118166000D01*
X179819000Y-118173000D01*
X179794000Y-118179000D01*
X179768000Y-118184000D01*
X179742000Y-118187000D01*
X179716000Y-118189000D01*
X179690000Y-118190000D01*
X179664000Y-118189000D01*
X179638000Y-118187000D01*
X179612000Y-118184000D01*
X179586000Y-118179000D01*
X179561000Y-118173000D01*
X179535000Y-118166000D01*
X179511000Y-118157000D01*
X179487000Y-118147000D01*
X179463000Y-118136000D01*
X179440000Y-118123000D01*
X179396000Y-118095000D01*
X179375000Y-118079000D01*
X179355000Y-118062000D01*
X179336000Y-118044000D01*
X179318000Y-118025000D01*
X179301000Y-118005000D01*
X179285000Y-117984000D01*
X179257000Y-117940000D01*
X179244000Y-117917000D01*
X179233000Y-117893000D01*
X179223000Y-117869000D01*
X179214000Y-117845000D01*
X179207000Y-117819000D01*
X179201000Y-117794000D01*
X179196000Y-117768000D01*
X179193000Y-117742000D01*
X179191000Y-117716000D01*
X179190000Y-117690000D01*
X179190000Y-117090000D01*
X179191000Y-117064000D01*
X179193000Y-117038000D01*
X179196000Y-117012000D01*
X179201000Y-116986000D01*
X179207000Y-116961000D01*
X179214000Y-116935000D01*
X179223000Y-116911000D01*
X179233000Y-116887000D01*
X179244000Y-116863000D01*
X179257000Y-116840000D01*
X179285000Y-116796000D01*
X179301000Y-116775000D01*
X179318000Y-116755000D01*
X179336000Y-116736000D01*
X179355000Y-116718000D01*
X179375000Y-116701000D01*
X179396000Y-116685000D01*
X179440000Y-116657000D01*
X179463000Y-116644000D01*
X179487000Y-116633000D01*
X179511000Y-116623000D01*
X179535000Y-116614000D01*
X179561000Y-116607000D01*
X179586000Y-116601000D01*
X179612000Y-116596000D01*
X179638000Y-116593000D01*
X179664000Y-116591000D01*
X179690000Y-116590000D01*
X179716000Y-116591000D01*
G36*
X170736000Y-116591000D02*
G01*
X170762000Y-116593000D01*
X170788000Y-116596000D01*
X170814000Y-116601000D01*
X170839000Y-116607000D01*
X170865000Y-116614000D01*
X170889000Y-116623000D01*
X170913000Y-116633000D01*
X170937000Y-116644000D01*
X170960000Y-116657000D01*
X171004000Y-116685000D01*
X171025000Y-116701000D01*
X171045000Y-116718000D01*
X171064000Y-116736000D01*
X171082000Y-116755000D01*
X171099000Y-116775000D01*
X171115000Y-116796000D01*
X171143000Y-116840000D01*
X171156000Y-116863000D01*
X171167000Y-116887000D01*
X171177000Y-116911000D01*
X171186000Y-116935000D01*
X171193000Y-116961000D01*
X171199000Y-116986000D01*
X171204000Y-117012000D01*
X171207000Y-117038000D01*
X171209000Y-117064000D01*
X171210000Y-117090000D01*
X171210000Y-117690000D01*
X171209000Y-117716000D01*
X171207000Y-117742000D01*
X171204000Y-117768000D01*
X171199000Y-117794000D01*
X171193000Y-117819000D01*
X171186000Y-117845000D01*
X171177000Y-117869000D01*
X171167000Y-117893000D01*
X171156000Y-117917000D01*
X171143000Y-117940000D01*
X171115000Y-117984000D01*
X171099000Y-118005000D01*
X171082000Y-118025000D01*
X171064000Y-118044000D01*
X171045000Y-118062000D01*
X171025000Y-118079000D01*
X171004000Y-118095000D01*
X170960000Y-118123000D01*
X170937000Y-118136000D01*
X170913000Y-118147000D01*
X170889000Y-118157000D01*
X170865000Y-118166000D01*
X170839000Y-118173000D01*
X170814000Y-118179000D01*
X170788000Y-118184000D01*
X170762000Y-118187000D01*
X170736000Y-118189000D01*
X170710000Y-118190000D01*
X170684000Y-118189000D01*
X170658000Y-118187000D01*
X170632000Y-118184000D01*
X170606000Y-118179000D01*
X170581000Y-118173000D01*
X170555000Y-118166000D01*
X170531000Y-118157000D01*
X170507000Y-118147000D01*
X170483000Y-118136000D01*
X170460000Y-118123000D01*
X170416000Y-118095000D01*
X170395000Y-118079000D01*
X170375000Y-118062000D01*
X170356000Y-118044000D01*
X170338000Y-118025000D01*
X170321000Y-118005000D01*
X170305000Y-117984000D01*
X170277000Y-117940000D01*
X170264000Y-117917000D01*
X170253000Y-117893000D01*
X170243000Y-117869000D01*
X170234000Y-117845000D01*
X170227000Y-117819000D01*
X170221000Y-117794000D01*
X170216000Y-117768000D01*
X170213000Y-117742000D01*
X170211000Y-117716000D01*
X170210000Y-117690000D01*
X170210000Y-117090000D01*
X170211000Y-117064000D01*
X170213000Y-117038000D01*
X170216000Y-117012000D01*
X170221000Y-116986000D01*
X170227000Y-116961000D01*
X170234000Y-116935000D01*
X170243000Y-116911000D01*
X170253000Y-116887000D01*
X170264000Y-116863000D01*
X170277000Y-116840000D01*
X170305000Y-116796000D01*
X170321000Y-116775000D01*
X170338000Y-116755000D01*
X170356000Y-116736000D01*
X170375000Y-116718000D01*
X170395000Y-116701000D01*
X170416000Y-116685000D01*
X170460000Y-116657000D01*
X170483000Y-116644000D01*
X170507000Y-116633000D01*
X170531000Y-116623000D01*
X170555000Y-116614000D01*
X170581000Y-116607000D01*
X170606000Y-116601000D01*
X170632000Y-116596000D01*
X170658000Y-116593000D01*
X170684000Y-116591000D01*
X170710000Y-116590000D01*
X170736000Y-116591000D01*
G37*
X170736000Y-116591000D02*
X170762000Y-116593000D01*
X170788000Y-116596000D01*
X170814000Y-116601000D01*
X170839000Y-116607000D01*
X170865000Y-116614000D01*
X170889000Y-116623000D01*
X170913000Y-116633000D01*
X170937000Y-116644000D01*
X170960000Y-116657000D01*
X171004000Y-116685000D01*
X171025000Y-116701000D01*
X171045000Y-116718000D01*
X171064000Y-116736000D01*
X171082000Y-116755000D01*
X171099000Y-116775000D01*
X171115000Y-116796000D01*
X171143000Y-116840000D01*
X171156000Y-116863000D01*
X171167000Y-116887000D01*
X171177000Y-116911000D01*
X171186000Y-116935000D01*
X171193000Y-116961000D01*
X171199000Y-116986000D01*
X171204000Y-117012000D01*
X171207000Y-117038000D01*
X171209000Y-117064000D01*
X171210000Y-117090000D01*
X171210000Y-117690000D01*
X171209000Y-117716000D01*
X171207000Y-117742000D01*
X171204000Y-117768000D01*
X171199000Y-117794000D01*
X171193000Y-117819000D01*
X171186000Y-117845000D01*
X171177000Y-117869000D01*
X171167000Y-117893000D01*
X171156000Y-117917000D01*
X171143000Y-117940000D01*
X171115000Y-117984000D01*
X171099000Y-118005000D01*
X171082000Y-118025000D01*
X171064000Y-118044000D01*
X171045000Y-118062000D01*
X171025000Y-118079000D01*
X171004000Y-118095000D01*
X170960000Y-118123000D01*
X170937000Y-118136000D01*
X170913000Y-118147000D01*
X170889000Y-118157000D01*
X170865000Y-118166000D01*
X170839000Y-118173000D01*
X170814000Y-118179000D01*
X170788000Y-118184000D01*
X170762000Y-118187000D01*
X170736000Y-118189000D01*
X170710000Y-118190000D01*
X170684000Y-118189000D01*
X170658000Y-118187000D01*
X170632000Y-118184000D01*
X170606000Y-118179000D01*
X170581000Y-118173000D01*
X170555000Y-118166000D01*
X170531000Y-118157000D01*
X170507000Y-118147000D01*
X170483000Y-118136000D01*
X170460000Y-118123000D01*
X170416000Y-118095000D01*
X170395000Y-118079000D01*
X170375000Y-118062000D01*
X170356000Y-118044000D01*
X170338000Y-118025000D01*
X170321000Y-118005000D01*
X170305000Y-117984000D01*
X170277000Y-117940000D01*
X170264000Y-117917000D01*
X170253000Y-117893000D01*
X170243000Y-117869000D01*
X170234000Y-117845000D01*
X170227000Y-117819000D01*
X170221000Y-117794000D01*
X170216000Y-117768000D01*
X170213000Y-117742000D01*
X170211000Y-117716000D01*
X170210000Y-117690000D01*
X170210000Y-117090000D01*
X170211000Y-117064000D01*
X170213000Y-117038000D01*
X170216000Y-117012000D01*
X170221000Y-116986000D01*
X170227000Y-116961000D01*
X170234000Y-116935000D01*
X170243000Y-116911000D01*
X170253000Y-116887000D01*
X170264000Y-116863000D01*
X170277000Y-116840000D01*
X170305000Y-116796000D01*
X170321000Y-116775000D01*
X170338000Y-116755000D01*
X170356000Y-116736000D01*
X170375000Y-116718000D01*
X170395000Y-116701000D01*
X170416000Y-116685000D01*
X170460000Y-116657000D01*
X170483000Y-116644000D01*
X170507000Y-116633000D01*
X170531000Y-116623000D01*
X170555000Y-116614000D01*
X170581000Y-116607000D01*
X170606000Y-116601000D01*
X170632000Y-116596000D01*
X170658000Y-116593000D01*
X170684000Y-116591000D01*
X170710000Y-116590000D01*
X170736000Y-116591000D01*
G36*
X178994000Y-111327000D02*
G01*
X179016000Y-111330000D01*
X179038000Y-111334000D01*
X179060000Y-111339000D01*
X179102000Y-111353000D01*
X179123000Y-111362000D01*
X179143000Y-111371000D01*
X179162000Y-111382000D01*
X179200000Y-111406000D01*
X179234000Y-111434000D01*
X179251000Y-111449000D01*
X179266000Y-111466000D01*
X179294000Y-111500000D01*
X179306000Y-111519000D01*
X179318000Y-111537000D01*
X179329000Y-111557000D01*
X179338000Y-111577000D01*
X179347000Y-111598000D01*
X179361000Y-111640000D01*
X179366000Y-111662000D01*
X179370000Y-111684000D01*
X179373000Y-111706000D01*
X179375000Y-111750000D01*
X179373000Y-111794000D01*
X179370000Y-111816000D01*
X179366000Y-111838000D01*
X179361000Y-111860000D01*
X179347000Y-111902000D01*
X179338000Y-111923000D01*
X179329000Y-111943000D01*
X179318000Y-111962000D01*
X179294000Y-112000000D01*
X179266000Y-112034000D01*
X179251000Y-112051000D01*
X179234000Y-112066000D01*
X179200000Y-112094000D01*
X179162000Y-112118000D01*
X179143000Y-112129000D01*
X179123000Y-112138000D01*
X179102000Y-112147000D01*
X179060000Y-112161000D01*
X179038000Y-112166000D01*
X179016000Y-112170000D01*
X178994000Y-112173000D01*
X178950000Y-112175000D01*
X178650000Y-112175000D01*
X178606000Y-112173000D01*
X178584000Y-112170000D01*
X178562000Y-112166000D01*
X178540000Y-112161000D01*
X178498000Y-112147000D01*
X178477000Y-112138000D01*
X178457000Y-112129000D01*
X178437000Y-112118000D01*
X178419000Y-112106000D01*
X178400000Y-112094000D01*
X178366000Y-112066000D01*
X178349000Y-112051000D01*
X178334000Y-112034000D01*
X178306000Y-112000000D01*
X178282000Y-111962000D01*
X178271000Y-111943000D01*
X178262000Y-111923000D01*
X178253000Y-111902000D01*
X178239000Y-111860000D01*
X178234000Y-111838000D01*
X178230000Y-111816000D01*
X178227000Y-111794000D01*
X178225000Y-111750000D01*
X178227000Y-111706000D01*
X178230000Y-111684000D01*
X178234000Y-111662000D01*
X178239000Y-111640000D01*
X178253000Y-111598000D01*
X178262000Y-111577000D01*
X178271000Y-111557000D01*
X178282000Y-111537000D01*
X178294000Y-111519000D01*
X178306000Y-111500000D01*
X178334000Y-111466000D01*
X178349000Y-111449000D01*
X178366000Y-111434000D01*
X178400000Y-111406000D01*
X178419000Y-111394000D01*
X178437000Y-111382000D01*
X178457000Y-111371000D01*
X178477000Y-111362000D01*
X178498000Y-111353000D01*
X178540000Y-111339000D01*
X178562000Y-111334000D01*
X178584000Y-111330000D01*
X178606000Y-111327000D01*
X178650000Y-111325000D01*
X178950000Y-111325000D01*
X178994000Y-111327000D01*
G37*
X178994000Y-111327000D02*
X179016000Y-111330000D01*
X179038000Y-111334000D01*
X179060000Y-111339000D01*
X179102000Y-111353000D01*
X179123000Y-111362000D01*
X179143000Y-111371000D01*
X179162000Y-111382000D01*
X179200000Y-111406000D01*
X179234000Y-111434000D01*
X179251000Y-111449000D01*
X179266000Y-111466000D01*
X179294000Y-111500000D01*
X179306000Y-111519000D01*
X179318000Y-111537000D01*
X179329000Y-111557000D01*
X179338000Y-111577000D01*
X179347000Y-111598000D01*
X179361000Y-111640000D01*
X179366000Y-111662000D01*
X179370000Y-111684000D01*
X179373000Y-111706000D01*
X179375000Y-111750000D01*
X179373000Y-111794000D01*
X179370000Y-111816000D01*
X179366000Y-111838000D01*
X179361000Y-111860000D01*
X179347000Y-111902000D01*
X179338000Y-111923000D01*
X179329000Y-111943000D01*
X179318000Y-111962000D01*
X179294000Y-112000000D01*
X179266000Y-112034000D01*
X179251000Y-112051000D01*
X179234000Y-112066000D01*
X179200000Y-112094000D01*
X179162000Y-112118000D01*
X179143000Y-112129000D01*
X179123000Y-112138000D01*
X179102000Y-112147000D01*
X179060000Y-112161000D01*
X179038000Y-112166000D01*
X179016000Y-112170000D01*
X178994000Y-112173000D01*
X178950000Y-112175000D01*
X178650000Y-112175000D01*
X178606000Y-112173000D01*
X178584000Y-112170000D01*
X178562000Y-112166000D01*
X178540000Y-112161000D01*
X178498000Y-112147000D01*
X178477000Y-112138000D01*
X178457000Y-112129000D01*
X178437000Y-112118000D01*
X178419000Y-112106000D01*
X178400000Y-112094000D01*
X178366000Y-112066000D01*
X178349000Y-112051000D01*
X178334000Y-112034000D01*
X178306000Y-112000000D01*
X178282000Y-111962000D01*
X178271000Y-111943000D01*
X178262000Y-111923000D01*
X178253000Y-111902000D01*
X178239000Y-111860000D01*
X178234000Y-111838000D01*
X178230000Y-111816000D01*
X178227000Y-111794000D01*
X178225000Y-111750000D01*
X178227000Y-111706000D01*
X178230000Y-111684000D01*
X178234000Y-111662000D01*
X178239000Y-111640000D01*
X178253000Y-111598000D01*
X178262000Y-111577000D01*
X178271000Y-111557000D01*
X178282000Y-111537000D01*
X178294000Y-111519000D01*
X178306000Y-111500000D01*
X178334000Y-111466000D01*
X178349000Y-111449000D01*
X178366000Y-111434000D01*
X178400000Y-111406000D01*
X178419000Y-111394000D01*
X178437000Y-111382000D01*
X178457000Y-111371000D01*
X178477000Y-111362000D01*
X178498000Y-111353000D01*
X178540000Y-111339000D01*
X178562000Y-111334000D01*
X178584000Y-111330000D01*
X178606000Y-111327000D01*
X178650000Y-111325000D01*
X178950000Y-111325000D01*
X178994000Y-111327000D01*
G36*
X179356000Y-112191000D02*
G01*
X179382000Y-112193000D01*
X179408000Y-112196000D01*
X179434000Y-112201000D01*
X179459000Y-112207000D01*
X179485000Y-112214000D01*
X179509000Y-112223000D01*
X179533000Y-112233000D01*
X179557000Y-112244000D01*
X179580000Y-112257000D01*
X179624000Y-112285000D01*
X179645000Y-112301000D01*
X179665000Y-112318000D01*
X179684000Y-112336000D01*
X179702000Y-112355000D01*
X179719000Y-112375000D01*
X179735000Y-112396000D01*
X179763000Y-112440000D01*
X179776000Y-112463000D01*
X179787000Y-112487000D01*
X179797000Y-112511000D01*
X179806000Y-112535000D01*
X179813000Y-112561000D01*
X179819000Y-112586000D01*
X179824000Y-112612000D01*
X179827000Y-112638000D01*
X179829000Y-112664000D01*
X179830000Y-112690000D01*
X179830000Y-113290000D01*
X179829000Y-113316000D01*
X179827000Y-113342000D01*
X179824000Y-113368000D01*
X179819000Y-113394000D01*
X179813000Y-113419000D01*
X179806000Y-113445000D01*
X179797000Y-113469000D01*
X179787000Y-113493000D01*
X179776000Y-113517000D01*
X179763000Y-113540000D01*
X179735000Y-113584000D01*
X179719000Y-113605000D01*
X179702000Y-113625000D01*
X179684000Y-113644000D01*
X179665000Y-113662000D01*
X179645000Y-113679000D01*
X179624000Y-113695000D01*
X179580000Y-113723000D01*
X179557000Y-113736000D01*
X179533000Y-113747000D01*
X179509000Y-113757000D01*
X179485000Y-113766000D01*
X179459000Y-113773000D01*
X179434000Y-113779000D01*
X179408000Y-113784000D01*
X179382000Y-113787000D01*
X179356000Y-113789000D01*
X179330000Y-113790000D01*
X179304000Y-113789000D01*
X179278000Y-113787000D01*
X179252000Y-113784000D01*
X179226000Y-113779000D01*
X179201000Y-113773000D01*
X179175000Y-113766000D01*
X179151000Y-113757000D01*
X179127000Y-113747000D01*
X179103000Y-113736000D01*
X179080000Y-113723000D01*
X179036000Y-113695000D01*
X179015000Y-113679000D01*
X178995000Y-113662000D01*
X178976000Y-113644000D01*
X178958000Y-113625000D01*
X178941000Y-113605000D01*
X178925000Y-113584000D01*
X178897000Y-113540000D01*
X178884000Y-113517000D01*
X178873000Y-113493000D01*
X178863000Y-113469000D01*
X178854000Y-113445000D01*
X178847000Y-113419000D01*
X178841000Y-113394000D01*
X178836000Y-113368000D01*
X178833000Y-113342000D01*
X178831000Y-113316000D01*
X178830000Y-113290000D01*
X178830000Y-112690000D01*
X178831000Y-112664000D01*
X178833000Y-112638000D01*
X178836000Y-112612000D01*
X178841000Y-112586000D01*
X178847000Y-112561000D01*
X178854000Y-112535000D01*
X178863000Y-112511000D01*
X178873000Y-112487000D01*
X178884000Y-112463000D01*
X178897000Y-112440000D01*
X178925000Y-112396000D01*
X178941000Y-112375000D01*
X178958000Y-112355000D01*
X178976000Y-112336000D01*
X178995000Y-112318000D01*
X179015000Y-112301000D01*
X179036000Y-112285000D01*
X179080000Y-112257000D01*
X179103000Y-112244000D01*
X179127000Y-112233000D01*
X179151000Y-112223000D01*
X179175000Y-112214000D01*
X179201000Y-112207000D01*
X179226000Y-112201000D01*
X179252000Y-112196000D01*
X179278000Y-112193000D01*
X179304000Y-112191000D01*
X179330000Y-112190000D01*
X179356000Y-112191000D01*
G37*
X179356000Y-112191000D02*
X179382000Y-112193000D01*
X179408000Y-112196000D01*
X179434000Y-112201000D01*
X179459000Y-112207000D01*
X179485000Y-112214000D01*
X179509000Y-112223000D01*
X179533000Y-112233000D01*
X179557000Y-112244000D01*
X179580000Y-112257000D01*
X179624000Y-112285000D01*
X179645000Y-112301000D01*
X179665000Y-112318000D01*
X179684000Y-112336000D01*
X179702000Y-112355000D01*
X179719000Y-112375000D01*
X179735000Y-112396000D01*
X179763000Y-112440000D01*
X179776000Y-112463000D01*
X179787000Y-112487000D01*
X179797000Y-112511000D01*
X179806000Y-112535000D01*
X179813000Y-112561000D01*
X179819000Y-112586000D01*
X179824000Y-112612000D01*
X179827000Y-112638000D01*
X179829000Y-112664000D01*
X179830000Y-112690000D01*
X179830000Y-113290000D01*
X179829000Y-113316000D01*
X179827000Y-113342000D01*
X179824000Y-113368000D01*
X179819000Y-113394000D01*
X179813000Y-113419000D01*
X179806000Y-113445000D01*
X179797000Y-113469000D01*
X179787000Y-113493000D01*
X179776000Y-113517000D01*
X179763000Y-113540000D01*
X179735000Y-113584000D01*
X179719000Y-113605000D01*
X179702000Y-113625000D01*
X179684000Y-113644000D01*
X179665000Y-113662000D01*
X179645000Y-113679000D01*
X179624000Y-113695000D01*
X179580000Y-113723000D01*
X179557000Y-113736000D01*
X179533000Y-113747000D01*
X179509000Y-113757000D01*
X179485000Y-113766000D01*
X179459000Y-113773000D01*
X179434000Y-113779000D01*
X179408000Y-113784000D01*
X179382000Y-113787000D01*
X179356000Y-113789000D01*
X179330000Y-113790000D01*
X179304000Y-113789000D01*
X179278000Y-113787000D01*
X179252000Y-113784000D01*
X179226000Y-113779000D01*
X179201000Y-113773000D01*
X179175000Y-113766000D01*
X179151000Y-113757000D01*
X179127000Y-113747000D01*
X179103000Y-113736000D01*
X179080000Y-113723000D01*
X179036000Y-113695000D01*
X179015000Y-113679000D01*
X178995000Y-113662000D01*
X178976000Y-113644000D01*
X178958000Y-113625000D01*
X178941000Y-113605000D01*
X178925000Y-113584000D01*
X178897000Y-113540000D01*
X178884000Y-113517000D01*
X178873000Y-113493000D01*
X178863000Y-113469000D01*
X178854000Y-113445000D01*
X178847000Y-113419000D01*
X178841000Y-113394000D01*
X178836000Y-113368000D01*
X178833000Y-113342000D01*
X178831000Y-113316000D01*
X178830000Y-113290000D01*
X178830000Y-112690000D01*
X178831000Y-112664000D01*
X178833000Y-112638000D01*
X178836000Y-112612000D01*
X178841000Y-112586000D01*
X178847000Y-112561000D01*
X178854000Y-112535000D01*
X178863000Y-112511000D01*
X178873000Y-112487000D01*
X178884000Y-112463000D01*
X178897000Y-112440000D01*
X178925000Y-112396000D01*
X178941000Y-112375000D01*
X178958000Y-112355000D01*
X178976000Y-112336000D01*
X178995000Y-112318000D01*
X179015000Y-112301000D01*
X179036000Y-112285000D01*
X179080000Y-112257000D01*
X179103000Y-112244000D01*
X179127000Y-112233000D01*
X179151000Y-112223000D01*
X179175000Y-112214000D01*
X179201000Y-112207000D01*
X179226000Y-112201000D01*
X179252000Y-112196000D01*
X179278000Y-112193000D01*
X179304000Y-112191000D01*
X179330000Y-112190000D01*
X179356000Y-112191000D01*
G36*
X171096000Y-112191000D02*
G01*
X171122000Y-112193000D01*
X171148000Y-112196000D01*
X171174000Y-112201000D01*
X171199000Y-112207000D01*
X171225000Y-112214000D01*
X171249000Y-112223000D01*
X171273000Y-112233000D01*
X171297000Y-112244000D01*
X171320000Y-112257000D01*
X171364000Y-112285000D01*
X171385000Y-112301000D01*
X171405000Y-112318000D01*
X171424000Y-112336000D01*
X171442000Y-112355000D01*
X171459000Y-112375000D01*
X171475000Y-112396000D01*
X171503000Y-112440000D01*
X171516000Y-112463000D01*
X171527000Y-112487000D01*
X171537000Y-112511000D01*
X171546000Y-112535000D01*
X171553000Y-112561000D01*
X171559000Y-112586000D01*
X171564000Y-112612000D01*
X171567000Y-112638000D01*
X171569000Y-112664000D01*
X171570000Y-112690000D01*
X171570000Y-113290000D01*
X171569000Y-113316000D01*
X171567000Y-113342000D01*
X171564000Y-113368000D01*
X171559000Y-113394000D01*
X171553000Y-113419000D01*
X171546000Y-113445000D01*
X171537000Y-113469000D01*
X171527000Y-113493000D01*
X171516000Y-113517000D01*
X171503000Y-113540000D01*
X171475000Y-113584000D01*
X171459000Y-113605000D01*
X171442000Y-113625000D01*
X171424000Y-113644000D01*
X171405000Y-113662000D01*
X171385000Y-113679000D01*
X171364000Y-113695000D01*
X171320000Y-113723000D01*
X171297000Y-113736000D01*
X171273000Y-113747000D01*
X171249000Y-113757000D01*
X171225000Y-113766000D01*
X171199000Y-113773000D01*
X171174000Y-113779000D01*
X171148000Y-113784000D01*
X171122000Y-113787000D01*
X171096000Y-113789000D01*
X171070000Y-113790000D01*
X171044000Y-113789000D01*
X171018000Y-113787000D01*
X170992000Y-113784000D01*
X170966000Y-113779000D01*
X170941000Y-113773000D01*
X170915000Y-113766000D01*
X170891000Y-113757000D01*
X170867000Y-113747000D01*
X170843000Y-113736000D01*
X170820000Y-113723000D01*
X170776000Y-113695000D01*
X170755000Y-113679000D01*
X170735000Y-113662000D01*
X170716000Y-113644000D01*
X170698000Y-113625000D01*
X170681000Y-113605000D01*
X170665000Y-113584000D01*
X170637000Y-113540000D01*
X170624000Y-113517000D01*
X170613000Y-113493000D01*
X170603000Y-113469000D01*
X170594000Y-113445000D01*
X170587000Y-113419000D01*
X170581000Y-113394000D01*
X170576000Y-113368000D01*
X170573000Y-113342000D01*
X170571000Y-113316000D01*
X170570000Y-113290000D01*
X170570000Y-112690000D01*
X170571000Y-112664000D01*
X170573000Y-112638000D01*
X170576000Y-112612000D01*
X170581000Y-112586000D01*
X170587000Y-112561000D01*
X170594000Y-112535000D01*
X170603000Y-112511000D01*
X170613000Y-112487000D01*
X170624000Y-112463000D01*
X170637000Y-112440000D01*
X170665000Y-112396000D01*
X170681000Y-112375000D01*
X170698000Y-112355000D01*
X170716000Y-112336000D01*
X170735000Y-112318000D01*
X170755000Y-112301000D01*
X170776000Y-112285000D01*
X170820000Y-112257000D01*
X170843000Y-112244000D01*
X170867000Y-112233000D01*
X170891000Y-112223000D01*
X170915000Y-112214000D01*
X170941000Y-112207000D01*
X170966000Y-112201000D01*
X170992000Y-112196000D01*
X171018000Y-112193000D01*
X171044000Y-112191000D01*
X171070000Y-112190000D01*
X171096000Y-112191000D01*
G37*
X171096000Y-112191000D02*
X171122000Y-112193000D01*
X171148000Y-112196000D01*
X171174000Y-112201000D01*
X171199000Y-112207000D01*
X171225000Y-112214000D01*
X171249000Y-112223000D01*
X171273000Y-112233000D01*
X171297000Y-112244000D01*
X171320000Y-112257000D01*
X171364000Y-112285000D01*
X171385000Y-112301000D01*
X171405000Y-112318000D01*
X171424000Y-112336000D01*
X171442000Y-112355000D01*
X171459000Y-112375000D01*
X171475000Y-112396000D01*
X171503000Y-112440000D01*
X171516000Y-112463000D01*
X171527000Y-112487000D01*
X171537000Y-112511000D01*
X171546000Y-112535000D01*
X171553000Y-112561000D01*
X171559000Y-112586000D01*
X171564000Y-112612000D01*
X171567000Y-112638000D01*
X171569000Y-112664000D01*
X171570000Y-112690000D01*
X171570000Y-113290000D01*
X171569000Y-113316000D01*
X171567000Y-113342000D01*
X171564000Y-113368000D01*
X171559000Y-113394000D01*
X171553000Y-113419000D01*
X171546000Y-113445000D01*
X171537000Y-113469000D01*
X171527000Y-113493000D01*
X171516000Y-113517000D01*
X171503000Y-113540000D01*
X171475000Y-113584000D01*
X171459000Y-113605000D01*
X171442000Y-113625000D01*
X171424000Y-113644000D01*
X171405000Y-113662000D01*
X171385000Y-113679000D01*
X171364000Y-113695000D01*
X171320000Y-113723000D01*
X171297000Y-113736000D01*
X171273000Y-113747000D01*
X171249000Y-113757000D01*
X171225000Y-113766000D01*
X171199000Y-113773000D01*
X171174000Y-113779000D01*
X171148000Y-113784000D01*
X171122000Y-113787000D01*
X171096000Y-113789000D01*
X171070000Y-113790000D01*
X171044000Y-113789000D01*
X171018000Y-113787000D01*
X170992000Y-113784000D01*
X170966000Y-113779000D01*
X170941000Y-113773000D01*
X170915000Y-113766000D01*
X170891000Y-113757000D01*
X170867000Y-113747000D01*
X170843000Y-113736000D01*
X170820000Y-113723000D01*
X170776000Y-113695000D01*
X170755000Y-113679000D01*
X170735000Y-113662000D01*
X170716000Y-113644000D01*
X170698000Y-113625000D01*
X170681000Y-113605000D01*
X170665000Y-113584000D01*
X170637000Y-113540000D01*
X170624000Y-113517000D01*
X170613000Y-113493000D01*
X170603000Y-113469000D01*
X170594000Y-113445000D01*
X170587000Y-113419000D01*
X170581000Y-113394000D01*
X170576000Y-113368000D01*
X170573000Y-113342000D01*
X170571000Y-113316000D01*
X170570000Y-113290000D01*
X170570000Y-112690000D01*
X170571000Y-112664000D01*
X170573000Y-112638000D01*
X170576000Y-112612000D01*
X170581000Y-112586000D01*
X170587000Y-112561000D01*
X170594000Y-112535000D01*
X170603000Y-112511000D01*
X170613000Y-112487000D01*
X170624000Y-112463000D01*
X170637000Y-112440000D01*
X170665000Y-112396000D01*
X170681000Y-112375000D01*
X170698000Y-112355000D01*
X170716000Y-112336000D01*
X170735000Y-112318000D01*
X170755000Y-112301000D01*
X170776000Y-112285000D01*
X170820000Y-112257000D01*
X170843000Y-112244000D01*
X170867000Y-112233000D01*
X170891000Y-112223000D01*
X170915000Y-112214000D01*
X170941000Y-112207000D01*
X170966000Y-112201000D01*
X170992000Y-112196000D01*
X171018000Y-112193000D01*
X171044000Y-112191000D01*
X171070000Y-112190000D01*
X171096000Y-112191000D01*
D11*
X178400000Y-87630000D03*
X178400000Y-86670000D03*
D12*
X210122875Y-77200000D03*
D13*
X169330000Y-100000000D03*
X168370000Y-100000000D03*
D14*
X163180000Y-82300000D03*
X162220000Y-82300000D03*
D15*
X200400000Y-88025000D03*
X200400000Y-84950000D03*
D11*
X152325000Y-81270000D03*
X152325000Y-82230000D03*
D16*
X127064750Y-80100000D03*
X125514750Y-80100000D03*
D17*
X191337500Y-103397500D03*
X191337500Y-102377500D03*
D14*
X163150000Y-88200000D03*
X162190000Y-88200000D03*
D18*
X171896178Y-84800000D03*
X172575000Y-84121178D03*
D11*
X181825000Y-87530000D03*
X181825000Y-86570000D03*
D14*
X164645000Y-89900000D03*
X165605000Y-89900000D03*
X199545000Y-102650000D03*
X200505000Y-102650000D03*
D11*
X131700000Y-102080000D03*
X131700000Y-101120000D03*
D19*
X155350000Y-94230000D03*
X155350000Y-93270000D03*
D20*
X190187500Y-103355000D03*
X190187500Y-102385000D03*
D21*
X136710000Y-103350000D03*
X137390000Y-103350000D03*
X137050000Y-103650000D03*
D22*
X159510589Y-79260589D03*
X160189411Y-79939411D03*
D23*
X209822875Y-93000000D03*
D24*
X158256066Y-81483883D03*
X157266117Y-80493934D03*
X158043934Y-79716117D03*
X159033883Y-80706066D03*
D22*
X175389411Y-84814411D03*
X174710589Y-84135589D03*
D21*
X158725000Y-103750000D03*
X159065000Y-103450000D03*
X158385000Y-103450000D03*
D11*
X171975000Y-87930000D03*
X171975000Y-86970000D03*
D17*
X188300000Y-91400000D03*
X188300000Y-90380000D03*
D19*
X174200000Y-102770000D03*
X174200000Y-103730000D03*
D23*
X209822875Y-90000000D03*
D13*
X199855000Y-96025000D03*
X198895000Y-96025000D03*
D25*
X191667500Y-86100000D03*
D26*
X196167500Y-87600000D03*
X191667500Y-79100000D03*
X191667500Y-82100000D03*
X197167500Y-79100000D03*
D27*
X193967500Y-87400000D03*
X193967500Y-80400000D03*
D28*
X140700000Y-107025000D03*
X127900000Y-107025000D03*
D29*
X127900000Y-113625000D03*
X140700000Y-113625000D03*
D30*
X130300000Y-106025000D03*
X132300000Y-106025000D03*
X134300000Y-106025000D03*
X136300000Y-106025000D03*
X138300000Y-106025000D03*
X137800000Y-107525000D03*
X135300000Y-107525000D03*
X133300000Y-107525000D03*
X130800000Y-107525000D03*
D31*
X181550000Y-111940000D03*
X181550000Y-110240000D03*
D32*
X162140000Y-85530000D03*
X163160000Y-85530000D03*
D19*
X172200000Y-102770000D03*
X172200000Y-103730000D03*
D11*
X180775000Y-87530000D03*
X180775000Y-86570000D03*
X176925000Y-87580000D03*
X176925000Y-86620000D03*
D33*
X193712500Y-91500000D03*
X195537500Y-91500000D03*
D17*
X188950000Y-103385000D03*
X188950000Y-102365000D03*
D19*
X156450000Y-94230000D03*
X156450000Y-93270000D03*
D21*
X152525000Y-103750000D03*
X152865000Y-103450000D03*
X152185000Y-103450000D03*
D34*
X172891117Y-85793934D03*
X173881066Y-86783883D03*
X174658883Y-86006066D03*
X173668934Y-85016117D03*
D14*
X198110000Y-93220000D03*
X199070000Y-93220000D03*
D35*
X126315000Y-88350000D03*
X126315000Y-86450000D03*
D11*
X153225000Y-102505000D03*
X153225000Y-101545000D03*
D32*
X126710000Y-93100000D03*
X125690000Y-93100000D03*
D36*
X186715000Y-100200000D03*
X187685000Y-100200000D03*
D23*
X209822875Y-96000000D03*
D12*
X100000000Y-115900000D03*
D31*
X142765000Y-99200000D03*
X142765000Y-97500000D03*
D37*
X198295000Y-94510000D03*
X199945000Y-94510000D03*
D23*
X209822875Y-97500000D03*
X209822875Y-100500000D03*
D17*
X187175000Y-91400000D03*
X187175000Y-90380000D03*
D32*
X165585000Y-98650000D03*
X164565000Y-98650000D03*
D38*
X119930000Y-116490000D03*
D14*
X154480000Y-98190000D03*
X153520000Y-98190000D03*
X125720000Y-95600000D03*
X126680000Y-95600000D03*
D13*
X150085000Y-91270000D03*
X151045000Y-91270000D03*
D39*
X150010000Y-98681000D03*
X150010000Y-93830000D03*
D14*
X184620000Y-93610000D03*
X185580000Y-93610000D03*
X125720000Y-94300000D03*
X126680000Y-94300000D03*
D13*
X162220000Y-81250000D03*
X163180000Y-81250000D03*
D14*
X154480000Y-99450000D03*
X153520000Y-99450000D03*
D17*
X153425000Y-81240000D03*
X153425000Y-82260000D03*
D40*
X178800000Y-111750000D03*
X171600000Y-111750000D03*
D41*
X172450000Y-111190000D03*
X172950000Y-111190000D03*
X173450000Y-111190000D03*
X173950000Y-111190000D03*
X174450000Y-111190000D03*
X174950000Y-111190000D03*
X175450000Y-111190000D03*
X175950000Y-111190000D03*
X176450000Y-111190000D03*
X176950000Y-111190000D03*
X177450000Y-111190000D03*
X177950000Y-111190000D03*
D42*
X178000000Y-112400000D03*
X177600000Y-113100000D03*
X176800000Y-113100000D03*
X176400000Y-112400000D03*
X176000000Y-113100000D03*
X175600000Y-112400000D03*
X174800000Y-112400000D03*
X174400000Y-113100000D03*
X174000000Y-112400000D03*
X173600000Y-113100000D03*
X172800000Y-113100000D03*
X172400000Y-112400000D03*
D43*
X126315000Y-90075000D03*
X126315000Y-91725000D03*
D11*
X174150000Y-107655000D03*
X174150000Y-106695000D03*
D21*
X131050000Y-103650000D03*
X131390000Y-103350000D03*
X130710000Y-103350000D03*
X155850000Y-103750000D03*
X156190000Y-103450000D03*
X155510000Y-103450000D03*
D31*
X141215000Y-99200000D03*
X141215000Y-97500000D03*
D21*
X198155000Y-105125000D03*
X198495000Y-104825000D03*
X197815000Y-104825000D03*
D44*
X186690000Y-101300000D03*
X187710000Y-101300000D03*
D11*
X130500000Y-102080000D03*
X130500000Y-101120000D03*
D14*
X163130000Y-84450000D03*
X162170000Y-84450000D03*
D45*
X188290000Y-84330000D03*
X188290000Y-87405000D03*
D11*
X151475000Y-102505000D03*
X151475000Y-101545000D03*
D46*
X200145000Y-99775000D03*
X200145000Y-97575000D03*
X198445000Y-97575000D03*
X198445000Y-99775000D03*
D45*
X200400000Y-79050000D03*
X200400000Y-82125000D03*
D13*
X169330000Y-93600000D03*
X168370000Y-93600000D03*
D32*
X162145000Y-86610000D03*
X163165000Y-86610000D03*
X162190000Y-83350000D03*
X163210000Y-83350000D03*
D21*
X201155000Y-105125000D03*
X201495000Y-104825000D03*
X200815000Y-104825000D03*
D13*
X149770000Y-85200000D03*
X150730000Y-85200000D03*
D14*
X196120000Y-102200000D03*
X197080000Y-102200000D03*
D13*
X169330000Y-97200000D03*
X168370000Y-97200000D03*
D23*
X209822875Y-91500000D03*
D31*
X135015000Y-99150000D03*
X135015000Y-97450000D03*
D47*
X120275000Y-105801000D03*
D48*
X120275000Y-84801000D03*
D49*
X123075000Y-103175000D03*
X123075000Y-100675000D03*
X123075000Y-98175000D03*
X123075000Y-95675000D03*
X123075000Y-93175000D03*
X123075000Y-90675000D03*
X123075000Y-88250000D03*
X123075000Y-86550000D03*
X123075000Y-105675000D03*
D50*
X123075000Y-85250000D03*
X123075000Y-84050000D03*
D51*
X121475000Y-107751000D03*
X121475000Y-82650000D03*
X99975000Y-82650000D03*
X99975000Y-109950000D03*
D17*
X190520000Y-91400000D03*
X190520000Y-90380000D03*
D52*
X153950000Y-95075000D03*
X153950000Y-93525000D03*
D21*
X199655000Y-105125000D03*
X199995000Y-104825000D03*
X199315000Y-104825000D03*
D31*
X131915000Y-99150000D03*
X131915000Y-97450000D03*
D32*
X165635000Y-93150000D03*
X164615000Y-93150000D03*
D23*
X209822875Y-102000000D03*
D11*
X149100000Y-83170000D03*
X149100000Y-84130000D03*
D32*
X165585000Y-99800000D03*
X164565000Y-99800000D03*
D19*
X179075000Y-102770000D03*
X179075000Y-103730000D03*
D14*
X184620000Y-98250000D03*
X185580000Y-98250000D03*
D13*
X150145000Y-88300000D03*
X151105000Y-88300000D03*
D23*
X209822875Y-105000000D03*
D21*
X173250000Y-109025000D03*
X173590000Y-108725000D03*
X172910000Y-108725000D03*
D53*
X171150000Y-90400000D03*
X171150000Y-90800000D03*
X171150000Y-91200000D03*
X171150000Y-91600000D03*
X171150000Y-92000000D03*
X171150000Y-92400000D03*
X171150000Y-92800000D03*
X171150000Y-93200000D03*
X171150000Y-93600000D03*
X171150000Y-94000000D03*
X171150000Y-94400000D03*
X171150000Y-94800000D03*
X171150000Y-95200000D03*
X171150000Y-95600000D03*
X171150000Y-96000000D03*
X171150000Y-96400000D03*
X171150000Y-96800000D03*
X171150000Y-97200000D03*
X171150000Y-97600000D03*
X171150000Y-98000000D03*
X171150000Y-98400000D03*
X171150000Y-98800000D03*
X171150000Y-99200000D03*
X171150000Y-99600000D03*
X171150000Y-100000000D03*
D54*
X172200000Y-101050000D03*
X172600000Y-101050000D03*
X173000000Y-101050000D03*
X173400000Y-101050000D03*
X173800000Y-101050000D03*
X174200000Y-101050000D03*
X174600000Y-101050000D03*
X175000000Y-101050000D03*
X175400000Y-101050000D03*
X175800000Y-101050000D03*
X176200000Y-101050000D03*
X176600000Y-101050000D03*
X177000000Y-101050000D03*
X177400000Y-101050000D03*
X177800000Y-101050000D03*
X178200000Y-101050000D03*
X178600000Y-101050000D03*
X179000000Y-101050000D03*
X179400000Y-101050000D03*
X179800000Y-101050000D03*
X180200000Y-101050000D03*
X180600000Y-101050000D03*
X181000000Y-101050000D03*
X181400000Y-101050000D03*
X181800000Y-101050000D03*
D53*
X182850000Y-100000000D03*
X182850000Y-99600000D03*
X182850000Y-99200000D03*
X182850000Y-98800000D03*
X182850000Y-98400000D03*
X182850000Y-98000000D03*
X182850000Y-97600000D03*
X182850000Y-97200000D03*
X182850000Y-96800000D03*
X182850000Y-96400000D03*
X182850000Y-96000000D03*
X182850000Y-95600000D03*
X182850000Y-95200000D03*
X182850000Y-94800000D03*
X182850000Y-94400000D03*
X182850000Y-94000000D03*
X182850000Y-93600000D03*
X182850000Y-93200000D03*
X182850000Y-92800000D03*
X182850000Y-92400000D03*
X182850000Y-92000000D03*
X182850000Y-91600000D03*
X182850000Y-91200000D03*
X182850000Y-90800000D03*
X182850000Y-90400000D03*
D54*
X181800000Y-89350000D03*
X181400000Y-89350000D03*
X181000000Y-89350000D03*
X180600000Y-89350000D03*
X180200000Y-89350000D03*
X179800000Y-89350000D03*
X179400000Y-89350000D03*
X179000000Y-89350000D03*
X178600000Y-89350000D03*
X178200000Y-89350000D03*
X177800000Y-89350000D03*
X177400000Y-89350000D03*
X177000000Y-89350000D03*
X176600000Y-89350000D03*
X176200000Y-89350000D03*
X175800000Y-89350000D03*
X175400000Y-89350000D03*
X175000000Y-89350000D03*
X174600000Y-89350000D03*
X174200000Y-89350000D03*
X173800000Y-89350000D03*
X173400000Y-89350000D03*
X173000000Y-89350000D03*
X172600000Y-89350000D03*
X172200000Y-89350000D03*
D55*
X177000000Y-95200000D03*
D56*
X193595000Y-102387500D03*
X193595000Y-103962500D03*
D21*
X196315000Y-104825000D03*
X196995000Y-104825000D03*
X196655000Y-105125000D03*
D57*
X156600000Y-87700000D03*
D58*
X153350000Y-83762500D03*
X153850000Y-83762500D03*
X154350000Y-83762500D03*
X154850000Y-83762500D03*
X155350000Y-83762500D03*
X155850000Y-83762500D03*
X156350000Y-83762500D03*
X156850000Y-83762500D03*
X157350000Y-83762500D03*
X157850000Y-83762500D03*
X158350000Y-83762500D03*
X158850000Y-83762500D03*
X159350000Y-83762500D03*
X159850000Y-83762500D03*
D59*
X160537500Y-84450000D03*
X160537500Y-84950000D03*
X160537500Y-85450000D03*
X160537500Y-85950000D03*
X160537500Y-86450000D03*
X160537500Y-86950000D03*
X160537500Y-87450000D03*
X160537500Y-87950000D03*
X160537500Y-88450000D03*
X160537500Y-88950000D03*
X160537500Y-89450000D03*
X160537500Y-89950000D03*
X160537500Y-90450000D03*
X160537500Y-90950000D03*
D58*
X159850000Y-91637500D03*
X159350000Y-91637500D03*
X158850000Y-91637500D03*
X158350000Y-91637500D03*
X157850000Y-91637500D03*
X157350000Y-91637500D03*
X156850000Y-91637500D03*
X156350000Y-91637500D03*
X155850000Y-91637500D03*
X155350000Y-91637500D03*
X154850000Y-91637500D03*
X154350000Y-91637500D03*
X153850000Y-91637500D03*
X153350000Y-91637500D03*
D59*
X152662500Y-90950000D03*
X152662500Y-90450000D03*
X152662500Y-89950000D03*
X152662500Y-89450000D03*
X152662500Y-88950000D03*
X152662500Y-88450000D03*
X152662500Y-87950000D03*
X152662500Y-87450000D03*
X152662500Y-86950000D03*
X152662500Y-86450000D03*
X152662500Y-85950000D03*
X152662500Y-85450000D03*
X152662500Y-84950000D03*
X152662500Y-84450000D03*
D31*
X139665000Y-99200000D03*
X139665000Y-97500000D03*
D32*
X165635000Y-92050000D03*
X164615000Y-92050000D03*
X165585000Y-100950000D03*
X164565000Y-100950000D03*
D14*
X163150000Y-89250000D03*
X162190000Y-89250000D03*
D23*
X209822875Y-99000000D03*
X209822875Y-103500000D03*
D11*
X154825000Y-81270000D03*
X154825000Y-82230000D03*
D60*
X190387500Y-94380000D03*
X191187500Y-94380000D03*
X191987500Y-94380000D03*
X192787500Y-94380000D03*
X193587500Y-94380000D03*
X194387500Y-94380000D03*
X195187500Y-94380000D03*
X195987500Y-94380000D03*
X190387500Y-95180000D03*
X191187500Y-95180000D03*
X191987500Y-95180000D03*
X192787500Y-95180000D03*
X193587500Y-95180000D03*
X194387500Y-95180000D03*
X195187500Y-95180000D03*
X195987500Y-95180000D03*
X190387500Y-95980000D03*
X191187500Y-95980000D03*
X191987500Y-95980000D03*
X192787500Y-95980000D03*
X193587500Y-95980000D03*
X194387500Y-95980000D03*
X195187500Y-95980000D03*
X195987500Y-95980000D03*
X190387500Y-96780000D03*
X191187500Y-96780000D03*
X191987500Y-96780000D03*
X192787500Y-96780000D03*
X193587500Y-96780000D03*
X194387500Y-96780000D03*
X195187500Y-96780000D03*
X195987500Y-96780000D03*
X190387500Y-97580000D03*
X191187500Y-97580000D03*
X191987500Y-97580000D03*
X192787500Y-97580000D03*
X193587500Y-97580000D03*
X194387500Y-97580000D03*
X195187500Y-97580000D03*
X195987500Y-97580000D03*
X190387500Y-98380000D03*
X191187500Y-98380000D03*
X191987500Y-98380000D03*
X192787500Y-98380000D03*
X193587500Y-98380000D03*
X194387500Y-98380000D03*
X195187500Y-98380000D03*
X195987500Y-98380000D03*
X190387500Y-99180000D03*
X191187500Y-99180000D03*
X191987500Y-99180000D03*
X192787500Y-99180000D03*
X193587500Y-99180000D03*
X194387500Y-99180000D03*
X195187500Y-99180000D03*
X195987500Y-99180000D03*
X190387500Y-99980000D03*
X191187500Y-99980000D03*
X191987500Y-99980000D03*
X192787500Y-99980000D03*
X193587500Y-99980000D03*
X194387500Y-99980000D03*
X195187500Y-99980000D03*
X195987500Y-99980000D03*
D19*
X159450000Y-94230000D03*
X159450000Y-93270000D03*
D61*
X201672500Y-107715000D03*
X201172500Y-107715000D03*
X200672500Y-107715000D03*
X200172500Y-107715000D03*
X199672500Y-107715000D03*
X199172500Y-107715000D03*
X198672500Y-107715000D03*
X198172500Y-107715000D03*
X197672500Y-107715000D03*
X197172500Y-107715000D03*
X196672500Y-107715000D03*
X196172500Y-107715000D03*
X195672500Y-107715000D03*
X195172500Y-107715000D03*
X194672500Y-107715000D03*
X194172500Y-107715000D03*
X193672500Y-107715000D03*
X193172500Y-107715000D03*
X192672500Y-107715000D03*
D62*
X189922500Y-108515000D03*
X204422500Y-108515000D03*
D63*
X189922500Y-114515000D03*
X204422500Y-114515000D03*
D23*
X209822875Y-94500000D03*
D14*
X184620000Y-99350000D03*
X185580000Y-99350000D03*
D20*
X187925000Y-103610000D03*
X187925000Y-102640000D03*
D17*
X189400000Y-91400000D03*
X189400000Y-90380000D03*
D23*
X209822875Y-88500000D03*
D14*
X151045000Y-90160000D03*
X150085000Y-90160000D03*
X184620000Y-95600000D03*
X185580000Y-95600000D03*
D32*
X165635000Y-88800000D03*
X164615000Y-88800000D03*
D11*
X155925000Y-81270000D03*
X155925000Y-82230000D03*
D14*
X199545000Y-101415000D03*
X200505000Y-101415000D03*
D11*
X172200000Y-107655000D03*
X172200000Y-106695000D03*
D31*
X133465000Y-99150000D03*
X133465000Y-97450000D03*
D64*
X125625000Y-97300000D03*
X127175000Y-97300000D03*
D65*
X131900000Y-85250000D03*
X143330000Y-85250000D03*
D66*
X131900000Y-91600000D03*
D67*
X133170000Y-94140000D03*
X134440000Y-91600000D03*
X135710000Y-94140000D03*
X136980000Y-91600000D03*
X138250000Y-94140000D03*
X139520000Y-91600000D03*
X140790000Y-94140000D03*
X142060000Y-91600000D03*
X143330000Y-94140000D03*
D68*
X144415000Y-82700000D03*
X144415000Y-80670000D03*
X130815000Y-82700000D03*
X130815000Y-80670000D03*
D69*
X145490000Y-88300000D03*
X129740000Y-88300000D03*
D18*
X156839411Y-79110589D03*
X156160589Y-79789411D03*
D31*
X136565000Y-99200000D03*
X136565000Y-97500000D03*
D32*
X199090000Y-92120000D03*
X198070000Y-92120000D03*
X165635000Y-91000000D03*
X164615000Y-91000000D03*
D19*
X158350000Y-94230000D03*
X158350000Y-93270000D03*
X177075000Y-102770000D03*
X177075000Y-103730000D03*
D30*
X152145000Y-107586000D03*
X154645000Y-107586000D03*
X156645000Y-107586000D03*
X159145000Y-107586000D03*
X159645000Y-106086000D03*
X157645000Y-106086000D03*
X155645000Y-106086000D03*
X153645000Y-106086000D03*
X151645000Y-106086000D03*
D28*
X149245000Y-107086000D03*
D29*
X149245000Y-113686000D03*
X162045000Y-113686000D03*
D28*
X162045000Y-107086000D03*
D31*
X138115000Y-99200000D03*
X138115000Y-97500000D03*
D17*
X160550000Y-93250000D03*
X160550000Y-94270000D03*
D12*
X100000000Y-77100000D03*
D21*
X133850000Y-103350000D03*
X133510000Y-103650000D03*
X134190000Y-103650000D03*
D12*
X210122875Y-115800000D03*
M02*
