M48
; DRILL file {KiCad (6.0.7)} date Thu Nov 24 18:50:47 2022
; FORMAT={-:-/ absolute / metric / decimal}
; #@! TF.CreationDate,2022-11-24T18:50:47+03:00
; #@! TF.GenerationSoftware,Kicad,Pcbnew,(6.0.7)
; #@! TF.FileFunction,Plated,1,4,PTH
FMAT,2
METRIC
; #@! TA.AperFunction,Plated,PTH,ViaDrill
T1C0.250
; #@! TA.AperFunction,Plated,PTH,ViaDrill
T2C0.400
; #@! TA.AperFunction,Plated,PTH,ComponentDrill
T3C0.400
; #@! TA.AperFunction,Plated,PTH,ComponentDrill
T4C0.500
; #@! TA.AperFunction,Plated,PTH,ComponentDrill
T5C0.800
; #@! TA.AperFunction,Plated,PTH,ComponentDrill
T6C0.900
; #@! TA.AperFunction,Plated,PTH,ComponentDrill
T7C1.020
; #@! TA.AperFunction,Plated,PTH,ComponentDrill
T8C1.600
; #@! TA.AperFunction,Plated,PTH,ComponentDrill
T9C1.610
; #@! TA.AperFunction,Plated,PTH,ComponentDrill
T10C1.950
; #@! TA.AperFunction,Plated,PTH,ComponentDrill
T11C2.230
; #@! TA.AperFunction,Plated,PTH,ComponentDrill
T12C2.260
%
G90
G05
T1
X98.23Y-74.11
X98.26Y-78.73
X99.4Y-81.55
X101.65Y-81.6
X101.9Y-103.1
X101.9Y-106.8
X101.9Y-110.6
X102.18Y-70.95
X103.2Y-112.9
X104.6Y-99.0
X104.6Y-100.4
X105.4Y-74.1
X106.2Y-107.3
X107.834Y-103.637
X108.584Y-103.637
X108.7Y-75.1
X108.8Y-107.3
X109.29Y-103.27
X110.56Y-103.33
X110.7Y-75.728
X110.823Y-100.822
X112.3Y-95.7
X113.02Y-115.06
X113.2Y-94.8
X113.5Y-87.75
X113.975Y-100.825
X114.235Y-73.407
X114.44Y-103.465
X114.5Y-81.75
X114.5Y-83.5
X115.0Y-92.3
X115.5Y-85.5
X116.197Y-83.197
X116.25Y-100.875
X116.758Y-83.694
X116.85Y-115.07
X116.9Y-92.3
X116.9Y-93.7
X117.04Y-99.08
X117.5Y-83.8
X119.5Y-75.7
X120.54Y-87.16
X121.3Y-104.45
X121.8Y-107.2
X122.06Y-80.81
X122.093Y-97.32
X122.1Y-92.3
X122.32Y-87.12
X122.525Y-76.2
X122.73Y-102.42
X122.82Y-96.699
X122.975Y-100.774
X123.0Y-74.0
X123.0Y-77.8
X123.1Y-79.5
X123.66Y-118.9
X124.2Y-115.11
X124.3Y-73.4
X124.3Y-74.6
X124.599Y-91.2
X124.6Y-107.3
X124.8Y-83.8
X124.97Y-78.55
X125.0Y-88.2
X125.05Y-93.751
X125.21Y-82.61
X125.35Y-96.7
X125.54Y-101.01
X125.775Y-102.475
X126.47Y-105.0
X126.8Y-118.8
X127.092Y-103.259
X127.2Y-107.4
X127.3Y-73.4
X127.623Y-103.79
X127.8Y-74.5
X128.0Y-89.8
X128.075Y-94.05
X128.102Y-102.225
X128.175Y-91.7
X128.56Y-100.675
X128.7Y-89.1
X128.78Y-101.825
X128.8Y-112.9
X128.8Y-115.4
X128.85Y-104.2
X129.2Y-73.3
X129.5Y-93.9
X130.519Y-106.42
X131.3Y-109.9
X131.33Y-74.24
X131.41Y-119.8
X132.125Y-93.925
X132.5Y-110.45
X132.5Y-112.9
X132.6Y-75.6
X132.6Y-76.8
X132.6Y-78.1
X132.6Y-79.2
X132.925Y-94.042
X133.125Y-95.03
X133.573Y-100.77
X133.6Y-79.2
X134.019Y-88.784
X134.175Y-105.859
X134.7Y-79.2
X134.7Y-110.2
X135.3Y-115.4
X135.8Y-86.1
X135.853Y-95.022
X136.5Y-79.4
X136.546Y-95.345
X136.55Y-78.17
X136.7Y-82.55
X136.9Y-83.7
X136.907Y-77.494
X137.1Y-81.9
X137.35Y-81.01
X137.41Y-71.83
X138.125Y-86.49
X138.125Y-87.42
X138.194Y-106.506
X138.225Y-107.45
X138.578Y-90.74
X138.7Y-115.5
X138.75Y-101.25
X138.755Y-96.2
X138.775Y-91.569
X138.9Y-102.375
X139.257Y-90.043
X139.351Y-76.979
X139.37Y-77.81
X139.5Y-100.3
X140.1Y-107.325
X140.37Y-77.83
X140.98Y-107.87
X141.4Y-74.2
X141.6Y-120.375
X141.725Y-99.725
X141.812Y-101.143
X141.89Y-73.04
X142.24Y-107.75
X142.36Y-92.751
X142.4Y-82.725
X142.5Y-81.126
X142.6Y-115.0
X142.609Y-87.905
X142.7Y-78.3
X142.7Y-97.774
X142.824Y-104.667
X143.152Y-88.452
X143.17Y-92.59
X143.262Y-80.993
X143.326Y-79.48
X143.4Y-97.374
X143.5Y-83.3
X143.574Y-104.667
X143.6Y-82.3
X143.84Y-100.43
X144.0Y-81.126
X144.09Y-107.84
X144.3Y-97.0
X144.904Y-87.374
X144.999Y-90.45
X145.025Y-80.0
X145.434Y-87.905
X145.54Y-112.76
X145.55Y-99.432
X145.772Y-95.5
X145.8Y-105.2
X146.0Y-96.7
X146.1Y-79.2
X146.4Y-76.1
X146.4Y-77.2
X146.4Y-78.1
X146.506Y-88.51
X146.8Y-80.4
X146.8Y-97.5
X147.13Y-84.1
X147.4Y-100.2
X147.4Y-120.1
X147.42Y-112.78
X148.2Y-92.879
X148.399Y-97.269
X148.5Y-115.9
X148.6Y-113.4
X148.928Y-91.613
X149.0Y-86.8
X149.083Y-108.052
X149.6Y-86.2
X149.7Y-105.7
X150.0Y-116.9
X150.025Y-104.425
X150.275Y-77.775
X150.3Y-88.9
X150.368Y-90.899
X150.925Y-99.625
X150.95Y-77.8
X151.575Y-77.8
X151.6Y-97.501
X152.09Y-82.751
X152.27Y-74.01
X153.27Y-100.69
X153.41Y-74.04
X153.9Y-86.5
X154.0Y-82.0
X154.328Y-91.58
X154.525Y-100.675
X155.56Y-100.72
X155.7Y-96.8
X156.0Y-85.8
X156.344Y-89.995
X156.64Y-88.24
X157.43Y-100.7
X157.638Y-99.782
X157.65Y-115.975
X157.707Y-91.174
X158.86Y-72.05
X158.874Y-91.58
X158.925Y-109.725
X160.0Y-90.2
X160.475Y-97.45
X160.8Y-117.4
X161.2Y-85.8
X161.39Y-100.72
X161.7Y-88.6
X161.7Y-89.6
X161.95Y-97.501
X162.164Y-100.758
X162.4Y-78.8
X162.6Y-85.8
X162.6Y-88.7
X162.928Y-100.807
X163.1Y-113.3
X163.1Y-114.9
X163.452Y-101.343
X163.5Y-88.7
X163.5Y-89.6
X163.8Y-85.8
X164.056Y-92.222
X164.39Y-97.09
X165.3Y-106.8
X165.53Y-97.501
X165.54Y-72.73
X165.7Y-113.3
X165.7Y-114.9
X166.61Y-90.89
X166.711Y-96.851
X166.85Y-96.115
X167.0Y-117.4
X167.4Y-84.0
X168.225Y-102.325
X168.85Y-101.724
X169.175Y-97.075
X169.4Y-106.7
X170.55Y-89.925
X170.9Y-72.7
X170.9Y-73.5
X170.955Y-104.095
X171.2Y-90.5
X171.375Y-102.149
X171.485Y-104.625
X171.865Y-105.296
X172.0Y-72.7
X172.0Y-73.5
X172.0Y-82.1
X172.0Y-107.6
X172.395Y-104.765
X172.65Y-91.4
X172.86Y-107.77
X173.075Y-100.598
X173.2Y-72.7
X173.2Y-73.5
X173.2Y-95.9
X173.51Y-102.94
X173.52Y-91.425
X173.53Y-84.7
X173.825Y-100.598
X174.2Y-113.3
X174.34Y-91.425
X174.4Y-95.9
X174.8Y-72.7
X174.8Y-73.5
X174.83Y-108.02
X174.947Y-88.443
X175.16Y-91.28
X175.5Y-95.9
X175.513Y-87.877
X176.4Y-83.5
X176.76Y-84.82
X176.795Y-82.695
X176.8Y-95.9
X176.84Y-100.99
X177.264Y-91.19
X177.71Y-120.35
X178.1Y-95.9
X178.284Y-104.088
X178.3Y-91.21
X178.8Y-100.862
X178.814Y-103.558
X179.0Y-70.9
X179.2Y-95.9
X179.65Y-100.82
X180.352Y-91.284
X180.4Y-95.9
X180.41Y-99.19
X180.6Y-78.16
X180.75Y-105.454
X180.895Y-100.84
X181.365Y-94.974
X181.47Y-104.16
X181.56Y-91.19
X181.6Y-96.066
X181.79Y-107.71
X181.79Y-112.06
X181.86Y-120.52
X181.88Y-104.88
X181.93Y-117.17
X182.3Y-79.3
X182.59Y-88.74
X183.076Y-90.775
X183.49Y-71.025
X183.69Y-78.14
X183.8Y-96.624
X183.8Y-99.25
X183.808Y-94.242
X184.1Y-80.6
X184.524Y-100.8
X184.6Y-91.2
X184.7Y-82.9
X184.8Y-76.1
X185.025Y-89.5
X185.255Y-97.236
X185.35Y-91.2
X185.826Y-102.033
X185.92Y-94.09
X185.928Y-93.228
X186.002Y-92.342
X186.038Y-96.222
X186.088Y-91.328
X186.167Y-95.467
X186.7Y-80.2
X186.88Y-97.52
X187.4Y-91.3
X188.3Y-91.3
X188.4Y-78.6
X188.772Y-95.472
X189.13Y-98.993
X189.181Y-92.631
X189.2Y-81.6
X189.3Y-88.8
X189.358Y-97.208
X189.4Y-91.2
X189.42Y-71.85
X189.425Y-102.41
X189.6Y-109.3
X189.7Y-93.84
X190.39Y-89.68
X191.05Y-113.72
X191.18Y-98.38
X191.19Y-89.68
X191.19Y-95.18
X191.19Y-99.18
X191.5Y-115.48
X191.613Y-102.35
X191.962Y-91.343
X191.99Y-96.78
X191.99Y-99.17
X192.528Y-90.777
X192.766Y-95.18
X192.775Y-114.4
X192.787Y-96.78
X192.787Y-98.38
X192.787Y-99.18
X192.79Y-95.97
X193.187Y-93.527
X193.25Y-109.221
X193.587Y-92.273
X193.587Y-95.98
X193.59Y-98.38
X193.59Y-99.18
X193.7Y-80.3
X193.96Y-108.98
X194.38Y-99.18
X194.387Y-92.273
X194.39Y-95.98
X194.39Y-96.78
X194.65Y-79.625
X194.762Y-100.8
X195.06Y-114.5
X195.12Y-103.14
X195.188Y-99.18
X195.19Y-95.18
X195.19Y-95.98
X195.19Y-98.38
X195.218Y-84.53
X195.218Y-85.33
X195.57Y-108.52
X195.63Y-71.75
X195.76Y-81.784
X195.98Y-95.18
X195.99Y-95.98
X195.997Y-109.65
X196.23Y-82.368
X196.275Y-73.975
X196.275Y-80.05
X196.565Y-101.019
X196.67Y-114.6
X196.7Y-78.95
X196.745Y-109.702
X196.863Y-96.925
X196.925Y-79.675
X197.12Y-82.501
X197.12Y-85.058
X197.29Y-108.49
X197.315Y-101.019
X197.34Y-73.544
X197.429Y-96.36
X197.83Y-114.38
X197.92Y-82.501
X197.92Y-85.058
X198.124Y-96.079
X198.14Y-73.544
X198.4Y-91.15
X198.51Y-108.51
X198.722Y-103.876
X198.988Y-84.916
X199.025Y-79.575
X199.14Y-109.73
X199.34Y-114.1
X199.375Y-89.575
X199.518Y-85.446
X199.85Y-80.075
X200.15Y-109.67
X200.71Y-107.75
X200.725Y-121.725
X200.975Y-94.15
X201.0Y-93.25
X201.05Y-95.1
X201.08Y-103.24
X201.175Y-100.747
X201.305Y-101.485
X201.61Y-77.23
X201.76Y-75.25
X202.475Y-91.0
X202.575Y-95.2
X202.575Y-96.35
X202.575Y-97.3
X204.125Y-102.225
X204.16Y-97.98
X204.395Y-98.692
X204.48Y-90.666
X205.131Y-104.476
X205.28Y-90.666
X205.3Y-99.7
X205.65Y-84.75
X205.68Y-72.22
X205.73Y-76.86
X205.73Y-80.43
X206.03Y-103.236
X207.14Y-101.023
X207.18Y-94.627
X207.418Y-92.286
X207.447Y-93.653
X207.456Y-95.324
X207.51Y-112.85
X207.55Y-122.3
X207.56Y-108.2
X207.75Y-103.81
X207.94Y-101.023
X208.329Y-95.94
X208.339Y-98.4
X209.17Y-80.95
X209.82Y-84.31
X209.823Y-106.233
X209.87Y-87.62
X210.525Y-86.7
X210.7Y-93.1
X211.125Y-98.3
X211.2Y-100.4
X212.65Y-112.84
X213.02Y-74.69
T2
X198.761Y-102.849
T3
X192.94Y-76.6
X193.34Y-75.9
X194.14Y-75.9
X194.54Y-76.6
X194.94Y-75.9
X195.34Y-76.6
X196.14Y-76.6
X196.54Y-75.9
X196.94Y-76.6
X197.34Y-75.9
X198.14Y-75.9
X198.54Y-76.6
T5
X142.45Y-109.726
X142.95Y-111.226
X144.45Y-109.726
X145.45Y-111.226
X146.45Y-109.726
X147.45Y-111.226
X148.45Y-109.726
X149.95Y-111.226
X150.45Y-109.726
X166.83Y-109.806
X167.33Y-111.306
X168.83Y-109.806
X169.83Y-111.306
X170.83Y-109.806
X171.83Y-111.306
X172.83Y-109.806
X174.33Y-111.306
X174.83Y-109.806
T6
X110.515Y-108.5
X111.785Y-105.96
X113.055Y-108.5
X114.325Y-105.96
X115.595Y-108.5
X116.865Y-105.96
X118.135Y-108.5
X119.405Y-105.96
T7
X108.635Y-119.93
X111.175Y-118.23
X118.745Y-119.93
X121.285Y-118.23
T8
X107.085Y-111.8
X122.835Y-111.8
T9
X188.172Y-118.4
X202.672Y-118.4
T10
X140.05Y-117.326
X152.85Y-117.326
X164.43Y-117.406
X177.23Y-117.406
T11
X140.05Y-110.726
X152.85Y-110.726
X164.43Y-110.806
X177.23Y-110.806
T12
X188.172Y-112.4
X202.672Y-112.4
T4
G00X191.25Y-71.91
M15
G01X191.25Y-71.31
M16
G05
G00X191.61Y-76.31
M15
G01X191.61Y-75.71
M16
G05
G00X199.87Y-76.31
M15
G01X199.87Y-75.71
M16
G05
G00X200.23Y-71.91
M15
G01X200.23Y-71.31
M16
G05
T0
M30
