G04 #@! TF.GenerationSoftware,KiCad,Pcbnew,(6.0.7)*
G04 #@! TF.CreationDate,2022-11-24T18:50:25+03:00*
G04 #@! TF.ProjectId,USB_HUB_ADAPTER,5553425f-4855-4425-9f41-444150544552,rev?*
G04 #@! TF.SameCoordinates,Original*
G04 #@! TF.FileFunction,Legend,Top*
G04 #@! TF.FilePolarity,Positive*
%FSLAX46Y46*%
G04 Gerber Fmt 4.6, Leading zero omitted, Abs format (unit mm)*
G04 Created by KiCad (PCBNEW (6.0.7)) date 2022-11-24 18:50:25*
%MOMM*%
%LPD*%
G01*
G04 APERTURE LIST*
%ADD10C,0.150000*%
%ADD11C,0.125000*%
%ADD12C,0.120000*%
%ADD13C,0.100000*%
%ADD14C,0.200000*%
%ADD15C,0.300000*%
%ADD16C,0.127000*%
%ADD17C,0.254000*%
G04 APERTURE END LIST*
D10*
X166464285Y-101135714D02*
X166435714Y-101173809D01*
X166350000Y-101211904D01*
X166292857Y-101211904D01*
X166207142Y-101173809D01*
X166150000Y-101097619D01*
X166121428Y-101021428D01*
X166092857Y-100869047D01*
X166092857Y-100754761D01*
X166121428Y-100602380D01*
X166150000Y-100526190D01*
X166207142Y-100450000D01*
X166292857Y-100411904D01*
X166350000Y-100411904D01*
X166435714Y-100450000D01*
X166464285Y-100488095D01*
X166664285Y-100411904D02*
X167035714Y-100411904D01*
X166835714Y-100716666D01*
X166921428Y-100716666D01*
X166978571Y-100754761D01*
X167007142Y-100792857D01*
X167035714Y-100869047D01*
X167035714Y-101059523D01*
X167007142Y-101135714D01*
X166978571Y-101173809D01*
X166921428Y-101211904D01*
X166750000Y-101211904D01*
X166692857Y-101173809D01*
X166664285Y-101135714D01*
X167378571Y-100754761D02*
X167321428Y-100716666D01*
X167292857Y-100678571D01*
X167264285Y-100602380D01*
X167264285Y-100564285D01*
X167292857Y-100488095D01*
X167321428Y-100450000D01*
X167378571Y-100411904D01*
X167492857Y-100411904D01*
X167550000Y-100450000D01*
X167578571Y-100488095D01*
X167607142Y-100564285D01*
X167607142Y-100602380D01*
X167578571Y-100678571D01*
X167550000Y-100716666D01*
X167492857Y-100754761D01*
X167378571Y-100754761D01*
X167321428Y-100792857D01*
X167292857Y-100830952D01*
X167264285Y-100907142D01*
X167264285Y-101059523D01*
X167292857Y-101135714D01*
X167321428Y-101173809D01*
X167378571Y-101211904D01*
X167492857Y-101211904D01*
X167550000Y-101173809D01*
X167578571Y-101135714D01*
X167607142Y-101059523D01*
X167607142Y-100907142D01*
X167578571Y-100830952D01*
X167550000Y-100792857D01*
X167492857Y-100754761D01*
X132137563Y-110413502D02*
X132184704Y-110406768D01*
X132272250Y-110440440D01*
X132312656Y-110480846D01*
X132346328Y-110568392D01*
X132332859Y-110662673D01*
X132299188Y-110736751D01*
X132211641Y-110864704D01*
X132130829Y-110945516D01*
X132002876Y-111033062D01*
X131928798Y-111066734D01*
X131834517Y-111080203D01*
X131746971Y-111046531D01*
X131706565Y-111006125D01*
X131672893Y-110918578D01*
X131679627Y-110871438D01*
X131484331Y-110783891D02*
X131201489Y-110501049D01*
X131949001Y-110117191D01*
X131383316Y-109551505D02*
X131625753Y-109793942D01*
X131504534Y-109672724D02*
X130938849Y-110238409D01*
X131060067Y-110198003D01*
X131154348Y-110184534D01*
X131221692Y-110198003D01*
X141125714Y-98335714D02*
X141163809Y-98364285D01*
X141201904Y-98450000D01*
X141201904Y-98507142D01*
X141163809Y-98592857D01*
X141087619Y-98650000D01*
X141011428Y-98678571D01*
X140859047Y-98707142D01*
X140744761Y-98707142D01*
X140592380Y-98678571D01*
X140516190Y-98650000D01*
X140440000Y-98592857D01*
X140401904Y-98507142D01*
X140401904Y-98450000D01*
X140440000Y-98364285D01*
X140478095Y-98335714D01*
X141201904Y-98050000D02*
X141201904Y-97935714D01*
X141163809Y-97878571D01*
X141125714Y-97850000D01*
X141011428Y-97792857D01*
X140859047Y-97764285D01*
X140554285Y-97764285D01*
X140478095Y-97792857D01*
X140440000Y-97821428D01*
X140401904Y-97878571D01*
X140401904Y-97992857D01*
X140440000Y-98050000D01*
X140478095Y-98078571D01*
X140554285Y-98107142D01*
X140744761Y-98107142D01*
X140820952Y-98078571D01*
X140859047Y-98050000D01*
X140897142Y-97992857D01*
X140897142Y-97878571D01*
X140859047Y-97821428D01*
X140820952Y-97792857D01*
X140744761Y-97764285D01*
X140401904Y-97392857D02*
X140401904Y-97335714D01*
X140440000Y-97278571D01*
X140478095Y-97250000D01*
X140554285Y-97221428D01*
X140706666Y-97192857D01*
X140897142Y-97192857D01*
X141049523Y-97221428D01*
X141125714Y-97250000D01*
X141163809Y-97278571D01*
X141201904Y-97335714D01*
X141201904Y-97392857D01*
X141163809Y-97450000D01*
X141125714Y-97478571D01*
X141049523Y-97507142D01*
X140897142Y-97535714D01*
X140706666Y-97535714D01*
X140554285Y-97507142D01*
X140478095Y-97478571D01*
X140440000Y-97450000D01*
X140401904Y-97392857D01*
X148534285Y-91220714D02*
X148505714Y-91258809D01*
X148420000Y-91296904D01*
X148362857Y-91296904D01*
X148277142Y-91258809D01*
X148220000Y-91182619D01*
X148191428Y-91106428D01*
X148162857Y-90954047D01*
X148162857Y-90839761D01*
X148191428Y-90687380D01*
X148220000Y-90611190D01*
X148277142Y-90535000D01*
X148362857Y-90496904D01*
X148420000Y-90496904D01*
X148505714Y-90535000D01*
X148534285Y-90573095D01*
X148877142Y-90839761D02*
X148820000Y-90801666D01*
X148791428Y-90763571D01*
X148762857Y-90687380D01*
X148762857Y-90649285D01*
X148791428Y-90573095D01*
X148820000Y-90535000D01*
X148877142Y-90496904D01*
X148991428Y-90496904D01*
X149048571Y-90535000D01*
X149077142Y-90573095D01*
X149105714Y-90649285D01*
X149105714Y-90687380D01*
X149077142Y-90763571D01*
X149048571Y-90801666D01*
X148991428Y-90839761D01*
X148877142Y-90839761D01*
X148820000Y-90877857D01*
X148791428Y-90915952D01*
X148762857Y-90992142D01*
X148762857Y-91144523D01*
X148791428Y-91220714D01*
X148820000Y-91258809D01*
X148877142Y-91296904D01*
X148991428Y-91296904D01*
X149048571Y-91258809D01*
X149077142Y-91220714D01*
X149105714Y-91144523D01*
X149105714Y-90992142D01*
X149077142Y-90915952D01*
X149048571Y-90877857D01*
X148991428Y-90839761D01*
X149391428Y-91296904D02*
X149505714Y-91296904D01*
X149562857Y-91258809D01*
X149591428Y-91220714D01*
X149648571Y-91106428D01*
X149677142Y-90954047D01*
X149677142Y-90649285D01*
X149648571Y-90573095D01*
X149620000Y-90535000D01*
X149562857Y-90496904D01*
X149448571Y-90496904D01*
X149391428Y-90535000D01*
X149362857Y-90573095D01*
X149334285Y-90649285D01*
X149334285Y-90839761D01*
X149362857Y-90915952D01*
X149391428Y-90954047D01*
X149448571Y-90992142D01*
X149562857Y-90992142D01*
X149620000Y-90954047D01*
X149648571Y-90915952D01*
X149677142Y-90839761D01*
X105350000Y-113811904D02*
X105350000Y-114383333D01*
X105321428Y-114497619D01*
X105264285Y-114573809D01*
X105178571Y-114611904D01*
X105121428Y-114611904D01*
X105892857Y-113811904D02*
X105778571Y-113811904D01*
X105721428Y-113850000D01*
X105692857Y-113888095D01*
X105635714Y-114002380D01*
X105607142Y-114154761D01*
X105607142Y-114459523D01*
X105635714Y-114535714D01*
X105664285Y-114573809D01*
X105721428Y-114611904D01*
X105835714Y-114611904D01*
X105892857Y-114573809D01*
X105921428Y-114535714D01*
X105950000Y-114459523D01*
X105950000Y-114269047D01*
X105921428Y-114192857D01*
X105892857Y-114154761D01*
X105835714Y-114116666D01*
X105721428Y-114116666D01*
X105664285Y-114154761D01*
X105635714Y-114192857D01*
X105607142Y-114269047D01*
X143285714Y-88335714D02*
X143323809Y-88364285D01*
X143361904Y-88450000D01*
X143361904Y-88507142D01*
X143323809Y-88592857D01*
X143247619Y-88650000D01*
X143171428Y-88678571D01*
X143019047Y-88707142D01*
X142904761Y-88707142D01*
X142752380Y-88678571D01*
X142676190Y-88650000D01*
X142600000Y-88592857D01*
X142561904Y-88507142D01*
X142561904Y-88450000D01*
X142600000Y-88364285D01*
X142638095Y-88335714D01*
X142904761Y-87992857D02*
X142866666Y-88050000D01*
X142828571Y-88078571D01*
X142752380Y-88107142D01*
X142714285Y-88107142D01*
X142638095Y-88078571D01*
X142600000Y-88050000D01*
X142561904Y-87992857D01*
X142561904Y-87878571D01*
X142600000Y-87821428D01*
X142638095Y-87792857D01*
X142714285Y-87764285D01*
X142752380Y-87764285D01*
X142828571Y-87792857D01*
X142866666Y-87821428D01*
X142904761Y-87878571D01*
X142904761Y-87992857D01*
X142942857Y-88050000D01*
X142980952Y-88078571D01*
X143057142Y-88107142D01*
X143209523Y-88107142D01*
X143285714Y-88078571D01*
X143323809Y-88050000D01*
X143361904Y-87992857D01*
X143361904Y-87878571D01*
X143323809Y-87821428D01*
X143285714Y-87792857D01*
X143209523Y-87764285D01*
X143057142Y-87764285D01*
X142980952Y-87792857D01*
X142942857Y-87821428D01*
X142904761Y-87878571D01*
X142904761Y-87421428D02*
X142866666Y-87478571D01*
X142828571Y-87507142D01*
X142752380Y-87535714D01*
X142714285Y-87535714D01*
X142638095Y-87507142D01*
X142600000Y-87478571D01*
X142561904Y-87421428D01*
X142561904Y-87307142D01*
X142600000Y-87250000D01*
X142638095Y-87221428D01*
X142714285Y-87192857D01*
X142752380Y-87192857D01*
X142828571Y-87221428D01*
X142866666Y-87250000D01*
X142904761Y-87307142D01*
X142904761Y-87421428D01*
X142942857Y-87478571D01*
X142980952Y-87507142D01*
X143057142Y-87535714D01*
X143209523Y-87535714D01*
X143285714Y-87507142D01*
X143323809Y-87478571D01*
X143361904Y-87421428D01*
X143361904Y-87307142D01*
X143323809Y-87250000D01*
X143285714Y-87221428D01*
X143209523Y-87192857D01*
X143057142Y-87192857D01*
X142980952Y-87221428D01*
X142942857Y-87250000D01*
X142904761Y-87307142D01*
X141294285Y-101035714D02*
X141265714Y-101073809D01*
X141180000Y-101111904D01*
X141122857Y-101111904D01*
X141037142Y-101073809D01*
X140980000Y-100997619D01*
X140951428Y-100921428D01*
X140922857Y-100769047D01*
X140922857Y-100654761D01*
X140951428Y-100502380D01*
X140980000Y-100426190D01*
X141037142Y-100350000D01*
X141122857Y-100311904D01*
X141180000Y-100311904D01*
X141265714Y-100350000D01*
X141294285Y-100388095D01*
X141808571Y-100311904D02*
X141694285Y-100311904D01*
X141637142Y-100350000D01*
X141608571Y-100388095D01*
X141551428Y-100502380D01*
X141522857Y-100654761D01*
X141522857Y-100959523D01*
X141551428Y-101035714D01*
X141580000Y-101073809D01*
X141637142Y-101111904D01*
X141751428Y-101111904D01*
X141808571Y-101073809D01*
X141837142Y-101035714D01*
X141865714Y-100959523D01*
X141865714Y-100769047D01*
X141837142Y-100692857D01*
X141808571Y-100654761D01*
X141751428Y-100616666D01*
X141637142Y-100616666D01*
X141580000Y-100654761D01*
X141551428Y-100692857D01*
X141522857Y-100769047D01*
X142408571Y-100311904D02*
X142122857Y-100311904D01*
X142094285Y-100692857D01*
X142122857Y-100654761D01*
X142180000Y-100616666D01*
X142322857Y-100616666D01*
X142380000Y-100654761D01*
X142408571Y-100692857D01*
X142437142Y-100769047D01*
X142437142Y-100959523D01*
X142408571Y-101035714D01*
X142380000Y-101073809D01*
X142322857Y-101111904D01*
X142180000Y-101111904D01*
X142122857Y-101073809D01*
X142094285Y-101035714D01*
X171414878Y-85085360D02*
X171421612Y-85132501D01*
X171387940Y-85220047D01*
X171347534Y-85260453D01*
X171259988Y-85294125D01*
X171165707Y-85280656D01*
X171091629Y-85246985D01*
X170963676Y-85159438D01*
X170882864Y-85078626D01*
X170795318Y-84950673D01*
X170761646Y-84876595D01*
X170748177Y-84782314D01*
X170781849Y-84694768D01*
X170822255Y-84654362D01*
X170909802Y-84620690D01*
X170956942Y-84627424D01*
X171872814Y-84735174D02*
X171630377Y-84977611D01*
X171751595Y-84856392D02*
X171185910Y-84290707D01*
X171226316Y-84411925D01*
X171239785Y-84506206D01*
X171226316Y-84573550D01*
X171448550Y-84028067D02*
X171711189Y-83765428D01*
X171785267Y-84122348D01*
X171845876Y-84061739D01*
X171913220Y-84048270D01*
X171960360Y-84055005D01*
X172034438Y-84088676D01*
X172169125Y-84223363D01*
X172202797Y-84297441D01*
X172209531Y-84344582D01*
X172196062Y-84411925D01*
X172074844Y-84533143D01*
X172007501Y-84546612D01*
X171960360Y-84539878D01*
X166464285Y-91035714D02*
X166435714Y-91073809D01*
X166350000Y-91111904D01*
X166292857Y-91111904D01*
X166207142Y-91073809D01*
X166150000Y-90997619D01*
X166121428Y-90921428D01*
X166092857Y-90769047D01*
X166092857Y-90654761D01*
X166121428Y-90502380D01*
X166150000Y-90426190D01*
X166207142Y-90350000D01*
X166292857Y-90311904D01*
X166350000Y-90311904D01*
X166435714Y-90350000D01*
X166464285Y-90388095D01*
X167035714Y-91111904D02*
X166692857Y-91111904D01*
X166864285Y-91111904D02*
X166864285Y-90311904D01*
X166807142Y-90426190D01*
X166750000Y-90502380D01*
X166692857Y-90540476D01*
X167321428Y-91111904D02*
X167435714Y-91111904D01*
X167492857Y-91073809D01*
X167521428Y-91035714D01*
X167578571Y-90921428D01*
X167607142Y-90769047D01*
X167607142Y-90464285D01*
X167578571Y-90388095D01*
X167550000Y-90350000D01*
X167492857Y-90311904D01*
X167378571Y-90311904D01*
X167321428Y-90350000D01*
X167292857Y-90388095D01*
X167264285Y-90464285D01*
X167264285Y-90654761D01*
X167292857Y-90730952D01*
X167321428Y-90769047D01*
X167378571Y-90807142D01*
X167492857Y-90807142D01*
X167550000Y-90769047D01*
X167578571Y-90730952D01*
X167607142Y-90654761D01*
X201424285Y-102925714D02*
X201395714Y-102963809D01*
X201310000Y-103001904D01*
X201252857Y-103001904D01*
X201167142Y-102963809D01*
X201110000Y-102887619D01*
X201081428Y-102811428D01*
X201052857Y-102659047D01*
X201052857Y-102544761D01*
X201081428Y-102392380D01*
X201110000Y-102316190D01*
X201167142Y-102240000D01*
X201252857Y-102201904D01*
X201310000Y-102201904D01*
X201395714Y-102240000D01*
X201424285Y-102278095D01*
X201938571Y-102468571D02*
X201938571Y-103001904D01*
X201795714Y-102163809D02*
X201652857Y-102735238D01*
X202024285Y-102735238D01*
X202567142Y-103001904D02*
X202224285Y-103001904D01*
X202395714Y-103001904D02*
X202395714Y-102201904D01*
X202338571Y-102316190D01*
X202281428Y-102392380D01*
X202224285Y-102430476D01*
X195184285Y-81155714D02*
X195155714Y-81193809D01*
X195070000Y-81231904D01*
X195012857Y-81231904D01*
X194927142Y-81193809D01*
X194870000Y-81117619D01*
X194841428Y-81041428D01*
X194812857Y-80889047D01*
X194812857Y-80774761D01*
X194841428Y-80622380D01*
X194870000Y-80546190D01*
X194927142Y-80470000D01*
X195012857Y-80431904D01*
X195070000Y-80431904D01*
X195155714Y-80470000D01*
X195184285Y-80508095D01*
X195384285Y-80431904D02*
X195755714Y-80431904D01*
X195555714Y-80736666D01*
X195641428Y-80736666D01*
X195698571Y-80774761D01*
X195727142Y-80812857D01*
X195755714Y-80889047D01*
X195755714Y-81079523D01*
X195727142Y-81155714D01*
X195698571Y-81193809D01*
X195641428Y-81231904D01*
X195470000Y-81231904D01*
X195412857Y-81193809D01*
X195384285Y-81155714D01*
X195955714Y-80431904D02*
X196327142Y-80431904D01*
X196127142Y-80736666D01*
X196212857Y-80736666D01*
X196270000Y-80774761D01*
X196298571Y-80812857D01*
X196327142Y-80889047D01*
X196327142Y-81079523D01*
X196298571Y-81155714D01*
X196270000Y-81193809D01*
X196212857Y-81231904D01*
X196041428Y-81231904D01*
X195984285Y-81193809D01*
X195955714Y-81155714D01*
X134535714Y-106935714D02*
X134573809Y-106964285D01*
X134611904Y-107050000D01*
X134611904Y-107107142D01*
X134573809Y-107192857D01*
X134497619Y-107250000D01*
X134421428Y-107278571D01*
X134269047Y-107307142D01*
X134154761Y-107307142D01*
X134002380Y-107278571D01*
X133926190Y-107250000D01*
X133850000Y-107192857D01*
X133811904Y-107107142D01*
X133811904Y-107050000D01*
X133850000Y-106964285D01*
X133888095Y-106935714D01*
X133811904Y-106421428D02*
X133811904Y-106535714D01*
X133850000Y-106592857D01*
X133888095Y-106621428D01*
X134002380Y-106678571D01*
X134154761Y-106707142D01*
X134459523Y-106707142D01*
X134535714Y-106678571D01*
X134573809Y-106650000D01*
X134611904Y-106592857D01*
X134611904Y-106478571D01*
X134573809Y-106421428D01*
X134535714Y-106392857D01*
X134459523Y-106364285D01*
X134269047Y-106364285D01*
X134192857Y-106392857D01*
X134154761Y-106421428D01*
X134116666Y-106478571D01*
X134116666Y-106592857D01*
X134154761Y-106650000D01*
X134192857Y-106678571D01*
X134269047Y-106707142D01*
X134078571Y-105850000D02*
X134611904Y-105850000D01*
X133773809Y-105992857D02*
X134345238Y-106135714D01*
X134345238Y-105764285D01*
X161225714Y-116826428D02*
X161263809Y-116855000D01*
X161301904Y-116940714D01*
X161301904Y-116997857D01*
X161263809Y-117083571D01*
X161187619Y-117140714D01*
X161111428Y-117169285D01*
X160959047Y-117197857D01*
X160844761Y-117197857D01*
X160692380Y-117169285D01*
X160616190Y-117140714D01*
X160540000Y-117083571D01*
X160501904Y-116997857D01*
X160501904Y-116940714D01*
X160540000Y-116855000D01*
X160578095Y-116826428D01*
X161301904Y-116255000D02*
X161301904Y-116597857D01*
X161301904Y-116426428D02*
X160501904Y-116426428D01*
X160616190Y-116483571D01*
X160692380Y-116540714D01*
X160730476Y-116597857D01*
X160501904Y-115883571D02*
X160501904Y-115826428D01*
X160540000Y-115769285D01*
X160578095Y-115740714D01*
X160654285Y-115712142D01*
X160806666Y-115683571D01*
X160997142Y-115683571D01*
X161149523Y-115712142D01*
X161225714Y-115740714D01*
X161263809Y-115769285D01*
X161301904Y-115826428D01*
X161301904Y-115883571D01*
X161263809Y-115940714D01*
X161225714Y-115969285D01*
X161149523Y-115997857D01*
X160997142Y-116026428D01*
X160806666Y-116026428D01*
X160654285Y-115997857D01*
X160578095Y-115969285D01*
X160540000Y-115940714D01*
X160501904Y-115883571D01*
X160578095Y-115455000D02*
X160540000Y-115426428D01*
X160501904Y-115369285D01*
X160501904Y-115226428D01*
X160540000Y-115169285D01*
X160578095Y-115140714D01*
X160654285Y-115112142D01*
X160730476Y-115112142D01*
X160844761Y-115140714D01*
X161301904Y-115483571D01*
X161301904Y-115112142D01*
X205614285Y-92561904D02*
X205814285Y-93361904D01*
X206014285Y-92561904D01*
X206414285Y-92942857D02*
X206500000Y-92980952D01*
X206528571Y-93019047D01*
X206557142Y-93095238D01*
X206557142Y-93209523D01*
X206528571Y-93285714D01*
X206500000Y-93323809D01*
X206442857Y-93361904D01*
X206214285Y-93361904D01*
X206214285Y-92561904D01*
X206414285Y-92561904D01*
X206471428Y-92600000D01*
X206500000Y-92638095D01*
X206528571Y-92714285D01*
X206528571Y-92790476D01*
X206500000Y-92866666D01*
X206471428Y-92904761D01*
X206414285Y-92942857D01*
X206214285Y-92942857D01*
X206814285Y-92561904D02*
X206814285Y-93209523D01*
X206842857Y-93285714D01*
X206871428Y-93323809D01*
X206928571Y-93361904D01*
X207042857Y-93361904D01*
X207100000Y-93323809D01*
X207128571Y-93285714D01*
X207157142Y-93209523D01*
X207157142Y-92561904D01*
X207414285Y-93323809D02*
X207500000Y-93361904D01*
X207642857Y-93361904D01*
X207700000Y-93323809D01*
X207728571Y-93285714D01*
X207757142Y-93209523D01*
X207757142Y-93133333D01*
X207728571Y-93057142D01*
X207700000Y-93019047D01*
X207642857Y-92980952D01*
X207528571Y-92942857D01*
X207471428Y-92904761D01*
X207442857Y-92866666D01*
X207414285Y-92790476D01*
X207414285Y-92714285D01*
X207442857Y-92638095D01*
X207471428Y-92600000D01*
X207528571Y-92561904D01*
X207671428Y-92561904D01*
X207757142Y-92600000D01*
X208328571Y-93361904D02*
X207985714Y-93361904D01*
X208157142Y-93361904D02*
X208157142Y-92561904D01*
X208100000Y-92676190D01*
X208042857Y-92752380D01*
X207985714Y-92790476D01*
X130088561Y-107015499D02*
X130357935Y-106746125D01*
X129933671Y-107453231D02*
X130088561Y-107015499D01*
X129650829Y-107170389D01*
X129549813Y-107069374D02*
X129287174Y-106806734D01*
X129644094Y-106732656D01*
X129583485Y-106672047D01*
X129570016Y-106604703D01*
X129576751Y-106557563D01*
X129610422Y-106483485D01*
X129745109Y-106348798D01*
X129819187Y-106315126D01*
X129866328Y-106308392D01*
X129933671Y-106321861D01*
X130054890Y-106443079D01*
X130068358Y-106510422D01*
X130061624Y-106557563D01*
X176174771Y-84670710D02*
X176221912Y-84663976D01*
X176309458Y-84697648D01*
X176349864Y-84738054D01*
X176383536Y-84825600D01*
X176370067Y-84919881D01*
X176336396Y-84993959D01*
X176248849Y-85121912D01*
X176168037Y-85202724D01*
X176040084Y-85290270D01*
X175966006Y-85323942D01*
X175871725Y-85337411D01*
X175784179Y-85303739D01*
X175743773Y-85263333D01*
X175710101Y-85175786D01*
X175716835Y-85128646D01*
X175824585Y-84212774D02*
X176067022Y-84455211D01*
X175945803Y-84333993D02*
X175380118Y-84899678D01*
X175501336Y-84859272D01*
X175595617Y-84845803D01*
X175662961Y-84859272D01*
X175151150Y-84562961D02*
X175104009Y-84569695D01*
X175036666Y-84556226D01*
X174935651Y-84455211D01*
X174922182Y-84387867D01*
X174928916Y-84340727D01*
X174962588Y-84266649D01*
X175016463Y-84212774D01*
X175117478Y-84152165D01*
X175683164Y-84071353D01*
X175420524Y-83808713D01*
X149721904Y-107060687D02*
X148921904Y-107060687D01*
X148921904Y-106917830D01*
X148960000Y-106832115D01*
X149036190Y-106774972D01*
X149112380Y-106746401D01*
X149264761Y-106717830D01*
X149379047Y-106717830D01*
X149531428Y-106746401D01*
X149607619Y-106774972D01*
X149683809Y-106832115D01*
X149721904Y-106917830D01*
X149721904Y-107060687D01*
X148921904Y-106517830D02*
X148921904Y-106146401D01*
X149226666Y-106346401D01*
X149226666Y-106260687D01*
X149264761Y-106203544D01*
X149302857Y-106174972D01*
X149379047Y-106146401D01*
X149569523Y-106146401D01*
X149645714Y-106174972D01*
X149683809Y-106203544D01*
X149721904Y-106260687D01*
X149721904Y-106432115D01*
X149683809Y-106489258D01*
X149645714Y-106517830D01*
X171185714Y-88685714D02*
X171223809Y-88714285D01*
X171261904Y-88800000D01*
X171261904Y-88857142D01*
X171223809Y-88942857D01*
X171147619Y-89000000D01*
X171071428Y-89028571D01*
X170919047Y-89057142D01*
X170804761Y-89057142D01*
X170652380Y-89028571D01*
X170576190Y-89000000D01*
X170500000Y-88942857D01*
X170461904Y-88857142D01*
X170461904Y-88800000D01*
X170500000Y-88714285D01*
X170538095Y-88685714D01*
X170538095Y-88457142D02*
X170500000Y-88428571D01*
X170461904Y-88371428D01*
X170461904Y-88228571D01*
X170500000Y-88171428D01*
X170538095Y-88142857D01*
X170614285Y-88114285D01*
X170690476Y-88114285D01*
X170804761Y-88142857D01*
X171261904Y-88485714D01*
X171261904Y-88114285D01*
X170538095Y-87885714D02*
X170500000Y-87857142D01*
X170461904Y-87800000D01*
X170461904Y-87657142D01*
X170500000Y-87600000D01*
X170538095Y-87571428D01*
X170614285Y-87542857D01*
X170690476Y-87542857D01*
X170804761Y-87571428D01*
X171261904Y-87914285D01*
X171261904Y-87542857D01*
X187446904Y-88600000D02*
X187065952Y-88800000D01*
X187446904Y-88942857D02*
X186646904Y-88942857D01*
X186646904Y-88714285D01*
X186685000Y-88657142D01*
X186723095Y-88628571D01*
X186799285Y-88600000D01*
X186913571Y-88600000D01*
X186989761Y-88628571D01*
X187027857Y-88657142D01*
X187065952Y-88714285D01*
X187065952Y-88942857D01*
X186646904Y-88085714D02*
X186646904Y-88200000D01*
X186685000Y-88257142D01*
X186723095Y-88285714D01*
X186837380Y-88342857D01*
X186989761Y-88371428D01*
X187294523Y-88371428D01*
X187370714Y-88342857D01*
X187408809Y-88314285D01*
X187446904Y-88257142D01*
X187446904Y-88142857D01*
X187408809Y-88085714D01*
X187370714Y-88057142D01*
X187294523Y-88028571D01*
X187104047Y-88028571D01*
X187027857Y-88057142D01*
X186989761Y-88085714D01*
X186951666Y-88142857D01*
X186951666Y-88257142D01*
X186989761Y-88314285D01*
X187027857Y-88342857D01*
X187104047Y-88371428D01*
X205542857Y-89561904D02*
X205885714Y-89561904D01*
X205714285Y-90361904D02*
X205714285Y-89561904D01*
X206028571Y-89561904D02*
X206428571Y-90361904D01*
X206428571Y-89561904D02*
X206028571Y-90361904D01*
X206971428Y-90361904D02*
X206628571Y-90361904D01*
X206800000Y-90361904D02*
X206800000Y-89561904D01*
X206742857Y-89676190D01*
X206685714Y-89752380D01*
X206628571Y-89790476D01*
X207085714Y-90438095D02*
X207542857Y-90438095D01*
X207685714Y-90361904D02*
X207685714Y-89561904D01*
X207914285Y-89561904D01*
X207971428Y-89600000D01*
X208000000Y-89638095D01*
X208028571Y-89714285D01*
X208028571Y-89828571D01*
X208000000Y-89904761D01*
X207971428Y-89942857D01*
X207914285Y-89980952D01*
X207685714Y-89980952D01*
X208600000Y-90361904D02*
X208257142Y-90361904D01*
X208428571Y-90361904D02*
X208428571Y-89561904D01*
X208371428Y-89676190D01*
X208314285Y-89752380D01*
X208257142Y-89790476D01*
X200809285Y-96290714D02*
X200780714Y-96328809D01*
X200695000Y-96366904D01*
X200637857Y-96366904D01*
X200552142Y-96328809D01*
X200495000Y-96252619D01*
X200466428Y-96176428D01*
X200437857Y-96024047D01*
X200437857Y-95909761D01*
X200466428Y-95757380D01*
X200495000Y-95681190D01*
X200552142Y-95605000D01*
X200637857Y-95566904D01*
X200695000Y-95566904D01*
X200780714Y-95605000D01*
X200809285Y-95643095D01*
X201323571Y-95833571D02*
X201323571Y-96366904D01*
X201180714Y-95528809D02*
X201037857Y-96100238D01*
X201409285Y-96100238D01*
X201923571Y-95566904D02*
X201637857Y-95566904D01*
X201609285Y-95947857D01*
X201637857Y-95909761D01*
X201695000Y-95871666D01*
X201837857Y-95871666D01*
X201895000Y-95909761D01*
X201923571Y-95947857D01*
X201952142Y-96024047D01*
X201952142Y-96214523D01*
X201923571Y-96290714D01*
X201895000Y-96328809D01*
X201837857Y-96366904D01*
X201695000Y-96366904D01*
X201637857Y-96328809D01*
X201609285Y-96290714D01*
X178910000Y-107472904D02*
X178910000Y-108044333D01*
X178881428Y-108158619D01*
X178824285Y-108234809D01*
X178738571Y-108272904D01*
X178681428Y-108272904D01*
X179481428Y-107472904D02*
X179195714Y-107472904D01*
X179167142Y-107853857D01*
X179195714Y-107815761D01*
X179252857Y-107777666D01*
X179395714Y-107777666D01*
X179452857Y-107815761D01*
X179481428Y-107853857D01*
X179510000Y-107930047D01*
X179510000Y-108120523D01*
X179481428Y-108196714D01*
X179452857Y-108234809D01*
X179395714Y-108272904D01*
X179252857Y-108272904D01*
X179195714Y-108234809D01*
X179167142Y-108196714D01*
X189751904Y-76438571D02*
X188951904Y-76438571D01*
X188951904Y-76295714D01*
X188990000Y-76210000D01*
X189066190Y-76152857D01*
X189142380Y-76124285D01*
X189294761Y-76095714D01*
X189409047Y-76095714D01*
X189561428Y-76124285D01*
X189637619Y-76152857D01*
X189713809Y-76210000D01*
X189751904Y-76295714D01*
X189751904Y-76438571D01*
X189028095Y-75867142D02*
X188990000Y-75838571D01*
X188951904Y-75781428D01*
X188951904Y-75638571D01*
X188990000Y-75581428D01*
X189028095Y-75552857D01*
X189104285Y-75524285D01*
X189180476Y-75524285D01*
X189294761Y-75552857D01*
X189751904Y-75895714D01*
X189751904Y-75524285D01*
X188951904Y-74981428D02*
X188951904Y-75267142D01*
X189332857Y-75295714D01*
X189294761Y-75267142D01*
X189256666Y-75210000D01*
X189256666Y-75067142D01*
X189294761Y-75010000D01*
X189332857Y-74981428D01*
X189409047Y-74952857D01*
X189599523Y-74952857D01*
X189675714Y-74981428D01*
X189713809Y-75010000D01*
X189751904Y-75067142D01*
X189751904Y-75210000D01*
X189713809Y-75267142D01*
X189675714Y-75295714D01*
X139435714Y-90135714D02*
X139473809Y-90164285D01*
X139511904Y-90250000D01*
X139511904Y-90307142D01*
X139473809Y-90392857D01*
X139397619Y-90450000D01*
X139321428Y-90478571D01*
X139169047Y-90507142D01*
X139054761Y-90507142D01*
X138902380Y-90478571D01*
X138826190Y-90450000D01*
X138750000Y-90392857D01*
X138711904Y-90307142D01*
X138711904Y-90250000D01*
X138750000Y-90164285D01*
X138788095Y-90135714D01*
X139511904Y-89564285D02*
X139511904Y-89907142D01*
X139511904Y-89735714D02*
X138711904Y-89735714D01*
X138826190Y-89792857D01*
X138902380Y-89850000D01*
X138940476Y-89907142D01*
X139511904Y-88992857D02*
X139511904Y-89335714D01*
X139511904Y-89164285D02*
X138711904Y-89164285D01*
X138826190Y-89221428D01*
X138902380Y-89278571D01*
X138940476Y-89335714D01*
X187214285Y-92389404D02*
X187014285Y-92008452D01*
X186871428Y-92389404D02*
X186871428Y-91589404D01*
X187100000Y-91589404D01*
X187157142Y-91627500D01*
X187185714Y-91665595D01*
X187214285Y-91741785D01*
X187214285Y-91856071D01*
X187185714Y-91932261D01*
X187157142Y-91970357D01*
X187100000Y-92008452D01*
X186871428Y-92008452D01*
X187442857Y-91665595D02*
X187471428Y-91627500D01*
X187528571Y-91589404D01*
X187671428Y-91589404D01*
X187728571Y-91627500D01*
X187757142Y-91665595D01*
X187785714Y-91741785D01*
X187785714Y-91817976D01*
X187757142Y-91932261D01*
X187414285Y-92389404D01*
X187785714Y-92389404D01*
X188014285Y-91665595D02*
X188042857Y-91627500D01*
X188100000Y-91589404D01*
X188242857Y-91589404D01*
X188300000Y-91627500D01*
X188328571Y-91665595D01*
X188357142Y-91741785D01*
X188357142Y-91817976D01*
X188328571Y-91932261D01*
X187985714Y-92389404D01*
X188357142Y-92389404D01*
X188624404Y-105485714D02*
X188243452Y-105685714D01*
X188624404Y-105828571D02*
X187824404Y-105828571D01*
X187824404Y-105600000D01*
X187862500Y-105542857D01*
X187900595Y-105514285D01*
X187976785Y-105485714D01*
X188091071Y-105485714D01*
X188167261Y-105514285D01*
X188205357Y-105542857D01*
X188243452Y-105600000D01*
X188243452Y-105828571D01*
X187900595Y-105257142D02*
X187862500Y-105228571D01*
X187824404Y-105171428D01*
X187824404Y-105028571D01*
X187862500Y-104971428D01*
X187900595Y-104942857D01*
X187976785Y-104914285D01*
X188052976Y-104914285D01*
X188167261Y-104942857D01*
X188624404Y-105285714D01*
X188624404Y-104914285D01*
X187824404Y-104371428D02*
X187824404Y-104657142D01*
X188205357Y-104685714D01*
X188167261Y-104657142D01*
X188129166Y-104600000D01*
X188129166Y-104457142D01*
X188167261Y-104400000D01*
X188205357Y-104371428D01*
X188281547Y-104342857D01*
X188472023Y-104342857D01*
X188548214Y-104371428D01*
X188586309Y-104400000D01*
X188624404Y-104457142D01*
X188624404Y-104600000D01*
X188586309Y-104657142D01*
X188548214Y-104685714D01*
X175263561Y-88315499D02*
X175532935Y-88046125D01*
X175108671Y-88753231D02*
X175263561Y-88315499D01*
X174825829Y-88470389D01*
X175027859Y-87541048D02*
X175270296Y-87783485D01*
X175149077Y-87662267D02*
X174583392Y-88227952D01*
X174704610Y-88187546D01*
X174798891Y-88174077D01*
X174866235Y-88187546D01*
X135244285Y-95841904D02*
X135044285Y-95460952D01*
X134901428Y-95841904D02*
X134901428Y-95041904D01*
X135130000Y-95041904D01*
X135187142Y-95080000D01*
X135215714Y-95118095D01*
X135244285Y-95194285D01*
X135244285Y-95308571D01*
X135215714Y-95384761D01*
X135187142Y-95422857D01*
X135130000Y-95460952D01*
X134901428Y-95460952D01*
X135815714Y-95841904D02*
X135472857Y-95841904D01*
X135644285Y-95841904D02*
X135644285Y-95041904D01*
X135587142Y-95156190D01*
X135530000Y-95232380D01*
X135472857Y-95270476D01*
X136158571Y-95384761D02*
X136101428Y-95346666D01*
X136072857Y-95308571D01*
X136044285Y-95232380D01*
X136044285Y-95194285D01*
X136072857Y-95118095D01*
X136101428Y-95080000D01*
X136158571Y-95041904D01*
X136272857Y-95041904D01*
X136330000Y-95080000D01*
X136358571Y-95118095D01*
X136387142Y-95194285D01*
X136387142Y-95232380D01*
X136358571Y-95308571D01*
X136330000Y-95346666D01*
X136272857Y-95384761D01*
X136158571Y-95384761D01*
X136101428Y-95422857D01*
X136072857Y-95460952D01*
X136044285Y-95537142D01*
X136044285Y-95689523D01*
X136072857Y-95765714D01*
X136101428Y-95803809D01*
X136158571Y-95841904D01*
X136272857Y-95841904D01*
X136330000Y-95803809D01*
X136358571Y-95765714D01*
X136387142Y-95689523D01*
X136387142Y-95537142D01*
X136358571Y-95460952D01*
X136330000Y-95422857D01*
X136272857Y-95384761D01*
X200004285Y-93505714D02*
X199975714Y-93543809D01*
X199890000Y-93581904D01*
X199832857Y-93581904D01*
X199747142Y-93543809D01*
X199690000Y-93467619D01*
X199661428Y-93391428D01*
X199632857Y-93239047D01*
X199632857Y-93124761D01*
X199661428Y-92972380D01*
X199690000Y-92896190D01*
X199747142Y-92820000D01*
X199832857Y-92781904D01*
X199890000Y-92781904D01*
X199975714Y-92820000D01*
X200004285Y-92858095D01*
X200518571Y-93048571D02*
X200518571Y-93581904D01*
X200375714Y-92743809D02*
X200232857Y-93315238D01*
X200604285Y-93315238D01*
X200775714Y-92781904D02*
X201147142Y-92781904D01*
X200947142Y-93086666D01*
X201032857Y-93086666D01*
X201090000Y-93124761D01*
X201118571Y-93162857D01*
X201147142Y-93239047D01*
X201147142Y-93429523D01*
X201118571Y-93505714D01*
X201090000Y-93543809D01*
X201032857Y-93581904D01*
X200861428Y-93581904D01*
X200804285Y-93543809D01*
X200775714Y-93505714D01*
X160714285Y-100035714D02*
X160685714Y-100073809D01*
X160600000Y-100111904D01*
X160542857Y-100111904D01*
X160457142Y-100073809D01*
X160400000Y-99997619D01*
X160371428Y-99921428D01*
X160342857Y-99769047D01*
X160342857Y-99654761D01*
X160371428Y-99502380D01*
X160400000Y-99426190D01*
X160457142Y-99350000D01*
X160542857Y-99311904D01*
X160600000Y-99311904D01*
X160685714Y-99350000D01*
X160714285Y-99388095D01*
X161057142Y-99654761D02*
X161000000Y-99616666D01*
X160971428Y-99578571D01*
X160942857Y-99502380D01*
X160942857Y-99464285D01*
X160971428Y-99388095D01*
X161000000Y-99350000D01*
X161057142Y-99311904D01*
X161171428Y-99311904D01*
X161228571Y-99350000D01*
X161257142Y-99388095D01*
X161285714Y-99464285D01*
X161285714Y-99502380D01*
X161257142Y-99578571D01*
X161228571Y-99616666D01*
X161171428Y-99654761D01*
X161057142Y-99654761D01*
X161000000Y-99692857D01*
X160971428Y-99730952D01*
X160942857Y-99807142D01*
X160942857Y-99959523D01*
X160971428Y-100035714D01*
X161000000Y-100073809D01*
X161057142Y-100111904D01*
X161171428Y-100111904D01*
X161228571Y-100073809D01*
X161257142Y-100035714D01*
X161285714Y-99959523D01*
X161285714Y-99807142D01*
X161257142Y-99730952D01*
X161228571Y-99692857D01*
X161171428Y-99654761D01*
X161657142Y-99311904D02*
X161714285Y-99311904D01*
X161771428Y-99350000D01*
X161800000Y-99388095D01*
X161828571Y-99464285D01*
X161857142Y-99616666D01*
X161857142Y-99807142D01*
X161828571Y-99959523D01*
X161800000Y-100035714D01*
X161771428Y-100073809D01*
X161714285Y-100111904D01*
X161657142Y-100111904D01*
X161600000Y-100073809D01*
X161571428Y-100035714D01*
X161542857Y-99959523D01*
X161514285Y-99807142D01*
X161514285Y-99616666D01*
X161542857Y-99464285D01*
X161571428Y-99388095D01*
X161600000Y-99350000D01*
X161657142Y-99311904D01*
X151969289Y-96094771D02*
X151976023Y-96141912D01*
X151942351Y-96229458D01*
X151901945Y-96269864D01*
X151814399Y-96303536D01*
X151720118Y-96290067D01*
X151646040Y-96256396D01*
X151518087Y-96168849D01*
X151437275Y-96088037D01*
X151349729Y-95960084D01*
X151316057Y-95886006D01*
X151302588Y-95791725D01*
X151336260Y-95704179D01*
X151376666Y-95663773D01*
X151464213Y-95630101D01*
X151511353Y-95636835D01*
X151942351Y-95582961D02*
X151875008Y-95596429D01*
X151827867Y-95589695D01*
X151753790Y-95556023D01*
X151726852Y-95529086D01*
X151693180Y-95455008D01*
X151686446Y-95407867D01*
X151699915Y-95340524D01*
X151780727Y-95259712D01*
X151848071Y-95246243D01*
X151895211Y-95252977D01*
X151969289Y-95286649D01*
X151996226Y-95313587D01*
X152029898Y-95387664D01*
X152036632Y-95434805D01*
X152023164Y-95502148D01*
X151942351Y-95582961D01*
X151928883Y-95650304D01*
X151935617Y-95697445D01*
X151969289Y-95771522D01*
X152077038Y-95879272D01*
X152151116Y-95912944D01*
X152198257Y-95919678D01*
X152265600Y-95906209D01*
X152346412Y-95825397D01*
X152359881Y-95758054D01*
X152353147Y-95710913D01*
X152319475Y-95636835D01*
X152211725Y-95529086D01*
X152137648Y-95495414D01*
X152090507Y-95488680D01*
X152023164Y-95502148D01*
X152002961Y-95037478D02*
X152265600Y-94774839D01*
X152339678Y-95131759D01*
X152400287Y-95071150D01*
X152467631Y-95057681D01*
X152514771Y-95064416D01*
X152588849Y-95098087D01*
X152723536Y-95232774D01*
X152757208Y-95306852D01*
X152763942Y-95353993D01*
X152750473Y-95421336D01*
X152629255Y-95542554D01*
X152561912Y-95556023D01*
X152514771Y-95549289D01*
X201685714Y-93920000D02*
X201723809Y-93948571D01*
X201761904Y-94034285D01*
X201761904Y-94091428D01*
X201723809Y-94177142D01*
X201647619Y-94234285D01*
X201571428Y-94262857D01*
X201419047Y-94291428D01*
X201304761Y-94291428D01*
X201152380Y-94262857D01*
X201076190Y-94234285D01*
X201000000Y-94177142D01*
X200961904Y-94091428D01*
X200961904Y-94034285D01*
X201000000Y-93948571D01*
X201038095Y-93920000D01*
X201038095Y-93691428D02*
X201000000Y-93662857D01*
X200961904Y-93605714D01*
X200961904Y-93462857D01*
X201000000Y-93405714D01*
X201038095Y-93377142D01*
X201114285Y-93348571D01*
X201190476Y-93348571D01*
X201304761Y-93377142D01*
X201761904Y-93720000D01*
X201761904Y-93348571D01*
X164564285Y-79485714D02*
X164535714Y-79523809D01*
X164450000Y-79561904D01*
X164392857Y-79561904D01*
X164307142Y-79523809D01*
X164250000Y-79447619D01*
X164221428Y-79371428D01*
X164192857Y-79219047D01*
X164192857Y-79104761D01*
X164221428Y-78952380D01*
X164250000Y-78876190D01*
X164307142Y-78800000D01*
X164392857Y-78761904D01*
X164450000Y-78761904D01*
X164535714Y-78800000D01*
X164564285Y-78838095D01*
X164850000Y-79561904D02*
X164964285Y-79561904D01*
X165021428Y-79523809D01*
X165050000Y-79485714D01*
X165107142Y-79371428D01*
X165135714Y-79219047D01*
X165135714Y-78914285D01*
X165107142Y-78838095D01*
X165078571Y-78800000D01*
X165021428Y-78761904D01*
X164907142Y-78761904D01*
X164850000Y-78800000D01*
X164821428Y-78838095D01*
X164792857Y-78914285D01*
X164792857Y-79104761D01*
X164821428Y-79180952D01*
X164850000Y-79219047D01*
X164907142Y-79257142D01*
X165021428Y-79257142D01*
X165078571Y-79219047D01*
X165107142Y-79180952D01*
X165135714Y-79104761D01*
X165650000Y-78761904D02*
X165535714Y-78761904D01*
X165478571Y-78800000D01*
X165450000Y-78838095D01*
X165392857Y-78952380D01*
X165364285Y-79104761D01*
X165364285Y-79409523D01*
X165392857Y-79485714D01*
X165421428Y-79523809D01*
X165478571Y-79561904D01*
X165592857Y-79561904D01*
X165650000Y-79523809D01*
X165678571Y-79485714D01*
X165707142Y-79409523D01*
X165707142Y-79219047D01*
X165678571Y-79142857D01*
X165650000Y-79104761D01*
X165592857Y-79066666D01*
X165478571Y-79066666D01*
X165421428Y-79104761D01*
X165392857Y-79142857D01*
X165364285Y-79219047D01*
X144190714Y-104563544D02*
X144228809Y-104592115D01*
X144266904Y-104677830D01*
X144266904Y-104734972D01*
X144228809Y-104820687D01*
X144152619Y-104877830D01*
X144076428Y-104906401D01*
X143924047Y-104934972D01*
X143809761Y-104934972D01*
X143657380Y-104906401D01*
X143581190Y-104877830D01*
X143505000Y-104820687D01*
X143466904Y-104734972D01*
X143466904Y-104677830D01*
X143505000Y-104592115D01*
X143543095Y-104563544D01*
X143543095Y-104334972D02*
X143505000Y-104306401D01*
X143466904Y-104249258D01*
X143466904Y-104106401D01*
X143505000Y-104049258D01*
X143543095Y-104020687D01*
X143619285Y-103992115D01*
X143695476Y-103992115D01*
X143809761Y-104020687D01*
X144266904Y-104363544D01*
X144266904Y-103992115D01*
X144266904Y-103706401D02*
X144266904Y-103592115D01*
X144228809Y-103534972D01*
X144190714Y-103506401D01*
X144076428Y-103449258D01*
X143924047Y-103420687D01*
X143619285Y-103420687D01*
X143543095Y-103449258D01*
X143505000Y-103477830D01*
X143466904Y-103534972D01*
X143466904Y-103649258D01*
X143505000Y-103706401D01*
X143543095Y-103734972D01*
X143619285Y-103763544D01*
X143809761Y-103763544D01*
X143885952Y-103734972D01*
X143924047Y-103706401D01*
X143962142Y-103649258D01*
X143962142Y-103534972D01*
X143924047Y-103477830D01*
X143885952Y-103449258D01*
X143809761Y-103420687D01*
X132039285Y-87511904D02*
X131839285Y-87130952D01*
X131696428Y-87511904D02*
X131696428Y-86711904D01*
X131925000Y-86711904D01*
X131982142Y-86750000D01*
X132010714Y-86788095D01*
X132039285Y-86864285D01*
X132039285Y-86978571D01*
X132010714Y-87054761D01*
X131982142Y-87092857D01*
X131925000Y-87130952D01*
X131696428Y-87130952D01*
X132239285Y-86711904D02*
X132610714Y-86711904D01*
X132410714Y-87016666D01*
X132496428Y-87016666D01*
X132553571Y-87054761D01*
X132582142Y-87092857D01*
X132610714Y-87169047D01*
X132610714Y-87359523D01*
X132582142Y-87435714D01*
X132553571Y-87473809D01*
X132496428Y-87511904D01*
X132325000Y-87511904D01*
X132267857Y-87473809D01*
X132239285Y-87435714D01*
X133153571Y-86711904D02*
X132867857Y-86711904D01*
X132839285Y-87092857D01*
X132867857Y-87054761D01*
X132925000Y-87016666D01*
X133067857Y-87016666D01*
X133125000Y-87054761D01*
X133153571Y-87092857D01*
X133182142Y-87169047D01*
X133182142Y-87359523D01*
X133153571Y-87435714D01*
X133125000Y-87473809D01*
X133067857Y-87511904D01*
X132925000Y-87511904D01*
X132867857Y-87473809D01*
X132839285Y-87435714D01*
X186451428Y-99571904D02*
X186451428Y-98771904D01*
X186594285Y-98771904D01*
X186680000Y-98810000D01*
X186737142Y-98886190D01*
X186765714Y-98962380D01*
X186794285Y-99114761D01*
X186794285Y-99229047D01*
X186765714Y-99381428D01*
X186737142Y-99457619D01*
X186680000Y-99533809D01*
X186594285Y-99571904D01*
X186451428Y-99571904D01*
X187365714Y-99571904D02*
X187022857Y-99571904D01*
X187194285Y-99571904D02*
X187194285Y-98771904D01*
X187137142Y-98886190D01*
X187080000Y-98962380D01*
X187022857Y-99000476D01*
X187737142Y-98771904D02*
X187794285Y-98771904D01*
X187851428Y-98810000D01*
X187880000Y-98848095D01*
X187908571Y-98924285D01*
X187937142Y-99076666D01*
X187937142Y-99267142D01*
X187908571Y-99419523D01*
X187880000Y-99495714D01*
X187851428Y-99533809D01*
X187794285Y-99571904D01*
X187737142Y-99571904D01*
X187680000Y-99533809D01*
X187651428Y-99495714D01*
X187622857Y-99419523D01*
X187594285Y-99267142D01*
X187594285Y-99076666D01*
X187622857Y-98924285D01*
X187651428Y-98848095D01*
X187680000Y-98810000D01*
X187737142Y-98771904D01*
X206685714Y-96361904D02*
X206685714Y-95561904D01*
X206828571Y-95561904D01*
X206914285Y-95600000D01*
X206971428Y-95676190D01*
X207000000Y-95752380D01*
X207028571Y-95904761D01*
X207028571Y-96019047D01*
X207000000Y-96171428D01*
X206971428Y-96247619D01*
X206914285Y-96323809D01*
X206828571Y-96361904D01*
X206685714Y-96361904D01*
X207285714Y-96057142D02*
X207742857Y-96057142D01*
X207514285Y-96361904D02*
X207514285Y-95752380D01*
X208342857Y-96361904D02*
X208000000Y-96361904D01*
X208171428Y-96361904D02*
X208171428Y-95561904D01*
X208114285Y-95676190D01*
X208057142Y-95752380D01*
X208000000Y-95790476D01*
X136514285Y-90435714D02*
X136485714Y-90473809D01*
X136400000Y-90511904D01*
X136342857Y-90511904D01*
X136257142Y-90473809D01*
X136200000Y-90397619D01*
X136171428Y-90321428D01*
X136142857Y-90169047D01*
X136142857Y-90054761D01*
X136171428Y-89902380D01*
X136200000Y-89826190D01*
X136257142Y-89750000D01*
X136342857Y-89711904D01*
X136400000Y-89711904D01*
X136485714Y-89750000D01*
X136514285Y-89788095D01*
X136857142Y-90054761D02*
X136800000Y-90016666D01*
X136771428Y-89978571D01*
X136742857Y-89902380D01*
X136742857Y-89864285D01*
X136771428Y-89788095D01*
X136800000Y-89750000D01*
X136857142Y-89711904D01*
X136971428Y-89711904D01*
X137028571Y-89750000D01*
X137057142Y-89788095D01*
X137085714Y-89864285D01*
X137085714Y-89902380D01*
X137057142Y-89978571D01*
X137028571Y-90016666D01*
X136971428Y-90054761D01*
X136857142Y-90054761D01*
X136800000Y-90092857D01*
X136771428Y-90130952D01*
X136742857Y-90207142D01*
X136742857Y-90359523D01*
X136771428Y-90435714D01*
X136800000Y-90473809D01*
X136857142Y-90511904D01*
X136971428Y-90511904D01*
X137028571Y-90473809D01*
X137057142Y-90435714D01*
X137085714Y-90359523D01*
X137085714Y-90207142D01*
X137057142Y-90130952D01*
X137028571Y-90092857D01*
X136971428Y-90054761D01*
X137600000Y-89711904D02*
X137485714Y-89711904D01*
X137428571Y-89750000D01*
X137400000Y-89788095D01*
X137342857Y-89902380D01*
X137314285Y-90054761D01*
X137314285Y-90359523D01*
X137342857Y-90435714D01*
X137371428Y-90473809D01*
X137428571Y-90511904D01*
X137542857Y-90511904D01*
X137600000Y-90473809D01*
X137628571Y-90435714D01*
X137657142Y-90359523D01*
X137657142Y-90169047D01*
X137628571Y-90092857D01*
X137600000Y-90054761D01*
X137542857Y-90016666D01*
X137428571Y-90016666D01*
X137371428Y-90054761D01*
X137342857Y-90092857D01*
X137314285Y-90169047D01*
X206785714Y-97861904D02*
X206785714Y-97061904D01*
X206928571Y-97061904D01*
X207014285Y-97100000D01*
X207071428Y-97176190D01*
X207100000Y-97252380D01*
X207128571Y-97404761D01*
X207128571Y-97519047D01*
X207100000Y-97671428D01*
X207071428Y-97747619D01*
X207014285Y-97823809D01*
X206928571Y-97861904D01*
X206785714Y-97861904D01*
X207385714Y-97557142D02*
X207842857Y-97557142D01*
X208442857Y-97861904D02*
X208100000Y-97861904D01*
X208271428Y-97861904D02*
X208271428Y-97061904D01*
X208214285Y-97176190D01*
X208157142Y-97252380D01*
X208100000Y-97290476D01*
X205714285Y-100061904D02*
X205914285Y-100861904D01*
X206114285Y-100061904D01*
X206514285Y-100442857D02*
X206600000Y-100480952D01*
X206628571Y-100519047D01*
X206657142Y-100595238D01*
X206657142Y-100709523D01*
X206628571Y-100785714D01*
X206600000Y-100823809D01*
X206542857Y-100861904D01*
X206314285Y-100861904D01*
X206314285Y-100061904D01*
X206514285Y-100061904D01*
X206571428Y-100100000D01*
X206600000Y-100138095D01*
X206628571Y-100214285D01*
X206628571Y-100290476D01*
X206600000Y-100366666D01*
X206571428Y-100404761D01*
X206514285Y-100442857D01*
X206314285Y-100442857D01*
X206914285Y-100061904D02*
X206914285Y-100709523D01*
X206942857Y-100785714D01*
X206971428Y-100823809D01*
X207028571Y-100861904D01*
X207142857Y-100861904D01*
X207200000Y-100823809D01*
X207228571Y-100785714D01*
X207257142Y-100709523D01*
X207257142Y-100061904D01*
X207514285Y-100823809D02*
X207600000Y-100861904D01*
X207742857Y-100861904D01*
X207800000Y-100823809D01*
X207828571Y-100785714D01*
X207857142Y-100709523D01*
X207857142Y-100633333D01*
X207828571Y-100557142D01*
X207800000Y-100519047D01*
X207742857Y-100480952D01*
X207628571Y-100442857D01*
X207571428Y-100404761D01*
X207542857Y-100366666D01*
X207514285Y-100290476D01*
X207514285Y-100214285D01*
X207542857Y-100138095D01*
X207571428Y-100100000D01*
X207628571Y-100061904D01*
X207771428Y-100061904D01*
X207857142Y-100100000D01*
X208428571Y-100861904D02*
X208085714Y-100861904D01*
X208257142Y-100861904D02*
X208257142Y-100061904D01*
X208200000Y-100176190D01*
X208142857Y-100252380D01*
X208085714Y-100290476D01*
X186321904Y-88600000D02*
X185940952Y-88800000D01*
X186321904Y-88942857D02*
X185521904Y-88942857D01*
X185521904Y-88714285D01*
X185560000Y-88657142D01*
X185598095Y-88628571D01*
X185674285Y-88600000D01*
X185788571Y-88600000D01*
X185864761Y-88628571D01*
X185902857Y-88657142D01*
X185940952Y-88714285D01*
X185940952Y-88942857D01*
X185521904Y-88400000D02*
X185521904Y-88000000D01*
X186321904Y-88257142D01*
X163275000Y-99861904D02*
X163075000Y-99480952D01*
X162932142Y-99861904D02*
X162932142Y-99061904D01*
X163160714Y-99061904D01*
X163217857Y-99100000D01*
X163246428Y-99138095D01*
X163275000Y-99214285D01*
X163275000Y-99328571D01*
X163246428Y-99404761D01*
X163217857Y-99442857D01*
X163160714Y-99480952D01*
X162932142Y-99480952D01*
X163560714Y-99861904D02*
X163675000Y-99861904D01*
X163732142Y-99823809D01*
X163760714Y-99785714D01*
X163817857Y-99671428D01*
X163846428Y-99519047D01*
X163846428Y-99214285D01*
X163817857Y-99138095D01*
X163789285Y-99100000D01*
X163732142Y-99061904D01*
X163617857Y-99061904D01*
X163560714Y-99100000D01*
X163532142Y-99138095D01*
X163503571Y-99214285D01*
X163503571Y-99404761D01*
X163532142Y-99480952D01*
X163560714Y-99519047D01*
X163617857Y-99557142D01*
X163732142Y-99557142D01*
X163789285Y-99519047D01*
X163817857Y-99480952D01*
X163846428Y-99404761D01*
D11*
X157935714Y-107265714D02*
X157973809Y-107294285D01*
X158011904Y-107380000D01*
X158011904Y-107437142D01*
X157973809Y-107522857D01*
X157897619Y-107580000D01*
X157821428Y-107608571D01*
X157669047Y-107637142D01*
X157554761Y-107637142D01*
X157402380Y-107608571D01*
X157326190Y-107580000D01*
X157250000Y-107522857D01*
X157211904Y-107437142D01*
X157211904Y-107380000D01*
X157250000Y-107294285D01*
X157288095Y-107265714D01*
X157211904Y-107065714D02*
X157211904Y-106665714D01*
X158011904Y-106922857D01*
X157211904Y-106494285D02*
X157211904Y-106122857D01*
X157516666Y-106322857D01*
X157516666Y-106237142D01*
X157554761Y-106180000D01*
X157592857Y-106151428D01*
X157669047Y-106122857D01*
X157859523Y-106122857D01*
X157935714Y-106151428D01*
X157973809Y-106180000D01*
X158011904Y-106237142D01*
X158011904Y-106408571D01*
X157973809Y-106465714D01*
X157935714Y-106494285D01*
D10*
X131564285Y-89935714D02*
X131535714Y-89973809D01*
X131450000Y-90011904D01*
X131392857Y-90011904D01*
X131307142Y-89973809D01*
X131250000Y-89897619D01*
X131221428Y-89821428D01*
X131192857Y-89669047D01*
X131192857Y-89554761D01*
X131221428Y-89402380D01*
X131250000Y-89326190D01*
X131307142Y-89250000D01*
X131392857Y-89211904D01*
X131450000Y-89211904D01*
X131535714Y-89250000D01*
X131564285Y-89288095D01*
X131907142Y-89554761D02*
X131850000Y-89516666D01*
X131821428Y-89478571D01*
X131792857Y-89402380D01*
X131792857Y-89364285D01*
X131821428Y-89288095D01*
X131850000Y-89250000D01*
X131907142Y-89211904D01*
X132021428Y-89211904D01*
X132078571Y-89250000D01*
X132107142Y-89288095D01*
X132135714Y-89364285D01*
X132135714Y-89402380D01*
X132107142Y-89478571D01*
X132078571Y-89516666D01*
X132021428Y-89554761D01*
X131907142Y-89554761D01*
X131850000Y-89592857D01*
X131821428Y-89630952D01*
X131792857Y-89707142D01*
X131792857Y-89859523D01*
X131821428Y-89935714D01*
X131850000Y-89973809D01*
X131907142Y-90011904D01*
X132021428Y-90011904D01*
X132078571Y-89973809D01*
X132107142Y-89935714D01*
X132135714Y-89859523D01*
X132135714Y-89707142D01*
X132107142Y-89630952D01*
X132078571Y-89592857D01*
X132021428Y-89554761D01*
X132364285Y-89288095D02*
X132392857Y-89250000D01*
X132450000Y-89211904D01*
X132592857Y-89211904D01*
X132650000Y-89250000D01*
X132678571Y-89288095D01*
X132707142Y-89364285D01*
X132707142Y-89440476D01*
X132678571Y-89554761D01*
X132335714Y-90011904D01*
X132707142Y-90011904D01*
X136514285Y-87735714D02*
X136485714Y-87773809D01*
X136400000Y-87811904D01*
X136342857Y-87811904D01*
X136257142Y-87773809D01*
X136200000Y-87697619D01*
X136171428Y-87621428D01*
X136142857Y-87469047D01*
X136142857Y-87354761D01*
X136171428Y-87202380D01*
X136200000Y-87126190D01*
X136257142Y-87050000D01*
X136342857Y-87011904D01*
X136400000Y-87011904D01*
X136485714Y-87050000D01*
X136514285Y-87088095D01*
X136857142Y-87354761D02*
X136800000Y-87316666D01*
X136771428Y-87278571D01*
X136742857Y-87202380D01*
X136742857Y-87164285D01*
X136771428Y-87088095D01*
X136800000Y-87050000D01*
X136857142Y-87011904D01*
X136971428Y-87011904D01*
X137028571Y-87050000D01*
X137057142Y-87088095D01*
X137085714Y-87164285D01*
X137085714Y-87202380D01*
X137057142Y-87278571D01*
X137028571Y-87316666D01*
X136971428Y-87354761D01*
X136857142Y-87354761D01*
X136800000Y-87392857D01*
X136771428Y-87430952D01*
X136742857Y-87507142D01*
X136742857Y-87659523D01*
X136771428Y-87735714D01*
X136800000Y-87773809D01*
X136857142Y-87811904D01*
X136971428Y-87811904D01*
X137028571Y-87773809D01*
X137057142Y-87735714D01*
X137085714Y-87659523D01*
X137085714Y-87507142D01*
X137057142Y-87430952D01*
X137028571Y-87392857D01*
X136971428Y-87354761D01*
X137285714Y-87011904D02*
X137685714Y-87011904D01*
X137428571Y-87811904D01*
X136535714Y-109135714D02*
X136573809Y-109164285D01*
X136611904Y-109250000D01*
X136611904Y-109307142D01*
X136573809Y-109392857D01*
X136497619Y-109450000D01*
X136421428Y-109478571D01*
X136269047Y-109507142D01*
X136154761Y-109507142D01*
X136002380Y-109478571D01*
X135926190Y-109450000D01*
X135850000Y-109392857D01*
X135811904Y-109307142D01*
X135811904Y-109250000D01*
X135850000Y-109164285D01*
X135888095Y-109135714D01*
X135811904Y-108621428D02*
X135811904Y-108735714D01*
X135850000Y-108792857D01*
X135888095Y-108821428D01*
X136002380Y-108878571D01*
X136154761Y-108907142D01*
X136459523Y-108907142D01*
X136535714Y-108878571D01*
X136573809Y-108850000D01*
X136611904Y-108792857D01*
X136611904Y-108678571D01*
X136573809Y-108621428D01*
X136535714Y-108592857D01*
X136459523Y-108564285D01*
X136269047Y-108564285D01*
X136192857Y-108592857D01*
X136154761Y-108621428D01*
X136116666Y-108678571D01*
X136116666Y-108792857D01*
X136154761Y-108850000D01*
X136192857Y-108878571D01*
X136269047Y-108907142D01*
X135811904Y-108364285D02*
X135811904Y-107992857D01*
X136116666Y-108192857D01*
X136116666Y-108107142D01*
X136154761Y-108050000D01*
X136192857Y-108021428D01*
X136269047Y-107992857D01*
X136459523Y-107992857D01*
X136535714Y-108021428D01*
X136573809Y-108050000D01*
X136611904Y-108107142D01*
X136611904Y-108278571D01*
X136573809Y-108335714D01*
X136535714Y-108364285D01*
X147461904Y-94910714D02*
X147080952Y-95110714D01*
X147461904Y-95253571D02*
X146661904Y-95253571D01*
X146661904Y-95025000D01*
X146700000Y-94967857D01*
X146738095Y-94939285D01*
X146814285Y-94910714D01*
X146928571Y-94910714D01*
X147004761Y-94939285D01*
X147042857Y-94967857D01*
X147080952Y-95025000D01*
X147080952Y-95253571D01*
X147461904Y-94339285D02*
X147461904Y-94682142D01*
X147461904Y-94510714D02*
X146661904Y-94510714D01*
X146776190Y-94567857D01*
X146852380Y-94625000D01*
X146890476Y-94682142D01*
X146661904Y-93825000D02*
X146661904Y-93939285D01*
X146700000Y-93996428D01*
X146738095Y-94025000D01*
X146852380Y-94082142D01*
X147004761Y-94110714D01*
X147309523Y-94110714D01*
X147385714Y-94082142D01*
X147423809Y-94053571D01*
X147461904Y-93996428D01*
X147461904Y-93882142D01*
X147423809Y-93825000D01*
X147385714Y-93796428D01*
X147309523Y-93767857D01*
X147119047Y-93767857D01*
X147042857Y-93796428D01*
X147004761Y-93825000D01*
X146966666Y-93882142D01*
X146966666Y-93996428D01*
X147004761Y-94053571D01*
X147042857Y-94082142D01*
X147119047Y-94110714D01*
X149225714Y-81585714D02*
X149263809Y-81614285D01*
X149301904Y-81700000D01*
X149301904Y-81757142D01*
X149263809Y-81842857D01*
X149187619Y-81900000D01*
X149111428Y-81928571D01*
X148959047Y-81957142D01*
X148844761Y-81957142D01*
X148692380Y-81928571D01*
X148616190Y-81900000D01*
X148540000Y-81842857D01*
X148501904Y-81757142D01*
X148501904Y-81700000D01*
X148540000Y-81614285D01*
X148578095Y-81585714D01*
X149301904Y-81300000D02*
X149301904Y-81185714D01*
X149263809Y-81128571D01*
X149225714Y-81100000D01*
X149111428Y-81042857D01*
X148959047Y-81014285D01*
X148654285Y-81014285D01*
X148578095Y-81042857D01*
X148540000Y-81071428D01*
X148501904Y-81128571D01*
X148501904Y-81242857D01*
X148540000Y-81300000D01*
X148578095Y-81328571D01*
X148654285Y-81357142D01*
X148844761Y-81357142D01*
X148920952Y-81328571D01*
X148959047Y-81300000D01*
X148997142Y-81242857D01*
X148997142Y-81128571D01*
X148959047Y-81071428D01*
X148920952Y-81042857D01*
X148844761Y-81014285D01*
X148501904Y-80471428D02*
X148501904Y-80757142D01*
X148882857Y-80785714D01*
X148844761Y-80757142D01*
X148806666Y-80700000D01*
X148806666Y-80557142D01*
X148844761Y-80500000D01*
X148882857Y-80471428D01*
X148959047Y-80442857D01*
X149149523Y-80442857D01*
X149225714Y-80471428D01*
X149263809Y-80500000D01*
X149301904Y-80557142D01*
X149301904Y-80700000D01*
X149263809Y-80757142D01*
X149225714Y-80785714D01*
X184564285Y-95745714D02*
X184535714Y-95783809D01*
X184450000Y-95821904D01*
X184392857Y-95821904D01*
X184307142Y-95783809D01*
X184250000Y-95707619D01*
X184221428Y-95631428D01*
X184192857Y-95479047D01*
X184192857Y-95364761D01*
X184221428Y-95212380D01*
X184250000Y-95136190D01*
X184307142Y-95060000D01*
X184392857Y-95021904D01*
X184450000Y-95021904D01*
X184535714Y-95060000D01*
X184564285Y-95098095D01*
X185135714Y-95821904D02*
X184792857Y-95821904D01*
X184964285Y-95821904D02*
X184964285Y-95021904D01*
X184907142Y-95136190D01*
X184850000Y-95212380D01*
X184792857Y-95250476D01*
X185478571Y-95364761D02*
X185421428Y-95326666D01*
X185392857Y-95288571D01*
X185364285Y-95212380D01*
X185364285Y-95174285D01*
X185392857Y-95098095D01*
X185421428Y-95060000D01*
X185478571Y-95021904D01*
X185592857Y-95021904D01*
X185650000Y-95060000D01*
X185678571Y-95098095D01*
X185707142Y-95174285D01*
X185707142Y-95212380D01*
X185678571Y-95288571D01*
X185650000Y-95326666D01*
X185592857Y-95364761D01*
X185478571Y-95364761D01*
X185421428Y-95402857D01*
X185392857Y-95440952D01*
X185364285Y-95517142D01*
X185364285Y-95669523D01*
X185392857Y-95745714D01*
X185421428Y-95783809D01*
X185478571Y-95821904D01*
X185592857Y-95821904D01*
X185650000Y-95783809D01*
X185678571Y-95745714D01*
X185707142Y-95669523D01*
X185707142Y-95517142D01*
X185678571Y-95440952D01*
X185650000Y-95402857D01*
X185592857Y-95364761D01*
X131598976Y-88586217D02*
X131570405Y-88624312D01*
X131484691Y-88662407D01*
X131427548Y-88662407D01*
X131341833Y-88624312D01*
X131284691Y-88548122D01*
X131256119Y-88471931D01*
X131227548Y-88319550D01*
X131227548Y-88205264D01*
X131256119Y-88052883D01*
X131284691Y-87976693D01*
X131341833Y-87900503D01*
X131427548Y-87862407D01*
X131484691Y-87862407D01*
X131570405Y-87900503D01*
X131598976Y-87938598D01*
X131884691Y-88662407D02*
X131998976Y-88662407D01*
X132056119Y-88624312D01*
X132084691Y-88586217D01*
X132141833Y-88471931D01*
X132170405Y-88319550D01*
X132170405Y-88014788D01*
X132141833Y-87938598D01*
X132113262Y-87900503D01*
X132056119Y-87862407D01*
X131941833Y-87862407D01*
X131884691Y-87900503D01*
X131856119Y-87938598D01*
X131827548Y-88014788D01*
X131827548Y-88205264D01*
X131856119Y-88281455D01*
X131884691Y-88319550D01*
X131941833Y-88357645D01*
X132056119Y-88357645D01*
X132113262Y-88319550D01*
X132141833Y-88281455D01*
X132170405Y-88205264D01*
X132370405Y-87862407D02*
X132741833Y-87862407D01*
X132541833Y-88167169D01*
X132627548Y-88167169D01*
X132684691Y-88205264D01*
X132713262Y-88243360D01*
X132741833Y-88319550D01*
X132741833Y-88510026D01*
X132713262Y-88586217D01*
X132684691Y-88624312D01*
X132627548Y-88662407D01*
X132456119Y-88662407D01*
X132398976Y-88624312D01*
X132370405Y-88586217D01*
X160664285Y-101095714D02*
X160635714Y-101133809D01*
X160550000Y-101171904D01*
X160492857Y-101171904D01*
X160407142Y-101133809D01*
X160350000Y-101057619D01*
X160321428Y-100981428D01*
X160292857Y-100829047D01*
X160292857Y-100714761D01*
X160321428Y-100562380D01*
X160350000Y-100486190D01*
X160407142Y-100410000D01*
X160492857Y-100371904D01*
X160550000Y-100371904D01*
X160635714Y-100410000D01*
X160664285Y-100448095D01*
X160950000Y-101171904D02*
X161064285Y-101171904D01*
X161121428Y-101133809D01*
X161150000Y-101095714D01*
X161207142Y-100981428D01*
X161235714Y-100829047D01*
X161235714Y-100524285D01*
X161207142Y-100448095D01*
X161178571Y-100410000D01*
X161121428Y-100371904D01*
X161007142Y-100371904D01*
X160950000Y-100410000D01*
X160921428Y-100448095D01*
X160892857Y-100524285D01*
X160892857Y-100714761D01*
X160921428Y-100790952D01*
X160950000Y-100829047D01*
X161007142Y-100867142D01*
X161121428Y-100867142D01*
X161178571Y-100829047D01*
X161207142Y-100790952D01*
X161235714Y-100714761D01*
X161750000Y-100638571D02*
X161750000Y-101171904D01*
X161607142Y-100333809D02*
X161464285Y-100905238D01*
X161835714Y-100905238D01*
X147644285Y-100035714D02*
X147615714Y-100073809D01*
X147530000Y-100111904D01*
X147472857Y-100111904D01*
X147387142Y-100073809D01*
X147330000Y-99997619D01*
X147301428Y-99921428D01*
X147272857Y-99769047D01*
X147272857Y-99654761D01*
X147301428Y-99502380D01*
X147330000Y-99426190D01*
X147387142Y-99350000D01*
X147472857Y-99311904D01*
X147530000Y-99311904D01*
X147615714Y-99350000D01*
X147644285Y-99388095D01*
X147844285Y-99311904D02*
X148244285Y-99311904D01*
X147987142Y-100111904D01*
X148730000Y-99311904D02*
X148615714Y-99311904D01*
X148558571Y-99350000D01*
X148530000Y-99388095D01*
X148472857Y-99502380D01*
X148444285Y-99654761D01*
X148444285Y-99959523D01*
X148472857Y-100035714D01*
X148501428Y-100073809D01*
X148558571Y-100111904D01*
X148672857Y-100111904D01*
X148730000Y-100073809D01*
X148758571Y-100035714D01*
X148787142Y-99959523D01*
X148787142Y-99769047D01*
X148758571Y-99692857D01*
X148730000Y-99654761D01*
X148672857Y-99616666D01*
X148558571Y-99616666D01*
X148501428Y-99654761D01*
X148472857Y-99692857D01*
X148444285Y-99769047D01*
X150304285Y-89035714D02*
X150275714Y-89073809D01*
X150190000Y-89111904D01*
X150132857Y-89111904D01*
X150047142Y-89073809D01*
X149990000Y-88997619D01*
X149961428Y-88921428D01*
X149932857Y-88769047D01*
X149932857Y-88654761D01*
X149961428Y-88502380D01*
X149990000Y-88426190D01*
X150047142Y-88350000D01*
X150132857Y-88311904D01*
X150190000Y-88311904D01*
X150275714Y-88350000D01*
X150304285Y-88388095D01*
X150647142Y-88654761D02*
X150590000Y-88616666D01*
X150561428Y-88578571D01*
X150532857Y-88502380D01*
X150532857Y-88464285D01*
X150561428Y-88388095D01*
X150590000Y-88350000D01*
X150647142Y-88311904D01*
X150761428Y-88311904D01*
X150818571Y-88350000D01*
X150847142Y-88388095D01*
X150875714Y-88464285D01*
X150875714Y-88502380D01*
X150847142Y-88578571D01*
X150818571Y-88616666D01*
X150761428Y-88654761D01*
X150647142Y-88654761D01*
X150590000Y-88692857D01*
X150561428Y-88730952D01*
X150532857Y-88807142D01*
X150532857Y-88959523D01*
X150561428Y-89035714D01*
X150590000Y-89073809D01*
X150647142Y-89111904D01*
X150761428Y-89111904D01*
X150818571Y-89073809D01*
X150847142Y-89035714D01*
X150875714Y-88959523D01*
X150875714Y-88807142D01*
X150847142Y-88730952D01*
X150818571Y-88692857D01*
X150761428Y-88654761D01*
X151418571Y-88311904D02*
X151132857Y-88311904D01*
X151104285Y-88692857D01*
X151132857Y-88654761D01*
X151190000Y-88616666D01*
X151332857Y-88616666D01*
X151390000Y-88654761D01*
X151418571Y-88692857D01*
X151447142Y-88769047D01*
X151447142Y-88959523D01*
X151418571Y-89035714D01*
X151390000Y-89073809D01*
X151332857Y-89111904D01*
X151190000Y-89111904D01*
X151132857Y-89073809D01*
X151104285Y-89035714D01*
X201440000Y-78121904D02*
X201440000Y-78693333D01*
X201411428Y-78807619D01*
X201354285Y-78883809D01*
X201268571Y-78921904D01*
X201211428Y-78921904D01*
X201668571Y-78121904D02*
X202040000Y-78121904D01*
X201840000Y-78426666D01*
X201925714Y-78426666D01*
X201982857Y-78464761D01*
X202011428Y-78502857D01*
X202040000Y-78579047D01*
X202040000Y-78769523D01*
X202011428Y-78845714D01*
X201982857Y-78883809D01*
X201925714Y-78921904D01*
X201754285Y-78921904D01*
X201697142Y-78883809D01*
X201668571Y-78845714D01*
X160789285Y-99011904D02*
X160589285Y-98630952D01*
X160446428Y-99011904D02*
X160446428Y-98211904D01*
X160675000Y-98211904D01*
X160732142Y-98250000D01*
X160760714Y-98288095D01*
X160789285Y-98364285D01*
X160789285Y-98478571D01*
X160760714Y-98554761D01*
X160732142Y-98592857D01*
X160675000Y-98630952D01*
X160446428Y-98630952D01*
X160989285Y-98211904D02*
X161360714Y-98211904D01*
X161160714Y-98516666D01*
X161246428Y-98516666D01*
X161303571Y-98554761D01*
X161332142Y-98592857D01*
X161360714Y-98669047D01*
X161360714Y-98859523D01*
X161332142Y-98935714D01*
X161303571Y-98973809D01*
X161246428Y-99011904D01*
X161075000Y-99011904D01*
X161017857Y-98973809D01*
X160989285Y-98935714D01*
X161589285Y-98288095D02*
X161617857Y-98250000D01*
X161675000Y-98211904D01*
X161817857Y-98211904D01*
X161875000Y-98250000D01*
X161903571Y-98288095D01*
X161932142Y-98364285D01*
X161932142Y-98440476D01*
X161903571Y-98554761D01*
X161560714Y-99011904D01*
X161932142Y-99011904D01*
X145761904Y-98135714D02*
X144961904Y-98135714D01*
X145685714Y-97507142D02*
X145723809Y-97535714D01*
X145761904Y-97621428D01*
X145761904Y-97678571D01*
X145723809Y-97764285D01*
X145647619Y-97821428D01*
X145571428Y-97850000D01*
X145419047Y-97878571D01*
X145304761Y-97878571D01*
X145152380Y-97850000D01*
X145076190Y-97821428D01*
X145000000Y-97764285D01*
X144961904Y-97678571D01*
X144961904Y-97621428D01*
X145000000Y-97535714D01*
X145038095Y-97507142D01*
X145038095Y-97278571D02*
X145000000Y-97250000D01*
X144961904Y-97192857D01*
X144961904Y-97050000D01*
X145000000Y-96992857D01*
X145038095Y-96964285D01*
X145114285Y-96935714D01*
X145190476Y-96935714D01*
X145304761Y-96964285D01*
X145761904Y-97307142D01*
X145761904Y-96935714D01*
X168415714Y-104795714D02*
X168453809Y-104824285D01*
X168491904Y-104910000D01*
X168491904Y-104967142D01*
X168453809Y-105052857D01*
X168377619Y-105110000D01*
X168301428Y-105138571D01*
X168149047Y-105167142D01*
X168034761Y-105167142D01*
X167882380Y-105138571D01*
X167806190Y-105110000D01*
X167730000Y-105052857D01*
X167691904Y-104967142D01*
X167691904Y-104910000D01*
X167730000Y-104824285D01*
X167768095Y-104795714D01*
X167691904Y-104595714D02*
X167691904Y-104224285D01*
X167996666Y-104424285D01*
X167996666Y-104338571D01*
X168034761Y-104281428D01*
X168072857Y-104252857D01*
X168149047Y-104224285D01*
X168339523Y-104224285D01*
X168415714Y-104252857D01*
X168453809Y-104281428D01*
X168491904Y-104338571D01*
X168491904Y-104510000D01*
X168453809Y-104567142D01*
X168415714Y-104595714D01*
X168491904Y-103652857D02*
X168491904Y-103995714D01*
X168491904Y-103824285D02*
X167691904Y-103824285D01*
X167806190Y-103881428D01*
X167882380Y-103938571D01*
X167920476Y-103995714D01*
X186061904Y-101935714D02*
X185680952Y-102135714D01*
X186061904Y-102278571D02*
X185261904Y-102278571D01*
X185261904Y-102050000D01*
X185300000Y-101992857D01*
X185338095Y-101964285D01*
X185414285Y-101935714D01*
X185528571Y-101935714D01*
X185604761Y-101964285D01*
X185642857Y-101992857D01*
X185680952Y-102050000D01*
X185680952Y-102278571D01*
X185338095Y-101707142D02*
X185300000Y-101678571D01*
X185261904Y-101621428D01*
X185261904Y-101478571D01*
X185300000Y-101421428D01*
X185338095Y-101392857D01*
X185414285Y-101364285D01*
X185490476Y-101364285D01*
X185604761Y-101392857D01*
X186061904Y-101735714D01*
X186061904Y-101364285D01*
X185528571Y-100850000D02*
X186061904Y-100850000D01*
X185223809Y-100992857D02*
X185795238Y-101135714D01*
X185795238Y-100764285D01*
X199545714Y-81795714D02*
X199583809Y-81824285D01*
X199621904Y-81910000D01*
X199621904Y-81967142D01*
X199583809Y-82052857D01*
X199507619Y-82110000D01*
X199431428Y-82138571D01*
X199279047Y-82167142D01*
X199164761Y-82167142D01*
X199012380Y-82138571D01*
X198936190Y-82110000D01*
X198860000Y-82052857D01*
X198821904Y-81967142D01*
X198821904Y-81910000D01*
X198860000Y-81824285D01*
X198898095Y-81795714D01*
X198821904Y-81595714D02*
X198821904Y-81224285D01*
X199126666Y-81424285D01*
X199126666Y-81338571D01*
X199164761Y-81281428D01*
X199202857Y-81252857D01*
X199279047Y-81224285D01*
X199469523Y-81224285D01*
X199545714Y-81252857D01*
X199583809Y-81281428D01*
X199621904Y-81338571D01*
X199621904Y-81510000D01*
X199583809Y-81567142D01*
X199545714Y-81595714D01*
X198898095Y-80995714D02*
X198860000Y-80967142D01*
X198821904Y-80910000D01*
X198821904Y-80767142D01*
X198860000Y-80710000D01*
X198898095Y-80681428D01*
X198974285Y-80652857D01*
X199050476Y-80652857D01*
X199164761Y-80681428D01*
X199621904Y-81024285D01*
X199621904Y-80652857D01*
X132635714Y-93835714D02*
X132673809Y-93864285D01*
X132711904Y-93950000D01*
X132711904Y-94007142D01*
X132673809Y-94092857D01*
X132597619Y-94150000D01*
X132521428Y-94178571D01*
X132369047Y-94207142D01*
X132254761Y-94207142D01*
X132102380Y-94178571D01*
X132026190Y-94150000D01*
X131950000Y-94092857D01*
X131911904Y-94007142D01*
X131911904Y-93950000D01*
X131950000Y-93864285D01*
X131988095Y-93835714D01*
X131911904Y-93321428D02*
X131911904Y-93435714D01*
X131950000Y-93492857D01*
X131988095Y-93521428D01*
X132102380Y-93578571D01*
X132254761Y-93607142D01*
X132559523Y-93607142D01*
X132635714Y-93578571D01*
X132673809Y-93550000D01*
X132711904Y-93492857D01*
X132711904Y-93378571D01*
X132673809Y-93321428D01*
X132635714Y-93292857D01*
X132559523Y-93264285D01*
X132369047Y-93264285D01*
X132292857Y-93292857D01*
X132254761Y-93321428D01*
X132216666Y-93378571D01*
X132216666Y-93492857D01*
X132254761Y-93550000D01*
X132292857Y-93578571D01*
X132369047Y-93607142D01*
X132711904Y-92692857D02*
X132711904Y-93035714D01*
X132711904Y-92864285D02*
X131911904Y-92864285D01*
X132026190Y-92921428D01*
X132102380Y-92978571D01*
X132140476Y-93035714D01*
X142780714Y-104560714D02*
X142818809Y-104589285D01*
X142856904Y-104675000D01*
X142856904Y-104732142D01*
X142818809Y-104817857D01*
X142742619Y-104875000D01*
X142666428Y-104903571D01*
X142514047Y-104932142D01*
X142399761Y-104932142D01*
X142247380Y-104903571D01*
X142171190Y-104875000D01*
X142095000Y-104817857D01*
X142056904Y-104732142D01*
X142056904Y-104675000D01*
X142095000Y-104589285D01*
X142133095Y-104560714D01*
X142133095Y-104332142D02*
X142095000Y-104303571D01*
X142056904Y-104246428D01*
X142056904Y-104103571D01*
X142095000Y-104046428D01*
X142133095Y-104017857D01*
X142209285Y-103989285D01*
X142285476Y-103989285D01*
X142399761Y-104017857D01*
X142856904Y-104360714D01*
X142856904Y-103989285D01*
X142399761Y-103646428D02*
X142361666Y-103703571D01*
X142323571Y-103732142D01*
X142247380Y-103760714D01*
X142209285Y-103760714D01*
X142133095Y-103732142D01*
X142095000Y-103703571D01*
X142056904Y-103646428D01*
X142056904Y-103532142D01*
X142095000Y-103475000D01*
X142133095Y-103446428D01*
X142209285Y-103417857D01*
X142247380Y-103417857D01*
X142323571Y-103446428D01*
X142361666Y-103475000D01*
X142399761Y-103532142D01*
X142399761Y-103646428D01*
X142437857Y-103703571D01*
X142475952Y-103732142D01*
X142552142Y-103760714D01*
X142704523Y-103760714D01*
X142780714Y-103732142D01*
X142818809Y-103703571D01*
X142856904Y-103646428D01*
X142856904Y-103532142D01*
X142818809Y-103475000D01*
X142780714Y-103446428D01*
X142704523Y-103417857D01*
X142552142Y-103417857D01*
X142475952Y-103446428D01*
X142437857Y-103475000D01*
X142399761Y-103532142D01*
X198280952Y-101660714D02*
X198661904Y-101660714D01*
X197861904Y-101860714D02*
X198280952Y-101660714D01*
X197861904Y-101460714D01*
X197938095Y-101289285D02*
X197900000Y-101260714D01*
X197861904Y-101203571D01*
X197861904Y-101060714D01*
X197900000Y-101003571D01*
X197938095Y-100975000D01*
X198014285Y-100946428D01*
X198090476Y-100946428D01*
X198204761Y-100975000D01*
X198661904Y-101317857D01*
X198661904Y-100946428D01*
X166514285Y-94735714D02*
X166485714Y-94773809D01*
X166400000Y-94811904D01*
X166342857Y-94811904D01*
X166257142Y-94773809D01*
X166200000Y-94697619D01*
X166171428Y-94621428D01*
X166142857Y-94469047D01*
X166142857Y-94354761D01*
X166171428Y-94202380D01*
X166200000Y-94126190D01*
X166257142Y-94050000D01*
X166342857Y-94011904D01*
X166400000Y-94011904D01*
X166485714Y-94050000D01*
X166514285Y-94088095D01*
X167028571Y-94278571D02*
X167028571Y-94811904D01*
X166885714Y-93973809D02*
X166742857Y-94545238D01*
X167114285Y-94545238D01*
X167457142Y-94011904D02*
X167514285Y-94011904D01*
X167571428Y-94050000D01*
X167600000Y-94088095D01*
X167628571Y-94164285D01*
X167657142Y-94316666D01*
X167657142Y-94507142D01*
X167628571Y-94659523D01*
X167600000Y-94735714D01*
X167571428Y-94773809D01*
X167514285Y-94811904D01*
X167457142Y-94811904D01*
X167400000Y-94773809D01*
X167371428Y-94735714D01*
X167342857Y-94659523D01*
X167314285Y-94507142D01*
X167314285Y-94316666D01*
X167342857Y-94164285D01*
X167371428Y-94088095D01*
X167400000Y-94050000D01*
X167457142Y-94011904D01*
X128711904Y-109985714D02*
X128330952Y-110185714D01*
X128711904Y-110328571D02*
X127911904Y-110328571D01*
X127911904Y-110100000D01*
X127950000Y-110042857D01*
X127988095Y-110014285D01*
X128064285Y-109985714D01*
X128178571Y-109985714D01*
X128254761Y-110014285D01*
X128292857Y-110042857D01*
X128330952Y-110100000D01*
X128330952Y-110328571D01*
X127988095Y-109757142D02*
X127950000Y-109728571D01*
X127911904Y-109671428D01*
X127911904Y-109528571D01*
X127950000Y-109471428D01*
X127988095Y-109442857D01*
X128064285Y-109414285D01*
X128140476Y-109414285D01*
X128254761Y-109442857D01*
X128711904Y-109785714D01*
X128711904Y-109414285D01*
X127911904Y-109214285D02*
X127911904Y-108814285D01*
X128711904Y-109071428D01*
X156785714Y-107335714D02*
X156823809Y-107364285D01*
X156861904Y-107450000D01*
X156861904Y-107507142D01*
X156823809Y-107592857D01*
X156747619Y-107650000D01*
X156671428Y-107678571D01*
X156519047Y-107707142D01*
X156404761Y-107707142D01*
X156252380Y-107678571D01*
X156176190Y-107650000D01*
X156100000Y-107592857D01*
X156061904Y-107507142D01*
X156061904Y-107450000D01*
X156100000Y-107364285D01*
X156138095Y-107335714D01*
X156061904Y-107135714D02*
X156061904Y-106735714D01*
X156861904Y-106992857D01*
X156061904Y-106221428D02*
X156061904Y-106507142D01*
X156442857Y-106535714D01*
X156404761Y-106507142D01*
X156366666Y-106450000D01*
X156366666Y-106307142D01*
X156404761Y-106250000D01*
X156442857Y-106221428D01*
X156519047Y-106192857D01*
X156709523Y-106192857D01*
X156785714Y-106221428D01*
X156823809Y-106250000D01*
X156861904Y-106307142D01*
X156861904Y-106450000D01*
X156823809Y-106507142D01*
X156785714Y-106535714D01*
X198404285Y-104115714D02*
X198375714Y-104153809D01*
X198290000Y-104191904D01*
X198232857Y-104191904D01*
X198147142Y-104153809D01*
X198090000Y-104077619D01*
X198061428Y-104001428D01*
X198032857Y-103849047D01*
X198032857Y-103734761D01*
X198061428Y-103582380D01*
X198090000Y-103506190D01*
X198147142Y-103430000D01*
X198232857Y-103391904D01*
X198290000Y-103391904D01*
X198375714Y-103430000D01*
X198404285Y-103468095D01*
X198947142Y-103391904D02*
X198661428Y-103391904D01*
X198632857Y-103772857D01*
X198661428Y-103734761D01*
X198718571Y-103696666D01*
X198861428Y-103696666D01*
X198918571Y-103734761D01*
X198947142Y-103772857D01*
X198975714Y-103849047D01*
X198975714Y-104039523D01*
X198947142Y-104115714D01*
X198918571Y-104153809D01*
X198861428Y-104191904D01*
X198718571Y-104191904D01*
X198661428Y-104153809D01*
X198632857Y-104115714D01*
X199204285Y-103468095D02*
X199232857Y-103430000D01*
X199290000Y-103391904D01*
X199432857Y-103391904D01*
X199490000Y-103430000D01*
X199518571Y-103468095D01*
X199547142Y-103544285D01*
X199547142Y-103620476D01*
X199518571Y-103734761D01*
X199175714Y-104191904D01*
X199547142Y-104191904D01*
X166464285Y-98335714D02*
X166435714Y-98373809D01*
X166350000Y-98411904D01*
X166292857Y-98411904D01*
X166207142Y-98373809D01*
X166150000Y-98297619D01*
X166121428Y-98221428D01*
X166092857Y-98069047D01*
X166092857Y-97954761D01*
X166121428Y-97802380D01*
X166150000Y-97726190D01*
X166207142Y-97650000D01*
X166292857Y-97611904D01*
X166350000Y-97611904D01*
X166435714Y-97650000D01*
X166464285Y-97688095D01*
X166664285Y-97611904D02*
X167035714Y-97611904D01*
X166835714Y-97916666D01*
X166921428Y-97916666D01*
X166978571Y-97954761D01*
X167007142Y-97992857D01*
X167035714Y-98069047D01*
X167035714Y-98259523D01*
X167007142Y-98335714D01*
X166978571Y-98373809D01*
X166921428Y-98411904D01*
X166750000Y-98411904D01*
X166692857Y-98373809D01*
X166664285Y-98335714D01*
X167321428Y-98411904D02*
X167435714Y-98411904D01*
X167492857Y-98373809D01*
X167521428Y-98335714D01*
X167578571Y-98221428D01*
X167607142Y-98069047D01*
X167607142Y-97764285D01*
X167578571Y-97688095D01*
X167550000Y-97650000D01*
X167492857Y-97611904D01*
X167378571Y-97611904D01*
X167321428Y-97650000D01*
X167292857Y-97688095D01*
X167264285Y-97764285D01*
X167264285Y-97954761D01*
X167292857Y-98030952D01*
X167321428Y-98069047D01*
X167378571Y-98107142D01*
X167492857Y-98107142D01*
X167550000Y-98069047D01*
X167578571Y-98030952D01*
X167607142Y-97954761D01*
X205228571Y-91061904D02*
X205571428Y-91061904D01*
X205400000Y-91861904D02*
X205400000Y-91061904D01*
X205714285Y-91061904D02*
X206114285Y-91861904D01*
X206114285Y-91061904D02*
X205714285Y-91861904D01*
X206657142Y-91861904D02*
X206314285Y-91861904D01*
X206485714Y-91861904D02*
X206485714Y-91061904D01*
X206428571Y-91176190D01*
X206371428Y-91252380D01*
X206314285Y-91290476D01*
X206771428Y-91938095D02*
X207228571Y-91938095D01*
X207371428Y-91861904D02*
X207371428Y-91061904D01*
X207714285Y-91861904D01*
X207714285Y-91061904D01*
X208314285Y-91861904D02*
X207971428Y-91861904D01*
X208142857Y-91861904D02*
X208142857Y-91061904D01*
X208085714Y-91176190D01*
X208028571Y-91252380D01*
X207971428Y-91290476D01*
X153457142Y-104361904D02*
X153457142Y-105009523D01*
X153485714Y-105085714D01*
X153514285Y-105123809D01*
X153571428Y-105161904D01*
X153685714Y-105161904D01*
X153742857Y-105123809D01*
X153771428Y-105085714D01*
X153800000Y-105009523D01*
X153800000Y-104361904D01*
X154400000Y-105161904D02*
X154057142Y-105161904D01*
X154228571Y-105161904D02*
X154228571Y-104361904D01*
X154171428Y-104476190D01*
X154114285Y-104552380D01*
X154057142Y-104590476D01*
X154628571Y-104438095D02*
X154657142Y-104400000D01*
X154714285Y-104361904D01*
X154857142Y-104361904D01*
X154914285Y-104400000D01*
X154942857Y-104438095D01*
X154971428Y-104514285D01*
X154971428Y-104590476D01*
X154942857Y-104704761D01*
X154600000Y-105161904D01*
X154971428Y-105161904D01*
X147564285Y-98985714D02*
X147535714Y-99023809D01*
X147450000Y-99061904D01*
X147392857Y-99061904D01*
X147307142Y-99023809D01*
X147250000Y-98947619D01*
X147221428Y-98871428D01*
X147192857Y-98719047D01*
X147192857Y-98604761D01*
X147221428Y-98452380D01*
X147250000Y-98376190D01*
X147307142Y-98300000D01*
X147392857Y-98261904D01*
X147450000Y-98261904D01*
X147535714Y-98300000D01*
X147564285Y-98338095D01*
X147764285Y-98261904D02*
X148164285Y-98261904D01*
X147907142Y-99061904D01*
X148478571Y-98604761D02*
X148421428Y-98566666D01*
X148392857Y-98528571D01*
X148364285Y-98452380D01*
X148364285Y-98414285D01*
X148392857Y-98338095D01*
X148421428Y-98300000D01*
X148478571Y-98261904D01*
X148592857Y-98261904D01*
X148650000Y-98300000D01*
X148678571Y-98338095D01*
X148707142Y-98414285D01*
X148707142Y-98452380D01*
X148678571Y-98528571D01*
X148650000Y-98566666D01*
X148592857Y-98604761D01*
X148478571Y-98604761D01*
X148421428Y-98642857D01*
X148392857Y-98680952D01*
X148364285Y-98757142D01*
X148364285Y-98909523D01*
X148392857Y-98985714D01*
X148421428Y-99023809D01*
X148478571Y-99061904D01*
X148592857Y-99061904D01*
X148650000Y-99023809D01*
X148678571Y-98985714D01*
X148707142Y-98909523D01*
X148707142Y-98757142D01*
X148678571Y-98680952D01*
X148650000Y-98642857D01*
X148592857Y-98604761D01*
X111571904Y-87632000D02*
X112143333Y-87632000D01*
X112257619Y-87660571D01*
X112333809Y-87717714D01*
X112371904Y-87803428D01*
X112371904Y-87860571D01*
X112371904Y-87032000D02*
X112371904Y-87374857D01*
X112371904Y-87203428D02*
X111571904Y-87203428D01*
X111686190Y-87260571D01*
X111762380Y-87317714D01*
X111800476Y-87374857D01*
X189666904Y-88550000D02*
X189285952Y-88750000D01*
X189666904Y-88892857D02*
X188866904Y-88892857D01*
X188866904Y-88664285D01*
X188905000Y-88607142D01*
X188943095Y-88578571D01*
X189019285Y-88550000D01*
X189133571Y-88550000D01*
X189209761Y-88578571D01*
X189247857Y-88607142D01*
X189285952Y-88664285D01*
X189285952Y-88892857D01*
X189133571Y-88035714D02*
X189666904Y-88035714D01*
X188828809Y-88178571D02*
X189400238Y-88321428D01*
X189400238Y-87950000D01*
X148818561Y-95085499D02*
X149087935Y-94816125D01*
X148663671Y-95523231D02*
X148818561Y-95085499D01*
X148380829Y-95240389D01*
X148246142Y-94728578D02*
X148623265Y-94351455D01*
X148131658Y-95045093D02*
X148636734Y-94742047D01*
X148374094Y-94479407D01*
X160264285Y-103411904D02*
X160064285Y-103030952D01*
X159921428Y-103411904D02*
X159921428Y-102611904D01*
X160150000Y-102611904D01*
X160207142Y-102650000D01*
X160235714Y-102688095D01*
X160264285Y-102764285D01*
X160264285Y-102878571D01*
X160235714Y-102954761D01*
X160207142Y-102992857D01*
X160150000Y-103030952D01*
X159921428Y-103030952D01*
X160464285Y-102611904D02*
X160835714Y-102611904D01*
X160635714Y-102916666D01*
X160721428Y-102916666D01*
X160778571Y-102954761D01*
X160807142Y-102992857D01*
X160835714Y-103069047D01*
X160835714Y-103259523D01*
X160807142Y-103335714D01*
X160778571Y-103373809D01*
X160721428Y-103411904D01*
X160550000Y-103411904D01*
X160492857Y-103373809D01*
X160464285Y-103335714D01*
X161035714Y-102611904D02*
X161435714Y-102611904D01*
X161178571Y-103411904D01*
X162739285Y-94361904D02*
X162539285Y-93980952D01*
X162396428Y-94361904D02*
X162396428Y-93561904D01*
X162625000Y-93561904D01*
X162682142Y-93600000D01*
X162710714Y-93638095D01*
X162739285Y-93714285D01*
X162739285Y-93828571D01*
X162710714Y-93904761D01*
X162682142Y-93942857D01*
X162625000Y-93980952D01*
X162396428Y-93980952D01*
X163310714Y-94361904D02*
X162967857Y-94361904D01*
X163139285Y-94361904D02*
X163139285Y-93561904D01*
X163082142Y-93676190D01*
X163025000Y-93752380D01*
X162967857Y-93790476D01*
X163510714Y-93561904D02*
X163910714Y-93561904D01*
X163653571Y-94361904D01*
X205785714Y-102261904D02*
X205585714Y-101880952D01*
X205442857Y-102261904D02*
X205442857Y-101461904D01*
X205671428Y-101461904D01*
X205728571Y-101500000D01*
X205757142Y-101538095D01*
X205785714Y-101614285D01*
X205785714Y-101728571D01*
X205757142Y-101804761D01*
X205728571Y-101842857D01*
X205671428Y-101880952D01*
X205442857Y-101880952D01*
X205985714Y-101461904D02*
X206385714Y-102261904D01*
X206385714Y-101461904D02*
X205985714Y-102261904D01*
X206585714Y-101538095D02*
X206614285Y-101500000D01*
X206671428Y-101461904D01*
X206814285Y-101461904D01*
X206871428Y-101500000D01*
X206900000Y-101538095D01*
X206928571Y-101614285D01*
X206928571Y-101690476D01*
X206900000Y-101804761D01*
X206557142Y-102261904D01*
X206928571Y-102261904D01*
X207042857Y-102338095D02*
X207500000Y-102338095D01*
X207642857Y-102261904D02*
X207642857Y-101461904D01*
X207985714Y-102261904D01*
X207985714Y-101461904D01*
X208585714Y-102261904D02*
X208242857Y-102261904D01*
X208414285Y-102261904D02*
X208414285Y-101461904D01*
X208357142Y-101576190D01*
X208300000Y-101652380D01*
X208242857Y-101690476D01*
X150985714Y-107435714D02*
X151023809Y-107464285D01*
X151061904Y-107550000D01*
X151061904Y-107607142D01*
X151023809Y-107692857D01*
X150947619Y-107750000D01*
X150871428Y-107778571D01*
X150719047Y-107807142D01*
X150604761Y-107807142D01*
X150452380Y-107778571D01*
X150376190Y-107750000D01*
X150300000Y-107692857D01*
X150261904Y-107607142D01*
X150261904Y-107550000D01*
X150300000Y-107464285D01*
X150338095Y-107435714D01*
X150261904Y-107235714D02*
X150261904Y-106835714D01*
X151061904Y-107092857D01*
X150338095Y-106635714D02*
X150300000Y-106607142D01*
X150261904Y-106550000D01*
X150261904Y-106407142D01*
X150300000Y-106350000D01*
X150338095Y-106321428D01*
X150414285Y-106292857D01*
X150490476Y-106292857D01*
X150604761Y-106321428D01*
X151061904Y-106664285D01*
X151061904Y-106292857D01*
X162824285Y-101011904D02*
X162624285Y-100630952D01*
X162481428Y-101011904D02*
X162481428Y-100211904D01*
X162710000Y-100211904D01*
X162767142Y-100250000D01*
X162795714Y-100288095D01*
X162824285Y-100364285D01*
X162824285Y-100478571D01*
X162795714Y-100554761D01*
X162767142Y-100592857D01*
X162710000Y-100630952D01*
X162481428Y-100630952D01*
X163395714Y-101011904D02*
X163052857Y-101011904D01*
X163224285Y-101011904D02*
X163224285Y-100211904D01*
X163167142Y-100326190D01*
X163110000Y-100402380D01*
X163052857Y-100440476D01*
X163767142Y-100211904D02*
X163824285Y-100211904D01*
X163881428Y-100250000D01*
X163910000Y-100288095D01*
X163938571Y-100364285D01*
X163967142Y-100516666D01*
X163967142Y-100707142D01*
X163938571Y-100859523D01*
X163910000Y-100935714D01*
X163881428Y-100973809D01*
X163824285Y-101011904D01*
X163767142Y-101011904D01*
X163710000Y-100973809D01*
X163681428Y-100935714D01*
X163652857Y-100859523D01*
X163624285Y-100707142D01*
X163624285Y-100516666D01*
X163652857Y-100364285D01*
X163681428Y-100288095D01*
X163710000Y-100250000D01*
X163767142Y-100211904D01*
X184564285Y-98415714D02*
X184535714Y-98453809D01*
X184450000Y-98491904D01*
X184392857Y-98491904D01*
X184307142Y-98453809D01*
X184250000Y-98377619D01*
X184221428Y-98301428D01*
X184192857Y-98149047D01*
X184192857Y-98034761D01*
X184221428Y-97882380D01*
X184250000Y-97806190D01*
X184307142Y-97730000D01*
X184392857Y-97691904D01*
X184450000Y-97691904D01*
X184535714Y-97730000D01*
X184564285Y-97768095D01*
X184764285Y-97691904D02*
X185135714Y-97691904D01*
X184935714Y-97996666D01*
X185021428Y-97996666D01*
X185078571Y-98034761D01*
X185107142Y-98072857D01*
X185135714Y-98149047D01*
X185135714Y-98339523D01*
X185107142Y-98415714D01*
X185078571Y-98453809D01*
X185021428Y-98491904D01*
X184850000Y-98491904D01*
X184792857Y-98453809D01*
X184764285Y-98415714D01*
X185650000Y-97958571D02*
X185650000Y-98491904D01*
X185507142Y-97653809D02*
X185364285Y-98225238D01*
X185735714Y-98225238D01*
X147564285Y-102835714D02*
X147535714Y-102873809D01*
X147450000Y-102911904D01*
X147392857Y-102911904D01*
X147307142Y-102873809D01*
X147250000Y-102797619D01*
X147221428Y-102721428D01*
X147192857Y-102569047D01*
X147192857Y-102454761D01*
X147221428Y-102302380D01*
X147250000Y-102226190D01*
X147307142Y-102150000D01*
X147392857Y-102111904D01*
X147450000Y-102111904D01*
X147535714Y-102150000D01*
X147564285Y-102188095D01*
X147764285Y-102111904D02*
X148164285Y-102111904D01*
X147907142Y-102911904D01*
X148335714Y-102111904D02*
X148735714Y-102111904D01*
X148478571Y-102911904D01*
X203914285Y-104561904D02*
X203914285Y-105209523D01*
X203942857Y-105285714D01*
X203971428Y-105323809D01*
X204028571Y-105361904D01*
X204142857Y-105361904D01*
X204200000Y-105323809D01*
X204228571Y-105285714D01*
X204257142Y-105209523D01*
X204257142Y-104561904D01*
X204514285Y-105323809D02*
X204600000Y-105361904D01*
X204742857Y-105361904D01*
X204800000Y-105323809D01*
X204828571Y-105285714D01*
X204857142Y-105209523D01*
X204857142Y-105133333D01*
X204828571Y-105057142D01*
X204800000Y-105019047D01*
X204742857Y-104980952D01*
X204628571Y-104942857D01*
X204571428Y-104904761D01*
X204542857Y-104866666D01*
X204514285Y-104790476D01*
X204514285Y-104714285D01*
X204542857Y-104638095D01*
X204571428Y-104600000D01*
X204628571Y-104561904D01*
X204771428Y-104561904D01*
X204857142Y-104600000D01*
X205314285Y-104942857D02*
X205400000Y-104980952D01*
X205428571Y-105019047D01*
X205457142Y-105095238D01*
X205457142Y-105209523D01*
X205428571Y-105285714D01*
X205400000Y-105323809D01*
X205342857Y-105361904D01*
X205114285Y-105361904D01*
X205114285Y-104561904D01*
X205314285Y-104561904D01*
X205371428Y-104600000D01*
X205400000Y-104638095D01*
X205428571Y-104714285D01*
X205428571Y-104790476D01*
X205400000Y-104866666D01*
X205371428Y-104904761D01*
X205314285Y-104942857D01*
X205114285Y-104942857D01*
X205571428Y-105438095D02*
X206028571Y-105438095D01*
X206485714Y-104600000D02*
X206428571Y-104561904D01*
X206342857Y-104561904D01*
X206257142Y-104600000D01*
X206200000Y-104676190D01*
X206171428Y-104752380D01*
X206142857Y-104904761D01*
X206142857Y-105019047D01*
X206171428Y-105171428D01*
X206200000Y-105247619D01*
X206257142Y-105323809D01*
X206342857Y-105361904D01*
X206400000Y-105361904D01*
X206485714Y-105323809D01*
X206514285Y-105285714D01*
X206514285Y-105019047D01*
X206400000Y-105019047D01*
X206771428Y-105361904D02*
X206771428Y-104561904D01*
X207114285Y-105361904D01*
X207114285Y-104561904D01*
X207400000Y-105361904D02*
X207400000Y-104561904D01*
X207542857Y-104561904D01*
X207628571Y-104600000D01*
X207685714Y-104676190D01*
X207714285Y-104752380D01*
X207742857Y-104904761D01*
X207742857Y-105019047D01*
X207714285Y-105171428D01*
X207685714Y-105247619D01*
X207628571Y-105323809D01*
X207542857Y-105361904D01*
X207400000Y-105361904D01*
X207971428Y-104638095D02*
X208000000Y-104600000D01*
X208057142Y-104561904D01*
X208200000Y-104561904D01*
X208257142Y-104600000D01*
X208285714Y-104638095D01*
X208314285Y-104714285D01*
X208314285Y-104790476D01*
X208285714Y-104904761D01*
X207942857Y-105361904D01*
X208314285Y-105361904D01*
X182692857Y-89811904D02*
X182692857Y-90459523D01*
X182721428Y-90535714D01*
X182750000Y-90573809D01*
X182807142Y-90611904D01*
X182921428Y-90611904D01*
X182978571Y-90573809D01*
X183007142Y-90535714D01*
X183035714Y-90459523D01*
X183035714Y-89811904D01*
X183264285Y-89811904D02*
X183635714Y-89811904D01*
X183435714Y-90116666D01*
X183521428Y-90116666D01*
X183578571Y-90154761D01*
X183607142Y-90192857D01*
X183635714Y-90269047D01*
X183635714Y-90459523D01*
X183607142Y-90535714D01*
X183578571Y-90573809D01*
X183521428Y-90611904D01*
X183350000Y-90611904D01*
X183292857Y-90573809D01*
X183264285Y-90535714D01*
X147614285Y-103935714D02*
X147585714Y-103973809D01*
X147500000Y-104011904D01*
X147442857Y-104011904D01*
X147357142Y-103973809D01*
X147300000Y-103897619D01*
X147271428Y-103821428D01*
X147242857Y-103669047D01*
X147242857Y-103554761D01*
X147271428Y-103402380D01*
X147300000Y-103326190D01*
X147357142Y-103250000D01*
X147442857Y-103211904D01*
X147500000Y-103211904D01*
X147585714Y-103250000D01*
X147614285Y-103288095D01*
X147814285Y-103211904D02*
X148214285Y-103211904D01*
X147957142Y-104011904D01*
X148471428Y-104011904D02*
X148585714Y-104011904D01*
X148642857Y-103973809D01*
X148671428Y-103935714D01*
X148728571Y-103821428D01*
X148757142Y-103669047D01*
X148757142Y-103364285D01*
X148728571Y-103288095D01*
X148700000Y-103250000D01*
X148642857Y-103211904D01*
X148528571Y-103211904D01*
X148471428Y-103250000D01*
X148442857Y-103288095D01*
X148414285Y-103364285D01*
X148414285Y-103554761D01*
X148442857Y-103630952D01*
X148471428Y-103669047D01*
X148528571Y-103707142D01*
X148642857Y-103707142D01*
X148700000Y-103669047D01*
X148728571Y-103630952D01*
X148757142Y-103554761D01*
X129342857Y-95111904D02*
X129342857Y-95759523D01*
X129371428Y-95835714D01*
X129400000Y-95873809D01*
X129457142Y-95911904D01*
X129571428Y-95911904D01*
X129628571Y-95873809D01*
X129657142Y-95835714D01*
X129685714Y-95759523D01*
X129685714Y-95111904D01*
X130228571Y-95111904D02*
X130114285Y-95111904D01*
X130057142Y-95150000D01*
X130028571Y-95188095D01*
X129971428Y-95302380D01*
X129942857Y-95454761D01*
X129942857Y-95759523D01*
X129971428Y-95835714D01*
X130000000Y-95873809D01*
X130057142Y-95911904D01*
X130171428Y-95911904D01*
X130228571Y-95873809D01*
X130257142Y-95835714D01*
X130285714Y-95759523D01*
X130285714Y-95569047D01*
X130257142Y-95492857D01*
X130228571Y-95454761D01*
X130171428Y-95416666D01*
X130057142Y-95416666D01*
X130000000Y-95454761D01*
X129971428Y-95492857D01*
X129942857Y-95569047D01*
X166364285Y-93261904D02*
X166164285Y-92880952D01*
X166021428Y-93261904D02*
X166021428Y-92461904D01*
X166250000Y-92461904D01*
X166307142Y-92500000D01*
X166335714Y-92538095D01*
X166364285Y-92614285D01*
X166364285Y-92728571D01*
X166335714Y-92804761D01*
X166307142Y-92842857D01*
X166250000Y-92880952D01*
X166021428Y-92880952D01*
X166935714Y-93261904D02*
X166592857Y-93261904D01*
X166764285Y-93261904D02*
X166764285Y-92461904D01*
X166707142Y-92576190D01*
X166650000Y-92652380D01*
X166592857Y-92690476D01*
X167221428Y-93261904D02*
X167335714Y-93261904D01*
X167392857Y-93223809D01*
X167421428Y-93185714D01*
X167478571Y-93071428D01*
X167507142Y-92919047D01*
X167507142Y-92614285D01*
X167478571Y-92538095D01*
X167450000Y-92500000D01*
X167392857Y-92461904D01*
X167278571Y-92461904D01*
X167221428Y-92500000D01*
X167192857Y-92538095D01*
X167164285Y-92614285D01*
X167164285Y-92804761D01*
X167192857Y-92880952D01*
X167221428Y-92919047D01*
X167278571Y-92957142D01*
X167392857Y-92957142D01*
X167450000Y-92919047D01*
X167478571Y-92880952D01*
X167507142Y-92804761D01*
X162739285Y-102161904D02*
X162539285Y-101780952D01*
X162396428Y-102161904D02*
X162396428Y-101361904D01*
X162625000Y-101361904D01*
X162682142Y-101400000D01*
X162710714Y-101438095D01*
X162739285Y-101514285D01*
X162739285Y-101628571D01*
X162710714Y-101704761D01*
X162682142Y-101742857D01*
X162625000Y-101780952D01*
X162396428Y-101780952D01*
X163310714Y-102161904D02*
X162967857Y-102161904D01*
X163139285Y-102161904D02*
X163139285Y-101361904D01*
X163082142Y-101476190D01*
X163025000Y-101552380D01*
X162967857Y-101590476D01*
X163882142Y-102161904D02*
X163539285Y-102161904D01*
X163710714Y-102161904D02*
X163710714Y-101361904D01*
X163653571Y-101476190D01*
X163596428Y-101552380D01*
X163539285Y-101590476D01*
X205928571Y-99323809D02*
X206014285Y-99361904D01*
X206157142Y-99361904D01*
X206214285Y-99323809D01*
X206242857Y-99285714D01*
X206271428Y-99209523D01*
X206271428Y-99133333D01*
X206242857Y-99057142D01*
X206214285Y-99019047D01*
X206157142Y-98980952D01*
X206042857Y-98942857D01*
X205985714Y-98904761D01*
X205957142Y-98866666D01*
X205928571Y-98790476D01*
X205928571Y-98714285D01*
X205957142Y-98638095D01*
X205985714Y-98600000D01*
X206042857Y-98561904D01*
X206185714Y-98561904D01*
X206271428Y-98600000D01*
X206728571Y-98942857D02*
X206814285Y-98980952D01*
X206842857Y-99019047D01*
X206871428Y-99095238D01*
X206871428Y-99209523D01*
X206842857Y-99285714D01*
X206814285Y-99323809D01*
X206757142Y-99361904D01*
X206528571Y-99361904D01*
X206528571Y-98561904D01*
X206728571Y-98561904D01*
X206785714Y-98600000D01*
X206814285Y-98638095D01*
X206842857Y-98714285D01*
X206842857Y-98790476D01*
X206814285Y-98866666D01*
X206785714Y-98904761D01*
X206728571Y-98942857D01*
X206528571Y-98942857D01*
X207128571Y-98561904D02*
X207128571Y-99209523D01*
X207157142Y-99285714D01*
X207185714Y-99323809D01*
X207242857Y-99361904D01*
X207357142Y-99361904D01*
X207414285Y-99323809D01*
X207442857Y-99285714D01*
X207471428Y-99209523D01*
X207471428Y-98561904D01*
X208071428Y-99361904D02*
X207728571Y-99361904D01*
X207900000Y-99361904D02*
X207900000Y-98561904D01*
X207842857Y-98676190D01*
X207785714Y-98752380D01*
X207728571Y-98790476D01*
X135314285Y-93335714D02*
X135285714Y-93373809D01*
X135200000Y-93411904D01*
X135142857Y-93411904D01*
X135057142Y-93373809D01*
X135000000Y-93297619D01*
X134971428Y-93221428D01*
X134942857Y-93069047D01*
X134942857Y-92954761D01*
X134971428Y-92802380D01*
X135000000Y-92726190D01*
X135057142Y-92650000D01*
X135142857Y-92611904D01*
X135200000Y-92611904D01*
X135285714Y-92650000D01*
X135314285Y-92688095D01*
X135600000Y-93411904D02*
X135714285Y-93411904D01*
X135771428Y-93373809D01*
X135800000Y-93335714D01*
X135857142Y-93221428D01*
X135885714Y-93069047D01*
X135885714Y-92764285D01*
X135857142Y-92688095D01*
X135828571Y-92650000D01*
X135771428Y-92611904D01*
X135657142Y-92611904D01*
X135600000Y-92650000D01*
X135571428Y-92688095D01*
X135542857Y-92764285D01*
X135542857Y-92954761D01*
X135571428Y-93030952D01*
X135600000Y-93069047D01*
X135657142Y-93107142D01*
X135771428Y-93107142D01*
X135828571Y-93069047D01*
X135857142Y-93030952D01*
X135885714Y-92954761D01*
X136457142Y-93411904D02*
X136114285Y-93411904D01*
X136285714Y-93411904D02*
X136285714Y-92611904D01*
X136228571Y-92726190D01*
X136171428Y-92802380D01*
X136114285Y-92840476D01*
X205700000Y-103886904D02*
X205500000Y-103505952D01*
X205357142Y-103886904D02*
X205357142Y-103086904D01*
X205585714Y-103086904D01*
X205642857Y-103125000D01*
X205671428Y-103163095D01*
X205700000Y-103239285D01*
X205700000Y-103353571D01*
X205671428Y-103429761D01*
X205642857Y-103467857D01*
X205585714Y-103505952D01*
X205357142Y-103505952D01*
X205900000Y-103086904D02*
X206300000Y-103886904D01*
X206300000Y-103086904D02*
X205900000Y-103886904D01*
X206500000Y-103163095D02*
X206528571Y-103125000D01*
X206585714Y-103086904D01*
X206728571Y-103086904D01*
X206785714Y-103125000D01*
X206814285Y-103163095D01*
X206842857Y-103239285D01*
X206842857Y-103315476D01*
X206814285Y-103429761D01*
X206471428Y-103886904D01*
X206842857Y-103886904D01*
X206957142Y-103963095D02*
X207414285Y-103963095D01*
X207557142Y-103886904D02*
X207557142Y-103086904D01*
X207785714Y-103086904D01*
X207842857Y-103125000D01*
X207871428Y-103163095D01*
X207900000Y-103239285D01*
X207900000Y-103353571D01*
X207871428Y-103429761D01*
X207842857Y-103467857D01*
X207785714Y-103505952D01*
X207557142Y-103505952D01*
X208471428Y-103886904D02*
X208128571Y-103886904D01*
X208300000Y-103886904D02*
X208300000Y-103086904D01*
X208242857Y-103201190D01*
X208185714Y-103277380D01*
X208128571Y-103315476D01*
D11*
X152235714Y-107335714D02*
X152273809Y-107364285D01*
X152311904Y-107450000D01*
X152311904Y-107507142D01*
X152273809Y-107592857D01*
X152197619Y-107650000D01*
X152121428Y-107678571D01*
X151969047Y-107707142D01*
X151854761Y-107707142D01*
X151702380Y-107678571D01*
X151626190Y-107650000D01*
X151550000Y-107592857D01*
X151511904Y-107507142D01*
X151511904Y-107450000D01*
X151550000Y-107364285D01*
X151588095Y-107335714D01*
X151511904Y-107135714D02*
X151511904Y-106735714D01*
X152311904Y-106992857D01*
X151778571Y-106250000D02*
X152311904Y-106250000D01*
X151473809Y-106392857D02*
X152045238Y-106535714D01*
X152045238Y-106164285D01*
D10*
X190892857Y-91971904D02*
X190892857Y-92619523D01*
X190921428Y-92695714D01*
X190950000Y-92733809D01*
X191007142Y-92771904D01*
X191121428Y-92771904D01*
X191178571Y-92733809D01*
X191207142Y-92695714D01*
X191235714Y-92619523D01*
X191235714Y-91971904D01*
X191778571Y-92238571D02*
X191778571Y-92771904D01*
X191635714Y-91933809D02*
X191492857Y-92505238D01*
X191864285Y-92505238D01*
X185811904Y-112952857D02*
X185011904Y-112952857D01*
X185392857Y-112952857D02*
X185392857Y-112610000D01*
X185811904Y-112610000D02*
X185011904Y-112610000D01*
X185811904Y-112324285D02*
X185011904Y-112324285D01*
X185011904Y-112181428D01*
X185050000Y-112095714D01*
X185126190Y-112038571D01*
X185202380Y-112010000D01*
X185354761Y-111981428D01*
X185469047Y-111981428D01*
X185621428Y-112010000D01*
X185697619Y-112038571D01*
X185773809Y-112095714D01*
X185811904Y-112181428D01*
X185811904Y-112324285D01*
X185811904Y-111724285D02*
X185011904Y-111724285D01*
X185583333Y-111524285D01*
X185011904Y-111324285D01*
X185811904Y-111324285D01*
X185811904Y-111038571D02*
X185011904Y-111038571D01*
X185811904Y-110438571D02*
X185811904Y-110781428D01*
X185811904Y-110610000D02*
X185011904Y-110610000D01*
X185126190Y-110667142D01*
X185202380Y-110724285D01*
X185240476Y-110781428D01*
X156625714Y-120726428D02*
X156663809Y-120755000D01*
X156701904Y-120840714D01*
X156701904Y-120897857D01*
X156663809Y-120983571D01*
X156587619Y-121040714D01*
X156511428Y-121069285D01*
X156359047Y-121097857D01*
X156244761Y-121097857D01*
X156092380Y-121069285D01*
X156016190Y-121040714D01*
X155940000Y-120983571D01*
X155901904Y-120897857D01*
X155901904Y-120840714D01*
X155940000Y-120755000D01*
X155978095Y-120726428D01*
X156701904Y-120155000D02*
X156701904Y-120497857D01*
X156701904Y-120326428D02*
X155901904Y-120326428D01*
X156016190Y-120383571D01*
X156092380Y-120440714D01*
X156130476Y-120497857D01*
X155901904Y-119955000D02*
X155901904Y-119583571D01*
X156206666Y-119783571D01*
X156206666Y-119697857D01*
X156244761Y-119640714D01*
X156282857Y-119612142D01*
X156359047Y-119583571D01*
X156549523Y-119583571D01*
X156625714Y-119612142D01*
X156663809Y-119640714D01*
X156701904Y-119697857D01*
X156701904Y-119869285D01*
X156663809Y-119926428D01*
X156625714Y-119955000D01*
X156244761Y-119240714D02*
X156206666Y-119297857D01*
X156168571Y-119326428D01*
X156092380Y-119355000D01*
X156054285Y-119355000D01*
X155978095Y-119326428D01*
X155940000Y-119297857D01*
X155901904Y-119240714D01*
X155901904Y-119126428D01*
X155940000Y-119069285D01*
X155978095Y-119040714D01*
X156054285Y-119012142D01*
X156092380Y-119012142D01*
X156168571Y-119040714D01*
X156206666Y-119069285D01*
X156244761Y-119126428D01*
X156244761Y-119240714D01*
X156282857Y-119297857D01*
X156320952Y-119326428D01*
X156397142Y-119355000D01*
X156549523Y-119355000D01*
X156625714Y-119326428D01*
X156663809Y-119297857D01*
X156701904Y-119240714D01*
X156701904Y-119126428D01*
X156663809Y-119069285D01*
X156625714Y-119040714D01*
X156549523Y-119012142D01*
X156397142Y-119012142D01*
X156320952Y-119040714D01*
X156282857Y-119069285D01*
X156244761Y-119126428D01*
X207300000Y-94785714D02*
X207271428Y-94823809D01*
X207185714Y-94861904D01*
X207128571Y-94861904D01*
X207042857Y-94823809D01*
X206985714Y-94747619D01*
X206957142Y-94671428D01*
X206928571Y-94519047D01*
X206928571Y-94404761D01*
X206957142Y-94252380D01*
X206985714Y-94176190D01*
X207042857Y-94100000D01*
X207128571Y-94061904D01*
X207185714Y-94061904D01*
X207271428Y-94100000D01*
X207300000Y-94138095D01*
X207900000Y-94785714D02*
X207871428Y-94823809D01*
X207785714Y-94861904D01*
X207728571Y-94861904D01*
X207642857Y-94823809D01*
X207585714Y-94747619D01*
X207557142Y-94671428D01*
X207528571Y-94519047D01*
X207528571Y-94404761D01*
X207557142Y-94252380D01*
X207585714Y-94176190D01*
X207642857Y-94100000D01*
X207728571Y-94061904D01*
X207785714Y-94061904D01*
X207871428Y-94100000D01*
X207900000Y-94138095D01*
X208471428Y-94861904D02*
X208128571Y-94861904D01*
X208300000Y-94861904D02*
X208300000Y-94061904D01*
X208242857Y-94176190D01*
X208185714Y-94252380D01*
X208128571Y-94290476D01*
X183904285Y-101455714D02*
X183875714Y-101493809D01*
X183790000Y-101531904D01*
X183732857Y-101531904D01*
X183647142Y-101493809D01*
X183590000Y-101417619D01*
X183561428Y-101341428D01*
X183532857Y-101189047D01*
X183532857Y-101074761D01*
X183561428Y-100922380D01*
X183590000Y-100846190D01*
X183647142Y-100770000D01*
X183732857Y-100731904D01*
X183790000Y-100731904D01*
X183875714Y-100770000D01*
X183904285Y-100808095D01*
X184475714Y-101531904D02*
X184132857Y-101531904D01*
X184304285Y-101531904D02*
X184304285Y-100731904D01*
X184247142Y-100846190D01*
X184190000Y-100922380D01*
X184132857Y-100960476D01*
X184990000Y-100731904D02*
X184875714Y-100731904D01*
X184818571Y-100770000D01*
X184790000Y-100808095D01*
X184732857Y-100922380D01*
X184704285Y-101074761D01*
X184704285Y-101379523D01*
X184732857Y-101455714D01*
X184761428Y-101493809D01*
X184818571Y-101531904D01*
X184932857Y-101531904D01*
X184990000Y-101493809D01*
X185018571Y-101455714D01*
X185047142Y-101379523D01*
X185047142Y-101189047D01*
X185018571Y-101112857D01*
X184990000Y-101074761D01*
X184932857Y-101036666D01*
X184818571Y-101036666D01*
X184761428Y-101074761D01*
X184732857Y-101112857D01*
X184704285Y-101189047D01*
X187411904Y-105808571D02*
X186611904Y-105808571D01*
X186611904Y-105665714D01*
X186650000Y-105580000D01*
X186726190Y-105522857D01*
X186802380Y-105494285D01*
X186954761Y-105465714D01*
X187069047Y-105465714D01*
X187221428Y-105494285D01*
X187297619Y-105522857D01*
X187373809Y-105580000D01*
X187411904Y-105665714D01*
X187411904Y-105808571D01*
X187411904Y-104894285D02*
X187411904Y-105237142D01*
X187411904Y-105065714D02*
X186611904Y-105065714D01*
X186726190Y-105122857D01*
X186802380Y-105180000D01*
X186840476Y-105237142D01*
X187411904Y-104322857D02*
X187411904Y-104665714D01*
X187411904Y-104494285D02*
X186611904Y-104494285D01*
X186726190Y-104551428D01*
X186802380Y-104608571D01*
X186840476Y-104665714D01*
X149204285Y-87811904D02*
X149004285Y-87430952D01*
X148861428Y-87811904D02*
X148861428Y-87011904D01*
X149090000Y-87011904D01*
X149147142Y-87050000D01*
X149175714Y-87088095D01*
X149204285Y-87164285D01*
X149204285Y-87278571D01*
X149175714Y-87354761D01*
X149147142Y-87392857D01*
X149090000Y-87430952D01*
X148861428Y-87430952D01*
X149404285Y-87011904D02*
X149775714Y-87011904D01*
X149575714Y-87316666D01*
X149661428Y-87316666D01*
X149718571Y-87354761D01*
X149747142Y-87392857D01*
X149775714Y-87469047D01*
X149775714Y-87659523D01*
X149747142Y-87735714D01*
X149718571Y-87773809D01*
X149661428Y-87811904D01*
X149490000Y-87811904D01*
X149432857Y-87773809D01*
X149404285Y-87735714D01*
X149975714Y-87011904D02*
X150347142Y-87011904D01*
X150147142Y-87316666D01*
X150232857Y-87316666D01*
X150290000Y-87354761D01*
X150318571Y-87392857D01*
X150347142Y-87469047D01*
X150347142Y-87659523D01*
X150318571Y-87735714D01*
X150290000Y-87773809D01*
X150232857Y-87811904D01*
X150061428Y-87811904D01*
X150004285Y-87773809D01*
X149975714Y-87735714D01*
X149114285Y-96286904D02*
X148914285Y-95905952D01*
X148771428Y-96286904D02*
X148771428Y-95486904D01*
X149000000Y-95486904D01*
X149057142Y-95525000D01*
X149085714Y-95563095D01*
X149114285Y-95639285D01*
X149114285Y-95753571D01*
X149085714Y-95829761D01*
X149057142Y-95867857D01*
X149000000Y-95905952D01*
X148771428Y-95905952D01*
X149314285Y-95486904D02*
X149685714Y-95486904D01*
X149485714Y-95791666D01*
X149571428Y-95791666D01*
X149628571Y-95829761D01*
X149657142Y-95867857D01*
X149685714Y-95944047D01*
X149685714Y-96134523D01*
X149657142Y-96210714D01*
X149628571Y-96248809D01*
X149571428Y-96286904D01*
X149400000Y-96286904D01*
X149342857Y-96248809D01*
X149314285Y-96210714D01*
X150200000Y-95753571D02*
X150200000Y-96286904D01*
X150057142Y-95448809D02*
X149914285Y-96020238D01*
X150285714Y-96020238D01*
X188546904Y-88600000D02*
X188165952Y-88800000D01*
X188546904Y-88942857D02*
X187746904Y-88942857D01*
X187746904Y-88714285D01*
X187785000Y-88657142D01*
X187823095Y-88628571D01*
X187899285Y-88600000D01*
X188013571Y-88600000D01*
X188089761Y-88628571D01*
X188127857Y-88657142D01*
X188165952Y-88714285D01*
X188165952Y-88942857D01*
X188089761Y-88257142D02*
X188051666Y-88314285D01*
X188013571Y-88342857D01*
X187937380Y-88371428D01*
X187899285Y-88371428D01*
X187823095Y-88342857D01*
X187785000Y-88314285D01*
X187746904Y-88257142D01*
X187746904Y-88142857D01*
X187785000Y-88085714D01*
X187823095Y-88057142D01*
X187899285Y-88028571D01*
X187937380Y-88028571D01*
X188013571Y-88057142D01*
X188051666Y-88085714D01*
X188089761Y-88142857D01*
X188089761Y-88257142D01*
X188127857Y-88314285D01*
X188165952Y-88342857D01*
X188242142Y-88371428D01*
X188394523Y-88371428D01*
X188470714Y-88342857D01*
X188508809Y-88314285D01*
X188546904Y-88257142D01*
X188546904Y-88142857D01*
X188508809Y-88085714D01*
X188470714Y-88057142D01*
X188394523Y-88028571D01*
X188242142Y-88028571D01*
X188165952Y-88057142D01*
X188127857Y-88085714D01*
X188089761Y-88142857D01*
X202537160Y-88061904D02*
X202537160Y-88709523D01*
X202565732Y-88785714D01*
X202594303Y-88823809D01*
X202651446Y-88861904D01*
X202765732Y-88861904D01*
X202822875Y-88823809D01*
X202851446Y-88785714D01*
X202880017Y-88709523D01*
X202880017Y-88061904D01*
X203137160Y-88823809D02*
X203222875Y-88861904D01*
X203365732Y-88861904D01*
X203422875Y-88823809D01*
X203451446Y-88785714D01*
X203480017Y-88709523D01*
X203480017Y-88633333D01*
X203451446Y-88557142D01*
X203422875Y-88519047D01*
X203365732Y-88480952D01*
X203251446Y-88442857D01*
X203194303Y-88404761D01*
X203165732Y-88366666D01*
X203137160Y-88290476D01*
X203137160Y-88214285D01*
X203165732Y-88138095D01*
X203194303Y-88100000D01*
X203251446Y-88061904D01*
X203394303Y-88061904D01*
X203480017Y-88100000D01*
X203937160Y-88442857D02*
X204022875Y-88480952D01*
X204051446Y-88519047D01*
X204080017Y-88595238D01*
X204080017Y-88709523D01*
X204051446Y-88785714D01*
X204022875Y-88823809D01*
X203965732Y-88861904D01*
X203737160Y-88861904D01*
X203737160Y-88061904D01*
X203937160Y-88061904D01*
X203994303Y-88100000D01*
X204022875Y-88138095D01*
X204051446Y-88214285D01*
X204051446Y-88290476D01*
X204022875Y-88366666D01*
X203994303Y-88404761D01*
X203937160Y-88442857D01*
X203737160Y-88442857D01*
X204194303Y-88938095D02*
X204651446Y-88938095D01*
X205108589Y-88100000D02*
X205051446Y-88061904D01*
X204965732Y-88061904D01*
X204880017Y-88100000D01*
X204822875Y-88176190D01*
X204794303Y-88252380D01*
X204765732Y-88404761D01*
X204765732Y-88519047D01*
X204794303Y-88671428D01*
X204822875Y-88747619D01*
X204880017Y-88823809D01*
X204965732Y-88861904D01*
X205022875Y-88861904D01*
X205108589Y-88823809D01*
X205137160Y-88785714D01*
X205137160Y-88519047D01*
X205022875Y-88519047D01*
X205394303Y-88861904D02*
X205394303Y-88061904D01*
X205737160Y-88861904D01*
X205737160Y-88061904D01*
X206022875Y-88861904D02*
X206022875Y-88061904D01*
X206165732Y-88061904D01*
X206251446Y-88100000D01*
X206308589Y-88176190D01*
X206337160Y-88252380D01*
X206365732Y-88404761D01*
X206365732Y-88519047D01*
X206337160Y-88671428D01*
X206308589Y-88747619D01*
X206251446Y-88823809D01*
X206165732Y-88861904D01*
X206022875Y-88861904D01*
X206880017Y-88328571D02*
X206880017Y-88861904D01*
X206737160Y-88023809D02*
X206594303Y-88595238D01*
X206965732Y-88595238D01*
X126014285Y-105385714D02*
X125985714Y-105423809D01*
X125900000Y-105461904D01*
X125842857Y-105461904D01*
X125757142Y-105423809D01*
X125700000Y-105347619D01*
X125671428Y-105271428D01*
X125642857Y-105119047D01*
X125642857Y-105004761D01*
X125671428Y-104852380D01*
X125700000Y-104776190D01*
X125757142Y-104700000D01*
X125842857Y-104661904D01*
X125900000Y-104661904D01*
X125985714Y-104700000D01*
X126014285Y-104738095D01*
X126528571Y-104661904D02*
X126414285Y-104661904D01*
X126357142Y-104700000D01*
X126328571Y-104738095D01*
X126271428Y-104852380D01*
X126242857Y-105004761D01*
X126242857Y-105309523D01*
X126271428Y-105385714D01*
X126300000Y-105423809D01*
X126357142Y-105461904D01*
X126471428Y-105461904D01*
X126528571Y-105423809D01*
X126557142Y-105385714D01*
X126585714Y-105309523D01*
X126585714Y-105119047D01*
X126557142Y-105042857D01*
X126528571Y-105004761D01*
X126471428Y-104966666D01*
X126357142Y-104966666D01*
X126300000Y-105004761D01*
X126271428Y-105042857D01*
X126242857Y-105119047D01*
X126871428Y-105461904D02*
X126985714Y-105461904D01*
X127042857Y-105423809D01*
X127071428Y-105385714D01*
X127128571Y-105271428D01*
X127157142Y-105119047D01*
X127157142Y-104814285D01*
X127128571Y-104738095D01*
X127100000Y-104700000D01*
X127042857Y-104661904D01*
X126928571Y-104661904D01*
X126871428Y-104700000D01*
X126842857Y-104738095D01*
X126814285Y-104814285D01*
X126814285Y-105004761D01*
X126842857Y-105080952D01*
X126871428Y-105119047D01*
X126928571Y-105157142D01*
X127042857Y-105157142D01*
X127100000Y-105119047D01*
X127128571Y-105080952D01*
X127157142Y-105004761D01*
X139161904Y-107050000D02*
X139161904Y-107335714D01*
X138361904Y-107335714D01*
X138361904Y-106907142D02*
X138361904Y-106507142D01*
X139161904Y-106764285D01*
X166464285Y-90011904D02*
X166264285Y-89630952D01*
X166121428Y-90011904D02*
X166121428Y-89211904D01*
X166350000Y-89211904D01*
X166407142Y-89250000D01*
X166435714Y-89288095D01*
X166464285Y-89364285D01*
X166464285Y-89478571D01*
X166435714Y-89554761D01*
X166407142Y-89592857D01*
X166350000Y-89630952D01*
X166121428Y-89630952D01*
X166692857Y-89288095D02*
X166721428Y-89250000D01*
X166778571Y-89211904D01*
X166921428Y-89211904D01*
X166978571Y-89250000D01*
X167007142Y-89288095D01*
X167035714Y-89364285D01*
X167035714Y-89440476D01*
X167007142Y-89554761D01*
X166664285Y-90011904D01*
X167035714Y-90011904D01*
X167407142Y-89211904D02*
X167464285Y-89211904D01*
X167521428Y-89250000D01*
X167550000Y-89288095D01*
X167578571Y-89364285D01*
X167607142Y-89516666D01*
X167607142Y-89707142D01*
X167578571Y-89859523D01*
X167550000Y-89935714D01*
X167521428Y-89973809D01*
X167464285Y-90011904D01*
X167407142Y-90011904D01*
X167350000Y-89973809D01*
X167321428Y-89935714D01*
X167292857Y-89859523D01*
X167264285Y-89707142D01*
X167264285Y-89516666D01*
X167292857Y-89364285D01*
X167321428Y-89288095D01*
X167350000Y-89250000D01*
X167407142Y-89211904D01*
X153455714Y-77131428D02*
X153493809Y-77160000D01*
X153531904Y-77245714D01*
X153531904Y-77302857D01*
X153493809Y-77388571D01*
X153417619Y-77445714D01*
X153341428Y-77474285D01*
X153189047Y-77502857D01*
X153074761Y-77502857D01*
X152922380Y-77474285D01*
X152846190Y-77445714D01*
X152770000Y-77388571D01*
X152731904Y-77302857D01*
X152731904Y-77245714D01*
X152770000Y-77160000D01*
X152808095Y-77131428D01*
X153531904Y-76560000D02*
X153531904Y-76902857D01*
X153531904Y-76731428D02*
X152731904Y-76731428D01*
X152846190Y-76788571D01*
X152922380Y-76845714D01*
X152960476Y-76902857D01*
X153531904Y-75988571D02*
X153531904Y-76331428D01*
X153531904Y-76160000D02*
X152731904Y-76160000D01*
X152846190Y-76217142D01*
X152922380Y-76274285D01*
X152960476Y-76331428D01*
X153074761Y-75645714D02*
X153036666Y-75702857D01*
X152998571Y-75731428D01*
X152922380Y-75760000D01*
X152884285Y-75760000D01*
X152808095Y-75731428D01*
X152770000Y-75702857D01*
X152731904Y-75645714D01*
X152731904Y-75531428D01*
X152770000Y-75474285D01*
X152808095Y-75445714D01*
X152884285Y-75417142D01*
X152922380Y-75417142D01*
X152998571Y-75445714D01*
X153036666Y-75474285D01*
X153074761Y-75531428D01*
X153074761Y-75645714D01*
X153112857Y-75702857D01*
X153150952Y-75731428D01*
X153227142Y-75760000D01*
X153379523Y-75760000D01*
X153455714Y-75731428D01*
X153493809Y-75702857D01*
X153531904Y-75645714D01*
X153531904Y-75531428D01*
X153493809Y-75474285D01*
X153455714Y-75445714D01*
X153379523Y-75417142D01*
X153227142Y-75417142D01*
X153150952Y-75445714D01*
X153112857Y-75474285D01*
X153074761Y-75531428D01*
X133019289Y-111044771D02*
X133026023Y-111091912D01*
X132992351Y-111179458D01*
X132951945Y-111219864D01*
X132864399Y-111253536D01*
X132770118Y-111240067D01*
X132696040Y-111206396D01*
X132568087Y-111118849D01*
X132487275Y-111038037D01*
X132399729Y-110910084D01*
X132366057Y-110836006D01*
X132352588Y-110741725D01*
X132386260Y-110654179D01*
X132426666Y-110613773D01*
X132514213Y-110580101D01*
X132561353Y-110586835D01*
X132871133Y-110169306D02*
X132790321Y-110250118D01*
X132776852Y-110317461D01*
X132783587Y-110364602D01*
X132823993Y-110485820D01*
X132911539Y-110613773D01*
X133127038Y-110829272D01*
X133201116Y-110862944D01*
X133248257Y-110869678D01*
X133315600Y-110856209D01*
X133396412Y-110775397D01*
X133409881Y-110708054D01*
X133403147Y-110660913D01*
X133369475Y-110586835D01*
X133234788Y-110452148D01*
X133160710Y-110418477D01*
X133113570Y-110411742D01*
X133046226Y-110425211D01*
X132965414Y-110506023D01*
X132951945Y-110573367D01*
X132958680Y-110620507D01*
X132992351Y-110694585D01*
X133396412Y-110128900D02*
X133329069Y-110142368D01*
X133281928Y-110135634D01*
X133207851Y-110101962D01*
X133180913Y-110075025D01*
X133147241Y-110000947D01*
X133140507Y-109953806D01*
X133153976Y-109886463D01*
X133234788Y-109805651D01*
X133302132Y-109792182D01*
X133349272Y-109798916D01*
X133423350Y-109832588D01*
X133450287Y-109859526D01*
X133483959Y-109933603D01*
X133490693Y-109980744D01*
X133477225Y-110048087D01*
X133396412Y-110128900D01*
X133382944Y-110196243D01*
X133389678Y-110243384D01*
X133423350Y-110317461D01*
X133531099Y-110425211D01*
X133605177Y-110458883D01*
X133652318Y-110465617D01*
X133719661Y-110452148D01*
X133800473Y-110371336D01*
X133813942Y-110303993D01*
X133807208Y-110256852D01*
X133773536Y-110182774D01*
X133665786Y-110075025D01*
X133591709Y-110041353D01*
X133544568Y-110034619D01*
X133477225Y-110048087D01*
X201459285Y-101720714D02*
X201430714Y-101758809D01*
X201345000Y-101796904D01*
X201287857Y-101796904D01*
X201202142Y-101758809D01*
X201145000Y-101682619D01*
X201116428Y-101606428D01*
X201087857Y-101454047D01*
X201087857Y-101339761D01*
X201116428Y-101187380D01*
X201145000Y-101111190D01*
X201202142Y-101035000D01*
X201287857Y-100996904D01*
X201345000Y-100996904D01*
X201430714Y-101035000D01*
X201459285Y-101073095D01*
X201973571Y-101263571D02*
X201973571Y-101796904D01*
X201830714Y-100958809D02*
X201687857Y-101530238D01*
X202059285Y-101530238D01*
X202545000Y-101263571D02*
X202545000Y-101796904D01*
X202402142Y-100958809D02*
X202259285Y-101530238D01*
X202630714Y-101530238D01*
X167255714Y-104785714D02*
X167293809Y-104814285D01*
X167331904Y-104900000D01*
X167331904Y-104957142D01*
X167293809Y-105042857D01*
X167217619Y-105100000D01*
X167141428Y-105128571D01*
X166989047Y-105157142D01*
X166874761Y-105157142D01*
X166722380Y-105128571D01*
X166646190Y-105100000D01*
X166570000Y-105042857D01*
X166531904Y-104957142D01*
X166531904Y-104900000D01*
X166570000Y-104814285D01*
X166608095Y-104785714D01*
X166531904Y-104585714D02*
X166531904Y-104214285D01*
X166836666Y-104414285D01*
X166836666Y-104328571D01*
X166874761Y-104271428D01*
X166912857Y-104242857D01*
X166989047Y-104214285D01*
X167179523Y-104214285D01*
X167255714Y-104242857D01*
X167293809Y-104271428D01*
X167331904Y-104328571D01*
X167331904Y-104500000D01*
X167293809Y-104557142D01*
X167255714Y-104585714D01*
X166531904Y-103842857D02*
X166531904Y-103785714D01*
X166570000Y-103728571D01*
X166608095Y-103700000D01*
X166684285Y-103671428D01*
X166836666Y-103642857D01*
X167027142Y-103642857D01*
X167179523Y-103671428D01*
X167255714Y-103700000D01*
X167293809Y-103728571D01*
X167331904Y-103785714D01*
X167331904Y-103842857D01*
X167293809Y-103900000D01*
X167255714Y-103928571D01*
X167179523Y-103957142D01*
X167027142Y-103985714D01*
X166836666Y-103985714D01*
X166684285Y-103957142D01*
X166608095Y-103928571D01*
X166570000Y-103900000D01*
X166531904Y-103842857D01*
X132624285Y-91605714D02*
X132595714Y-91643809D01*
X132510000Y-91681904D01*
X132452857Y-91681904D01*
X132367142Y-91643809D01*
X132310000Y-91567619D01*
X132281428Y-91491428D01*
X132252857Y-91339047D01*
X132252857Y-91224761D01*
X132281428Y-91072380D01*
X132310000Y-90996190D01*
X132367142Y-90920000D01*
X132452857Y-90881904D01*
X132510000Y-90881904D01*
X132595714Y-90920000D01*
X132624285Y-90958095D01*
X132910000Y-91681904D02*
X133024285Y-91681904D01*
X133081428Y-91643809D01*
X133110000Y-91605714D01*
X133167142Y-91491428D01*
X133195714Y-91339047D01*
X133195714Y-91034285D01*
X133167142Y-90958095D01*
X133138571Y-90920000D01*
X133081428Y-90881904D01*
X132967142Y-90881904D01*
X132910000Y-90920000D01*
X132881428Y-90958095D01*
X132852857Y-91034285D01*
X132852857Y-91224761D01*
X132881428Y-91300952D01*
X132910000Y-91339047D01*
X132967142Y-91377142D01*
X133081428Y-91377142D01*
X133138571Y-91339047D01*
X133167142Y-91300952D01*
X133195714Y-91224761D01*
X133424285Y-90958095D02*
X133452857Y-90920000D01*
X133510000Y-90881904D01*
X133652857Y-90881904D01*
X133710000Y-90920000D01*
X133738571Y-90958095D01*
X133767142Y-91034285D01*
X133767142Y-91110476D01*
X133738571Y-91224761D01*
X133395714Y-91681904D01*
X133767142Y-91681904D01*
X160264285Y-97761904D02*
X160064285Y-97380952D01*
X159921428Y-97761904D02*
X159921428Y-96961904D01*
X160150000Y-96961904D01*
X160207142Y-97000000D01*
X160235714Y-97038095D01*
X160264285Y-97114285D01*
X160264285Y-97228571D01*
X160235714Y-97304761D01*
X160207142Y-97342857D01*
X160150000Y-97380952D01*
X159921428Y-97380952D01*
X160464285Y-96961904D02*
X160835714Y-96961904D01*
X160635714Y-97266666D01*
X160721428Y-97266666D01*
X160778571Y-97304761D01*
X160807142Y-97342857D01*
X160835714Y-97419047D01*
X160835714Y-97609523D01*
X160807142Y-97685714D01*
X160778571Y-97723809D01*
X160721428Y-97761904D01*
X160550000Y-97761904D01*
X160492857Y-97723809D01*
X160464285Y-97685714D01*
X161350000Y-96961904D02*
X161235714Y-96961904D01*
X161178571Y-97000000D01*
X161150000Y-97038095D01*
X161092857Y-97152380D01*
X161064285Y-97304761D01*
X161064285Y-97609523D01*
X161092857Y-97685714D01*
X161121428Y-97723809D01*
X161178571Y-97761904D01*
X161292857Y-97761904D01*
X161350000Y-97723809D01*
X161378571Y-97685714D01*
X161407142Y-97609523D01*
X161407142Y-97419047D01*
X161378571Y-97342857D01*
X161350000Y-97304761D01*
X161292857Y-97266666D01*
X161178571Y-97266666D01*
X161121428Y-97304761D01*
X161092857Y-97342857D01*
X161064285Y-97419047D01*
X162050000Y-70911904D02*
X162050000Y-71483333D01*
X162021428Y-71597619D01*
X161964285Y-71673809D01*
X161878571Y-71711904D01*
X161821428Y-71711904D01*
X162278571Y-70911904D02*
X162678571Y-70911904D01*
X162421428Y-71711904D01*
X134735714Y-93867947D02*
X134773809Y-93896518D01*
X134811904Y-93982233D01*
X134811904Y-94039375D01*
X134773809Y-94125090D01*
X134697619Y-94182233D01*
X134621428Y-94210804D01*
X134469047Y-94239375D01*
X134354761Y-94239375D01*
X134202380Y-94210804D01*
X134126190Y-94182233D01*
X134050000Y-94125090D01*
X134011904Y-94039375D01*
X134011904Y-93982233D01*
X134050000Y-93896518D01*
X134088095Y-93867947D01*
X134011904Y-93353661D02*
X134011904Y-93467947D01*
X134050000Y-93525090D01*
X134088095Y-93553661D01*
X134202380Y-93610804D01*
X134354761Y-93639375D01*
X134659523Y-93639375D01*
X134735714Y-93610804D01*
X134773809Y-93582233D01*
X134811904Y-93525090D01*
X134811904Y-93410804D01*
X134773809Y-93353661D01*
X134735714Y-93325090D01*
X134659523Y-93296518D01*
X134469047Y-93296518D01*
X134392857Y-93325090D01*
X134354761Y-93353661D01*
X134316666Y-93410804D01*
X134316666Y-93525090D01*
X134354761Y-93582233D01*
X134392857Y-93610804D01*
X134469047Y-93639375D01*
X134088095Y-93067947D02*
X134050000Y-93039375D01*
X134011904Y-92982233D01*
X134011904Y-92839375D01*
X134050000Y-92782233D01*
X134088095Y-92753661D01*
X134164285Y-92725090D01*
X134240476Y-92725090D01*
X134354761Y-92753661D01*
X134811904Y-93096518D01*
X134811904Y-92725090D01*
X199994285Y-92481904D02*
X199794285Y-92100952D01*
X199651428Y-92481904D02*
X199651428Y-91681904D01*
X199880000Y-91681904D01*
X199937142Y-91720000D01*
X199965714Y-91758095D01*
X199994285Y-91834285D01*
X199994285Y-91948571D01*
X199965714Y-92024761D01*
X199937142Y-92062857D01*
X199880000Y-92100952D01*
X199651428Y-92100952D01*
X200222857Y-91758095D02*
X200251428Y-91720000D01*
X200308571Y-91681904D01*
X200451428Y-91681904D01*
X200508571Y-91720000D01*
X200537142Y-91758095D01*
X200565714Y-91834285D01*
X200565714Y-91910476D01*
X200537142Y-92024761D01*
X200194285Y-92481904D01*
X200565714Y-92481904D01*
X201137142Y-92481904D02*
X200794285Y-92481904D01*
X200965714Y-92481904D02*
X200965714Y-91681904D01*
X200908571Y-91796190D01*
X200851428Y-91872380D01*
X200794285Y-91910476D01*
X166450000Y-92211904D02*
X166250000Y-91830952D01*
X166107142Y-92211904D02*
X166107142Y-91411904D01*
X166335714Y-91411904D01*
X166392857Y-91450000D01*
X166421428Y-91488095D01*
X166450000Y-91564285D01*
X166450000Y-91678571D01*
X166421428Y-91754761D01*
X166392857Y-91792857D01*
X166335714Y-91830952D01*
X166107142Y-91830952D01*
X166992857Y-91411904D02*
X166707142Y-91411904D01*
X166678571Y-91792857D01*
X166707142Y-91754761D01*
X166764285Y-91716666D01*
X166907142Y-91716666D01*
X166964285Y-91754761D01*
X166992857Y-91792857D01*
X167021428Y-91869047D01*
X167021428Y-92059523D01*
X166992857Y-92135714D01*
X166964285Y-92173809D01*
X166907142Y-92211904D01*
X166764285Y-92211904D01*
X166707142Y-92173809D01*
X166678571Y-92135714D01*
X137850000Y-77461904D02*
X137850000Y-78033333D01*
X137821428Y-78147619D01*
X137764285Y-78223809D01*
X137678571Y-78261904D01*
X137621428Y-78261904D01*
X138107142Y-77538095D02*
X138135714Y-77500000D01*
X138192857Y-77461904D01*
X138335714Y-77461904D01*
X138392857Y-77500000D01*
X138421428Y-77538095D01*
X138450000Y-77614285D01*
X138450000Y-77690476D01*
X138421428Y-77804761D01*
X138078571Y-78261904D01*
X138450000Y-78261904D01*
X157822142Y-120491904D02*
X157822142Y-121139523D01*
X157850714Y-121215714D01*
X157879285Y-121253809D01*
X157936428Y-121291904D01*
X158050714Y-121291904D01*
X158107857Y-121253809D01*
X158136428Y-121215714D01*
X158165000Y-121139523D01*
X158165000Y-120491904D01*
X158765000Y-121291904D02*
X158422142Y-121291904D01*
X158593571Y-121291904D02*
X158593571Y-120491904D01*
X158536428Y-120606190D01*
X158479285Y-120682380D01*
X158422142Y-120720476D01*
X158965000Y-120491904D02*
X159336428Y-120491904D01*
X159136428Y-120796666D01*
X159222142Y-120796666D01*
X159279285Y-120834761D01*
X159307857Y-120872857D01*
X159336428Y-120949047D01*
X159336428Y-121139523D01*
X159307857Y-121215714D01*
X159279285Y-121253809D01*
X159222142Y-121291904D01*
X159050714Y-121291904D01*
X158993571Y-121253809D01*
X158965000Y-121215714D01*
X136400000Y-112011904D02*
X136400000Y-112583333D01*
X136371428Y-112697619D01*
X136314285Y-112773809D01*
X136228571Y-112811904D01*
X136171428Y-112811904D01*
X136942857Y-112278571D02*
X136942857Y-112811904D01*
X136800000Y-111973809D02*
X136657142Y-112545238D01*
X137028571Y-112545238D01*
X152775015Y-91020466D02*
X152822156Y-91013732D01*
X152909702Y-91047404D01*
X152950108Y-91087810D01*
X152983780Y-91175356D01*
X152970311Y-91269637D01*
X152936640Y-91343715D01*
X152849093Y-91471668D01*
X152768281Y-91552480D01*
X152640328Y-91640026D01*
X152566250Y-91673698D01*
X152471969Y-91687167D01*
X152384423Y-91653495D01*
X152344017Y-91613089D01*
X152310345Y-91525542D01*
X152317079Y-91478402D01*
X152263205Y-91047404D02*
X152276673Y-91114747D01*
X152269939Y-91161888D01*
X152236267Y-91235965D01*
X152209330Y-91262903D01*
X152135252Y-91296575D01*
X152088111Y-91303309D01*
X152020768Y-91289840D01*
X151939956Y-91209028D01*
X151926487Y-91141684D01*
X151933221Y-91094544D01*
X151966893Y-91020466D01*
X151993831Y-90993529D01*
X152067908Y-90959857D01*
X152115049Y-90953123D01*
X152182392Y-90966591D01*
X152263205Y-91047404D01*
X152330548Y-91060872D01*
X152377689Y-91054138D01*
X152451766Y-91020466D01*
X152559516Y-90912717D01*
X152593188Y-90838639D01*
X152599922Y-90791498D01*
X152586453Y-90724155D01*
X152505641Y-90643343D01*
X152438298Y-90629874D01*
X152391157Y-90636608D01*
X152317079Y-90670280D01*
X152209330Y-90778030D01*
X152175658Y-90852107D01*
X152168924Y-90899248D01*
X152182392Y-90966591D01*
X151684050Y-90575999D02*
X152061174Y-90198875D01*
X151569566Y-90892514D02*
X152074643Y-90589468D01*
X151812003Y-90326828D01*
D12*
X168807836Y-101210000D02*
X168592164Y-101210000D01*
X168807836Y-100490000D02*
X168592164Y-100490000D01*
X130059190Y-109248307D02*
X130211693Y-109400810D01*
X130568307Y-108739190D02*
X130720810Y-108891693D01*
X141540000Y-97842164D02*
X141540000Y-98057836D01*
X142260000Y-97842164D02*
X142260000Y-98057836D01*
X147092164Y-90640000D02*
X147307836Y-90640000D01*
X147092164Y-91360000D02*
X147307836Y-91360000D01*
D13*
X122960000Y-125600000D02*
X122960000Y-113600000D01*
X106960000Y-125600000D02*
X122960000Y-125600000D01*
X122960000Y-104300000D02*
X122960000Y-110100000D01*
D14*
X106360000Y-108600000D02*
X106360000Y-108600000D01*
D13*
X106960000Y-113600000D02*
X106960000Y-125600000D01*
X106960000Y-110100000D02*
X106960000Y-104300000D01*
X106960000Y-104300000D02*
X122960000Y-104300000D01*
D14*
X106360000Y-108400000D02*
X106360000Y-108400000D01*
X106360000Y-108400000D02*
G75*
G03*
X106360000Y-108600000I0J-100000D01*
G01*
X106360000Y-108600000D02*
G75*
G03*
X106360000Y-108400000I0J100000D01*
G01*
D12*
X141540000Y-88057836D02*
X141540000Y-87842164D01*
X142260000Y-88057836D02*
X142260000Y-87842164D01*
G36*
X197082098Y-70677142D02*
G01*
X197136669Y-70703931D01*
X197171792Y-70752152D01*
X197183500Y-70825375D01*
X197171594Y-70902567D01*
X197135875Y-70953169D01*
X197076741Y-70981148D01*
X196994588Y-70990475D01*
X196915213Y-70990475D01*
X196915213Y-70672975D01*
X196963631Y-70669006D01*
X197012050Y-70668212D01*
X197082098Y-70677142D01*
G37*
G36*
X195553931Y-71092869D02*
G01*
X195599175Y-71195263D01*
X195583300Y-71265906D01*
X195542819Y-71308769D01*
X195486462Y-71329406D01*
X195421375Y-71334963D01*
X195372956Y-71333375D01*
X195327712Y-71328613D01*
X195327712Y-71061913D01*
X195432487Y-71061913D01*
X195553931Y-71092869D01*
G37*
G36*
X195469000Y-70672181D02*
G01*
X195513450Y-70688056D01*
X195543612Y-70721394D01*
X195554725Y-70777750D01*
X195516625Y-70867444D01*
X195403912Y-70899987D01*
X195327712Y-70899987D01*
X195327712Y-70674562D01*
X195370575Y-70669800D01*
X195416612Y-70668212D01*
X195469000Y-70672181D01*
G37*
G36*
X197872475Y-70695994D02*
G01*
X197937563Y-70769812D01*
X197970900Y-70876175D01*
X197980425Y-71000000D01*
X197977448Y-71070048D01*
X197968519Y-71134144D01*
X197928831Y-71239713D01*
X197855806Y-71309563D01*
X197743888Y-71334963D01*
X197726425Y-71334963D01*
X197708963Y-71333375D01*
X197708963Y-70672975D01*
X197737538Y-70669006D01*
X197766113Y-70668212D01*
X197872475Y-70695994D01*
G37*
G36*
X193024956Y-71000000D02*
G01*
X193428533Y-70394633D01*
X198271467Y-70394633D01*
X198675044Y-71000000D01*
X198271467Y-71605367D01*
X193428533Y-71605367D01*
X193115972Y-71136525D01*
X193521137Y-71136525D01*
X193525106Y-71218281D01*
X193537012Y-71292100D01*
X193558444Y-71356791D01*
X193590987Y-71411163D01*
X193693381Y-71486569D01*
X193765414Y-71506214D01*
X193852925Y-71512763D01*
X193941825Y-71506214D01*
X194014850Y-71486569D01*
X194073587Y-71454620D01*
X194091035Y-71438150D01*
X194316475Y-71438150D01*
X194426012Y-71486569D01*
X194511341Y-71506214D01*
X194621275Y-71512763D01*
X194732665Y-71504384D01*
X194823417Y-71479249D01*
X194828436Y-71476250D01*
X195132450Y-71476250D01*
X195201109Y-71488752D01*
X195270562Y-71497681D01*
X195339222Y-71503039D01*
X195405500Y-71504825D01*
X195483883Y-71501055D01*
X195541692Y-71492125D01*
X196719950Y-71492125D01*
X196915213Y-71492125D01*
X196915213Y-71481013D01*
X197513700Y-71481013D01*
X197620856Y-71499269D01*
X197723250Y-71504825D01*
X197819095Y-71497880D01*
X197906606Y-71477044D01*
X197984195Y-71441127D01*
X198050275Y-71388938D01*
X198104052Y-71319683D01*
X198144731Y-71232569D01*
X198170330Y-71126405D01*
X198178863Y-71000000D01*
X198171123Y-70876373D01*
X198147906Y-70772194D01*
X198110798Y-70686072D01*
X198061388Y-70616619D01*
X197999673Y-70563636D01*
X197925656Y-70526925D01*
X197841320Y-70505494D01*
X197748650Y-70498350D01*
X197639113Y-70503112D01*
X197513700Y-70522162D01*
X197513700Y-71481013D01*
X196915213Y-71481013D01*
X196915213Y-71160338D01*
X196985063Y-71160338D01*
X197102449Y-71151606D01*
X197200610Y-71125413D01*
X197279544Y-71081756D01*
X197337311Y-71018521D01*
X197371972Y-70933590D01*
X197383525Y-70826962D01*
X197372060Y-70721394D01*
X197337664Y-70637521D01*
X197280338Y-70575344D01*
X197202197Y-70532569D01*
X197105360Y-70506905D01*
X196989825Y-70498350D01*
X196927913Y-70499938D01*
X196856475Y-70503906D01*
X196784244Y-70511050D01*
X196719950Y-70522162D01*
X196719950Y-71492125D01*
X195541692Y-71492125D01*
X195557106Y-71489744D01*
X195622987Y-71469503D01*
X195679344Y-71438944D01*
X195761100Y-71343694D01*
X195783722Y-71276820D01*
X195791262Y-71195263D01*
X195782333Y-71128588D01*
X195755544Y-71065088D01*
X195703752Y-71009525D01*
X195619812Y-70966662D01*
X195711094Y-70880937D01*
X195736692Y-70822994D01*
X195745225Y-70757112D01*
X195730937Y-70665037D01*
X195676962Y-70581694D01*
X195567425Y-70521369D01*
X195487256Y-70504105D01*
X195386450Y-70498350D01*
X195254687Y-70505494D01*
X195132450Y-70522162D01*
X195132450Y-71476250D01*
X194828436Y-71476250D01*
X194893531Y-71437356D01*
X194960802Y-71346273D01*
X194983225Y-71223838D01*
X194976478Y-71149820D01*
X194956237Y-71089694D01*
X194887181Y-71000794D01*
X194795106Y-70943644D01*
X194699062Y-70904750D01*
X194637944Y-70880937D01*
X194582381Y-70851569D01*
X194541900Y-70813469D01*
X194526025Y-70763462D01*
X194543311Y-70700844D01*
X194595169Y-70663274D01*
X194681600Y-70650750D01*
X194793519Y-70666625D01*
X194881625Y-70704725D01*
X194938775Y-70553912D01*
X194825269Y-70507875D01*
X194752045Y-70492397D01*
X194667312Y-70487237D01*
X194570034Y-70495881D01*
X194487749Y-70521810D01*
X194420456Y-70565025D01*
X194353186Y-70657894D01*
X194330762Y-70780925D01*
X194356162Y-70897606D01*
X194420456Y-70976187D01*
X194506975Y-71028575D01*
X194599050Y-71065088D01*
X194665725Y-71092869D01*
X194726050Y-71126206D01*
X194770500Y-71168275D01*
X194787962Y-71222250D01*
X194780819Y-71269081D01*
X194754625Y-71310356D01*
X194703031Y-71338931D01*
X194621275Y-71349250D01*
X194542098Y-71343694D01*
X194476019Y-71327025D01*
X194373625Y-71279400D01*
X194316475Y-71438150D01*
X194091035Y-71438150D01*
X194119625Y-71411163D01*
X194153359Y-71356791D01*
X194175187Y-71292100D01*
X194187094Y-71218281D01*
X194191062Y-71136525D01*
X194191062Y-70509462D01*
X193995800Y-70509462D01*
X193995800Y-71122238D01*
X193989450Y-71226219D01*
X193967225Y-71294481D01*
X193924362Y-71331788D01*
X193856100Y-71342900D01*
X193787837Y-71331788D01*
X193745769Y-71295275D01*
X193724337Y-71227806D01*
X193717987Y-71123825D01*
X193717987Y-70509462D01*
X193521137Y-70509462D01*
X193521137Y-71136525D01*
X193115972Y-71136525D01*
X193024956Y-71000000D01*
G37*
X139742164Y-100890000D02*
X139957836Y-100890000D01*
X139742164Y-101610000D02*
X139957836Y-101610000D01*
X172263896Y-85641399D02*
X172416399Y-85488896D01*
X171754779Y-85132282D02*
X171907282Y-84979779D01*
X164867164Y-91110000D02*
X165082836Y-91110000D01*
X164867164Y-90390000D02*
X165082836Y-90390000D01*
X199917164Y-103010000D02*
X200132836Y-103010000D01*
X199917164Y-102290000D02*
X200132836Y-102290000D01*
X196580000Y-81292164D02*
X196580000Y-81507836D01*
X197300000Y-81292164D02*
X197300000Y-81507836D01*
X134840000Y-106842164D02*
X134840000Y-107057836D01*
X135560000Y-106842164D02*
X135560000Y-107057836D01*
X160555000Y-119262836D02*
X160555000Y-119047164D01*
X161275000Y-119262836D02*
X161275000Y-119047164D01*
X208822875Y-92500000D02*
X210822875Y-92500000D01*
X210822875Y-92500000D02*
X210822875Y-93500000D01*
X210822875Y-93500000D02*
X208822875Y-93500000D01*
X208822875Y-93500000D02*
X208822875Y-92500000D01*
X130243324Y-107923223D02*
X132576777Y-110256676D01*
X132223223Y-105943324D02*
X130243324Y-107923223D01*
X175230810Y-85121693D02*
X175078307Y-84969190D01*
X174721693Y-85630810D02*
X174569190Y-85478307D01*
D14*
X149362340Y-108192830D02*
G75*
G03*
X149362340Y-108192830I-49340J0D01*
G01*
D12*
X171465000Y-88407836D02*
X171465000Y-88192164D01*
X172185000Y-88407836D02*
X172185000Y-88192164D01*
X186705000Y-90153641D02*
X186705000Y-89846359D01*
X187465000Y-90153641D02*
X187465000Y-89846359D01*
X208822875Y-89500000D02*
X210822875Y-89500000D01*
X210822875Y-89500000D02*
X210822875Y-90500000D01*
X210822875Y-90500000D02*
X208822875Y-90500000D01*
X208822875Y-90500000D02*
X208822875Y-89500000D01*
X199482836Y-96385000D02*
X199267164Y-96385000D01*
X199482836Y-95665000D02*
X199267164Y-95665000D01*
X162230000Y-111306000D02*
X162230000Y-108706000D01*
D13*
X177380000Y-123056000D02*
X177380000Y-119406000D01*
D14*
X167230000Y-123406000D02*
X167230000Y-123406000D01*
D13*
X164230000Y-119406000D02*
X164280000Y-123056000D01*
D12*
X179230000Y-108706000D02*
X179230000Y-111306000D01*
D14*
X167230000Y-123606000D02*
X167230000Y-123606000D01*
D12*
X162230000Y-108706000D02*
X179230000Y-108706000D01*
D13*
X177230000Y-123056000D02*
X177380000Y-123056000D01*
X164280000Y-123056000D02*
X177230000Y-123056000D01*
D14*
X167230000Y-123406000D02*
G75*
G03*
X167230000Y-123606000I0J-100000D01*
G01*
X167230000Y-123606000D02*
G75*
G03*
X167230000Y-123406000I0J100000D01*
G01*
D13*
X189815000Y-78360000D02*
X188965000Y-78360000D01*
X189815000Y-78460000D02*
X188965000Y-78460000D01*
X189940000Y-77135000D02*
X189940000Y-77460000D01*
X189940000Y-78385000D02*
X189940000Y-78685000D01*
X188960000Y-78460000D02*
X188960000Y-78260000D01*
X188840000Y-77435000D02*
X188840000Y-77135000D01*
X189690000Y-78685000D02*
X189940000Y-78685000D01*
X189815000Y-78260000D02*
X188965000Y-78260000D01*
X189940000Y-77135000D02*
X189690000Y-77135000D01*
X188840000Y-77135000D02*
X189065000Y-77135000D01*
X188840000Y-78385000D02*
X188840000Y-78685000D01*
X188840000Y-78685000D02*
X189090000Y-78685000D01*
X189820000Y-78460000D02*
X189820000Y-78260000D01*
D12*
X139510000Y-87792164D02*
X139510000Y-88007836D01*
X138790000Y-87792164D02*
X138790000Y-88007836D01*
X186865000Y-94467064D02*
X186865000Y-94012936D01*
X188335000Y-94467064D02*
X188335000Y-94012936D01*
X187870000Y-103223641D02*
X187870000Y-102916359D01*
X188630000Y-103223641D02*
X188630000Y-102916359D01*
X173483579Y-84982233D02*
X171857233Y-86608579D01*
X171857233Y-86608579D02*
X173766421Y-88517767D01*
X137346359Y-95880000D02*
X137653641Y-95880000D01*
X137346359Y-95120000D02*
X137653641Y-95120000D01*
X198482164Y-92860000D02*
X198697836Y-92860000D01*
X198482164Y-93580000D02*
X198697836Y-93580000D01*
X158692164Y-99390000D02*
X158907836Y-99390000D01*
X158692164Y-100110000D02*
X158907836Y-100110000D01*
X151318307Y-95050810D02*
X151470810Y-94898307D01*
X150809190Y-94541693D02*
X150961693Y-94389190D01*
X202140000Y-93762164D02*
X202140000Y-93977836D01*
X202860000Y-93762164D02*
X202860000Y-93977836D01*
X163440000Y-80650000D02*
X163440000Y-84860000D01*
X163440000Y-84860000D02*
X166460000Y-84860000D01*
X166460000Y-84860000D02*
X166460000Y-80650000D01*
X143540000Y-106150666D02*
X143540000Y-105934994D01*
X144260000Y-106150666D02*
X144260000Y-105934994D01*
X130278641Y-87530000D02*
X129971359Y-87530000D01*
X130278641Y-86770000D02*
X129971359Y-86770000D01*
D13*
X186160000Y-100200000D02*
G75*
G03*
X186160000Y-100200000I-50000J0D01*
G01*
D12*
X208822875Y-95500000D02*
X210822875Y-95500000D01*
X210822875Y-95500000D02*
X210822875Y-96500000D01*
X210822875Y-96500000D02*
X208822875Y-96500000D01*
X208822875Y-96500000D02*
X208822875Y-95500000D01*
X137040580Y-91960000D02*
X136759420Y-91960000D01*
X137040580Y-90940000D02*
X136759420Y-90940000D01*
X208822875Y-97000000D02*
X210822875Y-97000000D01*
X210822875Y-97000000D02*
X210822875Y-98000000D01*
X210822875Y-98000000D02*
X208822875Y-98000000D01*
X208822875Y-98000000D02*
X208822875Y-97000000D01*
X208822875Y-100000000D02*
X210822875Y-100000000D01*
X210822875Y-100000000D02*
X210822875Y-101000000D01*
X210822875Y-101000000D02*
X208822875Y-101000000D01*
X208822875Y-101000000D02*
X208822875Y-100000000D01*
X185580000Y-90153641D02*
X185580000Y-89846359D01*
X186340000Y-90153641D02*
X186340000Y-89846359D01*
X165078641Y-99120000D02*
X164771359Y-99120000D01*
X165078641Y-99880000D02*
X164771359Y-99880000D01*
X157290000Y-105042164D02*
X157290000Y-105257836D01*
X158010000Y-105042164D02*
X158010000Y-105257836D01*
X130017164Y-90010000D02*
X130232836Y-90010000D01*
X130017164Y-89290000D02*
X130232836Y-89290000D01*
X137040580Y-88340000D02*
X136759420Y-88340000D01*
X137040580Y-89360000D02*
X136759420Y-89360000D01*
X136610000Y-106842164D02*
X136610000Y-107057836D01*
X135890000Y-106842164D02*
X135890000Y-107057836D01*
X146720000Y-92596359D02*
X146720000Y-92903641D01*
X147480000Y-92596359D02*
X147480000Y-92903641D01*
X149740000Y-80600000D02*
X149740000Y-84810000D01*
X152760000Y-84810000D02*
X152760000Y-80600000D01*
X149740000Y-84810000D02*
X152760000Y-84810000D01*
X184842164Y-94820000D02*
X185057836Y-94820000D01*
X184842164Y-94100000D02*
X185057836Y-94100000D01*
X130017164Y-88710000D02*
X130232836Y-88710000D01*
X130017164Y-87990000D02*
X130232836Y-87990000D01*
X158692164Y-101170000D02*
X158907836Y-101170000D01*
X158692164Y-100450000D02*
X158907836Y-100450000D01*
X149957836Y-100110000D02*
X149742164Y-100110000D01*
X149957836Y-99390000D02*
X149742164Y-99390000D01*
X147649420Y-89260000D02*
X147930580Y-89260000D01*
X147649420Y-88240000D02*
X147930580Y-88240000D01*
D14*
X190815000Y-72760000D02*
X190815000Y-78950000D01*
X200665000Y-70060000D02*
X200665000Y-70460000D01*
X190815000Y-70060000D02*
X190815000Y-70460000D01*
X200665000Y-78950000D02*
X190815000Y-78950000D01*
X200665000Y-70060000D02*
X190815000Y-70060000D01*
X200665000Y-78950000D02*
X200665000Y-72760000D01*
X198640000Y-79610000D02*
G75*
G03*
X198640000Y-79610000I-100000J0D01*
G01*
D12*
X158978641Y-99030000D02*
X158671359Y-99030000D01*
X158978641Y-98270000D02*
X158671359Y-98270000D01*
X139290000Y-96160000D02*
X140015000Y-96160000D01*
X139290000Y-95435000D02*
X139290000Y-96160000D01*
X145510000Y-90665000D02*
X145510000Y-89940000D01*
X145510000Y-95435000D02*
X145510000Y-96160000D01*
X145510000Y-96160000D02*
X144785000Y-96160000D01*
X139290000Y-90665000D02*
X139290000Y-89940000D01*
X139290000Y-89940000D02*
X140015000Y-89940000D01*
X167770000Y-106367836D02*
X167770000Y-106152164D01*
X168490000Y-106367836D02*
X168490000Y-106152164D01*
X187046359Y-100920000D02*
X187353641Y-100920000D01*
X187046359Y-101680000D02*
X187353641Y-101680000D01*
X197950000Y-81302164D02*
X197950000Y-81517836D01*
X198670000Y-81302164D02*
X198670000Y-81517836D01*
X131990000Y-95357836D02*
X131990000Y-95142164D01*
X132710000Y-95357836D02*
X132710000Y-95142164D01*
X142850000Y-106147836D02*
X142850000Y-105932164D01*
X142130000Y-106147836D02*
X142130000Y-105932164D01*
X197645000Y-100675000D02*
X200945000Y-100675000D01*
X200945000Y-100675000D02*
X200945000Y-96675000D01*
X168807836Y-94810000D02*
X168592164Y-94810000D01*
X168807836Y-94090000D02*
X168592164Y-94090000D01*
X128730000Y-107903641D02*
X128730000Y-107596359D01*
X127970000Y-107903641D02*
X127970000Y-107596359D01*
X156860000Y-105042164D02*
X156860000Y-105257836D01*
X156140000Y-105042164D02*
X156140000Y-105257836D01*
X197760000Y-103382164D02*
X197760000Y-103597836D01*
X197040000Y-103382164D02*
X197040000Y-103597836D01*
X168807836Y-97690000D02*
X168592164Y-97690000D01*
X168807836Y-98410000D02*
X168592164Y-98410000D01*
X208822875Y-91000000D02*
X210822875Y-91000000D01*
X210822875Y-91000000D02*
X210822875Y-92000000D01*
X210822875Y-92000000D02*
X208822875Y-92000000D01*
X208822875Y-92000000D02*
X208822875Y-91000000D01*
X152065000Y-103610000D02*
X151590000Y-103610000D01*
X156335000Y-98390000D02*
X156810000Y-98390000D01*
X156810000Y-98390000D02*
X156810000Y-98865000D01*
X156335000Y-103610000D02*
X156810000Y-103610000D01*
X152065000Y-98390000D02*
X151590000Y-98390000D01*
X151590000Y-98390000D02*
X151590000Y-98865000D01*
X151590000Y-103610000D02*
X151590000Y-103135000D01*
X149957836Y-99060000D02*
X149742164Y-99060000D01*
X149957836Y-98340000D02*
X149742164Y-98340000D01*
D13*
X96460000Y-73532000D02*
X101460000Y-73532000D01*
X96510000Y-102033000D02*
X96460000Y-73532000D01*
D15*
X127460000Y-94307000D02*
X127460000Y-94307000D01*
D13*
X125460000Y-99807000D02*
X125460000Y-102033000D01*
D15*
X127560000Y-94307000D02*
X127560000Y-94307000D01*
D13*
X103460000Y-102033000D02*
X96510000Y-102033000D01*
X125460000Y-102033000D02*
X107460000Y-102033000D01*
D15*
X127460000Y-94307000D02*
G75*
G03*
X127560000Y-94307000I50000J0D01*
G01*
X127560000Y-94307000D02*
G75*
G03*
X127460000Y-94307000I-50000J0D01*
G01*
D12*
X188925000Y-90153641D02*
X188925000Y-89846359D01*
X189685000Y-90153641D02*
X189685000Y-89846359D01*
X151797767Y-93028579D02*
X150171421Y-91402233D01*
X150171421Y-91402233D02*
X148262233Y-93311421D01*
X158953641Y-103430000D02*
X158646359Y-103430000D01*
X158953641Y-102670000D02*
X158646359Y-102670000D01*
X165128641Y-94380000D02*
X164821359Y-94380000D01*
X165128641Y-93620000D02*
X164821359Y-93620000D01*
X208822875Y-101500000D02*
X210822875Y-101500000D01*
X210822875Y-101500000D02*
X210822875Y-102500000D01*
X210822875Y-102500000D02*
X208822875Y-102500000D01*
X208822875Y-102500000D02*
X208822875Y-101500000D01*
X150340000Y-105092164D02*
X150340000Y-105307836D01*
X151060000Y-105092164D02*
X151060000Y-105307836D01*
X165078641Y-101030000D02*
X164771359Y-101030000D01*
X165078641Y-100270000D02*
X164771359Y-100270000D01*
X184842164Y-99460000D02*
X185057836Y-99460000D01*
X184842164Y-98740000D02*
X185057836Y-98740000D01*
X149907836Y-102190000D02*
X149692164Y-102190000D01*
X149907836Y-102910000D02*
X149692164Y-102910000D01*
X208822875Y-104500000D02*
X210822875Y-104500000D01*
X210822875Y-104500000D02*
X210822875Y-105500000D01*
X210822875Y-105500000D02*
X208822875Y-105500000D01*
X208822875Y-105500000D02*
X208822875Y-104500000D01*
D14*
X170575000Y-90650000D02*
G75*
G03*
X170575000Y-90650000I-100000J0D01*
G01*
D12*
X149907836Y-104010000D02*
X149692164Y-104010000D01*
X149907836Y-103290000D02*
X149692164Y-103290000D01*
D16*
X138010000Y-96925000D02*
X137635000Y-96925000D01*
X138010000Y-105075000D02*
X138010000Y-104700000D01*
X129860000Y-105075000D02*
X129860000Y-104700000D01*
X129860000Y-96925000D02*
X130235000Y-96925000D01*
X138010000Y-105075000D02*
X137635000Y-105075000D01*
X138010000Y-96925000D02*
X138010000Y-97300000D01*
X129860000Y-96925000D02*
X129860000Y-97300000D01*
X129860000Y-105075000D02*
X130235000Y-105075000D01*
D14*
X129005000Y-97750000D02*
G75*
G03*
X129005000Y-97750000I-100000J0D01*
G01*
D12*
X165128641Y-93280000D02*
X164821359Y-93280000D01*
X165128641Y-92520000D02*
X164821359Y-92520000D01*
X165078641Y-101420000D02*
X164771359Y-101420000D01*
X165078641Y-102180000D02*
X164771359Y-102180000D01*
X208822875Y-98500000D02*
X210822875Y-98500000D01*
X210822875Y-98500000D02*
X210822875Y-99500000D01*
X210822875Y-99500000D02*
X208822875Y-99500000D01*
X208822875Y-99500000D02*
X208822875Y-98500000D01*
X137607836Y-92690000D02*
X137392164Y-92690000D01*
X137607836Y-93410000D02*
X137392164Y-93410000D01*
X208822875Y-103000000D02*
X210822875Y-103000000D01*
X210822875Y-103000000D02*
X210822875Y-104000000D01*
X210822875Y-104000000D02*
X208822875Y-104000000D01*
X208822875Y-104000000D02*
X208822875Y-103000000D01*
X151490000Y-105042164D02*
X151490000Y-105257836D01*
X152210000Y-105042164D02*
X152210000Y-105257836D01*
X195537500Y-92955000D02*
X197412500Y-92955000D01*
X197412500Y-92955000D02*
X197412500Y-94705000D01*
X188937500Y-101405000D02*
X188937500Y-99655000D01*
X188937500Y-94030000D02*
X188937500Y-94660000D01*
X190687500Y-101405000D02*
X188937500Y-101405000D01*
X190692500Y-92905000D02*
X190062500Y-92905000D01*
X197437500Y-101430000D02*
X197437500Y-99680000D01*
X190057500Y-92910000D02*
X188937500Y-94030000D01*
X195687500Y-101430000D02*
X197437500Y-101430000D01*
D14*
X188837500Y-93205000D02*
G75*
G03*
X188837500Y-93205000I-100000J0D01*
G01*
D17*
X202922500Y-122950000D02*
X202922500Y-120148000D01*
X187922500Y-122950000D02*
X202922500Y-122950000D01*
X187922500Y-122950000D02*
X187922500Y-120148000D01*
X200090500Y-109786000D02*
G75*
G03*
X200090500Y-109786000I-114000J0D01*
G01*
D12*
X155980000Y-117142164D02*
X155980000Y-117357836D01*
X156700000Y-117142164D02*
X156700000Y-117357836D01*
X208822875Y-94000000D02*
X210822875Y-94000000D01*
X210822875Y-94000000D02*
X210822875Y-95000000D01*
X210822875Y-95000000D02*
X208822875Y-95000000D01*
X208822875Y-95000000D02*
X208822875Y-94000000D01*
X184842164Y-100560000D02*
X185057836Y-100560000D01*
X184842164Y-99840000D02*
X185057836Y-99840000D01*
D13*
X187150000Y-104140000D02*
G75*
G03*
X187150000Y-104140000I-50000J0D01*
G01*
D12*
X147136359Y-87070000D02*
X147443641Y-87070000D01*
X147136359Y-87830000D02*
X147443641Y-87830000D01*
X147353641Y-96305000D02*
X147046359Y-96305000D01*
X147353641Y-95545000D02*
X147046359Y-95545000D01*
X187805000Y-90153641D02*
X187805000Y-89846359D01*
X188565000Y-90153641D02*
X188565000Y-89846359D01*
X208822875Y-88000000D02*
X210822875Y-88000000D01*
X210822875Y-88000000D02*
X210822875Y-89000000D01*
X210822875Y-89000000D02*
X208822875Y-89000000D01*
X208822875Y-89000000D02*
X208822875Y-88000000D01*
X128407836Y-105460000D02*
X128192164Y-105460000D01*
X128407836Y-104740000D02*
X128192164Y-104740000D01*
X165128641Y-89270000D02*
X164821359Y-89270000D01*
X165128641Y-90030000D02*
X164821359Y-90030000D01*
X149440000Y-78810000D02*
X152460000Y-78810000D01*
X152460000Y-78810000D02*
X152460000Y-74600000D01*
X149440000Y-74600000D02*
X149440000Y-78810000D01*
X134211693Y-108989190D02*
X134059190Y-109141693D01*
X134720810Y-109498307D02*
X134568307Y-109650810D01*
X199917164Y-101055000D02*
X200132836Y-101055000D01*
X199917164Y-101775000D02*
X200132836Y-101775000D01*
X166610000Y-106357836D02*
X166610000Y-106142164D01*
X167330000Y-106357836D02*
X167330000Y-106142164D01*
X130184420Y-90840000D02*
X130465580Y-90840000D01*
X130184420Y-91860000D02*
X130465580Y-91860000D01*
X159003641Y-97020000D02*
X158696359Y-97020000D01*
X159003641Y-97780000D02*
X158696359Y-97780000D01*
X155470000Y-71950000D02*
X155470000Y-69950000D01*
X161170000Y-71950000D02*
X161170000Y-73150000D01*
X154970000Y-71950000D02*
X155470000Y-71950000D01*
X161170000Y-75100000D02*
X161170000Y-80350000D01*
X154970000Y-76600000D02*
X154970000Y-75100000D01*
X155470000Y-69950000D02*
X160670000Y-69950000D01*
X160420000Y-84150000D02*
X154970000Y-84150000D01*
X154970000Y-73250000D02*
X153620000Y-73250000D01*
X154970000Y-73250000D02*
X154970000Y-71950000D01*
X160670000Y-69950000D02*
X160670000Y-71950000D01*
X154970000Y-82100000D02*
X154970000Y-78500000D01*
X161170000Y-82300000D02*
X161170000Y-82600000D01*
X154970000Y-75100000D02*
X153620000Y-75100000D01*
X160670000Y-71950000D02*
X161170000Y-71950000D01*
X134090000Y-95357836D02*
X134090000Y-95142164D01*
X134810000Y-95357836D02*
X134810000Y-95142164D01*
X198733641Y-91740000D02*
X198426359Y-91740000D01*
X198733641Y-92500000D02*
X198426359Y-92500000D01*
X165128641Y-92230000D02*
X164821359Y-92230000D01*
X165128641Y-91470000D02*
X164821359Y-91470000D01*
D14*
X145425000Y-70000000D02*
X130675000Y-70000000D01*
D13*
X135800000Y-86200000D02*
X135800000Y-86200000D01*
D14*
X132300000Y-84500000D02*
X135100000Y-84500000D01*
X130675000Y-70000000D02*
X130675000Y-72900000D01*
D13*
X135800000Y-86300000D02*
X135800000Y-86300000D01*
D14*
X145425000Y-82900000D02*
X145425000Y-75900000D01*
X145425000Y-72900000D02*
X145425000Y-70000000D01*
X130675000Y-75900000D02*
X130675000Y-82700000D01*
D13*
X135800000Y-86200000D02*
G75*
G03*
X135800000Y-86300000I0J-50000D01*
G01*
X135800000Y-86300000D02*
G75*
G03*
X135800000Y-86200000I0J50000D01*
G01*
D12*
X160185000Y-118250000D02*
X160185000Y-118900000D01*
X157065000Y-118250000D02*
X157065000Y-117600000D01*
X157065000Y-118250000D02*
X157065000Y-118900000D01*
X160185000Y-118250000D02*
X160185000Y-116575000D01*
D14*
X142850000Y-123526000D02*
X142850000Y-123526000D01*
D12*
X137850000Y-108626000D02*
X154850000Y-108626000D01*
D13*
X139900000Y-122976000D02*
X152850000Y-122976000D01*
D12*
X137850000Y-111226000D02*
X137850000Y-108626000D01*
D14*
X142850000Y-123326000D02*
X142850000Y-123326000D01*
D12*
X154850000Y-108626000D02*
X154850000Y-111226000D01*
D13*
X152850000Y-122976000D02*
X153000000Y-122976000D01*
X139850000Y-119326000D02*
X139900000Y-122976000D01*
X153000000Y-122976000D02*
X153000000Y-119326000D01*
D14*
X142850000Y-123326000D02*
G75*
G03*
X142850000Y-123526000I0J-100000D01*
G01*
X142850000Y-123526000D02*
G75*
G03*
X142850000Y-123326000I0J100000D01*
G01*
D12*
X151149190Y-91948307D02*
X151301693Y-92100810D01*
X151658307Y-91439190D02*
X151810810Y-91591693D01*
M02*
